G04*
G04 #@! TF.GenerationSoftware,Altium Limited,Altium Designer,19.1.5 (86)*
G04*
G04 Layer_Color=0*
%FSLAX25Y25*%
%MOIN*%
G70*
G01*
G75*
%ADD48C,0.00394*%
D48*
X205984Y62244D02*
X209921D01*
X207953Y60276D02*
Y64213D01*
X196614Y63071D02*
X200551D01*
X198583Y61102D02*
Y65039D01*
X203031Y159567D02*
X206968D01*
X205000Y157598D02*
Y161535D01*
X41693Y163622D02*
X45630D01*
X43661Y161653D02*
Y165591D01*
X50887Y162835D02*
X54824D01*
X52856Y160866D02*
Y164803D01*
X229724Y165157D02*
X233661D01*
X231693Y163189D02*
Y167126D01*
X218156Y121693D02*
Y125630D01*
X216188Y123661D02*
X220125D01*
X206890Y111195D02*
Y115132D01*
X204921Y113164D02*
X208858D01*
X104894Y101417D02*
X108831D01*
X106863Y99449D02*
Y103386D01*
X195630Y100698D02*
Y104635D01*
X193661Y102666D02*
X197598D01*
X115577Y101417D02*
X119514D01*
X117546Y99449D02*
Y103386D01*
X94212Y101417D02*
X98149D01*
X96180Y99449D02*
Y103386D01*
X126260Y101417D02*
X130197D01*
X128228Y99449D02*
Y103386D01*
X186811Y87728D02*
X190748D01*
X188779Y85760D02*
Y89697D01*
X157848Y62953D02*
X161785D01*
X159817Y60984D02*
Y64921D01*
X74646Y81403D02*
X78583D01*
X76614Y79435D02*
Y83372D01*
X147165Y63071D02*
X151102D01*
X149134Y61102D02*
Y65039D01*
X168531Y63071D02*
X172468D01*
X170499Y61102D02*
Y65039D01*
X136417Y62953D02*
X140354D01*
X138386Y60984D02*
Y64921D01*
X74646Y62244D02*
X78583D01*
X76614Y60276D02*
Y64213D01*
X104894Y130079D02*
X108831D01*
X106863Y128110D02*
Y132047D01*
X115577Y129764D02*
X119514D01*
X117546Y127795D02*
Y131732D01*
X94212Y129764D02*
X98149D01*
X96180Y127795D02*
Y131732D01*
X126260Y129452D02*
X130197D01*
X128228Y127483D02*
Y131420D01*
M02*
