G04*
G04 #@! TF.GenerationSoftware,Altium Limited,Altium Designer,19.1.5 (86)*
G04*
G04 Layer_Physical_Order=1*
G04 Layer_Color=255*
%FSLAX25Y25*%
%MOIN*%
G70*
G01*
G75*
%ADD14R,0.04331X0.04921*%
%ADD15R,0.06741X0.04166*%
%ADD16R,0.04921X0.07284*%
%ADD17R,0.04166X0.06741*%
%ADD18R,0.07111X0.05136*%
%ADD19O,0.07480X0.02362*%
%ADD27C,0.04724*%
%ADD28R,0.04724X0.04724*%
%ADD32C,0.02362*%
%ADD33C,0.07874*%
%ADD34C,0.06740*%
%ADD35C,0.07284*%
%ADD36C,0.04165*%
%ADD37C,0.04921*%
%ADD38C,0.05906*%
%ADD39C,0.19685*%
%ADD40C,0.06102*%
%ADD41R,0.06102X0.06102*%
%ADD42R,0.06693X0.06693*%
%ADD43C,0.06693*%
%ADD44C,0.07087*%
%ADD45R,0.07087X0.07087*%
%ADD46C,0.05000*%
G36*
X267482Y191302D02*
X267419Y191242D01*
X266979Y190782D01*
X266562Y190301D01*
X266166Y189802D01*
X265794Y189286D01*
X265447Y188752D01*
X265124Y188203D01*
X264827Y187640D01*
X264557Y187063D01*
X264313Y186475D01*
X264097Y185876D01*
X263908Y185268D01*
X263748Y184652D01*
X263617Y184029D01*
X263514Y183400D01*
X263441Y182768D01*
X263397Y182133D01*
X263382Y181496D01*
X263397Y180859D01*
X263441Y180224D01*
X263514Y179592D01*
X263617Y178963D01*
X263748Y178340D01*
X263908Y177724D01*
X264097Y177116D01*
X264313Y176517D01*
X264557Y175929D01*
X264827Y175352D01*
X265124Y174789D01*
X265447Y174240D01*
X265794Y173707D01*
X266166Y173190D01*
X266562Y172691D01*
X266979Y172210D01*
X267419Y171750D01*
X267880Y171310D01*
X268360Y170892D01*
X268859Y170497D01*
X269376Y170125D01*
X269909Y169777D01*
X270458Y169455D01*
X271022Y169158D01*
X271598Y168887D01*
X272186Y168644D01*
X272785Y168427D01*
X273393Y168239D01*
X274010Y168079D01*
X274633Y167948D01*
X275261Y167845D01*
X275894Y167772D01*
X276529Y167728D01*
X277165Y167713D01*
X277802Y167728D01*
X278437Y167772D01*
X279070Y167845D01*
X279698Y167948D01*
X280321Y168079D01*
X280937Y168239D01*
X281545Y168427D01*
X282144Y168644D01*
X282733Y168887D01*
X283309Y169158D01*
X283872Y169455D01*
X284421Y169777D01*
X284955Y170125D01*
X285472Y170497D01*
X285971Y170892D01*
X286451Y171310D01*
X286912Y171750D01*
X287351Y172210D01*
X287365Y172226D01*
X287402Y172212D01*
X287402Y131929D01*
X287402Y131890D01*
X287362Y131890D01*
X198819Y131890D01*
X181496Y114567D01*
X181496Y107858D01*
X167205D01*
X166839Y107845D01*
X166476Y107806D01*
X166116Y107741D01*
X165762Y107650D01*
X165415Y107535D01*
X165077Y107395D01*
X164750Y107231D01*
X164436Y107045D01*
X164136Y106836D01*
X163851Y106607D01*
X163583Y106358D01*
X163334Y106090D01*
X163105Y105805D01*
X162896Y105505D01*
X162710Y105191D01*
X162546Y104864D01*
X162406Y104526D01*
X162291Y104179D01*
X162200Y103825D01*
X162136Y103465D01*
X162096Y103102D01*
X162083Y102736D01*
X162096Y102371D01*
X162136Y102007D01*
X162200Y101648D01*
X162291Y101293D01*
X162406Y100946D01*
X162546Y100609D01*
X162710Y100282D01*
X162737Y100236D01*
X162710Y100191D01*
X162546Y99864D01*
X162406Y99526D01*
X162291Y99179D01*
X162200Y98825D01*
X162136Y98465D01*
X162096Y98102D01*
X162083Y97736D01*
X162096Y97371D01*
X162136Y97007D01*
X162200Y96648D01*
X162291Y96293D01*
X162406Y95947D01*
X162546Y95609D01*
X162710Y95282D01*
X162737Y95236D01*
X162710Y95191D01*
X162546Y94864D01*
X162406Y94526D01*
X162291Y94179D01*
X162200Y93825D01*
X162136Y93465D01*
X162096Y93102D01*
X162083Y92736D01*
X162096Y92371D01*
X162136Y92007D01*
X162200Y91648D01*
X162291Y91293D01*
X162406Y90947D01*
X162546Y90609D01*
X162710Y90282D01*
X162875Y90003D01*
X162853Y89964D01*
X158171D01*
X158149Y90003D01*
X158314Y90282D01*
X158477Y90609D01*
X158617Y90947D01*
X158733Y91293D01*
X158823Y91648D01*
X158888Y92007D01*
X158927Y92371D01*
X158940Y92736D01*
X158927Y93102D01*
X158888Y93465D01*
X158823Y93825D01*
X158733Y94179D01*
X158617Y94526D01*
X158477Y94864D01*
X158314Y95191D01*
X158287Y95236D01*
X158314Y95282D01*
X158477Y95609D01*
X158617Y95947D01*
X158733Y96293D01*
X158823Y96648D01*
X158888Y97007D01*
X158927Y97371D01*
X158940Y97736D01*
X158927Y98102D01*
X158888Y98465D01*
X158823Y98825D01*
X158733Y99179D01*
X158617Y99526D01*
X158477Y99864D01*
X158314Y100191D01*
X158287Y100236D01*
X158314Y100282D01*
X158477Y100609D01*
X158617Y100946D01*
X158733Y101293D01*
X158823Y101648D01*
X158888Y102007D01*
X158927Y102371D01*
X158940Y102736D01*
X158927Y103102D01*
X158888Y103465D01*
X158823Y103825D01*
X158733Y104179D01*
X158617Y104526D01*
X158477Y104864D01*
X158314Y105191D01*
X158287Y105236D01*
X158314Y105282D01*
X158477Y105609D01*
X158617Y105947D01*
X158733Y106293D01*
X158823Y106648D01*
X158888Y107007D01*
X158927Y107371D01*
X158940Y107736D01*
X158927Y108102D01*
X158888Y108465D01*
X158823Y108825D01*
X158733Y109179D01*
X158617Y109526D01*
X158477Y109864D01*
X158314Y110191D01*
X158127Y110505D01*
X157919Y110805D01*
X157689Y111090D01*
X157440Y111358D01*
X157173Y111607D01*
X156888Y111836D01*
X156588Y112045D01*
X156273Y112231D01*
X155946Y112395D01*
X155609Y112535D01*
X155262Y112650D01*
X154908Y112741D01*
X154548Y112805D01*
X154184Y112845D01*
X153819Y112858D01*
X138485D01*
X138484Y112858D01*
X138119Y112845D01*
X137755Y112805D01*
X137396Y112741D01*
X137041Y112650D01*
X136695Y112535D01*
X136357Y112395D01*
X136030Y112231D01*
X135715Y112045D01*
X135415Y111836D01*
X135131Y111607D01*
X134863Y111358D01*
X134863Y111357D01*
X132875Y109369D01*
X132626Y109102D01*
X132396Y108817D01*
X132188Y108517D01*
X132001Y108202D01*
X131837Y107876D01*
X131698Y107538D01*
X131582Y107191D01*
X131492Y106837D01*
X131427Y106477D01*
X131388Y106113D01*
X131375Y105748D01*
X131375Y105748D01*
Y102408D01*
X124853D01*
Y113055D01*
X114355D01*
Y113437D01*
X99370D01*
Y113055D01*
X88873D01*
Y101015D01*
Y89779D01*
X91257D01*
X91269Y89665D01*
X91334Y89305D01*
X91425Y88951D01*
X91540Y88604D01*
X91680Y88266D01*
X91844Y87939D01*
X92030Y87625D01*
X92239Y87325D01*
X92468Y87040D01*
X92717Y86772D01*
X96852Y82638D01*
X93229Y79015D01*
X92980Y78747D01*
X92751Y78463D01*
X92542Y78162D01*
X92356Y77848D01*
X92192Y77521D01*
X92052Y77183D01*
X91936Y76837D01*
X91846Y76482D01*
X91781Y76123D01*
X91773Y76052D01*
X91523Y75903D01*
X91222Y75694D01*
X90938Y75465D01*
X90670Y75216D01*
X90421Y74948D01*
X90192Y74664D01*
X89983Y74363D01*
X89796Y74049D01*
X89633Y73722D01*
X89493Y73384D01*
X89377Y73037D01*
X89287Y72683D01*
X89222Y72323D01*
X89183Y71960D01*
X89170Y71595D01*
X89183Y71229D01*
X89222Y70866D01*
X89281Y70537D01*
X89245Y70517D01*
X87598Y72165D01*
X87330Y72414D01*
X87046Y72643D01*
X86745Y72852D01*
X86431Y73038D01*
X86104Y73202D01*
X85766Y73342D01*
X85419Y73457D01*
X85065Y73548D01*
X84705Y73613D01*
X84342Y73652D01*
X83976Y73665D01*
X83976Y73665D01*
X83925D01*
Y74134D01*
X83921Y74245D01*
Y81001D01*
Y88314D01*
X83925Y88425D01*
Y93031D01*
X83925Y93032D01*
X83909Y93510D01*
X83863Y93986D01*
X83858Y94012D01*
X83858Y101181D01*
X62599Y122441D01*
X4331Y122441D01*
X4331Y122480D01*
X4331Y171798D01*
X4367Y171812D01*
X4427Y171750D01*
X4888Y171310D01*
X5368Y170892D01*
X5867Y170497D01*
X6384Y170125D01*
X6917Y169777D01*
X7466Y169455D01*
X8029Y169158D01*
X8606Y168887D01*
X9194Y168644D01*
X9793Y168427D01*
X10401Y168239D01*
X11018Y168079D01*
X11641Y167948D01*
X12269Y167845D01*
X12901Y167772D01*
X13537Y167728D01*
X14173Y167713D01*
X14810Y167728D01*
X15445Y167772D01*
X16078Y167845D01*
X16706Y167948D01*
X17329Y168079D01*
X17945Y168239D01*
X18553Y168427D01*
X19152Y168644D01*
X19741Y168887D01*
X20317Y169158D01*
X20880Y169455D01*
X21429Y169777D01*
X21963Y170125D01*
X22479Y170497D01*
X22979Y170892D01*
X23459Y171310D01*
X23919Y171750D01*
X24359Y172210D01*
X24777Y172691D01*
X25172Y173190D01*
X25544Y173707D01*
X25892Y174240D01*
X26215Y174789D01*
X26511Y175352D01*
X26782Y175929D01*
X27026Y176517D01*
X27242Y177116D01*
X27430Y177724D01*
X27590Y178340D01*
X27722Y178963D01*
X27824Y179592D01*
X27898Y180224D01*
X27942Y180859D01*
X27956Y181496D01*
X27942Y182133D01*
X27898Y182768D01*
X27824Y183400D01*
X27722Y184029D01*
X27590Y184652D01*
X27430Y185268D01*
X27242Y185876D01*
X27026Y186475D01*
X26782Y187063D01*
X26511Y187640D01*
X26215Y188203D01*
X25892Y188752D01*
X25544Y189286D01*
X25172Y189802D01*
X24777Y190301D01*
X24359Y190782D01*
X23919Y191242D01*
X23857Y191302D01*
X23871Y191339D01*
X267467Y191339D01*
X267482Y191302D01*
D02*
G37*
G36*
X181468Y95276D02*
X181472Y95156D01*
Y87327D01*
X196087D01*
Y88583D01*
X287362Y88583D01*
X287402Y88543D01*
X287402Y23851D01*
X287365Y23837D01*
X287351Y23853D01*
X286912Y24313D01*
X286451Y24753D01*
X285971Y25171D01*
X285472Y25566D01*
X284955Y25938D01*
X284421Y26286D01*
X283872Y26608D01*
X283309Y26905D01*
X282733Y27176D01*
X282144Y27419D01*
X281545Y27636D01*
X280937Y27824D01*
X280321Y27984D01*
X279698Y28115D01*
X279070Y28218D01*
X278437Y28291D01*
X277802Y28335D01*
X277165Y28350D01*
X276529Y28335D01*
X275894Y28291D01*
X275261Y28218D01*
X274633Y28115D01*
X274010Y27984D01*
X273393Y27824D01*
X272785Y27636D01*
X272186Y27419D01*
X271598Y27176D01*
X271022Y26905D01*
X270458Y26608D01*
X269909Y26286D01*
X269376Y25938D01*
X268859Y25566D01*
X268360Y25171D01*
X267880Y24753D01*
X267419Y24313D01*
X266979Y23853D01*
X266562Y23372D01*
X266166Y22873D01*
X265794Y22356D01*
X265447Y21823D01*
X265124Y21274D01*
X264827Y20711D01*
X264557Y20134D01*
X264313Y19546D01*
X264097Y18947D01*
X263908Y18339D01*
X263748Y17723D01*
X263617Y17100D01*
X263514Y16471D01*
X263441Y15839D01*
X263397Y15203D01*
X263382Y14567D01*
X263397Y13930D01*
X263441Y13295D01*
X263514Y12663D01*
X263617Y12034D01*
X263748Y11411D01*
X263908Y10795D01*
X264097Y10187D01*
X264313Y9588D01*
X264557Y9000D01*
X264827Y8423D01*
X265124Y7860D01*
X265447Y7311D01*
X265794Y6778D01*
X266166Y6261D01*
X266562Y5762D01*
X266979Y5281D01*
X267419Y4821D01*
X267482Y4761D01*
X267467Y4724D01*
X23871Y4724D01*
X23857Y4761D01*
X23919Y4821D01*
X24359Y5281D01*
X24777Y5762D01*
X25172Y6261D01*
X25544Y6778D01*
X25892Y7311D01*
X26215Y7860D01*
X26511Y8423D01*
X26782Y9000D01*
X27026Y9588D01*
X27242Y10187D01*
X27430Y10795D01*
X27590Y11411D01*
X27722Y12034D01*
X27824Y12663D01*
X27898Y13295D01*
X27942Y13930D01*
X27956Y14567D01*
X27942Y15203D01*
X27898Y15839D01*
X27824Y16471D01*
X27722Y17100D01*
X27590Y17723D01*
X27430Y18339D01*
X27242Y18947D01*
X27026Y19546D01*
X26782Y20134D01*
X26511Y20711D01*
X26215Y21274D01*
X25892Y21823D01*
X25544Y22356D01*
X25172Y22873D01*
X24777Y23372D01*
X24359Y23853D01*
X23919Y24313D01*
X23459Y24753D01*
X22979Y25171D01*
X22479Y25566D01*
X21963Y25938D01*
X21429Y26286D01*
X20880Y26608D01*
X20317Y26905D01*
X19741Y27176D01*
X19152Y27419D01*
X18553Y27636D01*
X17945Y27824D01*
X17329Y27984D01*
X16706Y28115D01*
X16078Y28218D01*
X15445Y28291D01*
X14810Y28335D01*
X14173Y28350D01*
X13537Y28335D01*
X12901Y28291D01*
X12269Y28218D01*
X11641Y28115D01*
X11018Y27984D01*
X10401Y27824D01*
X9793Y27636D01*
X9194Y27419D01*
X8606Y27176D01*
X8029Y26905D01*
X7466Y26608D01*
X6917Y26286D01*
X6384Y25938D01*
X5867Y25566D01*
X5368Y25171D01*
X4888Y24753D01*
X4427Y24313D01*
X4367Y24250D01*
X4331Y24265D01*
X4331Y87362D01*
X4331Y87402D01*
X4370Y87402D01*
X60236Y87402D01*
Y61811D01*
X83466D01*
X87304Y57973D01*
X87304Y57973D01*
X87571Y57724D01*
X87856Y57495D01*
X88156Y57286D01*
X88471Y57100D01*
X88798Y56936D01*
X89135Y56796D01*
X89482Y56681D01*
X89837Y56590D01*
X90196Y56525D01*
X90560Y56486D01*
X90925Y56473D01*
X90926Y56473D01*
X99409D01*
X99775Y56486D01*
X100138Y56525D01*
X100498Y56590D01*
X100852Y56681D01*
X101199Y56796D01*
X101537Y56936D01*
X101864Y57100D01*
X102178Y57286D01*
X102479Y57495D01*
X102763Y57724D01*
X103031Y57973D01*
X103280Y58241D01*
X103509Y58525D01*
X103718Y58826D01*
X103904Y59140D01*
X104068Y59467D01*
X104208Y59805D01*
X104323Y60152D01*
X104414Y60506D01*
X104479Y60866D01*
X104518Y61229D01*
X104531Y61594D01*
X104518Y61960D01*
X104479Y62323D01*
X104414Y62683D01*
X104323Y63037D01*
X104208Y63384D01*
X104068Y63722D01*
X103904Y64049D01*
X103877Y64095D01*
X103904Y64140D01*
X104068Y64467D01*
X104208Y64805D01*
X104323Y65152D01*
X104414Y65506D01*
X104479Y65866D01*
X104518Y66229D01*
X104531Y66594D01*
X104518Y66960D01*
X104479Y67323D01*
X104414Y67683D01*
X104323Y68037D01*
X104208Y68384D01*
X104068Y68722D01*
X103904Y69049D01*
X103877Y69095D01*
X103904Y69140D01*
X104068Y69467D01*
X104208Y69805D01*
X104323Y70152D01*
X104414Y70506D01*
X104479Y70866D01*
X104518Y71229D01*
X104531Y71595D01*
X104518Y71960D01*
X104479Y72323D01*
X104414Y72683D01*
X104323Y73037D01*
X104208Y73384D01*
X104068Y73722D01*
X103904Y74049D01*
X103718Y74363D01*
X103509Y74664D01*
X103444Y74745D01*
X103932Y75233D01*
X109136D01*
X109153Y75194D01*
X108925Y74948D01*
X108695Y74664D01*
X108487Y74363D01*
X108300Y74049D01*
X108137Y73722D01*
X107997Y73384D01*
X107881Y73037D01*
X107791Y72683D01*
X107726Y72323D01*
X107687Y71960D01*
X107674Y71595D01*
X107687Y71229D01*
X107726Y70866D01*
X107791Y70506D01*
X107881Y70152D01*
X107997Y69805D01*
X108137Y69467D01*
X108300Y69140D01*
X108327Y69095D01*
X108300Y69049D01*
X108137Y68722D01*
X107997Y68384D01*
X107881Y68037D01*
X107791Y67683D01*
X107726Y67323D01*
X107687Y66960D01*
X107674Y66594D01*
X107687Y66229D01*
X107726Y65866D01*
X107791Y65506D01*
X107881Y65152D01*
X107997Y64805D01*
X108137Y64467D01*
X108300Y64140D01*
X108327Y64095D01*
X108300Y64049D01*
X108137Y63722D01*
X107997Y63384D01*
X107881Y63037D01*
X107791Y62683D01*
X107726Y62323D01*
X107687Y61960D01*
X107674Y61594D01*
X107687Y61229D01*
X107726Y60866D01*
X107791Y60506D01*
X107881Y60152D01*
X107997Y59805D01*
X108137Y59467D01*
X108300Y59140D01*
X108327Y59095D01*
X108300Y59049D01*
X108137Y58722D01*
X107997Y58384D01*
X107881Y58037D01*
X107791Y57683D01*
X107726Y57323D01*
X107687Y56960D01*
X107674Y56595D01*
X107687Y56229D01*
X107726Y55866D01*
X107791Y55506D01*
X107881Y55152D01*
X107997Y54805D01*
X108137Y54467D01*
X108300Y54140D01*
X108487Y53826D01*
X108695Y53525D01*
X108925Y53241D01*
X109174Y52973D01*
X109441Y52724D01*
X109726Y52495D01*
X110026Y52286D01*
X110341Y52100D01*
X110668Y51936D01*
X111005Y51796D01*
X111352Y51681D01*
X111707Y51590D01*
X112066Y51525D01*
X112430Y51486D01*
X112795Y51473D01*
X125216D01*
X125216Y51473D01*
X125582Y51486D01*
X125945Y51525D01*
X126305Y51590D01*
X126659Y51681D01*
X127006Y51796D01*
X127344Y51936D01*
X127671Y52100D01*
X127985Y52286D01*
X128286Y52495D01*
X128570Y52724D01*
X128838Y52973D01*
X134015Y58150D01*
X134264Y58418D01*
X134494Y58702D01*
X134702Y59003D01*
X134889Y59317D01*
X135052Y59644D01*
X135192Y59982D01*
X135308Y60329D01*
X135398Y60683D01*
X135463Y61043D01*
X135502Y61406D01*
X135515Y61772D01*
X135515Y61772D01*
Y61962D01*
X141826D01*
Y51433D01*
X149027D01*
X149134Y51429D01*
X152324D01*
Y50933D01*
X167309D01*
Y51429D01*
X170499D01*
X170607Y51433D01*
X177807D01*
Y62669D01*
Y74709D01*
X175605D01*
X175569Y75044D01*
X175504Y75404D01*
X175413Y75758D01*
X175298Y76105D01*
X175158Y76443D01*
X174994Y76770D01*
X174808Y77084D01*
X174599Y77384D01*
X174370Y77669D01*
X174121Y77937D01*
X174121Y77937D01*
X169906Y82151D01*
X173385Y85631D01*
X173385Y85631D01*
X173634Y85898D01*
X173864Y86183D01*
X174072Y86483D01*
X174259Y86798D01*
X174422Y87125D01*
X174504Y87322D01*
X174562Y87462D01*
X174678Y87809D01*
X174768Y88163D01*
X174783Y88245D01*
X175092Y88428D01*
X175392Y88636D01*
X175677Y88866D01*
X175944Y89115D01*
X176193Y89382D01*
X176423Y89667D01*
X176631Y89967D01*
X176818Y90282D01*
X176981Y90609D01*
X177121Y90947D01*
X177237Y91293D01*
X177327Y91648D01*
X177392Y92007D01*
X177431Y92371D01*
X177444Y92736D01*
X177431Y93102D01*
X177392Y93465D01*
X177327Y93825D01*
X177237Y94179D01*
X177121Y94526D01*
X176981Y94864D01*
X176818Y95191D01*
X176791Y95236D01*
X176818Y95282D01*
X176981Y95609D01*
X177121Y95947D01*
X177237Y96293D01*
X177327Y96648D01*
X177392Y97007D01*
X177431Y97371D01*
X177440Y97615D01*
X181468D01*
Y95276D01*
D02*
G37*
%LPC*%
G36*
X226122Y184531D02*
X226122Y184531D01*
X167694D01*
X167579Y184528D01*
X166571D01*
X166457Y184531D01*
X148504D01*
X148389Y184528D01*
X147302D01*
X147188Y184531D01*
X112579D01*
X112579Y184531D01*
X112578Y184531D01*
X67776D01*
X67318Y184517D01*
X66862Y184476D01*
X66409Y184407D01*
X65961Y184311D01*
X65778Y184260D01*
X47343D01*
X46864Y184244D01*
X46388Y184197D01*
X45916Y184119D01*
X45450Y184011D01*
X44993Y183872D01*
X44545Y183703D01*
X44109Y183506D01*
X43687Y183280D01*
X43281Y183028D01*
X42892Y182749D01*
X42522Y182446D01*
X42173Y182118D01*
X38492Y178438D01*
X38165Y178088D01*
X37861Y177719D01*
X37583Y177330D01*
X37330Y176924D01*
X37105Y176502D01*
X36907Y176066D01*
X36739Y175618D01*
X36630Y175260D01*
X36354D01*
Y173372D01*
X36351Y173268D01*
Y170945D01*
X36354Y170841D01*
Y163220D01*
Y151984D01*
X43562D01*
X43661Y151980D01*
X43669Y151981D01*
X46753D01*
Y151811D01*
X58958D01*
Y164606D01*
X50969D01*
Y169638D01*
X65778D01*
X65961Y169587D01*
X66409Y169491D01*
X66862Y169422D01*
X67318Y169380D01*
X67776Y169367D01*
X83154D01*
X83178Y169335D01*
X83128Y169172D01*
X83024Y168726D01*
X82950Y168275D01*
X82905Y167819D01*
X82890Y167362D01*
X82905Y166905D01*
X82950Y166450D01*
X83024Y165998D01*
X83128Y165553D01*
X83261Y165115D01*
X83422Y164687D01*
X83611Y164270D01*
X83827Y163866D01*
X84068Y163478D01*
X84335Y163106D01*
X84625Y162752D01*
X84938Y162418D01*
X85272Y162105D01*
X85625Y161815D01*
X85997Y161549D01*
X86386Y161307D01*
X86789Y161091D01*
X87206Y160903D01*
X87634Y160741D01*
X88072Y160608D01*
X88518Y160505D01*
X88969Y160430D01*
X89425Y160385D01*
X89882Y160370D01*
X90339Y160385D01*
X90794Y160430D01*
X91246Y160505D01*
X91691Y160608D01*
X92129Y160741D01*
X92532Y160893D01*
X92571Y160865D01*
Y158194D01*
X91010Y156633D01*
X90683Y156284D01*
X90380Y155914D01*
X90101Y155526D01*
X89849Y155119D01*
X89623Y154697D01*
X89426Y154262D01*
X89257Y153814D01*
X89118Y153356D01*
X89010Y152890D01*
X88932Y152418D01*
X88885Y151942D01*
X88869Y151464D01*
Y136890D01*
X88873Y136778D01*
Y129362D01*
Y118126D01*
X96080D01*
X96180Y118122D01*
X96188Y118122D01*
X99370D01*
Y118059D01*
X114355D01*
Y118122D01*
X117538D01*
X117546Y118122D01*
X117645Y118126D01*
X124853D01*
Y128462D01*
X132248D01*
X135886Y124824D01*
X135887Y124823D01*
X136154Y124574D01*
X136439Y124345D01*
X136739Y124136D01*
X137054Y123950D01*
X137380Y123786D01*
X137718Y123646D01*
X138065Y123531D01*
X138419Y123441D01*
X138779Y123376D01*
X139143Y123337D01*
X139508Y123324D01*
X153819D01*
X154184Y123337D01*
X154548Y123376D01*
X154908Y123441D01*
X155262Y123531D01*
X155609Y123646D01*
X155946Y123786D01*
X156273Y123950D01*
X156588Y124136D01*
X156888Y124345D01*
X157173Y124574D01*
X157440Y124823D01*
X157689Y125091D01*
X157919Y125376D01*
X158127Y125676D01*
X158314Y125990D01*
X158477Y126317D01*
X158617Y126655D01*
X158733Y127002D01*
X158823Y127356D01*
X158888Y127716D01*
X158927Y128079D01*
X158940Y128445D01*
X158927Y128810D01*
X158888Y129174D01*
X158823Y129534D01*
X158733Y129888D01*
X158617Y130235D01*
X158477Y130572D01*
X158314Y130899D01*
X158287Y130945D01*
X158314Y130991D01*
X158477Y131317D01*
X158617Y131655D01*
X158733Y132002D01*
X158823Y132356D01*
X158888Y132716D01*
X158927Y133080D01*
X158940Y133445D01*
X158927Y133810D01*
X158888Y134174D01*
X158823Y134534D01*
X158733Y134888D01*
X158617Y135235D01*
X158477Y135572D01*
X158314Y135899D01*
X158287Y135945D01*
X158314Y135991D01*
X158477Y136317D01*
X158617Y136655D01*
X158733Y137002D01*
X158823Y137356D01*
X158888Y137716D01*
X158927Y138080D01*
X158940Y138445D01*
X158927Y138810D01*
X158888Y139174D01*
X158823Y139533D01*
X158733Y139888D01*
X158617Y140235D01*
X158477Y140572D01*
X158314Y140899D01*
X158127Y141214D01*
X157919Y141514D01*
X157689Y141799D01*
X157440Y142066D01*
X157173Y142315D01*
X156888Y142545D01*
X156588Y142753D01*
X156273Y142940D01*
X155946Y143103D01*
X155609Y143243D01*
X155262Y143359D01*
X154908Y143449D01*
X154548Y143514D01*
X154184Y143553D01*
X153819Y143566D01*
X150822D01*
X148151Y146238D01*
X147883Y146487D01*
X147598Y146716D01*
X147298Y146925D01*
X146984Y147111D01*
X146657Y147275D01*
X146319Y147415D01*
X145972Y147530D01*
X145618Y147621D01*
X145258Y147686D01*
X144895Y147725D01*
X144529Y147738D01*
X144529Y147738D01*
X108589D01*
X108589Y147738D01*
X108223Y147725D01*
X107860Y147686D01*
X107500Y147621D01*
X107146Y147530D01*
X106799Y147415D01*
X106461Y147275D01*
X106134Y147111D01*
X105820Y146925D01*
X105519Y146716D01*
X105235Y146487D01*
X104967Y146238D01*
X104967Y146238D01*
X103583Y144854D01*
X103528Y144794D01*
X103491Y144809D01*
Y148435D01*
X105051Y149996D01*
X105052Y149996D01*
X105379Y150345D01*
X105682Y150715D01*
X105961Y151104D01*
X106213Y151510D01*
X106439Y151932D01*
X106636Y152368D01*
X106805Y152815D01*
X106944Y153273D01*
X107052Y153739D01*
X107130Y154211D01*
X107177Y154687D01*
X107193Y155166D01*
X107193Y155166D01*
Y160231D01*
X107232Y160259D01*
X107626Y160123D01*
X108067Y160000D01*
X108515Y159904D01*
X108968Y159835D01*
X109424Y159794D01*
X109882Y159780D01*
X110340Y159794D01*
X110796Y159835D01*
X111249Y159904D01*
X111696Y160000D01*
X112138Y160123D01*
X112571Y160273D01*
X112994Y160448D01*
X113406Y160649D01*
X113804Y160873D01*
X114189Y161122D01*
X114558Y161394D01*
X114910Y161687D01*
X115243Y162001D01*
X115557Y162334D01*
X115850Y162686D01*
X116122Y163055D01*
X116371Y163440D01*
X116596Y163839D01*
X116796Y164250D01*
X116971Y164673D01*
X117121Y165106D01*
X117244Y165548D01*
X117340Y165996D01*
X117409Y166448D01*
X117450Y166904D01*
X117464Y167362D01*
Y168828D01*
X118003Y169367D01*
X123154D01*
X123178Y169335D01*
X123128Y169172D01*
X123024Y168726D01*
X122950Y168275D01*
X122905Y167819D01*
X122890Y167362D01*
X122905Y166905D01*
X122950Y166450D01*
X123024Y165998D01*
X123128Y165553D01*
X123261Y165115D01*
X123422Y164687D01*
X123611Y164270D01*
X123827Y163866D01*
X124068Y163478D01*
X124335Y163106D01*
X124625Y162752D01*
X124938Y162418D01*
X125272Y162105D01*
X125626Y161815D01*
X125997Y161549D01*
X126386Y161307D01*
X126789Y161091D01*
X127206Y160903D01*
X127634Y160741D01*
X128072Y160608D01*
X128518Y160505D01*
X128969Y160430D01*
X129425Y160385D01*
X129882Y160370D01*
X130339Y160385D01*
X130795Y160430D01*
X131246Y160505D01*
X131692Y160608D01*
X132129Y160741D01*
X132558Y160903D01*
X132974Y161091D01*
X133378Y161307D01*
X133766Y161549D01*
X134138Y161815D01*
X134492Y162105D01*
X134826Y162418D01*
X135139Y162752D01*
X135429Y163106D01*
X135696Y163478D01*
X135937Y163866D01*
X136153Y164270D01*
X136342Y164687D01*
X136503Y165115D01*
X136636Y165553D01*
X136740Y165998D01*
X136814Y166450D01*
X136859Y166905D01*
X136874Y167362D01*
X136859Y167819D01*
X136814Y168275D01*
X136740Y168726D01*
X136636Y169172D01*
X136586Y169335D01*
X136609Y169367D01*
X147188D01*
X147302Y169370D01*
X148389D01*
X148504Y169367D01*
X166457D01*
X166571Y169370D01*
X167579D01*
X167694Y169367D01*
X180887D01*
X182772Y167482D01*
Y153338D01*
X173379Y143944D01*
X173379Y143944D01*
X173241Y143806D01*
X173015Y143566D01*
X167205D01*
X166839Y143553D01*
X166476Y143514D01*
X166116Y143449D01*
X165762Y143359D01*
X165415Y143243D01*
X165077Y143103D01*
X164750Y142940D01*
X164436Y142753D01*
X164136Y142545D01*
X163851Y142315D01*
X163583Y142066D01*
X163334Y141799D01*
X163105Y141514D01*
X162896Y141214D01*
X162710Y140899D01*
X162546Y140572D01*
X162406Y140235D01*
X162291Y139888D01*
X162200Y139533D01*
X162136Y139174D01*
X162096Y138810D01*
X162083Y138445D01*
X162096Y138080D01*
X162136Y137716D01*
X162200Y137356D01*
X162291Y137002D01*
X162406Y136655D01*
X162546Y136317D01*
X162710Y135991D01*
X162737Y135945D01*
X162710Y135899D01*
X162546Y135572D01*
X162406Y135235D01*
X162291Y134888D01*
X162200Y134534D01*
X162136Y134174D01*
X162096Y133810D01*
X162083Y133445D01*
X162096Y133080D01*
X162136Y132716D01*
X162200Y132356D01*
X162291Y132002D01*
X162406Y131655D01*
X162546Y131317D01*
X162710Y130991D01*
X162737Y130945D01*
X162710Y130899D01*
X162546Y130572D01*
X162406Y130235D01*
X162291Y129888D01*
X162200Y129534D01*
X162136Y129174D01*
X162096Y128810D01*
X162083Y128445D01*
X162096Y128079D01*
X162136Y127716D01*
X162200Y127356D01*
X162291Y127002D01*
X162406Y126655D01*
X162546Y126317D01*
X162710Y125990D01*
X162737Y125945D01*
X162710Y125899D01*
X162546Y125572D01*
X162406Y125235D01*
X162291Y124888D01*
X162200Y124533D01*
X162136Y124174D01*
X162096Y123810D01*
X162083Y123445D01*
X162096Y123080D01*
X162136Y122716D01*
X162200Y122356D01*
X162291Y122002D01*
X162406Y121655D01*
X162546Y121317D01*
X162710Y120991D01*
X162896Y120676D01*
X163105Y120376D01*
X163334Y120091D01*
X163583Y119824D01*
X163851Y119574D01*
X164136Y119345D01*
X164436Y119137D01*
X164750Y118950D01*
X165077Y118786D01*
X165415Y118646D01*
X165762Y118531D01*
X166116Y118441D01*
X166476Y118376D01*
X166839Y118337D01*
X167205Y118324D01*
X172323D01*
X172688Y118337D01*
X173052Y118376D01*
X173412Y118441D01*
X173766Y118531D01*
X174113Y118646D01*
X174450Y118786D01*
X174777Y118950D01*
X175092Y119137D01*
X175392Y119345D01*
X175677Y119574D01*
X175944Y119824D01*
X176193Y120091D01*
X176423Y120376D01*
X176631Y120676D01*
X176818Y120991D01*
X176981Y121317D01*
X177121Y121655D01*
X177237Y122002D01*
X177327Y122356D01*
X177392Y122716D01*
X177431Y123080D01*
X177444Y123445D01*
X177431Y123810D01*
X177392Y124174D01*
X177327Y124533D01*
X177237Y124888D01*
X177121Y125235D01*
X176981Y125572D01*
X176818Y125899D01*
X176791Y125945D01*
X176818Y125990D01*
X176981Y126317D01*
X177121Y126655D01*
X177237Y127002D01*
X177327Y127356D01*
X177392Y127716D01*
X177431Y128079D01*
X177444Y128445D01*
X177431Y128810D01*
X177392Y129174D01*
X177327Y129534D01*
X177237Y129888D01*
X177121Y130235D01*
X176981Y130572D01*
X176818Y130899D01*
X176791Y130945D01*
X176818Y130991D01*
X176857Y131068D01*
X177236Y130987D01*
X177688Y130918D01*
X178145Y130877D01*
X178602Y130863D01*
X179060Y130877D01*
X179516Y130918D01*
X179969Y130987D01*
X180417Y131083D01*
X180858Y131206D01*
X181291Y131355D01*
X181714Y131531D01*
X182126Y131731D01*
X182525Y131956D01*
X182910Y132205D01*
X183279Y132476D01*
X183630Y132770D01*
X183964Y133083D01*
X184101Y133221D01*
X184102Y133221D01*
X195716Y144835D01*
X195716Y144835D01*
X196030Y145169D01*
X196323Y145521D01*
X196594Y145890D01*
X196843Y146274D01*
X197068Y146673D01*
X197268Y147085D01*
X197444Y147508D01*
X197593Y147941D01*
X197716Y148382D01*
X197769Y148628D01*
X197812Y148830D01*
X197881Y149283D01*
X197923Y149739D01*
X197936Y150197D01*
X197936Y150197D01*
Y159165D01*
X204681D01*
X205000Y159154D01*
X219850D01*
X220062Y159089D01*
X220463Y158996D01*
X220870Y158929D01*
X221281Y158888D01*
X221693Y158875D01*
X222105Y158888D01*
X222516Y158929D01*
X222922Y158996D01*
X223324Y159089D01*
X223719Y159209D01*
X224105Y159354D01*
X224481Y159525D01*
X224844Y159719D01*
X225194Y159937D01*
X225530Y160177D01*
X225806Y160404D01*
X226017Y160149D01*
X226331Y159816D01*
X226665Y159502D01*
X227017Y159209D01*
X227386Y158937D01*
X227770Y158688D01*
X228169Y158464D01*
X228581Y158263D01*
X229004Y158088D01*
X229437Y157938D01*
X229878Y157815D01*
X230326Y157719D01*
X230779Y157650D01*
X231235Y157609D01*
X231693Y157595D01*
X232151Y157609D01*
X232607Y157650D01*
X233060Y157719D01*
X233507Y157815D01*
X233949Y157938D01*
X234382Y158088D01*
X234805Y158263D01*
X235216Y158464D01*
X235615Y158688D01*
X235909Y158878D01*
X247992D01*
Y171476D01*
X239272D01*
X239261Y171836D01*
X239220Y172292D01*
X239151Y172745D01*
X239055Y173193D01*
X238932Y173634D01*
X238782Y174067D01*
X238607Y174490D01*
X238407Y174902D01*
X238182Y175301D01*
X237933Y175685D01*
X237662Y176054D01*
X237368Y176406D01*
X237054Y176739D01*
X237054Y176740D01*
X231484Y182310D01*
X231150Y182624D01*
X230798Y182917D01*
X230429Y183189D01*
X230045Y183438D01*
X229646Y183662D01*
X229234Y183863D01*
X228811Y184038D01*
X228378Y184188D01*
X227937Y184311D01*
X227489Y184407D01*
X227036Y184476D01*
X226580Y184517D01*
X226122Y184531D01*
D02*
G37*
%LPD*%
G36*
X198559Y174291D02*
X198751Y173829D01*
X193150Y168228D01*
X187598Y168228D01*
X181997Y173829D01*
X182189Y174291D01*
X198559Y174291D01*
D02*
G37*
%LPC*%
G36*
X185472Y75023D02*
X185051Y75009D01*
X184632Y74968D01*
X184216Y74899D01*
X183806Y74804D01*
X183402Y74681D01*
X183008Y74533D01*
X182624Y74359D01*
X182252Y74160D01*
X181894Y73938D01*
X181552Y73692D01*
X181226Y73425D01*
X180918Y73137D01*
X180630Y72829D01*
X180363Y72503D01*
X180117Y72161D01*
X179895Y71803D01*
X179696Y71431D01*
X179522Y71047D01*
X179374Y70653D01*
X179251Y70250D01*
X179156Y69839D01*
X179087Y69423D01*
X179046Y69004D01*
X179032Y68583D01*
X179046Y68161D01*
X179087Y67742D01*
X179156Y67326D01*
X179251Y66916D01*
X179374Y66513D01*
X179522Y66118D01*
X179696Y65734D01*
X179895Y65363D01*
X180117Y65005D01*
X180363Y64662D01*
X180630Y64336D01*
X180918Y64029D01*
X181226Y63740D01*
X181552Y63473D01*
X181894Y63228D01*
X182252Y63005D01*
X182624Y62806D01*
X183008Y62633D01*
X183402Y62484D01*
X183806Y62362D01*
X184216Y62266D01*
X184632Y62197D01*
X185051Y62156D01*
X185472Y62142D01*
X185894Y62156D01*
X186313Y62197D01*
X186729Y62266D01*
X187139Y62362D01*
X187543Y62484D01*
X187937Y62633D01*
X188010Y62665D01*
X191275D01*
Y51433D01*
X198483D01*
X198583Y51429D01*
X198591Y51429D01*
X201850D01*
Y51221D01*
X214055D01*
Y64016D01*
X205890D01*
Y74709D01*
X198682D01*
X198583Y74713D01*
X187440D01*
X187139Y74804D01*
X186729Y74899D01*
X186313Y74968D01*
X185894Y75009D01*
X185472Y75023D01*
D02*
G37*
G36*
X161221Y35575D02*
X160763Y35560D01*
X160308Y35515D01*
X159856Y35440D01*
X159411Y35336D01*
X158973Y35204D01*
X158545Y35042D01*
X158128Y34854D01*
X157724Y34638D01*
X157336Y34396D01*
X156964Y34130D01*
X156610Y33839D01*
X156276Y33527D01*
X156240Y33488D01*
X156201D01*
X156165Y33527D01*
X155831Y33839D01*
X155477Y34130D01*
X155105Y34396D01*
X154716Y34638D01*
X154313Y34854D01*
X153896Y35042D01*
X153468Y35204D01*
X153030Y35336D01*
X152585Y35440D01*
X152133Y35515D01*
X151678Y35560D01*
X151221Y35575D01*
X150763Y35560D01*
X150308Y35515D01*
X149856Y35440D01*
X149411Y35336D01*
X148973Y35204D01*
X148545Y35042D01*
X148128Y34854D01*
X147724Y34638D01*
X147336Y34396D01*
X146964Y34130D01*
X146610Y33839D01*
X146276Y33527D01*
X146240Y33488D01*
X146201D01*
X146165Y33527D01*
X145831Y33839D01*
X145477Y34130D01*
X145105Y34396D01*
X144716Y34638D01*
X144313Y34854D01*
X143896Y35042D01*
X143468Y35204D01*
X143030Y35336D01*
X142585Y35440D01*
X142133Y35515D01*
X141678Y35560D01*
X141220Y35575D01*
X140763Y35560D01*
X140308Y35515D01*
X139856Y35440D01*
X139411Y35336D01*
X138973Y35204D01*
X138545Y35042D01*
X138128Y34854D01*
X137724Y34638D01*
X137336Y34396D01*
X136964Y34130D01*
X136610Y33839D01*
X136276Y33527D01*
X136240Y33488D01*
X136201D01*
X136164Y33527D01*
X135831Y33839D01*
X135477Y34130D01*
X135105Y34396D01*
X134716Y34638D01*
X134313Y34854D01*
X133896Y35042D01*
X133468Y35204D01*
X133030Y35336D01*
X132585Y35440D01*
X132133Y35515D01*
X131678Y35560D01*
X131220Y35575D01*
X130763Y35560D01*
X130308Y35515D01*
X129856Y35440D01*
X129411Y35336D01*
X128973Y35204D01*
X128545Y35042D01*
X128128Y34854D01*
X127725Y34638D01*
X127336Y34396D01*
X126964Y34130D01*
X126610Y33839D01*
X126276Y33527D01*
X126240Y33488D01*
X126201D01*
X126164Y33527D01*
X125831Y33839D01*
X125477Y34130D01*
X125105Y34396D01*
X124716Y34638D01*
X124313Y34854D01*
X123896Y35042D01*
X123468Y35204D01*
X123030Y35336D01*
X122584Y35440D01*
X122133Y35515D01*
X121678Y35560D01*
X121221Y35575D01*
X120763Y35560D01*
X120308Y35515D01*
X119856Y35440D01*
X119411Y35336D01*
X118973Y35204D01*
X118545Y35042D01*
X118128Y34854D01*
X117725Y34638D01*
X117336Y34396D01*
X116964Y34130D01*
X116610Y33839D01*
X116276Y33527D01*
X115964Y33193D01*
X115673Y32839D01*
X115407Y32467D01*
X115165Y32079D01*
X114950Y31675D01*
X114761Y31258D01*
X114600Y30830D01*
X114467Y30392D01*
X114363Y29947D01*
X114288Y29495D01*
X114243Y29040D01*
X114228Y28583D01*
X114243Y28125D01*
X114288Y27670D01*
X114363Y27219D01*
X114467Y26773D01*
X114600Y26335D01*
X114761Y25907D01*
X114950Y25490D01*
X115165Y25087D01*
X115407Y24698D01*
X115673Y24326D01*
X115964Y23973D01*
X116276Y23639D01*
X116610Y23326D01*
X116964Y23036D01*
X117336Y22769D01*
X117725Y22527D01*
X118128Y22312D01*
X118545Y22123D01*
X118973Y21962D01*
X119411Y21829D01*
X119856Y21725D01*
X120308Y21651D01*
X120763Y21606D01*
X121221Y21591D01*
X121678Y21606D01*
X122133Y21651D01*
X122584Y21725D01*
X123030Y21829D01*
X123468Y21962D01*
X123896Y22123D01*
X124313Y22312D01*
X124716Y22527D01*
X125105Y22769D01*
X125477Y23036D01*
X125831Y23326D01*
X126164Y23639D01*
X126201Y23677D01*
X126240D01*
X126276Y23639D01*
X126610Y23326D01*
X126964Y23036D01*
X127336Y22769D01*
X127725Y22527D01*
X128128Y22312D01*
X128545Y22123D01*
X128973Y21962D01*
X129411Y21829D01*
X129856Y21725D01*
X130308Y21651D01*
X130763Y21606D01*
X131220Y21591D01*
X131678Y21606D01*
X132133Y21651D01*
X132585Y21725D01*
X133030Y21829D01*
X133468Y21962D01*
X133896Y22123D01*
X134313Y22312D01*
X134716Y22527D01*
X135105Y22769D01*
X135477Y23036D01*
X135831Y23326D01*
X136164Y23639D01*
X136201Y23677D01*
X136240D01*
X136276Y23639D01*
X136610Y23326D01*
X136964Y23036D01*
X137336Y22769D01*
X137724Y22527D01*
X138128Y22312D01*
X138545Y22123D01*
X138973Y21962D01*
X139411Y21829D01*
X139856Y21725D01*
X140308Y21651D01*
X140763Y21606D01*
X141220Y21591D01*
X141678Y21606D01*
X142133Y21651D01*
X142585Y21725D01*
X143030Y21829D01*
X143468Y21962D01*
X143896Y22123D01*
X144313Y22312D01*
X144716Y22527D01*
X145105Y22769D01*
X145477Y23036D01*
X145831Y23326D01*
X146165Y23639D01*
X146201Y23677D01*
X146240D01*
X146276Y23639D01*
X146610Y23326D01*
X146964Y23036D01*
X147336Y22769D01*
X147724Y22527D01*
X148128Y22312D01*
X148545Y22123D01*
X148973Y21962D01*
X149411Y21829D01*
X149856Y21725D01*
X150308Y21651D01*
X150763Y21606D01*
X151221Y21591D01*
X151678Y21606D01*
X152133Y21651D01*
X152585Y21725D01*
X153030Y21829D01*
X153468Y21962D01*
X153896Y22123D01*
X154313Y22312D01*
X154716Y22527D01*
X155105Y22769D01*
X155477Y23036D01*
X155831Y23326D01*
X156165Y23639D01*
X156201Y23677D01*
X156240D01*
X156276Y23639D01*
X156610Y23326D01*
X156964Y23036D01*
X157336Y22769D01*
X157724Y22527D01*
X158128Y22312D01*
X158545Y22123D01*
X158973Y21962D01*
X159411Y21829D01*
X159856Y21725D01*
X160308Y21651D01*
X160763Y21606D01*
X161221Y21591D01*
X161678Y21606D01*
X162133Y21651D01*
X162584Y21725D01*
X163030Y21829D01*
X163468Y21962D01*
X163896Y22123D01*
X164313Y22312D01*
X164716Y22527D01*
X165105Y22769D01*
X165477Y23036D01*
X165831Y23326D01*
X166165Y23639D01*
X166477Y23973D01*
X166768Y24326D01*
X167034Y24698D01*
X167276Y25087D01*
X167491Y25490D01*
X167680Y25907D01*
X167841Y26335D01*
X167974Y26773D01*
X168078Y27219D01*
X168153Y27670D01*
X168197Y28125D01*
X168212Y28583D01*
X168197Y29040D01*
X168153Y29495D01*
X168078Y29947D01*
X167974Y30392D01*
X167841Y30830D01*
X167680Y31258D01*
X167491Y31675D01*
X167276Y32079D01*
X167034Y32467D01*
X166768Y32839D01*
X166477Y33193D01*
X166165Y33527D01*
X165831Y33839D01*
X165477Y34130D01*
X165105Y34396D01*
X164716Y34638D01*
X164313Y34854D01*
X163896Y35042D01*
X163468Y35204D01*
X163030Y35336D01*
X162584Y35440D01*
X162133Y35515D01*
X161678Y35560D01*
X161221Y35575D01*
D02*
G37*
G36*
X80709Y34413D02*
X80232Y34398D01*
X79757Y34351D01*
X79287Y34273D01*
X78822Y34165D01*
X78366Y34027D01*
X77920Y33859D01*
X77486Y33662D01*
X77065Y33437D01*
X76660Y33185D01*
X76272Y32907D01*
X75904Y32605D01*
X75709Y32422D01*
X75513Y32605D01*
X75145Y32907D01*
X74757Y33185D01*
X74352Y33437D01*
X73932Y33662D01*
X73497Y33859D01*
X73051Y34027D01*
X72595Y34165D01*
X72130Y34273D01*
X71660Y34351D01*
X71185Y34398D01*
X70709Y34413D01*
X70232Y34398D01*
X69757Y34351D01*
X69287Y34273D01*
X68822Y34165D01*
X68366Y34027D01*
X68024Y33898D01*
X67992Y33920D01*
Y34409D01*
X53425D01*
Y19842D01*
X67992D01*
Y20332D01*
X68024Y20354D01*
X68366Y20225D01*
X68822Y20087D01*
X69287Y19979D01*
X69757Y19901D01*
X70232Y19854D01*
X70709Y19839D01*
X71185Y19854D01*
X71660Y19901D01*
X72130Y19979D01*
X72595Y20087D01*
X73051Y20225D01*
X73497Y20393D01*
X73932Y20590D01*
X74352Y20815D01*
X74757Y21067D01*
X75145Y21344D01*
X75513Y21647D01*
X75709Y21830D01*
X75904Y21647D01*
X76272Y21344D01*
X76660Y21067D01*
X77065Y20815D01*
X77486Y20590D01*
X77920Y20393D01*
X78366Y20225D01*
X78822Y20087D01*
X79287Y19979D01*
X79757Y19901D01*
X80232Y19854D01*
X80709Y19839D01*
X81185Y19854D01*
X81660Y19901D01*
X82130Y19979D01*
X82595Y20087D01*
X83051Y20225D01*
X83497Y20393D01*
X83932Y20590D01*
X84352Y20815D01*
X84757Y21067D01*
X85145Y21344D01*
X85514Y21647D01*
X85862Y21973D01*
X86188Y22321D01*
X86490Y22690D01*
X86768Y23077D01*
X87020Y23482D01*
X87244Y23903D01*
X87441Y24337D01*
X87609Y24783D01*
X87748Y25240D01*
X87856Y25704D01*
X87934Y26175D01*
X87980Y26649D01*
X87996Y27126D01*
X87980Y27603D01*
X87934Y28077D01*
X87856Y28548D01*
X87748Y29012D01*
X87609Y29468D01*
X87441Y29915D01*
X87244Y30349D01*
X87020Y30770D01*
X86768Y31175D01*
X86490Y31562D01*
X86188Y31931D01*
X85862Y32279D01*
X85514Y32605D01*
X85145Y32907D01*
X84757Y33185D01*
X84352Y33437D01*
X83932Y33662D01*
X83497Y33859D01*
X83051Y34027D01*
X82595Y34165D01*
X82130Y34273D01*
X81660Y34351D01*
X81185Y34398D01*
X80709Y34413D01*
D02*
G37*
%LPD*%
D14*
X207953Y66870D02*
D03*
Y57618D02*
D03*
X52856Y167461D02*
D03*
Y158209D02*
D03*
D15*
X198583Y57453D02*
D03*
Y68689D02*
D03*
X205000Y165185D02*
D03*
Y153949D02*
D03*
X43661Y158004D02*
D03*
Y169240D02*
D03*
X117546Y95799D02*
D03*
Y107035D02*
D03*
X96180D02*
D03*
Y95799D02*
D03*
X188779Y93347D02*
D03*
Y82110D02*
D03*
X76614Y87021D02*
D03*
Y75785D02*
D03*
X149134Y68689D02*
D03*
Y57453D02*
D03*
X170499D02*
D03*
Y68689D02*
D03*
X76614Y67862D02*
D03*
Y56626D02*
D03*
X117546Y135382D02*
D03*
Y124146D02*
D03*
X96180D02*
D03*
Y135382D02*
D03*
D16*
X147188Y166910D02*
D03*
Y176949D02*
D03*
X157441Y166910D02*
D03*
Y176949D02*
D03*
X167694Y166910D02*
D03*
Y176949D02*
D03*
D17*
X223775Y123661D02*
D03*
X212538D02*
D03*
X212508Y113164D02*
D03*
X201272D02*
D03*
X201248Y102666D02*
D03*
X190012D02*
D03*
D18*
X106863Y95902D02*
D03*
Y106932D02*
D03*
X128228D02*
D03*
Y95902D02*
D03*
X159817Y68468D02*
D03*
Y57438D02*
D03*
X138386Y57438D02*
D03*
Y68468D02*
D03*
X106863Y135594D02*
D03*
Y124564D02*
D03*
X128228Y123937D02*
D03*
Y134967D02*
D03*
D19*
X151260Y107736D02*
D03*
Y102736D02*
D03*
Y97736D02*
D03*
Y92736D02*
D03*
X169764Y107736D02*
D03*
Y102736D02*
D03*
Y97736D02*
D03*
Y92736D02*
D03*
X115354Y56595D02*
D03*
Y61594D02*
D03*
Y66594D02*
D03*
Y71595D02*
D03*
X96850Y56595D02*
D03*
Y61594D02*
D03*
Y66594D02*
D03*
Y71595D02*
D03*
X169764Y123445D02*
D03*
Y128445D02*
D03*
Y133445D02*
D03*
Y138445D02*
D03*
X151260Y123445D02*
D03*
Y128445D02*
D03*
Y133445D02*
D03*
Y138445D02*
D03*
D27*
X221693Y165177D02*
D03*
X231693D02*
D03*
D28*
X241693D02*
D03*
D32*
X142500Y102736D02*
X151260D01*
X142126Y102362D02*
X142500Y102736D01*
X142126Y95787D02*
Y102362D01*
X135158Y88819D02*
X142126Y95787D01*
X79291Y166772D02*
X79882Y166181D01*
X142446Y136221D02*
X145222Y133445D01*
X141732Y136221D02*
X142446D01*
X169764Y102736D02*
X188779D01*
X79882Y128307D02*
X93779Y114409D01*
X79882Y128307D02*
Y166181D01*
X93779Y114409D02*
X129803D01*
X123157Y73497D02*
X123661Y74002D01*
X119816Y73497D02*
X123157D01*
X117913Y71595D02*
X119816Y73497D01*
X115354Y71595D02*
X117913D01*
X76614Y56626D02*
X76646Y56595D01*
X96850D01*
X75433Y68543D02*
X83976D01*
X90925Y61594D01*
X96850D01*
X129803Y114409D02*
X151181D01*
X136496Y105748D02*
X138484Y107736D01*
X136496Y98268D02*
Y105748D01*
X101811Y80354D02*
X164460D01*
X96850Y75394D02*
X101811Y80354D01*
X96850Y71595D02*
Y75394D01*
X120460Y61594D02*
X123661Y64796D01*
X115354Y61594D02*
X120460D01*
X124048Y64796D02*
X133268Y74016D01*
X123661Y64796D02*
X124048D01*
X133268Y74016D02*
X157598D01*
X164460Y80354D02*
X170499Y74315D01*
X130394Y65315D02*
X133546Y68468D01*
X130394Y61772D02*
Y65315D01*
X125216Y56595D02*
X130394Y61772D01*
X133546Y68468D02*
X138386D01*
X157598Y74016D02*
X159724Y71890D01*
X170499Y68689D02*
Y74315D01*
X96850Y66594D02*
Y71595D01*
X115354Y56595D02*
X125216D01*
X159724Y68560D02*
X159817Y68468D01*
X159724Y68560D02*
Y71890D01*
X115354Y61594D02*
Y66594D01*
X165354Y84842D02*
X169764Y89252D01*
X101890Y84842D02*
X165354D01*
X96339Y90394D02*
X101890Y84842D01*
X145354Y90158D02*
X147933Y92736D01*
X108247Y88819D02*
X135158D01*
X106863Y90203D02*
X108247Y88819D01*
X169764Y89252D02*
Y92736D01*
X145222Y133445D02*
X151260D01*
X139508Y128445D02*
X151260D01*
X133031Y134921D02*
X139508Y128445D01*
X128274Y134921D02*
X133031D01*
X128228Y134967D02*
X128274Y134921D01*
X144529Y142616D02*
X148701Y138445D01*
X151260D01*
X107205Y141233D02*
X108589Y142616D01*
X107205Y135935D02*
Y141233D01*
X106863Y135594D02*
X107205Y135935D01*
X169764Y114409D02*
X170394Y115039D01*
X169764Y107736D02*
Y114409D01*
X151181D02*
X169764D01*
X151181D02*
X151260Y114488D01*
Y123445D01*
X169764Y138445D02*
X177697D01*
X128228Y123937D02*
X128720Y123445D01*
X151260D01*
X108589Y142616D02*
X144529D01*
X151260Y133445D02*
Y138445D01*
X96339Y90394D02*
Y95641D01*
X96180Y95799D02*
X96339Y95641D01*
X106811Y106984D02*
X106863Y106932D01*
X96232Y106984D02*
X106811D01*
X96180Y107035D02*
X96232Y106984D01*
X147933Y92736D02*
X151260D01*
X128228Y112835D02*
X129803Y114409D01*
X128228Y106932D02*
Y112835D01*
X128228Y106932D02*
X128228Y106932D01*
X106863Y90203D02*
Y95902D01*
X117494Y106984D02*
X117546Y107035D01*
X106914Y106984D02*
X117494D01*
X106863Y106932D02*
X106914Y106984D01*
X117546Y95799D02*
X117597Y95851D01*
X128177D01*
X128228Y95902D01*
X138484Y107736D02*
X151260D01*
X134134Y95906D02*
X136496Y98268D01*
X128231Y95906D02*
X134134D01*
X128228Y95902D02*
X128231Y95906D01*
X151260Y97736D02*
Y102736D01*
X169764Y92736D02*
Y97736D01*
D33*
X241142Y55787D02*
Y74843D01*
X18583Y81890D02*
X42480D01*
X171221Y28583D02*
Y41693D01*
Y22835D02*
Y28583D01*
X272638Y84134D02*
X279528D01*
X251220D02*
X272638D01*
X18583Y101890D02*
X32362D01*
X49646Y113819D02*
X55827D01*
X49646Y61457D02*
Y74449D01*
Y50354D02*
Y61457D01*
Y74449D02*
Y74724D01*
X42480Y81890D02*
X49646Y74724D01*
Y50354D02*
X57559Y42441D01*
X171968D02*
X227795D01*
X91220D02*
X171968D01*
X171221Y41693D02*
X171968Y42441D01*
X57559D02*
X91220D01*
X90709Y41929D02*
X91220Y42441D01*
X90709Y27126D02*
Y41929D01*
X227795Y42441D02*
X241142Y55787D01*
X241535Y74449D02*
X251220Y84134D01*
X44291Y113819D02*
X49646D01*
X32362Y101890D02*
X44291Y113819D01*
X241535D02*
X251220Y104134D01*
X272638D01*
D34*
X201063Y145276D02*
X236614D01*
X200866Y145473D02*
X201063Y145276D01*
X138571Y51192D02*
Y55512D01*
X188779Y95276D02*
Y102736D01*
Y95276D02*
X188779Y95276D01*
X47343Y176949D02*
X67776D01*
X43662Y173268D02*
X47343Y176949D01*
X43662Y170945D02*
Y173268D01*
X76614Y88425D02*
Y93032D01*
X55827Y113819D02*
X76614Y93032D01*
Y69567D02*
Y74134D01*
X99882Y155166D02*
Y167362D01*
X96180Y151464D02*
X99882Y155166D01*
X96180Y136890D02*
Y151464D01*
X231693Y123661D02*
X241535Y113819D01*
X225394Y123661D02*
X231693D01*
D35*
X190354Y150197D02*
Y176949D01*
X178740Y138583D02*
X190354Y150197D01*
X178602Y138445D02*
X178740Y138583D01*
X110295Y172382D02*
X114016Y176102D01*
X106161Y175531D02*
X109882Y171811D01*
Y174252D01*
Y167362D02*
Y171811D01*
X112579Y176949D02*
X147188D01*
X109882Y174252D02*
X112579Y176949D01*
X67776D02*
X112579D01*
X190354D02*
X226122D01*
X167694D02*
X190354D01*
X226122D02*
X231693Y171378D01*
Y165177D02*
Y171378D01*
X167753Y166850D02*
X175394D01*
X167694Y166910D02*
X167753Y166850D01*
X142500Y166910D02*
X147188D01*
X133607Y158017D02*
X142500Y166910D01*
X124778Y158017D02*
X133607D01*
X119882Y162913D02*
X124778Y158017D01*
X119882Y162913D02*
Y167362D01*
X157441Y176949D02*
X166457D01*
X148504D02*
X157441D01*
Y166910D02*
X166339D01*
X148740D02*
X157441D01*
D36*
X78913Y167461D02*
X79291Y167083D01*
Y166772D02*
Y167083D01*
X52856Y158087D02*
Y158209D01*
X52773Y158004D02*
X52856Y158087D01*
X43662Y158004D02*
X52773D01*
X43661Y158004D02*
X43662Y158004D01*
X49646Y61457D02*
X54476Y56626D01*
X76614D01*
X207756Y82110D02*
X220252D01*
X188779D02*
X207756D01*
X207953Y81913D01*
Y66870D02*
Y81913D01*
X185579Y68689D02*
X198583D01*
X185472Y68583D02*
X185579Y68689D01*
X198583Y57453D02*
X207870D01*
X207953Y57536D01*
Y57618D01*
X198583Y57453D02*
X198583Y57453D01*
X205354Y146063D02*
Y153949D01*
X205354Y153949D02*
X205354Y153949D01*
X205000Y153949D02*
X205354D01*
X220252Y82110D02*
X227520Y74843D01*
X241142D02*
X241535Y74449D01*
X227520Y74843D02*
X241142D01*
X205000Y165177D02*
X221693D01*
X149134Y57452D02*
X170499D01*
X170499Y57453D01*
X149134D02*
X149134Y57452D01*
X149134Y68689D02*
X149134Y68689D01*
X138607Y68689D02*
X149134D01*
X138386Y68468D02*
X138607Y68689D01*
X106445Y124146D02*
X106863Y124564D01*
X96180Y124146D02*
X106445D01*
X96180Y124146D02*
X96180Y124146D01*
X106863Y124564D02*
X107281Y124146D01*
X117545D01*
X117546Y124146D01*
X127814Y135382D02*
X128228Y134967D01*
X117546Y135382D02*
X127814D01*
X117546Y135382D02*
X117546Y135382D01*
X201271Y104016D02*
Y113164D01*
X201272Y113164D01*
X212538Y122374D02*
Y123661D01*
X212508Y122344D02*
X212538Y122374D01*
X212508Y113164D02*
Y122344D01*
X212508Y113164D02*
X212508Y113164D01*
X212538Y123661D02*
X212538Y123661D01*
D37*
X53740Y167461D02*
X78913D01*
D38*
X190157Y127598D02*
Y134764D01*
X177598Y115039D02*
X190157Y127598D01*
X170394Y115039D02*
X177598D01*
X190157Y134764D02*
X200866Y145473D01*
D39*
X14173Y181496D02*
D03*
Y14567D02*
D03*
X277165D02*
D03*
Y181496D02*
D03*
D40*
X151221Y28583D02*
D03*
X141220D02*
D03*
X131220D02*
D03*
X121221D02*
D03*
X161221D02*
D03*
X99882Y167362D02*
D03*
X109882D02*
D03*
X119882D02*
D03*
X129882D02*
D03*
X89882D02*
D03*
D41*
X171221Y28583D02*
D03*
X79882Y167362D02*
D03*
D42*
X60709Y27126D02*
D03*
D43*
X70709D02*
D03*
X80709D02*
D03*
X90709D02*
D03*
X241535Y113819D02*
D03*
Y74449D02*
D03*
X49646Y113819D02*
D03*
Y74449D02*
D03*
D44*
X272638Y104134D02*
D03*
X18583Y81929D02*
D03*
D45*
X272638Y84134D02*
D03*
X18583Y101929D02*
D03*
D46*
X142126Y102362D02*
D03*
X229134Y74410D02*
D03*
X236614Y145276D02*
D03*
X141732Y136221D02*
D03*
X178740Y138583D02*
D03*
X67776Y176949D02*
D03*
X185472Y68583D02*
D03*
X200866Y145473D02*
D03*
X123661Y64796D02*
D03*
X145354Y90158D02*
D03*
X123661Y74002D02*
D03*
X175394Y166850D02*
D03*
M02*
