G04*
G04 #@! TF.GenerationSoftware,Altium Limited,Altium Designer,19.1.5 (86)*
G04*
G04 Layer_Color=16711935*
%FSLAX25Y25*%
%MOIN*%
G70*
G01*
G75*
%ADD12C,0.00787*%
%ADD48C,0.00394*%
D12*
X205295Y58110D02*
X210610D01*
Y66378D01*
X205295D02*
X210610D01*
X205295Y58110D02*
Y66378D01*
X195433Y69173D02*
X201732D01*
X195433Y56968D02*
Y69173D01*
Y56968D02*
X201732D01*
Y69173D01*
X201850Y153465D02*
X208150D01*
Y165669D01*
X201850D02*
X208150D01*
X201850Y153465D02*
Y165669D01*
X40512Y169724D02*
X46811D01*
X40512Y157520D02*
Y169724D01*
Y157520D02*
X46811D01*
Y169724D01*
X50198Y158701D02*
X55513D01*
Y166969D01*
X50198D02*
X55513D01*
X50198Y158701D02*
Y166969D01*
X212441Y155394D02*
X250945D01*
Y174921D01*
X212441D02*
X250945D01*
X212441Y155394D02*
Y174921D01*
X212054Y120512D02*
Y126811D01*
Y120512D02*
X224259D01*
Y126811D01*
X212054D02*
X224259D01*
X200787Y110014D02*
Y116314D01*
Y110014D02*
X212992D01*
Y116314D01*
X200787D02*
X212992D01*
X103713Y107717D02*
X110012D01*
X103713Y95118D02*
Y107717D01*
Y95118D02*
X110012D01*
Y107717D01*
X189528Y99517D02*
Y105816D01*
Y99517D02*
X201732D01*
Y105816D01*
X189528D02*
X201732D01*
X114396Y107520D02*
X120695D01*
X114396Y95315D02*
Y107520D01*
Y95315D02*
X120695D01*
Y107520D01*
X93031Y95315D02*
X99330D01*
Y107520D01*
X93031D02*
X99330D01*
X93031Y95315D02*
Y107520D01*
X125079Y95118D02*
X131378D01*
Y107717D01*
X125079D02*
X131378D01*
X125079Y95118D02*
Y107717D01*
X185630Y81626D02*
X191929D01*
Y93831D01*
X185630D02*
X191929D01*
X185630Y81626D02*
Y93831D01*
X156667Y56653D02*
X162966D01*
Y69252D01*
X156667D02*
X162966D01*
X156667Y56653D02*
Y69252D01*
X73465Y75301D02*
X79764D01*
Y87506D01*
X73465D02*
X79764D01*
X73465Y75301D02*
Y87506D01*
X145984Y56968D02*
X152284D01*
Y69173D01*
X145984D02*
X152284D01*
X145984Y56968D02*
Y69173D01*
X167350D02*
X173649D01*
X167350Y56968D02*
Y69173D01*
Y56968D02*
X173649D01*
Y69173D01*
X135236Y69252D02*
X141535D01*
X135236Y56653D02*
Y69252D01*
Y56653D02*
X141535D01*
Y69252D01*
X73465Y56142D02*
X79764D01*
Y68347D01*
X73465D02*
X79764D01*
X73465Y56142D02*
Y68347D01*
X103713Y123779D02*
X110012D01*
Y136378D01*
X103713D02*
X110012D01*
X103713Y123779D02*
Y136378D01*
X114396Y123661D02*
X120695D01*
Y135866D01*
X114396D02*
X120695D01*
X114396Y123661D02*
Y135866D01*
X93031D02*
X99330D01*
X93031Y123661D02*
Y135866D01*
Y123661D02*
X99330D01*
Y135866D01*
X125079Y135751D02*
X131378D01*
X125079Y123153D02*
Y135751D01*
Y123153D02*
X131378D01*
Y135751D01*
D48*
X166811Y93937D02*
G03*
X166811Y93937I-1969J0D01*
G01*
X103740Y70394D02*
G03*
X103740Y70394I-1969J0D01*
G01*
X158150Y137244D02*
G03*
X158150Y137244I-1969J0D01*
G01*
X116220Y16083D02*
X176221D01*
X116220Y41083D02*
X176221D01*
Y16083D02*
Y41083D01*
X116220Y16083D02*
Y41083D01*
X55709Y15709D02*
Y38543D01*
X95709D01*
Y15709D02*
Y38543D01*
X55709Y15709D02*
X95709D01*
X74882Y179862D02*
X134882D01*
X74882Y154862D02*
X134882D01*
X74882D02*
Y179862D01*
X134882Y154862D02*
Y179862D01*
X143645Y165236D02*
Y178622D01*
X150731Y165236D02*
Y178622D01*
X143645Y165236D02*
X150731D01*
X143645Y178622D02*
X150731D01*
X153898Y165236D02*
Y178622D01*
X160984Y165236D02*
Y178622D01*
X153898Y165236D02*
X160984D01*
X153898Y178622D02*
X160984D01*
X164151Y165236D02*
Y178622D01*
X171237Y165236D02*
Y178622D01*
X164151Y165236D02*
X171237D01*
X164151Y178622D02*
X171237D01*
X285737Y73627D02*
X286327Y72925D01*
X285737Y73627D02*
Y74134D01*
X286327Y71890D02*
Y72924D01*
X256694Y74134D02*
Y114134D01*
X288583Y74134D02*
Y114134D01*
X256694Y74134D02*
X288583D01*
X256694Y114134D02*
X288583D01*
X283517Y71890D02*
X286327D01*
X283517Y71890D02*
X283517Y71890D01*
X283517Y71889D02*
Y72925D01*
X284107Y73627D02*
Y74134D01*
X283516Y72925D02*
X284107Y73627D01*
X152638Y110079D02*
X168386D01*
X152638Y90394D02*
X168386D01*
X152638D02*
Y110079D01*
X168386Y90394D02*
Y110079D01*
X4894Y113138D02*
X5484Y112436D01*
Y111930D02*
Y112436D01*
X4894Y113139D02*
Y114173D01*
X34527Y71930D02*
Y111930D01*
X2637Y71930D02*
Y111930D01*
X34527D01*
X2637Y71930D02*
X34527D01*
X4894Y114173D02*
X7704D01*
X7704Y114173D01*
Y113138D02*
Y114174D01*
X7113Y111930D02*
Y112436D01*
X7705Y113138D01*
X98228Y54252D02*
X113976D01*
X98228Y73937D02*
X113976D01*
Y54252D02*
Y73937D01*
X98228Y54252D02*
Y73937D01*
X152638Y121102D02*
X168386D01*
X152638Y140787D02*
X168386D01*
Y121102D02*
Y140787D01*
X152638Y121102D02*
Y140787D01*
M02*
