M48
;Layer_Color=9474304
;FILE_FORMAT=2:5
INCH,LZ
;TYPE=PLATED
T1F00S00C0.02756
T2F00S00C0.02800
T3F00S00C0.04016
T4F00S00C0.04685
T5F00S00C0.04724
T6F00S00C0.05118
T7F00S00C0.12500
%
T01
X0221693Y0165177
X0231693
X0241693
T02
X0123661Y0064796
Y0074002
X0145354Y0090158
X0142126Y0102362
X0141732Y0136221
X017874Y0138583
X0200866Y0145473
X0236614Y0145276
X0229134Y007441
X0185472Y0068583
X0175394Y016685
X0067776Y0176949
T03
X0121221Y0028583
X013122
X014122
X0151221
X0161221
X0171221
X0129882Y0167362
X0119882
X0109882
X0099882
X0089882
X0079882
T04
X0060709Y0027126
X0070709
X0080709
X0090709
T05
X0049646Y0074449
Y0113819
X0241535
Y0074449
T06
X0018583Y0081929
Y0101929
X0272638Y0104134
Y0084134
T07
X0014173Y0014567
X0277165
Y0181496
X0014173
M30
