G04*
G04 #@! TF.GenerationSoftware,Altium Limited,Altium Designer,19.1.5 (86)*
G04*
G04 Layer_Color=32896*
%FSLAX25Y25*%
%MOIN*%
G70*
G01*
G75*
%ADD13C,0.01000*%
D13*
X18347Y166378D02*
G03*
X12600Y166483I-2874J0D01*
G01*
X18347Y31732D02*
G03*
X12600Y31837I-2874J0D01*
G01*
X279370Y32126D02*
G03*
X273624Y32231I-2874J0D01*
G01*
X280945Y166378D02*
G03*
X275199Y166483I-2874J0D01*
G01*
X12705Y166378D02*
X18347D01*
X15431Y160778D02*
X16648Y166325D01*
X14214D02*
X15431Y160778D01*
X12705Y31732D02*
X18347D01*
X15431Y26133D02*
X16648Y31680D01*
X14214D02*
X15431Y26133D01*
X275238Y32074D02*
X276455Y26526D01*
X277671Y32074D01*
X273729Y32126D02*
X279370D01*
X276813Y166325D02*
X278030Y160778D01*
X279246Y166325D01*
X275304Y166378D02*
X280945D01*
X258449Y17402D02*
Y14516D01*
X257006Y13073D01*
X255563Y14516D01*
Y17402D01*
X253398Y13073D02*
X251955D01*
X251233Y13795D01*
Y15238D01*
X251955Y15959D01*
X253398D01*
X254119Y15238D01*
Y13795D01*
X253398Y13073D01*
X249790D02*
X248347D01*
X249069D01*
Y17402D01*
X249790D01*
X245461Y16681D02*
Y15959D01*
X246182D01*
X244739D01*
X245461D01*
Y13795D01*
X244739Y13073D01*
X241853Y15959D02*
X240410D01*
X239688Y15238D01*
Y13073D01*
X241853D01*
X242575Y13795D01*
X241853Y14516D01*
X239688D01*
X236802Y11630D02*
X236081D01*
X235359Y12352D01*
Y15959D01*
X237524D01*
X238245Y15238D01*
Y13795D01*
X237524Y13073D01*
X235359D01*
X231751D02*
X233194D01*
X233916Y13795D01*
Y15238D01*
X233194Y15959D01*
X231751D01*
X231030Y15238D01*
Y14516D01*
X233916D01*
X225257Y13073D02*
X223093D01*
X222371Y13795D01*
X223093Y14516D01*
X224536D01*
X225257Y15238D01*
X224536Y15959D01*
X222371D01*
X218763Y13073D02*
X220207D01*
X220928Y13795D01*
Y15238D01*
X220207Y15959D01*
X218763D01*
X218042Y15238D01*
Y14516D01*
X220928D01*
X216599Y13073D02*
Y15959D01*
X214434D01*
X213713Y15238D01*
Y13073D01*
X212269D02*
X210105D01*
X209383Y13795D01*
X210105Y14516D01*
X211548D01*
X212269Y15238D01*
X211548Y15959D01*
X209383D01*
X207940Y13073D02*
X206497D01*
X207219D01*
Y15959D01*
X207940D01*
X204332Y13073D02*
Y15959D01*
X202168D01*
X201446Y15238D01*
Y13073D01*
X198560Y11630D02*
X197838D01*
X197117Y12352D01*
Y15959D01*
X199282D01*
X200003Y15238D01*
Y13795D01*
X199282Y13073D01*
X197117D01*
X190623D02*
X189180D01*
X188458Y13795D01*
Y15238D01*
X189180Y15959D01*
X190623D01*
X191344Y15238D01*
Y13795D01*
X190623Y13073D01*
X186294D02*
Y16681D01*
Y15238D01*
X187015D01*
X185572D01*
X186294D01*
Y16681D01*
X185572Y17402D01*
X176192Y13795D02*
Y16681D01*
X176913Y17402D01*
X178357D01*
X179078Y16681D01*
Y13795D01*
X178357Y13073D01*
X176913D01*
X177635Y14516D02*
X176192Y13073D01*
X176913D02*
X176192Y13795D01*
X174749Y17402D02*
Y13073D01*
X172584D01*
X171863Y13795D01*
Y14516D01*
X172584Y15238D01*
X174749D01*
X172584D01*
X171863Y15959D01*
Y16681D01*
X172584Y17402D01*
X174749D01*
X169698Y13073D02*
X168255D01*
X167533Y13795D01*
Y15238D01*
X168255Y15959D01*
X169698D01*
X170420Y15238D01*
Y13795D01*
X169698Y13073D01*
X165369D02*
X163926D01*
X163204Y13795D01*
Y15238D01*
X163926Y15959D01*
X165369D01*
X166090Y15238D01*
Y13795D01*
X165369Y13073D01*
X161761D02*
X159596D01*
X158875Y13795D01*
X159596Y14516D01*
X161039D01*
X161761Y15238D01*
X161039Y15959D01*
X158875D01*
X156710Y16681D02*
Y15959D01*
X157432D01*
X155989D01*
X156710D01*
Y13795D01*
X155989Y13073D01*
X149495Y15238D02*
X146608D01*
X140836Y15959D02*
X139393Y13073D01*
X137950Y15959D01*
X136507Y16681D02*
X135785Y17402D01*
X134342D01*
X133620Y16681D01*
Y13795D01*
X134342Y13073D01*
X135785D01*
X136507Y13795D01*
Y16681D01*
X132177Y13073D02*
Y13795D01*
X131456D01*
Y13073D01*
X132177D01*
X128569D02*
X127126D01*
X127848D01*
Y17402D01*
X128569Y16681D01*
X251051Y183463D02*
X252494D01*
X251772D01*
Y179855D01*
X252494Y179134D01*
X253216D01*
X253937Y179855D01*
X249608Y182020D02*
Y179855D01*
X248886Y179134D01*
X246722D01*
Y182020D01*
X245278Y179134D02*
X243835D01*
X244557D01*
Y183463D01*
X245278D01*
X241671Y179134D02*
X240228D01*
X240949D01*
Y182020D01*
X241671D01*
X237341D02*
X235898D01*
X235177Y181298D01*
Y179134D01*
X237341D01*
X238063Y179855D01*
X237341Y180577D01*
X235177D01*
X233734Y179134D02*
Y182020D01*
X231569D01*
X230847Y181298D01*
Y179134D01*
X225075D02*
Y182020D01*
X223632Y183463D01*
X222189Y182020D01*
Y179134D01*
Y181298D01*
X225075D01*
X220746Y179134D02*
Y179855D01*
X220024D01*
Y179134D01*
X220746D01*
X212809Y183463D02*
Y180577D01*
X211366Y179134D01*
X209922Y180577D01*
Y183463D01*
X208479Y179134D02*
X207036D01*
X207758D01*
Y182020D01*
X208479D01*
X204872Y179134D02*
X203428D01*
X204150D01*
Y183463D01*
X204872D01*
X201264Y179134D02*
X199821D01*
X200542D01*
Y183463D01*
X201264D01*
X196934Y182020D02*
X195491D01*
X194770Y181298D01*
Y179134D01*
X196934D01*
X197656Y179855D01*
X196934Y180577D01*
X194770D01*
X193327Y182020D02*
Y179134D01*
Y180577D01*
X192605Y181298D01*
X191884Y182020D01*
X191162D01*
X188997D02*
Y179134D01*
Y180577D01*
X188276Y181298D01*
X187554Y182020D01*
X186833D01*
X182503Y179134D02*
X183947D01*
X184668Y179855D01*
Y181298D01*
X183947Y182020D01*
X182503D01*
X181782Y181298D01*
Y180577D01*
X184668D01*
X179617Y182020D02*
X178174D01*
X177453Y181298D01*
Y179134D01*
X179617D01*
X180339Y179855D01*
X179617Y180577D01*
X177453D01*
X176009Y179134D02*
X174566D01*
X175288D01*
Y183463D01*
X176009D01*
X165186Y182742D02*
X165908Y183463D01*
X167351D01*
X168072Y182742D01*
Y182020D01*
X167351Y181298D01*
X165908D01*
X165186Y180577D01*
Y179855D01*
X165908Y179134D01*
X167351D01*
X168072Y179855D01*
X163743Y179134D02*
X162300D01*
X163022D01*
Y182020D01*
X163743D01*
X157971Y179134D02*
X159414D01*
X160135Y179855D01*
Y181298D01*
X159414Y182020D01*
X157971D01*
X157249Y181298D01*
Y180577D01*
X160135D01*
X155806Y182020D02*
Y179134D01*
Y180577D01*
X155084Y181298D01*
X154363Y182020D01*
X153641D01*
X151477D02*
Y179134D01*
Y180577D01*
X150755Y181298D01*
X150034Y182020D01*
X149312D01*
X146426D02*
X144983D01*
X144261Y181298D01*
Y179134D01*
X146426D01*
X147147Y179855D01*
X146426Y180577D01*
X144261D01*
M02*
