G04*
G04 #@! TF.GenerationSoftware,Altium Limited,Altium Designer,19.1.5 (86)*
G04*
G04 Layer_Color=8388736*
%FSLAX25Y25*%
%MOIN*%
G70*
G01*
G75*
%ADD14R,0.04331X0.04921*%
%ADD15R,0.06741X0.04166*%
%ADD17R,0.04166X0.06741*%
%ADD18R,0.07111X0.05136*%
%ADD20R,0.05721X0.08083*%
%ADD21O,0.08280X0.03162*%
%ADD22C,0.20485*%
%ADD23C,0.06902*%
%ADD24R,0.06902X0.06902*%
%ADD25R,0.07493X0.07493*%
%ADD26C,0.07493*%
%ADD27C,0.04724*%
%ADD28R,0.04724X0.04724*%
%ADD29C,0.07887*%
%ADD30R,0.07887X0.07887*%
%ADD31C,0.05800*%
D14*
X207953Y66870D02*
D03*
Y57618D02*
D03*
X52856Y167461D02*
D03*
Y158209D02*
D03*
D15*
X198583Y57453D02*
D03*
Y68689D02*
D03*
X205000Y165185D02*
D03*
Y153949D02*
D03*
X43661Y158004D02*
D03*
Y169240D02*
D03*
X117546Y95799D02*
D03*
Y107035D02*
D03*
X96180D02*
D03*
Y95799D02*
D03*
X188779Y93347D02*
D03*
Y82110D02*
D03*
X76614Y87021D02*
D03*
Y75785D02*
D03*
X149134Y68689D02*
D03*
Y57453D02*
D03*
X170499D02*
D03*
Y68689D02*
D03*
X76614Y67862D02*
D03*
Y56626D02*
D03*
X117546Y135382D02*
D03*
Y124146D02*
D03*
X96180D02*
D03*
Y135382D02*
D03*
D17*
X223775Y123661D02*
D03*
X212538D02*
D03*
X212508Y113164D02*
D03*
X201272D02*
D03*
X201248Y102666D02*
D03*
X190012D02*
D03*
D18*
X106863Y95902D02*
D03*
Y106932D02*
D03*
X128228D02*
D03*
Y95902D02*
D03*
X159817Y68468D02*
D03*
Y57438D02*
D03*
X138386Y57438D02*
D03*
Y68468D02*
D03*
X106863Y135594D02*
D03*
Y124564D02*
D03*
X128228Y123937D02*
D03*
Y134967D02*
D03*
D20*
X147188Y166910D02*
D03*
Y176949D02*
D03*
X157441Y166910D02*
D03*
Y176949D02*
D03*
X167694Y166910D02*
D03*
Y176949D02*
D03*
D21*
X151260Y107736D02*
D03*
Y102736D02*
D03*
Y97736D02*
D03*
Y92736D02*
D03*
X169764Y107736D02*
D03*
Y102736D02*
D03*
Y97736D02*
D03*
Y92736D02*
D03*
X115354Y56595D02*
D03*
Y61594D02*
D03*
Y66594D02*
D03*
Y71595D02*
D03*
X96850Y56595D02*
D03*
Y61594D02*
D03*
Y66594D02*
D03*
Y71595D02*
D03*
X169764Y123445D02*
D03*
Y128445D02*
D03*
Y133445D02*
D03*
Y138445D02*
D03*
X151260Y123445D02*
D03*
Y128445D02*
D03*
Y133445D02*
D03*
Y138445D02*
D03*
D22*
X14173Y181496D02*
D03*
Y14567D02*
D03*
X277165D02*
D03*
Y181496D02*
D03*
D23*
X151221Y28583D02*
D03*
X141220D02*
D03*
X131220D02*
D03*
X121221D02*
D03*
X161221D02*
D03*
X99882Y167362D02*
D03*
X109882D02*
D03*
X119882D02*
D03*
X129882D02*
D03*
X89882D02*
D03*
D24*
X171221Y28583D02*
D03*
X79882Y167362D02*
D03*
D25*
X60709Y27126D02*
D03*
D26*
X70709D02*
D03*
X80709D02*
D03*
X90709D02*
D03*
X241535Y113819D02*
D03*
Y74449D02*
D03*
X49646Y113819D02*
D03*
Y74449D02*
D03*
D27*
X221693Y165177D02*
D03*
X231693D02*
D03*
D28*
X241693D02*
D03*
D29*
X272638Y104134D02*
D03*
X18583Y81929D02*
D03*
D30*
X272638Y84134D02*
D03*
X18583Y101929D02*
D03*
D31*
X142126Y102362D02*
D03*
X229134Y74410D02*
D03*
X236614Y145276D02*
D03*
X141732Y136221D02*
D03*
X178740Y138583D02*
D03*
X67776Y176949D02*
D03*
X185472Y68583D02*
D03*
X200866Y145473D02*
D03*
X123661Y64796D02*
D03*
X145354Y90158D02*
D03*
X123661Y74002D02*
D03*
X175394Y166850D02*
D03*
M02*
