G04*
G04 #@! TF.GenerationSoftware,Altium Limited,Altium Designer,19.1.5 (86)*
G04*
G04 Layer_Color=65535*
%FSLAX25Y25*%
%MOIN*%
G70*
G01*
G75*
%ADD10C,0.00984*%
%ADD11C,0.01575*%
%ADD12C,0.00787*%
%ADD13C,0.01000*%
D10*
X179272Y28583D02*
G03*
X179272Y28583I-492J0D01*
G01*
X53642Y27126D02*
G03*
X53642Y27126I-492J0D01*
G01*
X72815Y167362D02*
G03*
X72815Y167362I-492J0D01*
G01*
X170256Y89390D02*
G03*
X170256Y89390I-492J0D01*
G01*
X97342Y74941D02*
G03*
X97342Y74941I-492J0D01*
G01*
X151752Y141791D02*
G03*
X151752Y141791I-492J0D01*
G01*
D11*
X162087Y93543D02*
G03*
X162087Y93543I-787J0D01*
G01*
X106102Y70787D02*
G03*
X106102Y70787I-787J0D01*
G01*
X160512Y137638D02*
G03*
X160512Y137638I-787J0D01*
G01*
X143645Y182559D02*
X150732D01*
X153898D02*
X160985D01*
X164151D02*
X171238D01*
D12*
X116220Y16083D02*
X176221D01*
X116220Y41083D02*
X176221D01*
Y16083D02*
Y41083D01*
X116220Y16083D02*
Y41083D01*
X206909Y52382D02*
X208878D01*
X207854Y51457D02*
Y53425D01*
X210610Y61555D02*
Y62933D01*
X205295Y61555D02*
Y62933D01*
X201953Y60717D02*
Y65425D01*
X195212Y60717D02*
Y65425D01*
X55709Y15709D02*
Y38543D01*
X95709D01*
Y15709D02*
Y38543D01*
X55709Y15709D02*
X95709D01*
X201630Y157213D02*
Y161921D01*
X208370Y157213D02*
Y161921D01*
X47032Y161268D02*
Y165976D01*
X40291Y161268D02*
Y165976D01*
X51812Y152972D02*
X53781D01*
X52757Y152047D02*
Y154016D01*
X55513Y162146D02*
Y163524D01*
X50198Y162146D02*
Y163524D01*
X212441Y155394D02*
X250945D01*
Y174921D01*
X212441D02*
X250945D01*
X212441Y155394D02*
Y174921D01*
X74882Y179862D02*
X134882D01*
X74882Y154862D02*
X134882D01*
X74882D02*
Y179862D01*
X134882Y154862D02*
Y179862D01*
X256694Y74134D02*
Y114134D01*
X288583Y74134D02*
Y114134D01*
X256694Y74134D02*
X288583D01*
X256694Y114134D02*
X288583D01*
X215802Y127032D02*
X220510D01*
X215802Y120291D02*
X220510D01*
X204536Y116534D02*
X209244D01*
X204536Y109793D02*
X209244D01*
X103713Y99947D02*
Y102888D01*
X110012Y99947D02*
Y102888D01*
X193276Y106037D02*
X197984D01*
X193276Y99296D02*
X197984D01*
X156575Y110079D02*
X164449D01*
X156575Y90394D02*
X164449D01*
X156575D02*
Y110079D01*
X164449Y90394D02*
Y110079D01*
X120916Y99063D02*
Y103771D01*
X114175Y99063D02*
Y103771D01*
X92810Y99063D02*
Y103771D01*
X99550Y99063D02*
Y103771D01*
X131378Y99947D02*
Y102888D01*
X125079Y99947D02*
Y102888D01*
X185409Y85374D02*
Y90082D01*
X192150Y85374D02*
Y90082D01*
X34527Y71930D02*
Y111929D01*
X2637Y71930D02*
Y111930D01*
X34527D01*
X2637Y71930D02*
X34527D01*
X162966Y61482D02*
Y64423D01*
X156667Y61482D02*
Y64423D01*
X73244Y79049D02*
Y83757D01*
X79984Y79049D02*
Y83757D01*
X102165Y54252D02*
X110039D01*
X102165Y73937D02*
X110039D01*
Y54252D02*
Y73937D01*
X102165Y54252D02*
Y73937D01*
X145764Y60717D02*
Y65425D01*
X152504Y60717D02*
Y65425D01*
X173870Y60717D02*
Y65425D01*
X167129Y60717D02*
Y65425D01*
X135236Y61482D02*
Y64423D01*
X141535Y61482D02*
Y64423D01*
X73244Y59890D02*
Y64598D01*
X79984Y59890D02*
Y64598D01*
X110012Y128608D02*
Y131549D01*
X103713Y128608D02*
Y131549D01*
X156575Y121102D02*
X164449D01*
X156575Y140787D02*
X164449D01*
Y121102D02*
Y140787D01*
X156575Y121102D02*
Y140787D01*
X114175Y127410D02*
Y132118D01*
X120916Y127410D02*
Y132118D01*
X99550Y127410D02*
Y132118D01*
X92810Y127410D02*
Y132118D01*
X125079Y127982D02*
Y130922D01*
X131378Y127982D02*
Y130922D01*
D13*
X251378Y47284D02*
Y140984D01*
X231693Y47284D02*
X251378D01*
X231693Y140984D02*
X251378D01*
X231693Y47284D02*
Y140984D01*
X241535Y98071D02*
Y106732D01*
X237598Y97677D02*
X245472D01*
X237598Y89803D02*
X245472Y97677D01*
X237598Y89803D02*
X245472D01*
X241535Y81142D02*
Y89803D01*
X59488Y47284D02*
Y140984D01*
X39803Y47284D02*
X59488D01*
X39803Y140984D02*
X59488D01*
X39803Y47284D02*
Y140984D01*
X49646Y98071D02*
Y106732D01*
X45709Y97677D02*
X53583D01*
X45709Y89803D02*
X53583Y97677D01*
X45709Y89803D02*
X53583D01*
X49646Y81142D02*
Y89803D01*
X119686Y4331D02*
Y5511D01*
Y4921D01*
X123228D01*
Y4331D01*
Y5511D01*
Y7282D02*
Y8463D01*
Y7873D01*
X120867D01*
Y7282D01*
X123228Y10234D02*
X120867D01*
Y12005D01*
X121457Y12596D01*
X123228D01*
X129765Y4331D02*
X132126D01*
X133307Y5511D01*
X132126Y6692D01*
X129765D01*
X133307Y8463D02*
Y9644D01*
X132717Y10234D01*
X131536D01*
X130946Y9644D01*
Y8463D01*
X131536Y7873D01*
X132717D01*
X133307Y8463D01*
X130946Y11415D02*
X132717D01*
X133307Y12005D01*
Y13777D01*
X130946D01*
X130355Y15548D02*
X130946D01*
Y14957D01*
Y16138D01*
Y15548D01*
X132717D01*
X133307Y16138D01*
X139844Y4331D02*
X142205D01*
X143386Y5511D01*
X142205Y6692D01*
X139844D01*
X143386Y7873D02*
Y9054D01*
Y8463D01*
X141024D01*
Y7873D01*
X143386Y10825D02*
X141024D01*
Y12596D01*
X141615Y13186D01*
X143386D01*
X153465Y4331D02*
X149922D01*
Y6102D01*
X150513Y6692D01*
X151693D01*
X152284Y6102D01*
Y4331D01*
Y5511D02*
X153465Y6692D01*
X149922Y10234D02*
Y7873D01*
X153465D01*
Y10234D01*
X151693Y7873D02*
Y9054D01*
X149922Y13777D02*
Y11415D01*
X151693D01*
Y12596D01*
Y11415D01*
X153465D01*
X160001Y4331D02*
X163543D01*
Y6692D01*
X160001Y10234D02*
Y7873D01*
X163543D01*
Y10234D01*
X161772Y7873D02*
Y9054D01*
X160001Y11415D02*
X163543D01*
Y13186D01*
X162953Y13777D01*
X160591D01*
X160001Y13186D01*
Y11415D01*
X170670Y6692D02*
X170080Y6102D01*
Y4921D01*
X170670Y4331D01*
X173032D01*
X173622Y4921D01*
Y6102D01*
X173032Y6692D01*
X171851D01*
Y5511D01*
X173622Y7873D02*
X170080D01*
X173622Y10234D01*
X170080D01*
Y11415D02*
X173622D01*
Y13186D01*
X173032Y13777D01*
X170670D01*
X170080Y13186D01*
Y11415D01*
X59450Y6692D02*
Y4331D01*
X61221D01*
X60631Y5511D01*
Y6102D01*
X61221Y6692D01*
X62402D01*
X62992Y6102D01*
Y4921D01*
X62402Y4331D01*
X59450Y7873D02*
X61811D01*
X62992Y9054D01*
X61811Y10234D01*
X59450D01*
X69161Y6692D02*
Y4331D01*
X70932D01*
Y5511D01*
Y4331D01*
X72703D01*
X69752Y10234D02*
X69161Y9644D01*
Y8463D01*
X69752Y7873D01*
X72113D01*
X72703Y8463D01*
Y9644D01*
X72113Y10234D01*
X69161Y11415D02*
Y12596D01*
Y12005D01*
X72703D01*
Y11415D01*
Y12596D01*
X89174Y6692D02*
X88584Y6102D01*
Y4921D01*
X89174Y4331D01*
X91536D01*
X92126Y4921D01*
Y6102D01*
X91536Y6692D01*
X90355D01*
Y5511D01*
X92126Y7873D02*
X88584D01*
X92126Y10234D01*
X88584D01*
Y11415D02*
X92126D01*
Y13186D01*
X91536Y13777D01*
X89174D01*
X88584Y13186D01*
Y11415D01*
X82415Y4331D02*
X78873D01*
Y6102D01*
X79463Y6692D01*
X80644D01*
X81234Y6102D01*
Y4331D01*
X78873Y7873D02*
X82415D01*
X81234Y9054D01*
X82415Y10234D01*
X78873D01*
X82415Y11415D02*
X78873D01*
X80053Y12596D01*
X78873Y13777D01*
X82415D01*
X215878Y13384D02*
X214435D01*
X215157D01*
Y9777D01*
X214435Y9055D01*
X213714D01*
X212992Y9777D01*
X217321Y13384D02*
Y10498D01*
X218764Y9055D01*
X220208Y10498D01*
Y13384D01*
X247627Y9055D02*
Y13384D01*
X249791D01*
X250513Y12663D01*
Y11220D01*
X249791Y10498D01*
X247627D01*
X251956Y13384D02*
Y9777D01*
X252677Y9055D01*
X254121D01*
X254842Y9777D01*
Y13384D01*
X259171D02*
X257728D01*
X258450D01*
Y9777D01*
X257728Y9055D01*
X257007D01*
X256285Y9777D01*
X215878Y20931D02*
X215157Y21652D01*
X213714D01*
X212992Y20931D01*
Y20209D01*
X213714Y19488D01*
X215157D01*
X215878Y18766D01*
Y18044D01*
X215157Y17323D01*
X213714D01*
X212992Y18044D01*
X220208D02*
Y20931D01*
X219486Y21652D01*
X218043D01*
X217321Y20931D01*
Y18044D01*
X218043Y17323D01*
X219486D01*
X218764Y18766D02*
X220208Y17323D01*
X219486D02*
X220208Y18044D01*
X221651Y21652D02*
Y17323D01*
X223815D01*
X224537Y18044D01*
Y18766D01*
X223815Y19488D01*
X221651D01*
X223815D01*
X224537Y20209D01*
Y20931D01*
X223815Y21652D01*
X221651D01*
X225980Y20931D02*
X226702Y21652D01*
X228145D01*
X228866Y20931D01*
Y18044D01*
X228145Y17323D01*
X226702D01*
X225980Y18044D01*
Y20931D01*
X230309Y18044D02*
X231031Y17323D01*
X232474D01*
X233196Y18044D01*
Y20931D01*
X232474Y21652D01*
X231031D01*
X230309Y20931D01*
Y20209D01*
X231031Y19488D01*
X233196D01*
X234639Y20931D02*
X235360Y21652D01*
X236803D01*
X237525Y20931D01*
Y18044D01*
X236803Y17323D01*
X235360D01*
X234639Y18044D01*
Y20931D01*
X238968D02*
X239689Y21652D01*
X241133D01*
X241854Y20931D01*
Y20209D01*
X241133Y19488D01*
X241854Y18766D01*
Y18044D01*
X241133Y17323D01*
X239689D01*
X238968Y18044D01*
Y18766D01*
X239689Y19488D01*
X238968Y20209D01*
Y20931D01*
X239689Y19488D02*
X241133D01*
X246183Y17323D02*
X243297D01*
X246183Y20209D01*
Y20931D01*
X245462Y21652D01*
X244019D01*
X243297Y20931D01*
X247627D02*
X248348Y21652D01*
X249791D01*
X250513Y20931D01*
Y18044D01*
X249791Y17323D01*
X248348D01*
X247627Y18044D01*
Y20931D01*
X254842Y17323D02*
X251956D01*
X254842Y20209D01*
Y20931D01*
X254121Y21652D01*
X252677D01*
X251956Y20931D01*
X256285D02*
X257007Y21652D01*
X258450D01*
X259171Y20931D01*
Y18044D01*
X258450Y17323D01*
X257007D01*
X256285Y18044D01*
Y20931D01*
X16929Y118747D02*
X20928D01*
X18928Y120746D02*
Y116748D01*
X16929Y65597D02*
X20928D01*
X61718Y85707D02*
X65717D01*
X67716Y87706D01*
X65717Y89706D01*
X61718D01*
X67716Y91705D02*
Y93704D01*
Y92705D01*
X63718D01*
Y91705D01*
X67716Y96703D02*
X63718D01*
Y99703D01*
X64718Y100702D01*
X67716D01*
X79004Y185301D02*
X78348Y184645D01*
Y183333D01*
X79004Y182677D01*
X81628D01*
X82284Y183333D01*
Y184645D01*
X81628Y185301D01*
X80316D01*
Y183989D01*
X82284Y186613D02*
X78348D01*
X82284Y189237D01*
X78348D01*
Y190549D02*
X82284D01*
Y192517D01*
X81628Y193173D01*
X79004D01*
X78348Y192517D01*
Y190549D01*
X89017Y185301D02*
Y182677D01*
X90985D01*
Y183989D01*
Y182677D01*
X92953D01*
X89673Y189237D02*
X89017Y188581D01*
Y187269D01*
X89673Y186613D01*
X92297D01*
X92953Y187269D01*
Y188581D01*
X92297Y189237D01*
X89017Y190549D02*
Y191860D01*
Y191205D01*
X92953D01*
Y190549D01*
Y191860D01*
X98860Y182677D02*
Y183989D01*
Y183333D01*
X102795D01*
Y182677D01*
Y183989D01*
Y185957D02*
Y187269D01*
Y186613D01*
X100171D01*
Y185957D01*
X102795Y189237D02*
X100171D01*
Y191205D01*
X100827Y191860D01*
X102795D01*
X108269Y185301D02*
Y182677D01*
X110237D01*
X109581Y183989D01*
Y184645D01*
X110237Y185301D01*
X111549D01*
X112205Y184645D01*
Y183333D01*
X111549Y182677D01*
X108269Y186613D02*
X110893D01*
X112205Y187925D01*
X110893Y189237D01*
X108269D01*
X119673Y185301D02*
X119017Y184645D01*
Y183333D01*
X119673Y182677D01*
X122297D01*
X122953Y183333D01*
Y184645D01*
X122297Y185301D01*
X120985D01*
Y183989D01*
X122953Y186613D02*
X119017D01*
X122953Y189237D01*
X119017D01*
Y190549D02*
X122953D01*
Y192517D01*
X122297Y193173D01*
X119673D01*
X119017Y192517D01*
Y190549D01*
X133031Y182677D02*
X129096D01*
Y184645D01*
X129752Y185301D01*
X131064D01*
X131720Y184645D01*
Y182677D01*
X129096Y186613D02*
X133031D01*
X131720Y187925D01*
X133031Y189237D01*
X129096D01*
X133031Y190549D02*
X129096D01*
X130408Y191861D01*
X129096Y193173D01*
X133031D01*
X270472Y66779D02*
X274471D01*
X270472Y119928D02*
X274471D01*
X272472Y121927D02*
Y117929D01*
X222348Y80709D02*
X226347D01*
X228346Y82708D01*
X226347Y84707D01*
X222348D01*
X228346Y87706D02*
Y89706D01*
X227347Y90705D01*
X225347D01*
X224348Y89706D01*
Y87706D01*
X225347Y86707D01*
X227347D01*
X228346Y87706D01*
X224348Y92705D02*
X227347D01*
X228346Y93704D01*
Y96703D01*
X224348D01*
X223348Y99703D02*
X224348D01*
Y98703D01*
Y100702D01*
Y99703D01*
X227347D01*
X228346Y100702D01*
X180945Y18150D02*
Y22873D01*
X183306D01*
X184093Y22085D01*
Y20511D01*
X183306Y19724D01*
X180945D01*
X185668Y22085D02*
X186455Y22873D01*
X188029D01*
X188816Y22085D01*
Y21298D01*
X188029Y20511D01*
X187242D01*
X188029D01*
X188816Y19724D01*
Y18937D01*
X188029Y18150D01*
X186455D01*
X185668Y18937D01*
X196063Y52362D02*
X200786D01*
Y50001D01*
X199999Y49214D01*
X198424D01*
X197637Y50001D01*
Y52362D01*
Y50788D02*
X196063Y49214D01*
Y47639D02*
Y46065D01*
Y46852D01*
X200786D01*
X199999Y47639D01*
X200786Y40555D02*
X199999Y42129D01*
X198424Y43704D01*
X196850D01*
X196063Y42916D01*
Y41342D01*
X196850Y40555D01*
X197637D01*
X198424Y41342D01*
Y43704D01*
X197954Y170236D02*
Y174959D01*
X200315D01*
X201103Y174172D01*
Y172598D01*
X200315Y171810D01*
X197954D01*
X199528D02*
X201103Y170236D01*
X202677D02*
X204251D01*
X203464D01*
Y174959D01*
X202677Y174172D01*
X208974Y170236D02*
Y174959D01*
X206613Y172598D01*
X209761D01*
X49159Y16176D02*
X44436D01*
Y18537D01*
X45223Y19325D01*
X46797D01*
X47584Y18537D01*
Y16176D01*
X49159Y24047D02*
Y20899D01*
X46010Y24047D01*
X45223D01*
X44436Y23260D01*
Y21686D01*
X45223Y20899D01*
X210628Y48425D02*
X205906D01*
Y46064D01*
X206693Y45277D01*
X209841D01*
X210628Y46064D01*
Y48425D01*
X205906Y40554D02*
Y43702D01*
X209054Y40554D01*
X209841D01*
X210628Y41341D01*
Y42915D01*
X209841Y43702D01*
X36929Y158228D02*
X32206D01*
Y160590D01*
X32993Y161377D01*
X34568D01*
X35355Y160590D01*
Y158228D01*
Y159803D02*
X36929Y161377D01*
Y162951D02*
Y164525D01*
Y163738D01*
X32206D01*
X32993Y162951D01*
X32206Y170036D02*
Y166887D01*
X34568D01*
X33781Y168461D01*
Y169248D01*
X34568Y170036D01*
X36142D01*
X36929Y169248D01*
Y167674D01*
X36142Y166887D01*
X238779Y177342D02*
Y182065D01*
X241141D01*
X241928Y181278D01*
Y179704D01*
X241141Y178917D01*
X238779D01*
X240354D02*
X241928Y177342D01*
X243502D02*
X245077D01*
X244290D01*
Y182065D01*
X243502Y181278D01*
X247438D02*
X248225Y182065D01*
X249800D01*
X250587Y181278D01*
Y180491D01*
X249800Y179704D01*
X249012D01*
X249800D01*
X250587Y178917D01*
Y178130D01*
X249800Y177342D01*
X248225D01*
X247438Y178130D01*
X50710Y173465D02*
X55433D01*
Y175826D01*
X54646Y176613D01*
X51497D01*
X50710Y175826D01*
Y173465D01*
X55433Y178188D02*
Y179762D01*
Y178975D01*
X50710D01*
X51497Y178188D01*
X24302Y52282D02*
Y49133D01*
X25877Y47559D01*
X27451Y49133D01*
Y52282D01*
X29025Y47559D02*
Y52282D01*
X31387D01*
X32174Y51495D01*
Y49920D01*
X31387Y49133D01*
X29025D01*
X30600D02*
X32174Y47559D01*
X36897D02*
X33748D01*
X36897Y50708D01*
Y51495D01*
X36110Y52282D01*
X34535D01*
X33748Y51495D01*
X254488Y53306D02*
Y50157D01*
X256063Y48583D01*
X257637Y50157D01*
Y53306D01*
X259211Y48583D02*
Y53306D01*
X261573D01*
X262360Y52518D01*
Y50944D01*
X261573Y50157D01*
X259211D01*
X260785D02*
X262360Y48583D01*
X263934D02*
X265508D01*
X264721D01*
Y53306D01*
X263934Y52518D01*
X175197Y127164D02*
Y123228D01*
X175984Y122441D01*
X177558D01*
X178345Y123228D01*
Y127164D01*
X179920Y126377D02*
X180707Y127164D01*
X182281D01*
X183068Y126377D01*
Y125590D01*
X182281Y124802D01*
X181494D01*
X182281D01*
X183068Y124015D01*
Y123228D01*
X182281Y122441D01*
X180707D01*
X179920Y123228D01*
X122047Y60235D02*
Y56299D01*
X122834Y55512D01*
X124409D01*
X125196Y56299D01*
Y60235D01*
X129919Y55512D02*
X126770D01*
X129919Y58660D01*
Y59448D01*
X129132Y60235D01*
X127557D01*
X126770Y59448D01*
X175984Y95668D02*
Y91732D01*
X176771Y90945D01*
X178346D01*
X179133Y91732D01*
Y95668D01*
X180707Y90945D02*
X182281D01*
X181494D01*
Y95668D01*
X180707Y94881D01*
X119803Y139724D02*
X115080D01*
Y142086D01*
X115867Y142873D01*
X117442D01*
X118229Y142086D01*
Y139724D01*
Y141299D02*
X119803Y142873D01*
Y144447D02*
Y146022D01*
Y145235D01*
X115080D01*
X115867Y144447D01*
X119803Y151532D02*
Y148383D01*
X116655Y151532D01*
X115867D01*
X115080Y150744D01*
Y149170D01*
X115867Y148383D01*
X98359Y140000D02*
X93636D01*
Y142361D01*
X94423Y143149D01*
X95998D01*
X96785Y142361D01*
Y140000D01*
Y141574D02*
X98359Y143149D01*
Y144723D02*
Y146297D01*
Y145510D01*
X93636D01*
X94423Y144723D01*
X98359Y148659D02*
Y150233D01*
Y149446D01*
X93636D01*
X94423Y148659D01*
X151339Y73347D02*
X146616D01*
Y75708D01*
X147403Y76495D01*
X148977D01*
X149764Y75708D01*
Y73347D01*
Y74921D02*
X151339Y76495D01*
Y78069D02*
Y79644D01*
Y78856D01*
X146616D01*
X147403Y78069D01*
Y82005D02*
X146616Y82792D01*
Y84367D01*
X147403Y85154D01*
X150551D01*
X151339Y84367D01*
Y82792D01*
X150551Y82005D01*
X147403D01*
X167047Y73465D02*
Y78188D01*
X169409D01*
X170196Y77400D01*
Y75826D01*
X169409Y75039D01*
X167047D01*
X168622D02*
X170196Y73465D01*
X171770Y74252D02*
X172557Y73465D01*
X174132D01*
X174919Y74252D01*
Y77400D01*
X174132Y78188D01*
X172557D01*
X171770Y77400D01*
Y76613D01*
X172557Y75826D01*
X174919D01*
X81890Y79921D02*
Y84644D01*
X84251D01*
X85038Y83857D01*
Y82283D01*
X84251Y81496D01*
X81890D01*
X83464D02*
X85038Y79921D01*
X86613Y83857D02*
X87400Y84644D01*
X88974D01*
X89761Y83857D01*
Y83070D01*
X88974Y82283D01*
X89761Y81496D01*
Y80708D01*
X88974Y79921D01*
X87400D01*
X86613Y80708D01*
Y81496D01*
X87400Y82283D01*
X86613Y83070D01*
Y83857D01*
X87400Y82283D02*
X88974D01*
X72957Y45630D02*
Y50353D01*
X75319D01*
X76106Y49566D01*
Y47991D01*
X75319Y47204D01*
X72957D01*
X74532D02*
X76106Y45630D01*
X77680Y50353D02*
X80829D01*
Y49566D01*
X77680Y46417D01*
Y45630D01*
X113268Y112047D02*
Y116770D01*
X115629D01*
X116416Y115983D01*
Y114409D01*
X115629Y113621D01*
X113268D01*
X114842D02*
X116416Y112047D01*
X121139Y116770D02*
X119565Y115983D01*
X117991Y114409D01*
Y112834D01*
X118778Y112047D01*
X120352D01*
X121139Y112834D01*
Y113621D01*
X120352Y114409D01*
X117991D01*
X92008Y112047D02*
Y116770D01*
X94369D01*
X95157Y115983D01*
Y114409D01*
X94369Y113621D01*
X92008D01*
X93582D02*
X95157Y112047D01*
X99879Y116770D02*
X96731D01*
Y114409D01*
X98305Y115196D01*
X99092D01*
X99879Y114409D01*
Y112834D01*
X99092Y112047D01*
X97518D01*
X96731Y112834D01*
X210118Y129764D02*
Y134487D01*
X212480D01*
X213267Y133700D01*
Y132125D01*
X212480Y131338D01*
X210118D01*
X211692D02*
X213267Y129764D01*
X217202D02*
Y134487D01*
X214841Y132125D01*
X217990D01*
X198661Y119173D02*
Y123896D01*
X201023D01*
X201810Y123109D01*
Y121535D01*
X201023Y120747D01*
X198661D01*
X200236D02*
X201810Y119173D01*
X203384Y123109D02*
X204171Y123896D01*
X205746D01*
X206533Y123109D01*
Y122322D01*
X205746Y121535D01*
X204959D01*
X205746D01*
X206533Y120747D01*
Y119960D01*
X205746Y119173D01*
X204171D01*
X203384Y119960D01*
X187126Y108740D02*
Y113463D01*
X189487D01*
X190275Y112676D01*
Y111102D01*
X189487Y110315D01*
X187126D01*
X188700D02*
X190275Y108740D01*
X194998D02*
X191849D01*
X194998Y111889D01*
Y112676D01*
X194210Y113463D01*
X192636D01*
X191849Y112676D01*
X195276Y80709D02*
Y85431D01*
X197637D01*
X198424Y84644D01*
Y83070D01*
X197637Y82283D01*
X195276D01*
X196850D02*
X198424Y80709D01*
X199998D02*
X201573D01*
X200786D01*
Y85431D01*
X199998Y84644D01*
X65905Y155276D02*
Y159999D01*
X68267D01*
X69054Y159211D01*
Y157637D01*
X68267Y156850D01*
X65905D01*
X70628Y155276D02*
X72203D01*
X71416D01*
Y159999D01*
X70628Y159211D01*
X30314Y68896D02*
X28740D01*
X29527D01*
Y64960D01*
X28740Y64173D01*
X27953D01*
X27165Y64960D01*
X35037Y64173D02*
X31888D01*
X35037Y67322D01*
Y68109D01*
X34250Y68896D01*
X32675D01*
X31888Y68109D01*
X260235Y71258D02*
X258661D01*
X259448D01*
Y67323D01*
X258661Y66535D01*
X257874D01*
X257087Y67323D01*
X261809Y66535D02*
X263384D01*
X262597D01*
Y71258D01*
X261809Y70471D01*
X145710Y151298D02*
X144923Y150511D01*
Y148937D01*
X145710Y148150D01*
X148858D01*
X149646Y148937D01*
Y150511D01*
X148858Y151298D01*
X149646Y152873D02*
X146497D01*
X144923Y154447D01*
X146497Y156021D01*
X149646D01*
X147284D01*
Y152873D01*
X145710Y157595D02*
X144923Y158382D01*
Y159957D01*
X145710Y160744D01*
X146497D01*
X147284Y159957D01*
Y159170D01*
Y159957D01*
X148071Y160744D01*
X148858D01*
X149646Y159957D01*
Y158382D01*
X148858Y157595D01*
X156261Y151298D02*
X155474Y150511D01*
Y148937D01*
X156261Y148150D01*
X159410D01*
X160197Y148937D01*
Y150511D01*
X159410Y151298D01*
X160197Y152873D02*
X157048D01*
X155474Y154447D01*
X157048Y156021D01*
X160197D01*
X157835D01*
Y152873D01*
X160197Y160744D02*
Y157595D01*
X157048Y160744D01*
X156261D01*
X155474Y159957D01*
Y158382D01*
X156261Y157595D01*
X165867Y153188D02*
X165080Y152401D01*
Y150827D01*
X165867Y150039D01*
X169016D01*
X169803Y150827D01*
Y152401D01*
X169016Y153188D01*
X169803Y154762D02*
X166655D01*
X165080Y156337D01*
X166655Y157911D01*
X169803D01*
X167442D01*
Y154762D01*
X169803Y159485D02*
Y161059D01*
Y160272D01*
X165080D01*
X165867Y159485D01*
X106114Y143463D02*
X105327Y144251D01*
X103752D01*
X102965Y143463D01*
Y140315D01*
X103752Y139528D01*
X105327D01*
X106114Y140315D01*
X107688Y144251D02*
X110837D01*
Y143463D01*
X107688Y140315D01*
Y139528D01*
X127755Y144648D02*
X126968Y145435D01*
X125393D01*
X124606Y144648D01*
Y141499D01*
X125393Y140712D01*
X126968D01*
X127755Y141499D01*
X132478Y145435D02*
X130903Y144648D01*
X129329Y143073D01*
Y141499D01*
X130116Y140712D01*
X131691D01*
X132478Y141499D01*
Y142286D01*
X131691Y143073D01*
X129329D01*
X159487Y77636D02*
X158700Y78424D01*
X157126D01*
X156339Y77636D01*
Y74488D01*
X157126Y73701D01*
X158700D01*
X159487Y74488D01*
X163423Y73701D02*
Y78424D01*
X161062Y76062D01*
X164210D01*
X137519Y77164D02*
X136732Y77951D01*
X135157D01*
X134370Y77164D01*
Y74015D01*
X135157Y73228D01*
X136732D01*
X137519Y74015D01*
X139093Y77164D02*
X139880Y77951D01*
X141454D01*
X142242Y77164D01*
Y76377D01*
X141454Y75590D01*
X140667D01*
X141454D01*
X142242Y74803D01*
Y74015D01*
X141454Y73228D01*
X139880D01*
X139093Y74015D01*
X106468Y115983D02*
X105681Y116770D01*
X104107D01*
X103320Y115983D01*
Y112834D01*
X104107Y112047D01*
X105681D01*
X106468Y112834D01*
X111191Y112047D02*
X108042D01*
X111191Y115196D01*
Y115983D01*
X110404Y116770D01*
X108830D01*
X108042Y115983D01*
X128621D02*
X127834Y116770D01*
X126260D01*
X125472Y115983D01*
Y112834D01*
X126260Y112047D01*
X127834D01*
X128621Y112834D01*
X130195Y112047D02*
X131770D01*
X130982D01*
Y116770D01*
X130195Y115983D01*
M02*
