G04*
G04 #@! TF.GenerationSoftware,Altium Limited,Altium Designer,19.1.5 (86)*
G04*
G04 Layer_Color=8421504*
%FSLAX25Y25*%
%MOIN*%
G70*
G01*
G75*
%ADD16R,0.07284X0.13976*%
%ADD17R,0.15748X0.07874*%
%ADD18R,0.07284X0.04921*%
%ADD19R,0.06922X0.05140*%
%ADD20R,0.12598X0.07874*%
%ADD21R,0.10851X0.04547*%
%ADD22R,0.05728X0.02362*%
%ADD23R,0.06741X0.04166*%
%ADD24R,0.13976X0.07284*%
%ADD25R,0.02559X0.06890*%
%ADD26R,0.05136X0.07111*%
%ADD27R,0.04166X0.06741*%
D16*
X434842Y130472D02*
D03*
Y109606D02*
D03*
D17*
X240354Y57087D02*
D03*
X212402D02*
D03*
D18*
X208366Y81496D02*
D03*
X218406D02*
D03*
X104547Y283209D02*
D03*
X94508D02*
D03*
D19*
X456378Y125655D02*
D03*
Y114818D02*
D03*
X469764Y88282D02*
D03*
Y99120D02*
D03*
X542835Y64148D02*
D03*
Y74986D02*
D03*
X530669Y64148D02*
D03*
Y74986D02*
D03*
D20*
X570079Y102736D02*
D03*
Y127972D02*
D03*
X542126Y127953D02*
D03*
Y102717D02*
D03*
D21*
X570827Y151114D02*
D03*
Y139495D02*
D03*
X542067Y151114D02*
D03*
Y139495D02*
D03*
D22*
X481806Y107658D02*
D03*
Y102657D02*
D03*
Y97658D02*
D03*
Y92658D02*
D03*
X503234D02*
D03*
Y97658D02*
D03*
Y102657D02*
D03*
Y107658D02*
D03*
D23*
X457283Y99004D02*
D03*
Y87768D02*
D03*
D24*
X560748Y79393D02*
D03*
X581614D02*
D03*
X286221Y65748D02*
D03*
X265354D02*
D03*
D25*
X152146Y283898D02*
D03*
X147146D02*
D03*
X142146D02*
D03*
X137146D02*
D03*
X152146Y261850D02*
D03*
X147146D02*
D03*
X142146D02*
D03*
X137146D02*
D03*
D26*
X115548Y282761D02*
D03*
X126578D02*
D03*
D27*
X83649Y283086D02*
D03*
X72413D02*
D03*
M02*
