G04*
G04 #@! TF.GenerationSoftware,Altium Limited,Altium Designer,19.1.5 (86)*
G04*
G04 Layer_Color=255*
%FSLAX25Y25*%
%MOIN*%
G70*
G01*
G75*
%ADD16R,0.07284X0.13976*%
%ADD17R,0.15748X0.07874*%
%ADD18R,0.07284X0.04921*%
%ADD19R,0.06922X0.05140*%
%ADD20R,0.12598X0.07874*%
%ADD21R,0.10851X0.04547*%
%ADD22R,0.05728X0.02362*%
%ADD23R,0.06741X0.04166*%
%ADD24R,0.13976X0.07284*%
%ADD25R,0.02559X0.06890*%
%ADD26R,0.05136X0.07111*%
%ADD27R,0.04166X0.06741*%
%ADD43C,0.10827*%
%ADD44R,0.10827X0.10827*%
%ADD45C,0.14567*%
%ADD46R,0.14567X0.14567*%
%ADD64C,0.12992*%
%ADD65R,0.12992X0.12992*%
%ADD66C,0.06102*%
%ADD67R,0.06102X0.06102*%
%ADD68C,0.09449*%
%ADD69R,0.09449X0.09449*%
%ADD70C,0.07874*%
%ADD71R,0.07874X0.07874*%
%ADD72C,0.19685*%
%ADD73C,0.06693*%
%ADD74R,0.06693X0.06693*%
%ADD75R,0.12992X0.12992*%
%ADD76C,0.05118*%
%ADD77C,0.07795*%
%ADD78R,0.07795X0.07795*%
%ADD79R,0.07795X0.07795*%
%ADD80C,0.09843*%
%ADD81C,0.09252*%
%ADD82C,0.05512*%
%ADD83C,0.04331*%
D16*
X434842Y130472D02*
D03*
Y109606D02*
D03*
D17*
X240354Y57087D02*
D03*
X212402D02*
D03*
D18*
X208366Y81496D02*
D03*
X218406D02*
D03*
X104547Y283209D02*
D03*
X94508D02*
D03*
D19*
X456378Y125655D02*
D03*
Y114818D02*
D03*
X469764Y88282D02*
D03*
Y99120D02*
D03*
X542835Y64148D02*
D03*
Y74986D02*
D03*
X530669Y64148D02*
D03*
Y74986D02*
D03*
D20*
X570079Y102736D02*
D03*
Y127972D02*
D03*
X542126Y127953D02*
D03*
Y102717D02*
D03*
D21*
X570827Y151114D02*
D03*
Y139495D02*
D03*
X542067Y151114D02*
D03*
Y139495D02*
D03*
D22*
X481806Y107658D02*
D03*
Y102657D02*
D03*
Y97658D02*
D03*
Y92658D02*
D03*
X503234D02*
D03*
Y97658D02*
D03*
Y102657D02*
D03*
Y107658D02*
D03*
D23*
X457283Y99004D02*
D03*
Y87768D02*
D03*
D24*
X560748Y79393D02*
D03*
X581614D02*
D03*
X286221Y65748D02*
D03*
X265354D02*
D03*
D25*
X152146Y283898D02*
D03*
X147146D02*
D03*
X142146D02*
D03*
X137146D02*
D03*
X152146Y261850D02*
D03*
X147146D02*
D03*
X142146D02*
D03*
X137146D02*
D03*
D26*
X115548Y282761D02*
D03*
X126578D02*
D03*
D27*
X83649Y283086D02*
D03*
X72413D02*
D03*
D43*
X568693Y194850D02*
D03*
X547236D02*
D03*
D44*
X525779D02*
D03*
D45*
X597244Y205906D02*
D03*
X348071Y327008D02*
D03*
D46*
X497244Y205906D02*
D03*
X448071Y327008D02*
D03*
D64*
X700315Y132677D02*
D03*
X395095Y174409D02*
D03*
X720000Y285157D02*
D03*
D65*
X739685Y132677D02*
D03*
D66*
X365591Y54331D02*
D03*
X355591D02*
D03*
X345590D02*
D03*
X335591D02*
D03*
X375590D02*
D03*
D67*
X385591D02*
D03*
D68*
X60630Y168347D02*
D03*
X564882Y334764D02*
D03*
X504882D02*
D03*
X293465Y334724D02*
D03*
X233465D02*
D03*
X816142Y164646D02*
D03*
D69*
X60630Y228346D02*
D03*
X816142Y224646D02*
D03*
D70*
X25591Y298076D02*
D03*
X183071Y298076D02*
D03*
Y48110D02*
D03*
X25591Y48110D02*
D03*
D71*
Y368076D02*
D03*
X183071Y368076D02*
D03*
Y118110D02*
D03*
X25591Y118110D02*
D03*
D72*
X438976Y398031D02*
D03*
X842520D02*
D03*
Y18110D02*
D03*
X438976D02*
D03*
X18898D02*
D03*
Y398031D02*
D03*
D73*
X233858Y94882D02*
D03*
Y104882D02*
D03*
X280315Y94882D02*
D03*
Y104882D02*
D03*
D74*
X233858Y114882D02*
D03*
X280315D02*
D03*
D75*
X395095Y213779D02*
D03*
X720000Y324528D02*
D03*
D76*
X212205Y120472D02*
D03*
Y100787D02*
D03*
D77*
X388175Y338303D02*
D03*
X600197Y284291D02*
D03*
X277953Y270472D02*
D03*
D78*
X408056Y338303D02*
D03*
D79*
X600197Y304173D02*
D03*
X277953Y250590D02*
D03*
D80*
X274787Y225552D02*
D03*
Y295552D02*
D03*
D81*
X695945Y218779D02*
D03*
X755000D02*
D03*
D82*
X329134Y216339D02*
D03*
Y186811D02*
D03*
D83*
X260236Y101181D02*
D03*
Y120866D02*
D03*
M02*
