G04*
G04 #@! TF.GenerationSoftware,Altium Limited,Altium Designer,19.1.5 (86)*
G04*
G04 Layer_Color=32768*
%FSLAX25Y25*%
%MOIN*%
G70*
G01*
G75*
%ADD15C,0.00600*%
%ADD87C,0.00394*%
%ADD91C,0.00197*%
G36*
X483670Y90559D02*
X477942D01*
Y109756D01*
X483670D01*
Y111007D01*
X501370D01*
Y109756D01*
X507098D01*
Y90559D01*
X501370D01*
Y89307D01*
X483670D01*
Y90559D01*
D02*
G37*
D15*
X477942D02*
Y109756D01*
X483670D01*
Y111007D01*
X501370D01*
Y109756D02*
Y111007D01*
Y109756D02*
X507098D01*
Y90559D02*
Y109756D01*
X501370Y90559D02*
X507098D01*
X501370Y89307D02*
Y90559D01*
X483670Y89307D02*
X501370D01*
X483670D02*
Y90559D01*
X477942D02*
X483670D01*
D87*
X360591Y52362D02*
Y56299D01*
X358622Y54331D02*
X362559D01*
X231890Y104882D02*
X235827D01*
X233858Y102913D02*
Y106850D01*
X213386Y79528D02*
Y83465D01*
X211417Y81496D02*
X215354D01*
X278346Y104882D02*
X282283D01*
X280315Y102913D02*
Y106850D01*
X142677Y272874D02*
X146614D01*
X144646Y270905D02*
Y274843D01*
X99528Y281240D02*
Y285177D01*
X97559Y283209D02*
X101496D01*
D91*
X791850Y132677D02*
G03*
X791850Y132677I-71850J0D01*
G01*
X447261Y194095D02*
G03*
X447261Y194095I-52165J0D01*
G01*
X791850Y304842D02*
G03*
X791850Y304842I-71850J0D01*
G01*
X330197Y41437D02*
X390984D01*
X330197Y67224D02*
X390984D01*
Y41437D02*
Y67224D01*
X330197Y41437D02*
Y67224D01*
X245472Y83425D02*
Y126339D01*
X226181Y83425D02*
Y126339D01*
X245472D01*
X226181Y83425D02*
X245472D01*
X419572Y326610D02*
Y346689D01*
X376659D02*
X419572D01*
X376659Y326610D02*
Y346689D01*
Y326610D02*
X419572D01*
X591811Y315689D02*
X611890D01*
X591811Y272776D02*
Y315689D01*
Y272776D02*
X611890D01*
Y315689D01*
X266260Y239075D02*
Y281988D01*
X286339D01*
Y239075D02*
Y281988D01*
X266260Y239075D02*
X286339D01*
X329134Y199606D02*
Y203543D01*
X327165Y201575D02*
X331102D01*
X316535Y177165D02*
X341732D01*
Y225984D01*
X316535D02*
X341732D01*
X316535Y177165D02*
Y225984D01*
X419488Y100650D02*
X450197D01*
Y139429D01*
X419488D02*
X450197D01*
X419488Y100650D02*
Y139429D01*
X203740Y86024D02*
X223031D01*
X203740Y76968D02*
X223031D01*
X203740D02*
Y86024D01*
X223031Y76968D02*
Y86024D01*
X291929Y83425D02*
Y126339D01*
X272638Y83425D02*
Y126339D01*
X291929D01*
X272638Y83425D02*
X291929D01*
X551791Y94747D02*
X590571D01*
Y64038D02*
Y94747D01*
X551791Y64038D02*
X590571D01*
X551791D02*
Y94747D01*
X256398Y50394D02*
X295177D01*
X256398D02*
Y81102D01*
X295177D01*
Y50394D02*
Y81102D01*
X134606Y258012D02*
X154685D01*
X134606Y287736D02*
X154685D01*
Y258012D02*
Y287736D01*
X134606Y258012D02*
Y287736D01*
X89882Y278681D02*
X109173D01*
X89882Y287736D02*
X109173D01*
Y278681D02*
Y287736D01*
X89882Y278681D02*
Y287736D01*
M02*
