G04*
G04 #@! TF.GenerationSoftware,Altium Limited,Altium Designer,19.1.5 (86)*
G04*
G04 Layer_Color=65535*
%FSLAX25Y25*%
%MOIN*%
G70*
G01*
G75*
%ADD10C,0.00984*%
%ADD11C,0.01000*%
%ADD12C,0.01181*%
%ADD13C,0.00787*%
%ADD14C,0.01575*%
%ADD15C,0.00600*%
D10*
X789882Y132677D02*
G03*
X789882Y132677I-69882J0D01*
G01*
X393642Y54331D02*
G03*
X393642Y54331I-492J0D01*
G01*
X224508Y114882D02*
G03*
X224508Y114882I-492J0D01*
G01*
X513870Y195925D02*
G03*
X513870Y195925I-492J0D01*
G01*
X445292Y194095D02*
G03*
X445292Y194095I-50197J0D01*
G01*
X789882Y304842D02*
G03*
X789882Y304842I-69882J0D01*
G01*
X202658Y57087D02*
G03*
X202658Y57087I-492J0D01*
G01*
X570571Y133858D02*
G03*
X570571Y133858I-492J0D01*
G01*
X542618Y96831D02*
G03*
X542618Y96831I-492J0D01*
G01*
X270965Y114882D02*
G03*
X270965Y114882I-492J0D01*
G01*
X134193Y261850D02*
G03*
X134193Y261850I-492J0D01*
G01*
D11*
X501325Y193957D02*
G03*
X501325Y193957I-2113J0D01*
G01*
X597388D02*
G03*
X597388Y193957I-2113J0D01*
G01*
X352152Y338957D02*
G03*
X352152Y338957I-2113J0D01*
G01*
X448215D02*
G03*
X448215Y338957I-2113J0D01*
G01*
X525749Y346576D02*
G03*
X515037Y352087I-3938J5511D01*
G01*
X534868Y346903D02*
G03*
X525704Y346522I-4790J4790D01*
G01*
X543501Y346925D02*
G03*
X534803Y346969I-4323J5215D01*
G01*
X554613Y352094D02*
G03*
X543465Y346969I-6773J46D01*
G01*
X254332Y346536D02*
G03*
X243620Y352047I-3938J5511D01*
G01*
X263451Y346864D02*
G03*
X254286Y346482I-4790J4790D01*
G01*
X272083Y346885D02*
G03*
X263386Y346929I-4323J5215D01*
G01*
X283195Y352054D02*
G03*
X272047Y346929I-6773J46D01*
G01*
X268885Y232052D02*
G03*
X268885Y232052I-1972J0D01*
G01*
X268674Y288860D02*
G03*
X268674Y288860I-1761J0D01*
G01*
X653071Y112598D02*
Y152756D01*
X655039Y107087D02*
Y158268D01*
X657008Y102559D02*
Y162795D01*
X658976Y98622D02*
Y166732D01*
X660945Y95473D02*
Y169882D01*
X662913Y92520D02*
Y172835D01*
X664882Y89764D02*
Y175591D01*
X666850Y87402D02*
Y177953D01*
X668819Y85236D02*
Y180118D01*
X670787Y83071D02*
Y182283D01*
X672756Y81496D02*
Y183858D01*
X674724Y79528D02*
Y185827D01*
X676693Y77953D02*
Y187402D01*
X678661Y188976D02*
Y189021D01*
Y132677D02*
Y189021D01*
Y76378D02*
Y132677D01*
Y76334D02*
Y76378D01*
Y76334D02*
Y132677D01*
X67716Y244724D02*
Y245512D01*
X19291D02*
X67716D01*
X19291D02*
X19291Y147480D01*
X19291D02*
X67716D01*
Y244724D01*
X17717Y375950D02*
X190945D01*
Y289336D02*
Y375950D01*
X17717Y289336D02*
X190945D01*
X17717D02*
Y375950D01*
X574008Y185500D02*
X578240Y192193D01*
X516232D02*
X520858Y185500D01*
X574008D01*
X578240Y192193D02*
Y205776D01*
X516232Y192193D02*
Y205776D01*
X578240D01*
X629921Y156693D02*
Y255118D01*
X499213Y157087D02*
Y191595D01*
X464567Y156693D02*
Y255118D01*
Y156693D02*
X499213D01*
Y159311D01*
X595276Y156693D02*
X629921D01*
X595276D02*
Y191595D01*
X524795Y212854D02*
Y255118D01*
X464567Y255118D02*
X524795D01*
X524795Y255118D01*
X569693Y255118D02*
X629921D01*
X569693Y212854D02*
Y255118D01*
X524795Y212854D02*
X569693D01*
X395095Y164567D02*
X435689D01*
X354502D02*
X435689D01*
X356119Y162598D02*
X434072D01*
X357694Y160630D02*
X432497D01*
X359662Y158661D02*
X430528D01*
X361631Y156693D02*
X428560D01*
X363993Y154724D02*
X426198D01*
Y154694D02*
Y154724D01*
X366749Y152756D02*
X423442D01*
X369899Y150787D02*
X420292D01*
X373442Y148819D02*
X416749D01*
X378166Y146850D02*
X412025D01*
X204527Y125787D02*
X219882D01*
Y122441D02*
Y125787D01*
X219346Y95472D02*
X219882D01*
Y122441D01*
X204527Y98622D02*
Y122638D01*
Y125787D01*
Y95472D02*
X219346D01*
X204527D02*
Y98622D01*
X375622Y320059D02*
X420520D01*
X375622Y277795D02*
Y320059D01*
X315394Y277795D02*
X375622D01*
X420520Y277795D02*
X420520Y277795D01*
X480748D01*
X420520Y277795D02*
Y320059D01*
X350039Y341319D02*
Y376220D01*
X315394D02*
X350039D01*
X446102Y373602D02*
Y376220D01*
X480748D01*
Y277795D02*
Y376220D01*
X446102Y341319D02*
Y375827D01*
X315394Y277795D02*
Y376220D01*
X484016Y327677D02*
X581260D01*
X484016D02*
Y376102D01*
Y376102D02*
X582047Y376102D01*
Y327677D02*
Y376102D01*
X581260Y327677D02*
X582047D01*
X554613Y352094D02*
X561174D01*
X508156D02*
X514717D01*
X212598Y327638D02*
X309842D01*
X212598D02*
Y376063D01*
Y376063D02*
X310630Y376063D01*
Y327638D02*
Y376063D01*
X309842Y327638D02*
X310630D01*
X283195Y352054D02*
X289757D01*
X236739D02*
X243300D01*
X254394Y324348D02*
X311087D01*
X254394Y196733D02*
Y324348D01*
X268882Y232052D02*
X311087D01*
X268882Y288860D02*
X311087D01*
Y324348D01*
X254394Y196733D02*
X311087D01*
Y232052D01*
X809055Y147480D02*
Y148268D01*
Y147480D02*
X857480D01*
X857480Y245512D02*
X857480Y147480D01*
X809055Y245512D02*
X857480D01*
X809055Y148268D02*
Y245512D01*
X699921Y237913D02*
X740079D01*
X694410Y239882D02*
X745590D01*
X689882Y241850D02*
X750118D01*
X685945Y243819D02*
X754055D01*
X682795Y245787D02*
X757205D01*
X679843Y247756D02*
X760157D01*
X677087Y249724D02*
X762913D01*
X674724Y251693D02*
X765276D01*
X672559Y253661D02*
X767441D01*
X670394Y255630D02*
X769606D01*
X668819Y257598D02*
X771181D01*
X666850Y259567D02*
X773150D01*
X665276Y261535D02*
X774724D01*
X663656Y263504D02*
X663701D01*
X663656D02*
X720000D01*
X776299D01*
X776344D01*
X720000D02*
X776344D01*
X17717Y39370D02*
Y125984D01*
Y39370D02*
X190945D01*
Y125984D01*
X17717D02*
X190945D01*
X421161Y112411D02*
Y134114D01*
Y112411D02*
X427042Y106530D01*
X421161Y134114D02*
X428937D01*
X440748D02*
X443775D01*
X446481D02*
X448917D01*
X443775D02*
X446481D01*
X448917Y113543D02*
Y134114D01*
X564685Y65318D02*
X585256D01*
Y67754D02*
Y70461D01*
Y65318D02*
Y67754D01*
Y70461D02*
Y73487D01*
Y85298D02*
Y93074D01*
X557672Y87193D02*
X563553Y93074D01*
X585256D01*
X261713Y79823D02*
X282283D01*
X261713Y74680D02*
Y77387D01*
Y79823D01*
Y71653D02*
Y74680D01*
Y52067D02*
Y59842D01*
X283415Y52067D02*
X289296Y57948D01*
X261713Y52067D02*
X283415D01*
X252559Y95866D02*
Y99016D01*
Y95866D02*
X267377D01*
X252559Y123031D02*
Y126181D01*
Y99016D02*
Y123031D01*
X267913Y95866D02*
Y122835D01*
X267377Y95866D02*
X267913D01*
Y122835D02*
Y126181D01*
X252559D02*
X267913D01*
X8569Y164779D02*
X7569Y165779D01*
Y167779D01*
X8569Y168778D01*
X9568D01*
X10568Y167779D01*
Y166779D01*
Y167779D01*
X11568Y168778D01*
X12567D01*
X13567Y167779D01*
Y165779D01*
X12567Y164779D01*
X8569Y170778D02*
X7569Y171777D01*
Y173777D01*
X8569Y174776D01*
X12567D01*
X13567Y173777D01*
Y171777D01*
X12567Y170778D01*
X8569D01*
X10568Y182774D02*
Y186772D01*
X13567Y197769D02*
X7569D01*
X10568Y194770D01*
Y198768D01*
X8569Y200768D02*
X7569Y201768D01*
Y203767D01*
X8569Y204767D01*
X12567D01*
X13567Y203767D01*
Y201768D01*
X12567Y200768D01*
X8569D01*
X7569Y212764D02*
X11568D01*
X13567Y214763D01*
X11568Y216763D01*
X7569D01*
Y218762D02*
X13567D01*
Y221761D01*
X12567Y222761D01*
X8569D01*
X7569Y221761D01*
Y218762D01*
X8569Y228759D02*
X7569Y227759D01*
Y225760D01*
X8569Y224760D01*
X12567D01*
X13567Y225760D01*
Y227759D01*
X12567Y228759D01*
X43621Y400367D02*
X41621D01*
X42621D01*
Y395368D01*
X41621Y394369D01*
X40622D01*
X39622Y395368D01*
X45620Y398367D02*
Y395368D01*
X46620Y394369D01*
X49619D01*
Y398367D01*
X51618Y394369D02*
X53618D01*
X52618D01*
Y400367D01*
X51618D01*
X56616Y394369D02*
X58616D01*
X57616D01*
Y398367D01*
X56616D01*
X62615D02*
X64614D01*
X65614Y397368D01*
Y394369D01*
X62615D01*
X61615Y395368D01*
X62615Y396368D01*
X65614D01*
X67613Y394369D02*
Y398367D01*
X70612D01*
X71612Y397368D01*
Y394369D01*
X79609D02*
Y398367D01*
X81608Y400367D01*
X83608Y398367D01*
Y394369D01*
Y397368D01*
X79609D01*
X85607Y394369D02*
Y398367D01*
X88606D01*
X89606Y397368D01*
Y394369D01*
X95604Y400367D02*
Y394369D01*
X92605D01*
X91605Y395368D01*
Y397368D01*
X92605Y398367D01*
X95604D01*
X97603D02*
Y394369D01*
Y396368D01*
X98603Y397368D01*
X99603Y398367D01*
X100602D01*
X106600Y394369D02*
X104601D01*
X103601Y395368D01*
Y397368D01*
X104601Y398367D01*
X106600D01*
X107600Y397368D01*
Y396368D01*
X103601D01*
X109599Y394369D02*
X112598D01*
X113598Y395368D01*
X112598Y396368D01*
X110599D01*
X109599Y397368D01*
X110599Y398367D01*
X113598D01*
X121596Y400367D02*
Y396368D01*
X123595Y394369D01*
X125594Y396368D01*
Y400367D01*
X127594Y394369D02*
X129593D01*
X128593D01*
Y398367D01*
X127594D01*
X132592Y394369D02*
X134591D01*
X133592D01*
Y400367D01*
X132592D01*
X137590Y394369D02*
X139590D01*
X138590D01*
Y400367D01*
X137590D01*
X143588Y398367D02*
X145588D01*
X146587Y397368D01*
Y394369D01*
X143588D01*
X142589Y395368D01*
X143588Y396368D01*
X146587D01*
X148587Y398367D02*
Y394369D01*
Y396368D01*
X149586Y397368D01*
X150586Y398367D01*
X151586D01*
X154585D02*
Y394369D01*
Y396368D01*
X155585Y397368D01*
X156584Y398367D01*
X157584D01*
X163582Y394369D02*
X161583D01*
X160583Y395368D01*
Y397368D01*
X161583Y398367D01*
X163582D01*
X164582Y397368D01*
Y396368D01*
X160583D01*
X167581Y398367D02*
X169580D01*
X170580Y397368D01*
Y394369D01*
X167581D01*
X166581Y395368D01*
X167581Y396368D01*
X170580D01*
X172579Y394369D02*
X174578D01*
X173579D01*
Y400367D01*
X172579D01*
X187574Y399367D02*
X186574Y400367D01*
X184575D01*
X183575Y399367D01*
Y398367D01*
X184575Y397368D01*
X186574D01*
X187574Y396368D01*
Y395368D01*
X186574Y394369D01*
X184575D01*
X183575Y395368D01*
X189574Y394369D02*
X191573D01*
X190573D01*
Y398367D01*
X189574D01*
X197571Y394369D02*
X195572D01*
X194572Y395368D01*
Y397368D01*
X195572Y398367D01*
X197571D01*
X198571Y397368D01*
Y396368D01*
X194572D01*
X200570Y398367D02*
Y394369D01*
Y396368D01*
X201570Y397368D01*
X202569Y398367D01*
X203569D01*
X206568D02*
Y394369D01*
Y396368D01*
X207568Y397368D01*
X208567Y398367D01*
X209567D01*
X213566D02*
X215565D01*
X216565Y397368D01*
Y394369D01*
X213566D01*
X212566Y395368D01*
X213566Y396368D01*
X216565D01*
X39622Y384771D02*
Y390769D01*
X42621D01*
X43621Y389769D01*
Y387770D01*
X42621Y386770D01*
X39622D01*
X45620Y388770D02*
Y384771D01*
Y386770D01*
X46620Y387770D01*
X47620Y388770D01*
X48619D01*
X52618Y384771D02*
X54617D01*
X55617Y385771D01*
Y387770D01*
X54617Y388770D01*
X52618D01*
X51618Y387770D01*
Y385771D01*
X52618Y384771D01*
X57616Y388770D02*
Y385771D01*
X58616Y384771D01*
X61615D01*
Y383771D01*
X60615Y382772D01*
X59616D01*
X61615Y384771D02*
Y388770D01*
X66613Y384771D02*
X64614D01*
X63614Y385771D01*
Y387770D01*
X64614Y388770D01*
X66613D01*
X67613Y387770D01*
Y386770D01*
X63614D01*
X73611Y388770D02*
X70612D01*
X69612Y387770D01*
Y385771D01*
X70612Y384771D01*
X73611D01*
X76610Y389769D02*
Y388770D01*
X75610D01*
X77610D01*
X76610D01*
Y385771D01*
X77610Y384771D01*
X81608D02*
X83608D01*
X84607Y385771D01*
Y387770D01*
X83608Y388770D01*
X81608D01*
X80609Y387770D01*
Y385771D01*
X81608Y384771D01*
X96604Y390769D02*
Y384771D01*
X93605D01*
X92605Y385771D01*
Y387770D01*
X93605Y388770D01*
X96604D01*
X101602Y384771D02*
X99603D01*
X98603Y385771D01*
Y387770D01*
X99603Y388770D01*
X101602D01*
X102602Y387770D01*
Y386770D01*
X98603D01*
X114598Y389769D02*
X113598Y390769D01*
X111599D01*
X110599Y389769D01*
Y385771D01*
X111599Y384771D01*
X113598D01*
X114598Y385771D01*
Y387770D01*
X112598D01*
X116597Y388770D02*
Y384771D01*
Y386770D01*
X117597Y387770D01*
X118596Y388770D01*
X119596D01*
X123595D02*
X125594D01*
X126594Y387770D01*
Y384771D01*
X123595D01*
X122595Y385771D01*
X123595Y386770D01*
X126594D01*
X132592Y390769D02*
Y384771D01*
X129593D01*
X128593Y385771D01*
Y387770D01*
X129593Y388770D01*
X132592D01*
X135591Y384771D02*
X137590D01*
X138590Y385771D01*
Y387770D01*
X137590Y388770D01*
X135591D01*
X134591Y387770D01*
Y385771D01*
X135591Y384771D01*
X146587Y387770D02*
X150586D01*
X158584Y384771D02*
Y390769D01*
X161583D01*
X162582Y389769D01*
Y387770D01*
X161583Y386770D01*
X158584D01*
X164582Y390769D02*
Y385771D01*
X165581Y384771D01*
X167581D01*
X168580Y385771D01*
Y390769D01*
X174578D02*
X172579D01*
X173579D01*
Y385771D01*
X172579Y384771D01*
X171579D01*
X170580Y385771D01*
X565787Y322913D02*
Y324094D01*
X566968D01*
Y322913D01*
X565787D01*
X233347Y323819D02*
Y325000D01*
X234527D01*
Y323819D01*
X233347D01*
X559370Y356693D02*
Y357874D01*
X560551D01*
Y356693D01*
X559370D01*
X237520Y356968D02*
Y358149D01*
X238700D01*
Y356968D01*
X237520D01*
X797545Y159889D02*
Y157889D01*
X798545Y156890D01*
X802544D01*
X803543Y157889D01*
Y159889D01*
X802544Y160889D01*
X798545D01*
X797545Y159889D01*
Y162888D02*
X802544D01*
X803543Y163888D01*
Y165887D01*
X802544Y166886D01*
X797545D01*
Y168886D02*
Y172885D01*
Y170885D01*
X803543D01*
X800544Y174884D02*
Y178883D01*
X797545Y219456D02*
Y217456D01*
X798545Y216457D01*
X802544D01*
X803543Y217456D01*
Y219456D01*
X802544Y220455D01*
X798545D01*
X797545Y219456D01*
Y222455D02*
X802544D01*
X803543Y223454D01*
Y225454D01*
X802544Y226453D01*
X797545D01*
Y228453D02*
Y232452D01*
Y230452D01*
X803543D01*
X800544Y234451D02*
Y238450D01*
X798545Y236450D02*
X802544D01*
X75315Y171234D02*
X77314D01*
X76315D01*
Y165236D01*
X75315D01*
X77314D01*
X80313D02*
Y171234D01*
X84312Y165236D01*
Y171234D01*
X86311Y168235D02*
X90310D01*
X75315Y231234D02*
X77314D01*
X76315D01*
Y225236D01*
X75315D01*
X77314D01*
X80313D02*
Y231234D01*
X84312Y225236D01*
Y231234D01*
X86311Y228235D02*
X90310D01*
X88311Y230235D02*
Y226236D01*
X766479Y29937D02*
Y33935D01*
X765479Y34935D01*
X763480D01*
X762480Y33935D01*
Y29937D01*
X763480Y28937D01*
X765479D01*
X764480Y30936D02*
X766479Y28937D01*
X765479D02*
X766479Y29937D01*
X768478Y34935D02*
Y28937D01*
X771477D01*
X772477Y29937D01*
Y30936D01*
X771477Y31936D01*
X768478D01*
X771477D01*
X772477Y32936D01*
Y33935D01*
X771477Y34935D01*
X768478D01*
X774476Y33935D02*
X775476Y34935D01*
X777476D01*
X778475Y33935D01*
Y29937D01*
X777476Y28937D01*
X775476D01*
X774476Y29937D01*
Y33935D01*
X784473Y34935D02*
X782474Y33935D01*
X780475Y31936D01*
Y29937D01*
X781474Y28937D01*
X783473D01*
X784473Y29937D01*
Y30936D01*
X783473Y31936D01*
X780475D01*
X786473Y33935D02*
X787472Y34935D01*
X789472D01*
X790471Y33935D01*
Y29937D01*
X789472Y28937D01*
X787472D01*
X786473Y29937D01*
Y33935D01*
X792471D02*
X793470Y34935D01*
X795470D01*
X796469Y33935D01*
Y32936D01*
X795470Y31936D01*
X796469Y30936D01*
Y29937D01*
X795470Y28937D01*
X793470D01*
X792471Y29937D01*
Y30936D01*
X793470Y31936D01*
X792471Y32936D01*
Y33935D01*
X793470Y31936D02*
X795470D01*
X802467Y28937D02*
X798469D01*
X802467Y32936D01*
Y33935D01*
X801468Y34935D01*
X799468D01*
X798469Y33935D01*
X804467D02*
X805466Y34935D01*
X807466D01*
X808465Y33935D01*
Y29937D01*
X807466Y28937D01*
X805466D01*
X804467Y29937D01*
Y33935D01*
X814464Y28937D02*
X810465D01*
X814464Y32936D01*
Y33935D01*
X813464Y34935D01*
X811465D01*
X810465Y33935D01*
X816463D02*
X817463Y34935D01*
X819462D01*
X820462Y33935D01*
Y29937D01*
X819462Y28937D01*
X817463D01*
X816463Y29937D01*
Y33935D01*
X763898Y132678D02*
X759175D01*
X761536Y130317D02*
Y135040D01*
X388228Y25984D02*
X384293D01*
Y27952D01*
X384949Y28608D01*
X386261D01*
X386916Y27952D01*
Y25984D01*
X384293Y29920D02*
X388228D01*
X386916Y31232D01*
X388228Y32544D01*
X384293D01*
X388228Y33856D02*
X384293D01*
X385605Y35168D01*
X384293Y36480D01*
X388228D01*
X374870Y28608D02*
X374214Y27952D01*
Y26640D01*
X374870Y25984D01*
X377494D01*
X378150Y26640D01*
Y27952D01*
X377494Y28608D01*
X376182D01*
Y27296D01*
X378150Y29920D02*
X374214D01*
X378150Y32544D01*
X374214D01*
Y33856D02*
X378150D01*
Y35824D01*
X377494Y36479D01*
X374870D01*
X374214Y35824D01*
Y33856D01*
X363466Y28608D02*
Y25984D01*
X365434D01*
X364778Y27296D01*
Y27952D01*
X365434Y28608D01*
X366746D01*
X367402Y27952D01*
Y26640D01*
X366746Y25984D01*
X363466Y29920D02*
X366090D01*
X367402Y31232D01*
X366090Y32544D01*
X363466D01*
X354056Y25984D02*
Y27296D01*
Y26640D01*
X357992D01*
Y25984D01*
Y27296D01*
Y29264D02*
Y30576D01*
Y29920D01*
X355368D01*
Y29264D01*
X357992Y32544D02*
X355368D01*
Y34512D01*
X356024Y35168D01*
X357992D01*
X344214Y28608D02*
Y25984D01*
X346182D01*
Y27296D01*
Y25984D01*
X348150D01*
X344870Y32544D02*
X344214Y31888D01*
Y30576D01*
X344870Y29920D01*
X347494D01*
X348150Y30576D01*
Y31888D01*
X347494Y32544D01*
X344214Y33856D02*
Y35168D01*
Y34512D01*
X348150D01*
Y33856D01*
Y35168D01*
X334201Y28608D02*
X333545Y27952D01*
Y26640D01*
X334201Y25984D01*
X336824D01*
X337480Y26640D01*
Y27952D01*
X336824Y28608D01*
X335512D01*
Y27296D01*
X337480Y29920D02*
X333545D01*
X337480Y32544D01*
X333545D01*
Y33856D02*
X337480D01*
Y35824D01*
X336824Y36480D01*
X334201D01*
X333545Y35824D01*
Y33856D01*
X691676Y395568D02*
Y399567D01*
X690676Y400567D01*
X688677D01*
X687677Y399567D01*
Y395568D01*
X688677Y394569D01*
X690676D01*
X689677Y396568D02*
X691676Y394569D01*
X690676D02*
X691676Y395568D01*
X693675Y398567D02*
Y395568D01*
X694675Y394569D01*
X697674D01*
Y398567D01*
X700673D02*
X702672D01*
X703672Y397568D01*
Y394569D01*
X700673D01*
X699673Y395568D01*
X700673Y396568D01*
X703672D01*
X709670Y400567D02*
Y394569D01*
X706671D01*
X705671Y395568D01*
Y397568D01*
X706671Y398567D01*
X709670D01*
X711669D02*
Y394569D01*
Y396568D01*
X712669Y397568D01*
X713669Y398567D01*
X714668D01*
X718667D02*
X720667D01*
X721666Y397568D01*
Y394569D01*
X718667D01*
X717667Y395568D01*
X718667Y396568D01*
X721666D01*
X724665Y399567D02*
Y398567D01*
X723666D01*
X725665D01*
X724665D01*
Y395568D01*
X725665Y394569D01*
X728664D02*
X730663D01*
X729664D01*
Y398567D01*
X728664D01*
X737661D02*
X734662D01*
X733662Y397568D01*
Y395568D01*
X734662Y394569D01*
X737661D01*
X745658Y400567D02*
Y394569D01*
X748657D01*
X749657Y395568D01*
Y396568D01*
X748657Y397568D01*
X745658D01*
X748657D01*
X749657Y398567D01*
Y399567D01*
X748657Y400567D01*
X745658D01*
X752656Y394569D02*
X754656D01*
X755655Y395568D01*
Y397568D01*
X754656Y398567D01*
X752656D01*
X751656Y397568D01*
Y395568D01*
X752656Y394569D01*
X758654D02*
X760654D01*
X761653Y395568D01*
Y397568D01*
X760654Y398567D01*
X758654D01*
X757654Y397568D01*
Y395568D01*
X758654Y394569D01*
X763653D02*
X766652D01*
X767651Y395568D01*
X766652Y396568D01*
X764652D01*
X763653Y397568D01*
X764652Y398567D01*
X767651D01*
X770650Y399567D02*
Y398567D01*
X769651D01*
X771650D01*
X770650D01*
Y395568D01*
X771650Y394569D01*
X780647Y397568D02*
X784646D01*
X792643Y398567D02*
X794643Y394569D01*
X796642Y398567D01*
X798641Y399567D02*
X799641Y400567D01*
X801640D01*
X802640Y399567D01*
Y395568D01*
X801640Y394569D01*
X799641D01*
X798641Y395568D01*
Y399567D01*
X804639Y394569D02*
Y395568D01*
X805639D01*
Y394569D01*
X804639D01*
X813636D02*
X809638D01*
X813636Y398567D01*
Y399567D01*
X812637Y400567D01*
X810637D01*
X809638Y399567D01*
X36614Y371318D02*
X38614D01*
X37614D01*
Y365320D01*
X36614D01*
X38614D01*
X41612D02*
Y371318D01*
X45611Y365320D01*
Y371318D01*
X47611Y368319D02*
X51609D01*
X49610Y370318D02*
Y366320D01*
X36614Y300058D02*
X38614D01*
X37614D01*
Y294060D01*
X36614D01*
X38614D01*
X41612D02*
Y300058D01*
X45611Y294060D01*
Y300058D01*
X47611Y297059D02*
X51609D01*
X156542Y371318D02*
X154543D01*
X153543Y370318D01*
Y366320D01*
X154543Y365320D01*
X156542D01*
X157542Y366320D01*
Y370318D01*
X156542Y371318D01*
X159541D02*
Y366320D01*
X160541Y365320D01*
X162540D01*
X163540Y366320D01*
Y371318D01*
X165539D02*
X169538D01*
X167539D01*
Y365320D01*
X171537Y368319D02*
X175536D01*
X173537Y370318D02*
Y366320D01*
X156542Y300058D02*
X154543D01*
X153543Y299058D01*
Y295060D01*
X154543Y294060D01*
X156542D01*
X157542Y295060D01*
Y299058D01*
X156542Y300058D01*
X159541D02*
Y295060D01*
X160541Y294060D01*
X162540D01*
X163540Y295060D01*
Y300058D01*
X165539D02*
X169538D01*
X167539D01*
Y294060D01*
X171537Y297059D02*
X175536D01*
X395094Y232283D02*
Y227561D01*
X397456Y229922D02*
X392733D01*
X719999Y348740D02*
Y344017D01*
X722360Y346379D02*
X717637D01*
X156542Y50093D02*
X154543D01*
X153543Y49093D01*
Y45094D01*
X154543Y44094D01*
X156542D01*
X157542Y45094D01*
Y49093D01*
X156542Y50093D01*
X159541D02*
Y45094D01*
X160541Y44094D01*
X162540D01*
X163540Y45094D01*
Y50093D01*
X165539D02*
X169538D01*
X167539D01*
Y44094D01*
X171537Y47093D02*
X175536D01*
X156542Y121352D02*
X154543D01*
X153543Y120353D01*
Y116354D01*
X154543Y115354D01*
X156542D01*
X157542Y116354D01*
Y120353D01*
X156542Y121352D01*
X159541D02*
Y116354D01*
X160541Y115354D01*
X162540D01*
X163540Y116354D01*
Y121352D01*
X165539D02*
X169538D01*
X167539D01*
Y115354D01*
X171537Y118353D02*
X175536D01*
X173537Y120353D02*
Y116354D01*
X36614Y50093D02*
X38614D01*
X37614D01*
Y44094D01*
X36614D01*
X38614D01*
X41612D02*
Y50093D01*
X45611Y44094D01*
Y50093D01*
X47611Y47093D02*
X51609D01*
X36614Y121352D02*
X38614D01*
X37614D01*
Y115354D01*
X36614D01*
X38614D01*
X41612D02*
Y121352D01*
X45611Y115354D01*
Y121352D01*
X47611Y118353D02*
X51609D01*
X49610Y120353D02*
Y116354D01*
X427166Y111772D02*
Y115707D01*
X425198Y113740D02*
X429134D01*
X562913Y87069D02*
X566849D01*
X564881Y89037D02*
Y85101D01*
X284055Y58072D02*
X280119D01*
X282087Y56104D02*
Y60040D01*
X331299Y69291D02*
Y75289D01*
X334298D01*
X335298Y74290D01*
Y72290D01*
X334298Y71291D01*
X331299D01*
X337297Y74290D02*
X338297Y75289D01*
X340296D01*
X341296Y74290D01*
Y73290D01*
X340296Y72290D01*
X339297D01*
X340296D01*
X341296Y71291D01*
Y70291D01*
X340296Y69291D01*
X338297D01*
X337297Y70291D01*
X19780Y248996D02*
Y254995D01*
X22779D01*
X23779Y253995D01*
Y251995D01*
X22779Y250996D01*
X19780D01*
X25778Y248996D02*
X27777D01*
X26778D01*
Y254995D01*
X25778Y253995D01*
X167323Y279493D02*
Y285491D01*
X169322Y283492D01*
X171322Y285491D01*
Y279493D01*
X174321D02*
X176320D01*
X177320Y280493D01*
Y282492D01*
X176320Y283492D01*
X174321D01*
X173321Y282492D01*
Y280493D01*
X174321Y279493D01*
X183318Y285491D02*
Y279493D01*
X180319D01*
X179319Y280493D01*
Y282492D01*
X180319Y283492D01*
X183318D01*
X189316Y279493D02*
X185317D01*
X189316Y283492D01*
Y284491D01*
X188316Y285491D01*
X186317D01*
X185317Y284491D01*
X247638Y89762D02*
Y85826D01*
X248425Y85039D01*
X249999D01*
X250786Y85826D01*
Y89762D01*
X252361Y85039D02*
X253935D01*
X253148D01*
Y89762D01*
X252361Y88975D01*
X509629Y171236D02*
Y175235D01*
X508629Y176234D01*
X506630D01*
X505630Y175235D01*
Y171236D01*
X506630Y170236D01*
X508629D01*
X507629Y172236D02*
X509629Y170236D01*
X508629D02*
X509629Y171236D01*
X511628Y170236D02*
X513627D01*
X512628D01*
Y176234D01*
X511628Y175235D01*
X667266Y195431D02*
X666267Y196431D01*
X664267D01*
X663268Y195431D01*
Y191433D01*
X664267Y190433D01*
X666267D01*
X667266Y191433D01*
X672265Y190433D02*
Y196431D01*
X669266Y193432D01*
X673265D01*
X395337Y252557D02*
X394338Y253557D01*
X392338D01*
X391339Y252557D01*
Y248559D01*
X392338Y247559D01*
X394338D01*
X395337Y248559D01*
X397337Y247559D02*
X399336D01*
X398336D01*
Y253557D01*
X397337Y252557D01*
X197125Y116298D02*
X196338Y117085D01*
X194764D01*
X193976Y116298D01*
Y113149D01*
X194764Y112362D01*
X196338D01*
X197125Y113149D01*
X201848Y117085D02*
X200274Y116298D01*
X198699Y114724D01*
Y113149D01*
X199486Y112362D01*
X201061D01*
X201848Y113149D01*
Y113936D01*
X201061Y114724D01*
X198699D01*
X157008Y273940D02*
Y270005D01*
X157795Y269217D01*
X159369D01*
X160157Y270005D01*
Y273940D01*
X164092Y269217D02*
Y273940D01*
X161731Y271579D01*
X164879D01*
X498819Y118660D02*
Y114724D01*
X499606Y113937D01*
X501180D01*
X501967Y114724D01*
Y118660D01*
X503542Y117873D02*
X504329Y118660D01*
X505903D01*
X506690Y117873D01*
Y117086D01*
X505903Y116298D01*
X505116D01*
X505903D01*
X506690Y115511D01*
Y114724D01*
X505903Y113937D01*
X504329D01*
X503542Y114724D01*
X294488Y89762D02*
Y85826D01*
X295275Y85039D01*
X296850D01*
X297637Y85826D01*
Y89762D01*
X302360Y85039D02*
X299211D01*
X302360Y88188D01*
Y88975D01*
X301572Y89762D01*
X299998D01*
X299211Y88975D01*
X573307Y156604D02*
X568584D01*
Y158965D01*
X569371Y159752D01*
X570946D01*
X571733Y158965D01*
Y156604D01*
Y158178D02*
X573307Y159752D01*
X568584Y163688D02*
Y162114D01*
X569371Y161327D01*
X572520D01*
X573307Y162114D01*
Y163688D01*
X572520Y164475D01*
X569371D01*
X568584Y163688D01*
X573307Y166050D02*
X568584D01*
X573307Y169198D01*
X568584D01*
X544587Y155659D02*
X539864D01*
Y158020D01*
X540651Y158808D01*
X542225D01*
X543012Y158020D01*
Y155659D01*
Y157233D02*
X544587Y158808D01*
X539864Y162743D02*
Y161169D01*
X540651Y160382D01*
X543799D01*
X544587Y161169D01*
Y162743D01*
X543799Y163530D01*
X540651D01*
X539864Y162743D01*
Y168253D02*
Y165105D01*
X542225D01*
Y166679D01*
Y165105D01*
X544587D01*
X539864Y172976D02*
Y169827D01*
X542225D01*
Y171402D01*
Y169827D01*
X544587D01*
X69370Y272682D02*
Y277405D01*
X71732D01*
X72519Y276618D01*
Y275044D01*
X71732Y274256D01*
X69370D01*
X70944D02*
X72519Y272682D01*
X77241D02*
X74093D01*
X77241Y275831D01*
Y276618D01*
X76454Y277405D01*
X74880D01*
X74093Y276618D01*
X459173Y75551D02*
X454450D01*
Y77913D01*
X455237Y78700D01*
X456812D01*
X457599Y77913D01*
Y75551D01*
Y77126D02*
X459173Y78700D01*
Y80274D02*
Y81848D01*
Y81061D01*
X454450D01*
X455237Y80274D01*
X809449Y248268D02*
Y254266D01*
X812448D01*
X813447Y253266D01*
Y251267D01*
X812448Y250267D01*
X809449D01*
X819446Y248268D02*
X815447D01*
X819446Y252266D01*
Y253266D01*
X818446Y254266D01*
X816447D01*
X815447Y253266D01*
X169685Y129921D02*
Y135919D01*
X171684Y133920D01*
X173684Y135919D01*
Y129921D01*
X176683D02*
X178682D01*
X179682Y130921D01*
Y132920D01*
X178682Y133920D01*
X176683D01*
X175683Y132920D01*
Y130921D01*
X176683Y129921D01*
X185680Y135919D02*
Y129921D01*
X182681D01*
X181681Y130921D01*
Y132920D01*
X182681Y133920D01*
X185680D01*
X187679Y129921D02*
X189679D01*
X188679D01*
Y135919D01*
X187679Y134920D01*
X484567Y323439D02*
Y317441D01*
X488566D01*
X494564D02*
X490565D01*
X494564Y321440D01*
Y322439D01*
X493564Y323439D01*
X491565D01*
X490565Y322439D01*
X212992Y324974D02*
Y318976D01*
X216991D01*
X218990D02*
X220989D01*
X219990D01*
Y324974D01*
X218990Y323975D01*
X522635Y121397D02*
X527358D01*
Y123758D01*
X526571Y124545D01*
X523422D01*
X522635Y123758D01*
Y121397D01*
Y129268D02*
Y126119D01*
X524997D01*
X524209Y127694D01*
Y128481D01*
X524997Y129268D01*
X526571D01*
X527358Y128481D01*
Y126907D01*
X526571Y126119D01*
X584608Y120570D02*
X589331D01*
Y122931D01*
X588544Y123718D01*
X585395D01*
X584608Y122931D01*
Y120570D01*
X589331Y127654D02*
X584608D01*
X586969Y125293D01*
Y128441D01*
X383096Y353947D02*
Y347949D01*
X386095D01*
X387094Y348949D01*
Y352947D01*
X386095Y353947D01*
X383096D01*
X389094Y352947D02*
X390093Y353947D01*
X392093D01*
X393092Y352947D01*
Y351947D01*
X392093Y350948D01*
X391093D01*
X392093D01*
X393092Y349948D01*
Y348949D01*
X392093Y347949D01*
X390093D01*
X389094Y348949D01*
X293858Y280959D02*
Y274961D01*
X296857D01*
X297857Y275960D01*
Y279959D01*
X296857Y280959D01*
X293858D01*
X303855Y274961D02*
X299856D01*
X303855Y278959D01*
Y279959D01*
X302855Y280959D01*
X300856D01*
X299856Y279959D01*
X580433Y315014D02*
Y309016D01*
X583432D01*
X584432Y310015D01*
Y314014D01*
X583432Y315014D01*
X580433D01*
X586431Y309016D02*
X588431D01*
X587431D01*
Y315014D01*
X586431Y314014D01*
X116495Y276775D02*
X115708Y277562D01*
X114134D01*
X113347Y276775D01*
Y273627D01*
X114134Y272840D01*
X115708D01*
X116495Y273627D01*
X118069Y272840D02*
X119644D01*
X118857D01*
Y277562D01*
X118069Y276775D01*
X122005D02*
X122792Y277562D01*
X124366D01*
X125154Y276775D01*
Y275988D01*
X124366Y275201D01*
X125154Y274414D01*
Y273627D01*
X124366Y272840D01*
X122792D01*
X122005Y273627D01*
Y274414D01*
X122792Y275201D01*
X122005Y275988D01*
Y276775D01*
X122792Y275201D02*
X124366D01*
X93818Y276893D02*
X93031Y277681D01*
X91456D01*
X90669Y276893D01*
Y273745D01*
X91456Y272958D01*
X93031D01*
X93818Y273745D01*
X95392Y272958D02*
X96966D01*
X96179D01*
Y277681D01*
X95392Y276893D01*
X99328Y277681D02*
X102477D01*
Y276893D01*
X99328Y273745D01*
Y272958D01*
X571928Y61399D02*
X571141Y62186D01*
X569567D01*
X568780Y61399D01*
Y58251D01*
X569567Y57464D01*
X571141D01*
X571928Y58251D01*
X573502Y57464D02*
X575077D01*
X574290D01*
Y62186D01*
X573502Y61399D01*
X580587Y62186D02*
X579012Y61399D01*
X577438Y59825D01*
Y58251D01*
X578225Y57464D01*
X579800D01*
X580587Y58251D01*
Y59038D01*
X579800Y59825D01*
X577438D01*
X544054Y56773D02*
X544841Y57560D01*
Y59134D01*
X544054Y59921D01*
X540905D01*
X540118Y59134D01*
Y57560D01*
X540905Y56773D01*
X540118Y55198D02*
Y53624D01*
Y54411D01*
X544841D01*
X544054Y55198D01*
X544841Y48114D02*
Y51263D01*
X542480D01*
X543267Y49688D01*
Y48901D01*
X542480Y48114D01*
X540905D01*
X540118Y48901D01*
Y50476D01*
X540905Y51263D01*
X531849Y56655D02*
X532636Y57442D01*
Y59016D01*
X531849Y59803D01*
X528700D01*
X527913Y59016D01*
Y57442D01*
X528700Y56655D01*
X527913Y55080D02*
Y53506D01*
Y54293D01*
X532636D01*
X531849Y55080D01*
X527913Y48783D02*
X532636D01*
X530275Y51144D01*
Y47996D01*
X472007Y79922D02*
X472794Y80709D01*
Y82284D01*
X472007Y83071D01*
X468858D01*
X468071Y82284D01*
Y80709D01*
X468858Y79922D01*
X468071Y78348D02*
Y76774D01*
Y77561D01*
X472794D01*
X472007Y78348D01*
Y74412D02*
X472794Y73625D01*
Y72051D01*
X472007Y71264D01*
X471219D01*
X470432Y72051D01*
Y72838D01*
Y72051D01*
X469645Y71264D01*
X468858D01*
X468071Y72051D01*
Y73625D01*
X468858Y74412D01*
X413741Y118286D02*
X412954Y117499D01*
Y115925D01*
X413741Y115138D01*
X416890D01*
X417677Y115925D01*
Y117499D01*
X416890Y118286D01*
X417677Y119861D02*
Y121435D01*
Y120648D01*
X412954D01*
X413741Y119861D01*
X417677Y126945D02*
Y123796D01*
X414529Y126945D01*
X413741D01*
X412954Y126158D01*
Y124584D01*
X413741Y123796D01*
X463118Y116731D02*
X462331Y115944D01*
Y114370D01*
X463118Y113583D01*
X466267D01*
X467054Y114370D01*
Y115944D01*
X466267Y116731D01*
X467054Y118306D02*
Y119880D01*
Y119093D01*
X462331D01*
X463118Y118306D01*
X467054Y122241D02*
Y123816D01*
Y123028D01*
X462331D01*
X463118Y122241D01*
X197558Y44605D02*
X196771Y45392D01*
X195197D01*
X194409Y44605D01*
Y41456D01*
X195197Y40669D01*
X196771D01*
X197558Y41456D01*
X199132Y40669D02*
X200707D01*
X199919D01*
Y45392D01*
X199132Y44605D01*
X203068D02*
X203855Y45392D01*
X205430D01*
X206217Y44605D01*
Y41456D01*
X205430Y40669D01*
X203855D01*
X203068Y41456D01*
Y44605D01*
X254920Y78778D02*
X254133Y79565D01*
X252559D01*
X251772Y78778D01*
Y75630D01*
X252559Y74843D01*
X254133D01*
X254920Y75630D01*
X256494D02*
X257282Y74843D01*
X258856D01*
X259643Y75630D01*
Y78778D01*
X258856Y79565D01*
X257282D01*
X256494Y78778D01*
Y77991D01*
X257282Y77204D01*
X259643D01*
X262524Y92912D02*
X261736Y93699D01*
X260162D01*
X259375Y92912D01*
Y89763D01*
X260162Y88976D01*
X261736D01*
X262524Y89763D01*
X264098Y92912D02*
X264885Y93699D01*
X266459D01*
X267247Y92912D01*
Y92125D01*
X266459Y91338D01*
X267247Y90551D01*
Y89763D01*
X266459Y88976D01*
X264885D01*
X264098Y89763D01*
Y90551D01*
X264885Y91338D01*
X264098Y92125D01*
Y92912D01*
X264885Y91338D02*
X266459D01*
X197952Y82676D02*
X197165Y83463D01*
X195590D01*
X194803Y82676D01*
Y79527D01*
X195590Y78740D01*
X197165D01*
X197952Y79527D01*
X199526Y83463D02*
X202675D01*
Y82676D01*
X199526Y79527D01*
Y78740D01*
X679077Y228109D02*
X678078Y229108D01*
X676078D01*
X675079Y228109D01*
Y224110D01*
X676078Y223110D01*
X678078D01*
X679077Y224110D01*
X685076Y229108D02*
X681077D01*
Y226109D01*
X683076Y227109D01*
X684076D01*
X685076Y226109D01*
Y224110D01*
X684076Y223110D01*
X682077D01*
X681077Y224110D01*
X667306Y365812D02*
X666306Y366812D01*
X664307D01*
X663307Y365812D01*
Y361814D01*
X664307Y360814D01*
X666306D01*
X667306Y361814D01*
X669305Y365812D02*
X670305Y366812D01*
X672304D01*
X673304Y365812D01*
Y364813D01*
X672304Y363813D01*
X671305D01*
X672304D01*
X673304Y362813D01*
Y361814D01*
X672304Y360814D01*
X670305D01*
X669305Y361814D01*
X321483Y234123D02*
X320483Y235123D01*
X318483D01*
X317484Y234123D01*
Y230124D01*
X318483Y229125D01*
X320483D01*
X321483Y230124D01*
X327481Y229125D02*
X323482D01*
X327481Y233123D01*
Y234123D01*
X326481Y235123D01*
X324482D01*
X323482Y234123D01*
D12*
X482520Y112157D02*
G03*
X482520Y112157I-500J0D01*
G01*
D13*
X330591Y41831D02*
X390591D01*
X330591Y66831D02*
X390591D01*
Y41831D02*
Y66831D01*
X330591Y41831D02*
Y66831D01*
X226575Y83819D02*
X245079D01*
X226575Y125945D02*
X245079D01*
X226575Y83819D02*
Y125945D01*
X245079Y83819D02*
Y125945D01*
X243110Y83819D02*
Y125945D01*
X418588Y327594D02*
Y338303D01*
X377643Y327594D02*
X418588D01*
X377643D02*
Y345705D01*
X600197Y314705D02*
X610906D01*
Y273760D02*
Y314705D01*
X592795Y273760D02*
X610906D01*
X267244Y281004D02*
X285354D01*
X267244Y240059D02*
Y281004D01*
Y240059D02*
X277953D01*
X688655Y229122D02*
X762500D01*
X688500Y229112D02*
X688655Y229122D01*
X688500Y207937D02*
Y229112D01*
Y207937D02*
X762500D01*
Y229122D01*
X317323Y177953D02*
X340945D01*
Y225197D01*
X317323D02*
X340945D01*
X317323Y177953D02*
Y225197D01*
X209646Y40354D02*
X239173D01*
X243110Y44291D01*
Y51575D01*
Y62598D02*
Y69882D01*
X239173Y73819D02*
X243110Y69882D01*
X209646Y73819D02*
X239173D01*
X209646Y40354D02*
Y51575D01*
Y62598D02*
Y73819D01*
X452917Y118569D02*
Y121904D01*
X459839Y118569D02*
Y121904D01*
X558268Y122638D02*
X581890D01*
X577854Y129350D02*
X582323D01*
X557835D02*
X562303D01*
X557835Y101358D02*
Y129350D01*
X577854Y101358D02*
X582323D01*
X557835D02*
X562303D01*
X582323D02*
Y129350D01*
X565401Y142949D02*
Y147660D01*
X576252Y142949D02*
Y147660D01*
X453913Y91032D02*
Y95740D01*
X460654Y91032D02*
Y95740D01*
X530315Y108051D02*
X553937D01*
X529882Y101339D02*
X534350D01*
X549902D02*
X554370D01*
Y129331D01*
X529882D02*
X534350D01*
X549902D02*
X554370D01*
X529882Y101339D02*
Y129331D01*
X536641Y142949D02*
Y147660D01*
X547493Y142949D02*
Y147660D01*
X473225Y92033D02*
Y95369D01*
X466303Y92033D02*
Y95369D01*
X273031Y83819D02*
X291535D01*
X273031Y125945D02*
X291535D01*
X273031Y83819D02*
Y125945D01*
X291535Y83819D02*
Y125945D01*
X289567Y83819D02*
Y125945D01*
X546296Y67899D02*
Y71235D01*
X539374Y67899D02*
Y71235D01*
X534130Y67899D02*
Y71235D01*
X527208Y67899D02*
Y71235D01*
X154291Y266870D02*
Y278878D01*
X135000D02*
X154291D01*
X135000Y266870D02*
X154291D01*
X135000D02*
Y278878D01*
X119593Y285910D02*
X122533D01*
X119593Y279611D02*
X122533D01*
X75677Y286457D02*
X80385D01*
X75677Y279716D02*
X80385D01*
D14*
X224015Y77952D02*
Y85039D01*
X88898Y279666D02*
Y286752D01*
D15*
X484170Y89807D02*
X500870D01*
X484170Y110508D02*
X500870D01*
M02*
