G04*
G04 #@! TF.GenerationSoftware,Altium Limited,Altium Designer,19.1.5 (86)*
G04*
G04 Layer_Color=0*
%FSLAX25Y25*%
%MOIN*%
G70*
G01*
G75*
%ADD87C,0.00394*%
D87*
X545268Y195638D02*
X549205D01*
X547236Y193669D02*
Y197606D01*
X547244Y203937D02*
Y207874D01*
X545276Y206299D02*
X549213D01*
X396102Y326909D02*
X400039D01*
X398071Y325039D02*
Y328976D01*
X226378Y55118D02*
Y59055D01*
X224409Y57087D02*
X228346D01*
X454410Y120236D02*
X458347D01*
X456378Y118268D02*
Y122205D01*
X568110Y115354D02*
X572047D01*
X570079Y113386D02*
Y117323D01*
X568858Y145305D02*
X572795D01*
X570827Y143336D02*
Y147273D01*
X455315Y93386D02*
X459252D01*
X457283Y91417D02*
Y95354D01*
X540158Y115335D02*
X544095D01*
X542126Y113366D02*
Y117303D01*
X540098Y145305D02*
X544035D01*
X542067Y143336D02*
Y147273D01*
X467795Y93701D02*
X471732D01*
X469764Y91732D02*
Y95669D01*
X540866Y69567D02*
X544803D01*
X542835Y67598D02*
Y71535D01*
X528701Y69567D02*
X532638D01*
X530669Y67598D02*
Y71535D01*
X121063Y280792D02*
Y284729D01*
X119095Y282761D02*
X123031D01*
X78031Y281118D02*
Y285055D01*
X76062Y283086D02*
X79999D01*
M02*
