M48
;Layer_Color=9474304
;FILE_FORMAT=2:5
INCH,LZ
;TYPE=PLATED
T1F00S00C0.02165
T2F00S00C0.02559
T3F00S00C0.02756
T4F00S00C0.02800
T5F00S00C0.03543
T6F00S00C0.04016
T7F00S00C0.04331
T8F00S00C0.05197
T9F00S00C0.05512
T10F00S00C0.06299
T11F00S00C0.07087
T12F00S00C0.08661
T13F00S00C0.09646
T14F00S00C0.12500
%
T01
X0522402Y0080787
X0602362Y0071654
X0610236
Y0062992
X0602362Y0063032
Y005437
X0610236Y0054331
X0515Y0080905
X0478937Y0067126
X0469803
X0493661Y0127441
X0501535Y0127402
Y0136063
X0493661Y0136102
Y0144724
X0501535
X0469395Y0151024
X0460183
X045097
Y0162598
X0459842
X0469395
Y0174173
X0460104
X045097
X0061654Y0067218
Y0057979
Y004874
X0052047
Y0057979
Y0067218
X0436457Y0224646
X0445669
Y0236221
X0436117
X0436378Y0247795
X0445669
X0744173Y0325118
Y0334357
Y0343596
X075378
Y0334357
Y0325118
Y0352835
X0744173
T02
X0260236Y0101181
Y0120866
T03
X0212205Y0100787
Y0120472
T04
X0113386Y0088583
X0111496Y0291698
X0129055Y02928
X0091614Y0291737
X0073622Y030433
T05
X0329134Y0186811
Y0216339
T06
X0365591Y0054331
X037559
X0385591
X0355591
X034559
X0335591
T07
X0233858Y0094882
Y0104882
Y0114882
X0280315
Y0104882
Y0094882
X0183071Y011811
Y004811
X0025591Y004811
Y011811
Y0298076
X0183071Y0298076
Y0368076
X0025591Y0368076
T08
X0277953Y025059
Y0270472
X0388175Y0338303
X0408056
X0600197Y0304173
Y0284291
T09
X0695945Y0218779
X0755
T10
X0816142Y0164646
X006063Y0168347
Y0228346
X0274787Y0225552
Y0295552
X0293465Y0334724
X0233465
X0504882Y0334764
X0564882
X0816142Y0224646
T11
X0525779Y019485
X0547236
X0568693
T12
X0700315Y0132677
X0739685
X0395095Y0174409
Y0213779
X072Y0285157
Y0324528
T13
X0348071Y0327008
X0448071
X0497244Y0205906
X0597244
T14
X0018898Y001811
X0438976
X084252
Y0398031
X0438976
X0018898
M30
