G04*
G04 #@! TF.GenerationSoftware,Altium Limited,Altium Designer,19.1.5 (86)*
G04*
G04 Layer_Physical_Order=1*
G04 Layer_Color=255*
%FSLAX25Y25*%
%MOIN*%
G70*
G01*
G75*
%ADD16R,0.07284X0.13976*%
%ADD17R,0.15748X0.07874*%
%ADD18R,0.07284X0.04921*%
%ADD19R,0.06922X0.05140*%
%ADD20R,0.12598X0.07874*%
%ADD21R,0.10851X0.04547*%
%ADD22R,0.05728X0.02362*%
%ADD23R,0.06741X0.04166*%
%ADD24R,0.13976X0.07284*%
%ADD25R,0.02559X0.06890*%
%ADD26R,0.05136X0.07111*%
%ADD27R,0.04166X0.06741*%
%ADD43C,0.10827*%
%ADD44R,0.10827X0.10827*%
%ADD45C,0.14567*%
%ADD46R,0.14567X0.14567*%
%ADD58C,0.03937*%
%ADD59C,0.11811*%
%ADD60C,0.02559*%
%ADD61C,0.07874*%
%ADD62C,0.02362*%
%ADD63R,0.11811X0.08465*%
%ADD64C,0.12992*%
%ADD65R,0.12992X0.12992*%
%ADD66C,0.06102*%
%ADD67R,0.06102X0.06102*%
%ADD68C,0.09449*%
%ADD69R,0.09449X0.09449*%
%ADD70C,0.07874*%
%ADD71R,0.07874X0.07874*%
%ADD72C,0.19685*%
%ADD73C,0.06693*%
%ADD74R,0.06693X0.06693*%
%ADD75R,0.12992X0.12992*%
%ADD76C,0.05118*%
%ADD77C,0.07795*%
%ADD78R,0.07795X0.07795*%
%ADD79R,0.07795X0.07795*%
%ADD80C,0.09843*%
%ADD81C,0.09252*%
%ADD82C,0.05512*%
%ADD83C,0.04331*%
%ADD84C,0.04724*%
%ADD85C,0.05787*%
G36*
X829527Y375984D02*
X829527Y375984D01*
X829527Y375984D01*
X829760Y375984D01*
X830222Y375948D01*
X830680Y375875D01*
X831132Y375767D01*
X831573Y375623D01*
X832002Y375446D01*
X832415Y375235D01*
X832811Y374993D01*
X833186Y374720D01*
X833539Y374419D01*
X833867Y374091D01*
X834169Y373738D01*
X834442Y373362D01*
X834684Y372967D01*
X834895Y372553D01*
X835072Y372124D01*
X835216Y371683D01*
X835324Y371232D01*
X835397Y370773D01*
X835433Y370311D01*
X835433Y370079D01*
X835433Y208110D01*
X835433Y208110D01*
X835433Y207878D01*
X835396Y207415D01*
X835324Y206957D01*
X835215Y206506D01*
X835072Y206064D01*
X834894Y205636D01*
X834684Y205222D01*
X834441Y204826D01*
X834169Y204451D01*
X833867Y204098D01*
X833539Y203770D01*
X833186Y203469D01*
X832811Y203196D01*
X832415Y202954D01*
X832002Y202743D01*
X831573Y202565D01*
X831132Y202422D01*
X830680Y202314D01*
X830222Y202241D01*
X829760Y202205D01*
X829527Y202205D01*
X797165Y202205D01*
X797165Y202204D01*
X796933Y202200D01*
X796471Y202164D01*
X796013Y202091D01*
X795562Y201983D01*
X795121Y201839D01*
X794693Y201662D01*
X794280Y201452D01*
X793884Y201209D01*
X793509Y200937D01*
X793156Y200636D01*
X792829Y200308D01*
X792527Y199955D01*
X792255Y199580D01*
X792013Y199185D01*
X791802Y198772D01*
X791625Y198343D01*
X791481Y197902D01*
X791373Y197451D01*
X791301Y196993D01*
X791264Y196531D01*
X791260Y196299D01*
X791260Y116614D01*
X791260Y116614D01*
X791260Y116382D01*
X791223Y115919D01*
X791151Y115461D01*
X791042Y115010D01*
X790899Y114568D01*
X790721Y114140D01*
X790511Y113726D01*
X790268Y113330D01*
X789995Y112955D01*
X789694Y112602D01*
X789366Y112274D01*
X789013Y111973D01*
X788638Y111700D01*
X788242Y111458D01*
X787828Y111247D01*
X787400Y111069D01*
X786959Y110926D01*
X786507Y110818D01*
X786049Y110745D01*
X785586Y110709D01*
X785354Y110709D01*
X736575Y110709D01*
X736575Y110709D01*
X736343Y110709D01*
X735880Y110745D01*
X735422Y110818D01*
X734970Y110926D01*
X734529Y111069D01*
X734100Y111247D01*
X733687Y111458D01*
X733291Y111700D01*
X732916Y111973D01*
X732563Y112274D01*
X732235Y112602D01*
X731933Y112955D01*
X731661Y113331D01*
X731418Y113726D01*
X731208Y114140D01*
X731030Y114568D01*
X730887Y115010D01*
X730778Y115461D01*
X730706Y115919D01*
X730669Y116382D01*
X730669Y116614D01*
X730669Y309449D01*
X730669Y309449D01*
X730669Y309449D01*
X730665Y309684D01*
X730628Y310152D01*
X730554Y310616D01*
X730444Y311073D01*
X730299Y311520D01*
X730120Y311954D01*
X729906Y312373D01*
X729661Y312773D01*
X729385Y313154D01*
X729079Y313511D01*
X728747Y313843D01*
X728390Y314148D01*
X728010Y314424D01*
X727609Y314670D01*
X727190Y314883D01*
X726756Y315063D01*
X726309Y315208D01*
X725852Y315318D01*
X725388Y315392D01*
X724920Y315428D01*
X724685Y315433D01*
X708819D01*
Y315433D01*
X708587Y315433D01*
X708124Y315470D01*
X707666Y315542D01*
X707215Y315650D01*
X706773Y315794D01*
X706345Y315971D01*
X705931Y316182D01*
X705536Y316424D01*
X705160Y316697D01*
X704807Y316999D01*
X704479Y317327D01*
X704178Y317680D01*
X703905Y318055D01*
X703662Y318451D01*
X703452Y318864D01*
X703274Y319293D01*
X703131Y319734D01*
X703022Y320186D01*
X702950Y320644D01*
X702913Y321107D01*
Y321339D01*
Y370039D01*
X702913Y370273D01*
X702950Y370739D01*
X703023Y371200D01*
X703132Y371654D01*
X703276Y372099D01*
X703455Y372530D01*
X703667Y372946D01*
X703911Y373345D01*
X704186Y373723D01*
X704489Y374078D01*
X704820Y374408D01*
X705175Y374712D01*
X705553Y374986D01*
X705951Y375230D01*
X706367Y375442D01*
X706799Y375621D01*
X707243Y375765D01*
X707697Y375874D01*
X708159Y375948D01*
X708625Y375984D01*
X708858Y375984D01*
X730669Y375984D01*
X829527Y375984D01*
D02*
G37*
G36*
X528740Y375984D02*
X528740Y375984D01*
X528972Y375984D01*
X529435Y375948D01*
X529893Y375875D01*
X530344Y375767D01*
X530786Y375623D01*
X531214Y375446D01*
X531628Y375235D01*
X532023Y374993D01*
X532399Y374720D01*
X532752Y374419D01*
X533080Y374091D01*
X533381Y373738D01*
X533654Y373362D01*
X533897Y372967D01*
X534107Y372553D01*
X534285Y372124D01*
X534428Y371683D01*
X534537Y371232D01*
X534609Y370773D01*
X534646Y370311D01*
X534646Y370079D01*
Y320787D01*
X534646Y320787D01*
X534651Y320285D01*
X534690Y319283D01*
X534769Y318283D01*
X534887Y317286D01*
X535044Y316295D01*
X535239Y315311D01*
X535473Y314336D01*
X535746Y313370D01*
X536056Y312416D01*
X536403Y311474D01*
X536787Y310547D01*
X537207Y309636D01*
X537663Y308742D01*
X538153Y307867D01*
X538677Y307012D01*
X539235Y306177D01*
X539824Y305366D01*
X540446Y304578D01*
X541097Y303815D01*
X541778Y303078D01*
X542488Y302368D01*
X543224Y301688D01*
X543987Y301036D01*
X544775Y300415D01*
X545587Y299825D01*
X546421Y299268D01*
X547277Y298743D01*
X548152Y298253D01*
X549046Y297798D01*
X549957Y297378D01*
X550884Y296994D01*
X551826Y296646D01*
X552780Y296336D01*
X553745Y296064D01*
X554721Y295830D01*
X555705Y295634D01*
X556696Y295477D01*
X557692Y295359D01*
X558693Y295281D01*
X559695Y295241D01*
X560197Y295236D01*
X610709Y295236D01*
X610709Y295236D01*
X610709Y295236D01*
X610941Y295236D01*
X611403Y295199D01*
X611862Y295127D01*
X612313Y295019D01*
X612754Y294875D01*
X613183Y294698D01*
X613596Y294487D01*
X613992Y294245D01*
X614367Y293972D01*
X614720Y293671D01*
X615049Y293342D01*
X615350Y292990D01*
X615623Y292614D01*
X615865Y292218D01*
X616076Y291805D01*
X616253Y291376D01*
X616397Y290935D01*
X616505Y290484D01*
X616578Y290025D01*
X616614Y289563D01*
X616614Y289331D01*
X616614Y214173D01*
X616614Y214173D01*
X616614Y213936D01*
X616577Y213465D01*
X616503Y212997D01*
X616393Y212537D01*
X616246Y212087D01*
X616065Y211649D01*
X615850Y211228D01*
X615603Y210824D01*
X615325Y210441D01*
X615017Y210081D01*
X614682Y209747D01*
X614323Y209439D01*
X613940Y209161D01*
X613536Y208914D01*
X613114Y208699D01*
X612677Y208518D01*
X612227Y208371D01*
X611767Y208261D01*
X611299Y208187D01*
X610827Y208150D01*
X610591Y208150D01*
X606221D01*
X606186Y208301D01*
X606010Y208881D01*
X605796Y209448D01*
X605546Y210000D01*
X605261Y210534D01*
X604941Y211048D01*
X604588Y211541D01*
X604204Y212009D01*
X603790Y212451D01*
X603348Y212865D01*
X602879Y213249D01*
X602387Y213602D01*
X601872Y213922D01*
X601338Y214208D01*
X600787Y214458D01*
X600220Y214671D01*
X599640Y214847D01*
X599050Y214985D01*
X598452Y215083D01*
X597850Y215143D01*
X597244Y215162D01*
X596639Y215143D01*
X596036Y215083D01*
X595438Y214985D01*
X594848Y214847D01*
X594269Y214671D01*
X593702Y214458D01*
X593150Y214208D01*
X592616Y213922D01*
X592101Y213602D01*
X591609Y213249D01*
X591141Y212865D01*
X590698Y212451D01*
X590284Y212009D01*
X589900Y211541D01*
X589547Y211048D01*
X589227Y210534D01*
X588942Y210000D01*
X588692Y209448D01*
X588478Y208881D01*
X588303Y208301D01*
X588267Y208150D01*
X564331Y208150D01*
X564331Y208150D01*
X564099Y208145D01*
X563637Y208109D01*
X563179Y208036D01*
X562728Y207928D01*
X562287Y207785D01*
X561858Y207607D01*
X561445Y207397D01*
X561050Y207154D01*
X560675Y206882D01*
X560322Y206581D01*
X559994Y206253D01*
X559693Y205900D01*
X559420Y205525D01*
X559178Y205130D01*
X558968Y204716D01*
X558790Y204288D01*
X558647Y203847D01*
X558539Y203396D01*
X558466Y202938D01*
X558430Y202476D01*
X558425Y202244D01*
X558425Y191024D01*
X558425Y191024D01*
X558425Y190830D01*
X558387Y190445D01*
X558312Y190066D01*
X558200Y189696D01*
X558052Y189338D01*
X557869Y188997D01*
X557654Y188675D01*
X557409Y188376D01*
X557135Y188103D01*
X556836Y187857D01*
X556515Y187643D01*
X556174Y187460D01*
X555816Y187312D01*
X555446Y187200D01*
X555067Y187125D01*
X554682Y187087D01*
X554488Y187087D01*
X540748Y187087D01*
X540555Y187087D01*
X540170Y187125D01*
X539790Y187200D01*
X539420Y187312D01*
X539063Y187460D01*
X538722Y187643D01*
X538400Y187857D01*
X538101Y188103D01*
X537827Y188376D01*
X537582Y188675D01*
X537367Y188997D01*
X537185Y189338D01*
X537037Y189696D01*
X536924Y190066D01*
X536849Y190445D01*
X536811Y190830D01*
X536811Y191024D01*
X536811Y202244D01*
X536811D01*
X536811Y202244D01*
X536806Y202476D01*
X536770Y202938D01*
X536697Y203396D01*
X536589Y203847D01*
X536446Y204288D01*
X536269Y204716D01*
X536058Y205130D01*
X535816Y205525D01*
X535543Y205900D01*
X535242Y206253D01*
X534914Y206581D01*
X534562Y206882D01*
X534187Y207154D01*
X533791Y207397D01*
X533378Y207607D01*
X532949Y207785D01*
X532509Y207928D01*
X532058Y208036D01*
X531600Y208109D01*
X531137Y208145D01*
X530905Y208150D01*
X506496Y208150D01*
Y215158D01*
X487992D01*
Y208150D01*
X468622Y208150D01*
X468390Y208150D01*
X467928Y208186D01*
X467469Y208259D01*
X467018Y208367D01*
X466576Y208510D01*
X466148Y208688D01*
X465734Y208898D01*
X465339Y209141D01*
X464963Y209414D01*
X464610Y209715D01*
X464282Y210043D01*
X463981Y210396D01*
X463708Y210771D01*
X463465Y211167D01*
X463255Y211581D01*
X463077Y212010D01*
X462934Y212451D01*
X462825Y212902D01*
X462753Y213360D01*
X462716Y213823D01*
X462717Y214055D01*
X462716Y259764D01*
X462716D01*
X462716Y259764D01*
X462712Y259999D01*
X462675Y260467D01*
X462602Y260931D01*
X462492Y261388D01*
X462347Y261835D01*
X462167Y262269D01*
X461954Y262688D01*
X461708Y263088D01*
X461432Y263469D01*
X461127Y263826D01*
X460794Y264158D01*
X460437Y264463D01*
X460057Y264740D01*
X459656Y264985D01*
X459238Y265198D01*
X458804Y265378D01*
X458357Y265523D01*
X457900Y265633D01*
X457436Y265706D01*
X456967Y265743D01*
X456732Y265748D01*
X401811Y265748D01*
X401578Y265748D01*
X401112Y265785D01*
X400650Y265858D01*
X400196Y265967D01*
X399752Y266111D01*
X399320Y266290D01*
X398904Y266502D01*
X398506Y266746D01*
X398128Y267021D01*
X397773Y267324D01*
X397442Y267654D01*
X397139Y268010D01*
X396864Y268388D01*
X396620Y268786D01*
X396408Y269202D01*
X396229Y269634D01*
X396085Y270078D01*
X395976Y270532D01*
X395903Y270994D01*
X395866Y271459D01*
Y271693D01*
X395866Y370079D01*
X395866Y370079D01*
X395866Y370079D01*
X395866Y370311D01*
X395902Y370773D01*
X395975Y371232D01*
X396083Y371683D01*
X396227Y372124D01*
X396404Y372553D01*
X396615Y372967D01*
X396858Y373362D01*
X397130Y373738D01*
X397432Y374091D01*
X397760Y374419D01*
X398113Y374720D01*
X398488Y374993D01*
X398884Y375235D01*
X399297Y375446D01*
X399726Y375623D01*
X400167Y375767D01*
X400619Y375875D01*
X401077Y375948D01*
X401540Y375984D01*
X401772Y375984D01*
X528740Y375984D01*
X528740Y375984D01*
D02*
G37*
G36*
X255891Y375948D02*
X256350Y375875D01*
X256801Y375767D01*
X257242Y375623D01*
X257671Y375446D01*
X258085Y375235D01*
X258480Y374993D01*
X258856Y374720D01*
X259209Y374419D01*
X259537Y374091D01*
X259838Y373738D01*
X260111Y373362D01*
X260353Y372967D01*
X260564Y372553D01*
X260742Y372124D01*
X260885Y371683D01*
X260993Y371232D01*
X261066Y370773D01*
X261102Y370311D01*
X261102Y370079D01*
X261101Y209054D01*
X261101Y209054D01*
Y208822D01*
X261065Y208360D01*
X260992Y207901D01*
X260884Y207450D01*
X260741Y207009D01*
X260563Y206580D01*
X260352Y206167D01*
X260110Y205771D01*
X259837Y205396D01*
X259536Y205043D01*
X259208Y204715D01*
X258855Y204414D01*
X258480Y204141D01*
X258084Y203899D01*
X257671Y203688D01*
X257242Y203510D01*
X256801Y203367D01*
X256350Y203259D01*
X255891Y203186D01*
X255429Y203150D01*
X255197D01*
X151772Y203150D01*
X151540Y203150D01*
X151077Y203186D01*
X150619Y203258D01*
X150167Y203367D01*
X149726Y203510D01*
X149297Y203688D01*
X148884Y203899D01*
X148488Y204141D01*
X148113Y204414D01*
X147760Y204715D01*
X147432Y205043D01*
X147130Y205396D01*
X146858Y205772D01*
X146615Y206167D01*
X146404Y206581D01*
X146227Y207010D01*
X146083Y207451D01*
X145975Y207902D01*
X145903Y208361D01*
X145866Y208823D01*
X145866Y209055D01*
X145866Y266095D01*
X145866Y266142D01*
X145866Y266142D01*
X145866Y266142D01*
X145866Y266271D01*
X145900Y266527D01*
X145966Y266776D01*
X146065Y267014D01*
X146194Y267238D01*
X146351Y267442D01*
X146534Y267625D01*
X146739Y267782D01*
X146962Y267911D01*
X147201Y268010D01*
X147450Y268076D01*
X147706Y268110D01*
X147835Y268110D01*
X190150Y268110D01*
X190197Y268110D01*
X190197Y268110D01*
X190197Y268110D01*
X190430Y268115D01*
X190896Y268151D01*
X191357Y268225D01*
X191811Y268333D01*
X192254Y268478D01*
X192686Y268656D01*
X193102Y268868D01*
X193500Y269112D01*
X193877Y269387D01*
X194232Y269690D01*
X194562Y270020D01*
X194865Y270375D01*
X195140Y270752D01*
X195384Y271150D01*
X195596Y271566D01*
X195774Y271997D01*
X195919Y272441D01*
X196027Y272895D01*
X196100Y273356D01*
X196137Y273822D01*
X196142Y274055D01*
X196142Y370079D01*
X196142Y370079D01*
X196142Y370079D01*
X196142Y370311D01*
X196178Y370773D01*
X196251Y371232D01*
X196359Y371683D01*
X196502Y372124D01*
X196680Y372553D01*
X196891Y372967D01*
X197133Y373362D01*
X197406Y373738D01*
X197707Y374091D01*
X198035Y374419D01*
X198388Y374720D01*
X198764Y374993D01*
X199159Y375235D01*
X199573Y375446D01*
X200002Y375623D01*
X200443Y375767D01*
X200894Y375875D01*
X201353Y375948D01*
X201815Y375984D01*
X202047Y375984D01*
X255197Y375984D01*
X255197Y375984D01*
X255197Y375984D01*
X255429Y375984D01*
X255891Y375948D01*
D02*
G37*
G36*
X185034Y309139D02*
Y309139D01*
X185035D01*
X185500Y309112D01*
X185614Y309101D01*
X185993Y309025D01*
X186364Y308913D01*
X186722Y308765D01*
X187063Y308582D01*
X187385Y308367D01*
X187685Y308121D01*
X187959Y307847D01*
X188204Y307548D01*
X188420Y307226D01*
X188602Y306884D01*
X188750Y306526D01*
X188863Y306156D01*
X188938Y305776D01*
X188976Y305391D01*
X188976Y305197D01*
X188976Y284449D01*
X188976Y284449D01*
Y284254D01*
X188938Y283865D01*
X188862Y283483D01*
X188749Y283109D01*
X188599Y282749D01*
X188415Y282405D01*
X188199Y282080D01*
X187951Y281779D01*
X187675Y281503D01*
X187373Y281255D01*
X187049Y281038D01*
X186705Y280854D01*
X186344Y280705D01*
X185971Y280592D01*
X185588Y280516D01*
X185200Y280477D01*
X179485Y280477D01*
X152440Y280477D01*
X152087Y280831D01*
X152089Y287761D01*
X150866D01*
X150866Y305162D01*
X150866Y305162D01*
X150895Y305650D01*
X150904Y305747D01*
X150980Y306130D01*
X151094Y306504D01*
X151243Y306865D01*
X151428Y307209D01*
X151645Y307534D01*
X151892Y307836D01*
X152169Y308112D01*
X152471Y308360D01*
X152796Y308577D01*
X153140Y308761D01*
X153501Y308911D01*
X153875Y309024D01*
X154258Y309101D01*
X154647Y309139D01*
X154842Y309139D01*
X185034Y309139D01*
X185034Y309139D01*
D02*
G37*
G36*
X117738Y297251D02*
X118114Y297176D01*
X118480Y297065D01*
X118834Y296918D01*
X119172Y296738D01*
X119490Y296525D01*
X119786Y296282D01*
X120057Y296011D01*
X120300Y295715D01*
X120512Y295397D01*
X120693Y295059D01*
X120839Y294705D01*
X120951Y294339D01*
X121025Y293963D01*
X121036Y293854D01*
X121063Y293395D01*
Y293391D01*
X121063Y293391D01*
X121063Y293390D01*
X121063Y279178D01*
X102509Y279178D01*
X102253Y279212D01*
X102004Y279279D01*
X101765Y279377D01*
X101542Y279506D01*
X101337Y279663D01*
X101155Y279846D01*
X100997Y280051D01*
X100868Y280274D01*
X100770Y280513D01*
X100703Y280762D01*
X100669Y281018D01*
X100669Y293194D01*
X100669Y293395D01*
X100709Y293795D01*
X100787Y294190D01*
X100904Y294575D01*
X101058Y294947D01*
X101248Y295301D01*
X101471Y295636D01*
X101726Y295947D01*
X102011Y296231D01*
X102322Y296486D01*
X102656Y296710D01*
X103011Y296900D01*
X103383Y297054D01*
X103768Y297170D01*
X104162Y297249D01*
X104562Y297288D01*
X104764Y297288D01*
X104764Y297288D01*
X117165Y297288D01*
X117357Y297288D01*
X117738Y297251D01*
D02*
G37*
G36*
X94252Y297210D02*
X94252Y297210D01*
X94252D01*
X94715Y297183D01*
X94830Y297172D01*
X95209Y297096D01*
X95580Y296984D01*
X95937Y296836D01*
X96278Y296654D01*
X96600Y296439D01*
X96899Y296193D01*
X97172Y295920D01*
X97418Y295621D01*
X97633Y295299D01*
X97815Y294958D01*
X97963Y294601D01*
X98076Y294230D01*
X98151Y293851D01*
X98189Y293466D01*
X98189Y293273D01*
X98189Y280123D01*
X98193Y279980D01*
X98220Y279695D01*
X98276Y279415D01*
X98359Y279141D01*
X98469Y278877D01*
X98603Y278625D01*
X98762Y278387D01*
X98944Y278166D01*
X99146Y277964D01*
X99367Y277783D01*
X99605Y277624D01*
X99857Y277489D01*
X100121Y277380D01*
X100394Y277297D01*
X100675Y277241D01*
X100959Y277213D01*
X101102Y277210D01*
X102445D01*
X102509Y277205D01*
X121063Y277205D01*
X121127Y277210D01*
X130630D01*
X131106Y277210D01*
X131107Y277210D01*
X131264Y277212D01*
X131579Y277233D01*
X131580Y277233D01*
X131589Y277234D01*
X131894Y277274D01*
X132205Y277336D01*
X132510Y277418D01*
X132810Y277520D01*
X133103Y277641D01*
X133387Y277781D01*
X133661Y277939D01*
X133924Y278115D01*
X134175Y278308D01*
X134413Y278516D01*
X134527Y278626D01*
X135671Y279771D01*
X135671Y279771D01*
X135671Y279771D01*
X135672Y279772D01*
X135715Y279819D01*
X135787Y279927D01*
X135788Y279927D01*
X135838Y280048D01*
X135838Y280048D01*
X135863Y280176D01*
X135863Y280176D01*
X135866Y280241D01*
X138072Y280241D01*
X138425Y279888D01*
X138425Y278520D01*
X138424Y278520D01*
X138425Y278420D01*
X138405Y278222D01*
X138366Y278027D01*
X138309Y277837D01*
X138233Y277653D01*
X138139Y277478D01*
X138028Y277313D01*
X137902Y277159D01*
X137832Y277089D01*
X133403Y272660D01*
X133402Y272660D01*
X133298Y272555D01*
X133069Y272367D01*
X132822Y272202D01*
X132561Y272063D01*
X132288Y271949D01*
X132004Y271863D01*
X131713Y271806D01*
X131419Y271777D01*
X131271Y271777D01*
X83740Y271777D01*
X83545Y271777D01*
X83156Y271815D01*
X82773Y271891D01*
X82399Y272004D01*
X82038Y272154D01*
X81694Y272338D01*
X81369Y272555D01*
X81067Y272803D01*
X80790Y273079D01*
X80542Y273381D01*
X80325Y273706D01*
X80141Y274051D01*
X79992Y274412D01*
X79878Y274786D01*
X79802Y275169D01*
X79764Y275558D01*
Y293273D01*
X79764Y293466D01*
X79802Y293851D01*
X79877Y294230D01*
X79989Y294601D01*
X80137Y294958D01*
X80320Y295299D01*
X80535Y295621D01*
X80780Y295920D01*
X81054Y296193D01*
X81353Y296439D01*
X81674Y296654D01*
X82015Y296836D01*
X82373Y296984D01*
X82743Y297096D01*
X83122Y297172D01*
X83507Y297210D01*
X83701Y297210D01*
X94252Y297210D01*
X94252Y297210D01*
D02*
G37*
G36*
X127953Y297288D02*
X135398Y297288D01*
X135398Y297288D01*
X135398Y297288D01*
X135414Y297288D01*
X135861Y297270D01*
X135938Y297265D01*
X136295Y297218D01*
X136648Y297147D01*
X136996Y297054D01*
X137337Y296939D01*
X137670Y296801D01*
X137993Y296642D01*
X138305Y296462D01*
X138604Y296262D01*
X138890Y296042D01*
X139161Y295805D01*
X139288Y295677D01*
X142384Y292582D01*
X142384Y292581D01*
X142384Y292581D01*
X142392Y292573D01*
X142702Y292221D01*
X142729Y292188D01*
X142923Y291897D01*
X143088Y291589D01*
X143221Y291267D01*
X143323Y290933D01*
X143391Y290591D01*
X143425Y290243D01*
X143425Y290069D01*
X143425Y288311D01*
X143072Y287958D01*
X140945Y287958D01*
X140636Y288779D01*
X140636D01*
X140636Y288779D01*
X140586Y288918D01*
X140465Y289187D01*
X140465Y289188D01*
X140455Y289204D01*
X140394Y289308D01*
Y289311D01*
X140392D01*
X140315Y289442D01*
X140138Y289678D01*
X139936Y289894D01*
X139711Y290086D01*
X139467Y290252D01*
X139207Y290391D01*
X138932Y290500D01*
X138647Y290578D01*
X138356Y290625D01*
X138061Y290640D01*
X137913Y290635D01*
X135379Y290635D01*
X135379Y290635D01*
X135219Y290632D01*
X134901Y290612D01*
X134584Y290571D01*
X134271Y290511D01*
X134116Y290473D01*
X133955Y290426D01*
X133644Y290307D01*
X133348Y290155D01*
X133070Y289971D01*
X132813Y289758D01*
X132582Y289518D01*
X132378Y289254D01*
X132205Y288970D01*
X132063Y288668D01*
X131956Y288353D01*
X131883Y288028D01*
X131847Y287696D01*
X131842Y287530D01*
X131842Y281217D01*
X131842Y281217D01*
Y281086D01*
X131808Y280826D01*
X131740Y280573D01*
X131640Y280331D01*
X131509Y280104D01*
X131349Y279896D01*
X131164Y279711D01*
X130956Y279551D01*
X130729Y279420D01*
X130487Y279320D01*
X130233Y279252D01*
X129974Y279218D01*
X124016D01*
X124016Y285969D01*
X124016Y293351D01*
X124016Y293351D01*
X124045Y293839D01*
X124054Y293929D01*
X124129Y294309D01*
X124241Y294679D01*
X124389Y295037D01*
X124571Y295378D01*
X124786Y295699D01*
X125032Y295999D01*
X125305Y296272D01*
X125604Y296517D01*
X125926Y296732D01*
X126267Y296915D01*
X126625Y297063D01*
X126995Y297175D01*
X127374Y297251D01*
X127759Y297288D01*
X127953Y297288D01*
D02*
G37*
G36*
X71024Y309139D02*
X144489Y309138D01*
X144489Y309138D01*
X144489Y309138D01*
X144682Y309138D01*
X145067Y309100D01*
X145446Y309024D01*
X145817Y308912D01*
X146174Y308764D01*
X146515Y308582D01*
X146837Y308367D01*
X147135Y308122D01*
X147409Y307848D01*
X147654Y307549D01*
X147869Y307228D01*
X148052Y306887D01*
X148200Y306529D01*
X148312Y306159D01*
X148387Y305780D01*
X148425Y305395D01*
X148425Y305202D01*
X148425Y287757D01*
X148390Y287721D01*
X145866Y287721D01*
X145399Y288189D01*
Y288215D01*
X145396Y288275D01*
X145398Y288311D01*
X145398Y290068D01*
X145398Y290243D01*
X145392Y290339D01*
X145388Y290436D01*
X145354Y290784D01*
X145338Y290879D01*
X145326Y290975D01*
X145258Y291318D01*
X145233Y291411D01*
X145211Y291506D01*
X145109Y291840D01*
X145075Y291931D01*
X145044Y292022D01*
X144910Y292345D01*
X144867Y292432D01*
X144827Y292520D01*
X144663Y292828D01*
X144612Y292910D01*
X144563Y292994D01*
X144369Y293284D01*
X144310Y293361D01*
X144253Y293440D01*
X144226Y293473D01*
X144214Y293486D01*
X144212Y293489D01*
X144204Y293496D01*
X144203Y293498D01*
X144182Y293525D01*
X143872Y293877D01*
X143827Y293921D01*
X143810Y293941D01*
X143779Y293976D01*
X140683Y297072D01*
X140556Y297199D01*
X140507Y297242D01*
X140462Y297288D01*
X140191Y297525D01*
X140140Y297565D01*
X140091Y297607D01*
X139805Y297827D01*
X139752Y297862D01*
X139700Y297902D01*
X139401Y298102D01*
X139345Y298134D01*
X139291Y298170D01*
X138979Y298350D01*
X138921Y298379D01*
X138865Y298411D01*
X138542Y298570D01*
X138483Y298595D01*
X138425Y298624D01*
X138092Y298761D01*
X138031Y298782D01*
X137971Y298807D01*
X137630Y298922D01*
X137567Y298939D01*
X137506Y298960D01*
X137158Y299053D01*
X137095Y299066D01*
X137032Y299082D01*
X136679Y299153D01*
X136615Y299161D01*
X136552Y299173D01*
X136195Y299220D01*
X136130Y299225D01*
X136066Y299233D01*
X135989Y299238D01*
X135965Y299238D01*
X135942Y299240D01*
X135495Y299259D01*
X135454Y299258D01*
X135413Y299260D01*
X135408D01*
X135398Y299261D01*
X134327D01*
X134291Y299296D01*
X82247Y299296D01*
X82247Y299296D01*
X82018Y299292D01*
X81561Y299256D01*
X81108Y299184D01*
X80662Y299077D01*
X80226Y298936D01*
X79802Y298760D01*
X79394Y298552D01*
X79003Y298313D01*
X78632Y298043D01*
X78283Y297746D01*
X77958Y297422D01*
X77660Y297073D01*
X77390Y296703D01*
X77150Y296312D01*
X76942Y295904D01*
X76766Y295480D01*
X76624Y295044D01*
X76516Y294599D01*
X76444Y294146D01*
X76408Y293689D01*
X76403Y293459D01*
X76380Y275673D01*
X76380Y275673D01*
X76379Y275482D01*
X76341Y275101D01*
X76266Y274725D01*
X76155Y274359D01*
X76008Y274005D01*
X75827Y273667D01*
X75614Y273349D01*
X75371Y273053D01*
X75099Y272782D01*
X74803Y272539D01*
X74485Y272327D01*
X74147Y272146D01*
X73793Y272000D01*
X73426Y271889D01*
X73050Y271814D01*
X72669Y271777D01*
X72478Y271777D01*
X71102Y271777D01*
X71102Y271777D01*
X70905D01*
X70512Y271815D01*
X70125Y271892D01*
X69748Y272007D01*
X69383Y272158D01*
X69035Y272344D01*
X68707Y272563D01*
X68402Y272813D01*
X68123Y273092D01*
X67873Y273397D01*
X67654Y273725D01*
X67468Y274073D01*
X67317Y274438D01*
X67202Y274815D01*
X67125Y275202D01*
X67087Y275595D01*
X67087Y305202D01*
X67087Y305202D01*
X67087Y305202D01*
Y305395D01*
X67124Y305780D01*
X67200Y306160D01*
X67312Y306530D01*
X67460Y306887D01*
X67643Y307228D01*
X67858Y307550D01*
X68103Y307849D01*
X68376Y308122D01*
X68676Y308368D01*
X68997Y308583D01*
X69338Y308765D01*
X69696Y308913D01*
X70066Y309025D01*
X70445Y309101D01*
X70830Y309139D01*
X71024Y309139D01*
D02*
G37*
G36*
X21654Y374016D02*
X57087Y374016D01*
X57087Y374016D01*
X57087Y374016D01*
X57280Y374016D01*
X57665Y373978D01*
X58044Y373902D01*
X58415Y373790D01*
X58772Y373642D01*
X59113Y373460D01*
X59435Y373245D01*
X59734Y372999D01*
X60007Y372726D01*
X60253Y372427D01*
X60468Y372105D01*
X60650Y371764D01*
X60798Y371407D01*
X60910Y371037D01*
X60986Y370657D01*
X61024Y370272D01*
X61023Y370079D01*
X61024Y274016D01*
X61024Y274016D01*
X61028Y273784D01*
X61064Y273322D01*
X61137Y272864D01*
X61245Y272413D01*
X61389Y271972D01*
X61566Y271543D01*
X61777Y271130D01*
X62019Y270735D01*
X62291Y270360D01*
X62593Y270007D01*
X62920Y269679D01*
X63273Y269378D01*
X63648Y269106D01*
X64044Y268863D01*
X64457Y268653D01*
X64885Y268475D01*
X65326Y268332D01*
X65777Y268224D01*
X66235Y268151D01*
X66697Y268115D01*
X66929Y268110D01*
X141496Y268110D01*
X141496Y268110D01*
X141496Y268110D01*
X141625Y268110D01*
X141881Y268077D01*
X142130Y268010D01*
X142369Y267911D01*
X142592Y267782D01*
X142797Y267625D01*
X142979Y267442D01*
X143136Y267238D01*
X143265Y267014D01*
X143364Y266776D01*
X143431Y266527D01*
X143465Y266271D01*
X143465Y266142D01*
X143465Y208976D01*
X143465D01*
X143465Y208744D01*
X143428Y208282D01*
X143356Y207823D01*
X143247Y207372D01*
X143104Y206931D01*
X142926Y206502D01*
X142716Y206089D01*
X142473Y205693D01*
X142200Y205317D01*
X141899Y204965D01*
X141571Y204637D01*
X141218Y204335D01*
X140842Y204062D01*
X140447Y203820D01*
X140033Y203609D01*
X139605Y203432D01*
X139163Y203288D01*
X138712Y203180D01*
X138254Y203107D01*
X137791Y203071D01*
X45590D01*
X45590Y203071D01*
X45346Y203066D01*
X44859Y203028D01*
X44377Y202951D01*
X43902Y202837D01*
X43437Y202686D01*
X42986Y202499D01*
X42551Y202278D01*
X42135Y202022D01*
X41739Y201735D01*
X41368Y201418D01*
X41023Y201073D01*
X40705Y200701D01*
X40418Y200306D01*
X40163Y199890D01*
X39941Y199455D01*
X39755Y199003D01*
X39604Y198539D01*
X39490Y198064D01*
X39413Y197582D01*
X39375Y197095D01*
X39370Y196850D01*
X39370Y110236D01*
X39370Y110236D01*
Y110043D01*
X39332Y109658D01*
X39257Y109278D01*
X39144Y108908D01*
X38996Y108551D01*
X38814Y108210D01*
X38599Y107888D01*
X38354Y107589D01*
X38080Y107316D01*
X37781Y107070D01*
X37459Y106855D01*
X37118Y106673D01*
X36761Y106525D01*
X36391Y106413D01*
X36011Y106337D01*
X35627Y106299D01*
X23622Y106299D01*
X23429Y106299D01*
X23044Y106337D01*
X22664Y106413D01*
X22294Y106525D01*
X21937Y106673D01*
X21596Y106855D01*
X21274Y107070D01*
X20975Y107316D01*
X20701Y107589D01*
X20456Y107888D01*
X20241Y108210D01*
X20059Y108551D01*
X19911Y108908D01*
X19798Y109278D01*
X19723Y109658D01*
X19685Y110043D01*
Y110236D01*
Y262205D01*
X19685Y262437D01*
X19721Y262899D01*
X19794Y263358D01*
X19902Y263809D01*
X20046Y264250D01*
X20223Y264679D01*
X20434Y265093D01*
X20676Y265488D01*
X20949Y265864D01*
X21250Y266217D01*
X21579Y266545D01*
X21932Y266846D01*
X22307Y267119D01*
X22703Y267361D01*
X23116Y267572D01*
X23545Y267750D01*
X23986Y267893D01*
X24438Y268001D01*
X24896Y268074D01*
X25359Y268110D01*
X25591Y268110D01*
X31448Y268110D01*
X31496Y268110D01*
X31496Y268110D01*
X31496Y268110D01*
X31728Y268115D01*
X32190Y268151D01*
X32648Y268224D01*
X33099Y268332D01*
X33540Y268475D01*
X33968Y268653D01*
X34382Y268863D01*
X34777Y269105D01*
X35152Y269378D01*
X35505Y269679D01*
X35833Y270007D01*
X36134Y270360D01*
X36406Y270735D01*
X36649Y271130D01*
X36859Y271543D01*
X37037Y271972D01*
X37180Y272413D01*
X37288Y272864D01*
X37361Y273322D01*
X37397Y273784D01*
X37402Y274016D01*
X37402Y334646D01*
X37402D01*
X37402Y334646D01*
X37397Y334877D01*
X37361Y335340D01*
X37288Y335798D01*
X37180Y336249D01*
X37037Y336690D01*
X36859Y337118D01*
X36649Y337531D01*
X36406Y337927D01*
X36134Y338302D01*
X35833Y338654D01*
X35505Y338982D01*
X35152Y339283D01*
X34777Y339556D01*
X34382Y339798D01*
X33968Y340009D01*
X33540Y340186D01*
X33099Y340330D01*
X32648Y340438D01*
X32190Y340510D01*
X31728Y340547D01*
X31496Y340551D01*
X23622Y340551D01*
X23429Y340551D01*
X23044Y340589D01*
X22664Y340665D01*
X22294Y340777D01*
X21937Y340925D01*
X21596Y341107D01*
X21274Y341322D01*
X20975Y341567D01*
X20701Y341841D01*
X20456Y342140D01*
X20241Y342462D01*
X20059Y342803D01*
X19911Y343160D01*
X19798Y343530D01*
X19723Y343910D01*
X19685Y344295D01*
X19685Y344488D01*
X19685Y371999D01*
X19685Y372047D01*
X19685Y372047D01*
X19685Y372047D01*
X19685Y372176D01*
X19719Y372432D01*
X19785Y372681D01*
X19884Y372920D01*
X20013Y373143D01*
X20170Y373348D01*
X20353Y373531D01*
X20557Y373688D01*
X20781Y373817D01*
X21019Y373915D01*
X21269Y373982D01*
X21524Y374016D01*
X21654Y374016D01*
D02*
G37*
G36*
X270866Y259449D02*
X450787Y259449D01*
X451019D01*
X451482Y259412D01*
X451940Y259340D01*
X452392Y259231D01*
X452833Y259088D01*
X453262Y258910D01*
X453675Y258700D01*
X454071Y258457D01*
X454446Y258185D01*
X454799Y257883D01*
X455127Y257555D01*
X455429Y257202D01*
X455701Y256827D01*
X455944Y256431D01*
X456155Y256018D01*
X456332Y255589D01*
X456476Y255148D01*
X456584Y254696D01*
X456657Y254238D01*
X456693Y253775D01*
Y253543D01*
Y209055D01*
X456693Y209055D01*
X456693Y208823D01*
X456657Y208360D01*
X456584Y207902D01*
X456476Y207451D01*
X456332Y207010D01*
X456155Y206581D01*
X455944Y206167D01*
X455701Y205772D01*
X455429Y205396D01*
X455127Y205043D01*
X454799Y204715D01*
X454446Y204414D01*
X454071Y204141D01*
X453675Y203899D01*
X453262Y203688D01*
X452833Y203510D01*
X452392Y203367D01*
X451940Y203259D01*
X451482Y203186D01*
X451019Y203150D01*
X450787Y203150D01*
X270866Y203150D01*
X270634Y203150D01*
X270171Y203186D01*
X269713Y203259D01*
X269262Y203367D01*
X268821Y203510D01*
X268392Y203688D01*
X267978Y203899D01*
X267583Y204141D01*
X267207Y204414D01*
X266854Y204715D01*
X266526Y205043D01*
X266225Y205396D01*
X265952Y205772D01*
X265710Y206167D01*
X265499Y206581D01*
X265321Y207010D01*
X265178Y207451D01*
X265070Y207902D01*
X264997Y208360D01*
X264961Y208823D01*
X264961Y209055D01*
X264961Y253543D01*
X264961Y253543D01*
X264981Y254035D01*
X264997Y254238D01*
X265070Y254696D01*
X265178Y255147D01*
X265321Y255589D01*
X265499Y256017D01*
X265709Y256431D01*
X265952Y256827D01*
X266225Y257202D01*
X266526Y257555D01*
X266854Y257883D01*
X267207Y258185D01*
X267583Y258457D01*
X267978Y258700D01*
X268392Y258910D01*
X268821Y259088D01*
X269262Y259231D01*
X269713Y259340D01*
X270171Y259412D01*
X270634Y259449D01*
X270866Y259449D01*
D02*
G37*
G36*
X530315Y202756D02*
X530315Y202756D01*
X530444Y202756D01*
X530700Y202722D01*
X530949Y202655D01*
X531187Y202557D01*
X531411Y202428D01*
X531616Y202271D01*
X531798Y202088D01*
X531955Y201883D01*
X532084Y201660D01*
X532183Y201421D01*
X532250Y201172D01*
X532283Y200916D01*
X532283Y183622D01*
X532288Y183385D01*
X532325Y182914D01*
X532399Y182447D01*
X532510Y181987D01*
X532656Y181537D01*
X532837Y181100D01*
X533051Y180679D01*
X533299Y180275D01*
X533577Y179893D01*
X533884Y179533D01*
X534218Y179199D01*
X534578Y178892D01*
X534961Y178613D01*
X535364Y178366D01*
X535785Y178152D01*
X536222Y177971D01*
X536672Y177824D01*
X537132Y177714D01*
X537599Y177640D01*
X538071Y177603D01*
X538307Y177598D01*
X579134Y177598D01*
X579134Y177598D01*
X579134Y177598D01*
X579327Y177598D01*
X579712Y177560D01*
X580091Y177485D01*
X580462Y177373D01*
X580819Y177225D01*
X581160Y177042D01*
X581482Y176827D01*
X581781Y176582D01*
X582055Y176309D01*
X582300Y176010D01*
X582515Y175688D01*
X582697Y175347D01*
X582845Y174989D01*
X582958Y174619D01*
X583033Y174240D01*
X583071Y173855D01*
X583071Y173661D01*
X583071Y152953D01*
X583071D01*
X583071Y152750D01*
X583031Y152346D01*
X582952Y151947D01*
X582834Y151558D01*
X582679Y151183D01*
X582487Y150825D01*
X582261Y150487D01*
X582004Y150173D01*
X581716Y149886D01*
X581402Y149628D01*
X581065Y149403D01*
X580707Y149211D01*
X580331Y149056D01*
X579943Y148938D01*
X579544Y148859D01*
X579140Y148819D01*
X578937Y148819D01*
X530354D01*
X530354Y148819D01*
X530159Y148814D01*
X529771Y148776D01*
X529388Y148700D01*
X529015Y148586D01*
X528654Y148437D01*
X528310Y148253D01*
X527986Y148036D01*
X527684Y147789D01*
X527408Y147513D01*
X527161Y147211D01*
X526944Y146887D01*
X526760Y146543D01*
X526610Y146182D01*
X526497Y145809D01*
X526421Y145426D01*
X526383Y145038D01*
X526378Y144843D01*
X526378Y105551D01*
X526378Y105551D01*
X526378Y105352D01*
X526339Y104955D01*
X526261Y104565D01*
X526145Y104183D01*
X525993Y103815D01*
X525805Y103464D01*
X525584Y103133D01*
X525331Y102825D01*
X525049Y102543D01*
X524741Y102290D01*
X524410Y102069D01*
X524059Y101881D01*
X523691Y101728D01*
X523309Y101613D01*
X522919Y101535D01*
X522522Y101496D01*
X522323Y101496D01*
X508150D01*
Y196850D01*
X508150Y197082D01*
X508186Y197545D01*
X508259Y198003D01*
X508367Y198454D01*
X508510Y198896D01*
X508688Y199325D01*
X508898Y199738D01*
X509141Y200134D01*
X509414Y200509D01*
X509715Y200862D01*
X510043Y201190D01*
X510396Y201492D01*
X510772Y201764D01*
X511167Y202007D01*
X511581Y202218D01*
X512009Y202395D01*
X512451Y202539D01*
X512902Y202647D01*
X513360Y202719D01*
X513823Y202756D01*
X514055Y202756D01*
X530315Y202756D01*
X530315Y202756D01*
D02*
G37*
G36*
X502165Y152520D02*
X502165Y152520D01*
X502359Y152520D01*
X502744Y152482D01*
X503123Y152406D01*
X503493Y152294D01*
X503851Y152146D01*
X504192Y151964D01*
X504513Y151749D01*
X504812Y151503D01*
X505086Y151230D01*
X505331Y150931D01*
X505546Y150609D01*
X505729Y150268D01*
X505877Y149911D01*
X505989Y149540D01*
X506064Y149161D01*
X506102Y148776D01*
X506102Y148583D01*
X506102Y106496D01*
X500354Y106496D01*
X500354Y114055D01*
X500354Y114055D01*
X500354Y114055D01*
X500350Y114261D01*
X500318Y114671D01*
X500254Y115077D01*
X500158Y115476D01*
X500031Y115867D01*
X499873Y116247D01*
X499687Y116614D01*
X499472Y116964D01*
X499230Y117297D01*
X498963Y117609D01*
X498672Y117900D01*
X498360Y118167D01*
X498027Y118409D01*
X497677Y118624D01*
X497310Y118810D01*
X496931Y118968D01*
X496539Y119095D01*
X496140Y119191D01*
X495734Y119255D01*
X495324Y119287D01*
X495118Y119291D01*
X492717D01*
X492717Y119291D01*
X492523Y119291D01*
X492138Y119329D01*
X491759Y119405D01*
X491389Y119517D01*
X491031Y119665D01*
X490690Y119847D01*
X490368Y120062D01*
X490069Y120308D01*
X489796Y120581D01*
X489550Y120880D01*
X489336Y121202D01*
X489153Y121543D01*
X489005Y121900D01*
X488893Y122271D01*
X488818Y122650D01*
X488779Y123035D01*
X488780Y123228D01*
X488780Y148583D01*
X488780Y148583D01*
X488780Y148583D01*
X488780Y148776D01*
X488818Y149161D01*
X488893Y149540D01*
X489005Y149911D01*
X489153Y150268D01*
X489336Y150609D01*
X489550Y150931D01*
X489796Y151230D01*
X490069Y151503D01*
X490368Y151749D01*
X490690Y151964D01*
X491031Y152146D01*
X491389Y152294D01*
X491759Y152406D01*
X492138Y152482D01*
X492523Y152520D01*
X492717Y152520D01*
X502165Y152520D01*
X502165Y152520D01*
D02*
G37*
G36*
X578722Y146711D02*
X578916Y146711D01*
X579303Y146673D01*
X579684Y146598D01*
X580056Y146485D01*
X580415Y146336D01*
X580758Y146153D01*
X581081Y145937D01*
X581381Y145690D01*
X581656Y145415D01*
X581903Y145115D01*
X582119Y144792D01*
X582302Y144449D01*
X582450Y144090D01*
X582563Y143718D01*
X582639Y143337D01*
X582677Y142950D01*
X582677Y142756D01*
X582677D01*
X582677Y142756D01*
X582677Y121397D01*
X557480Y121397D01*
X557480Y142756D01*
X557480Y142950D01*
X557518Y143337D01*
X557594Y143718D01*
X557707Y144090D01*
X557856Y144449D01*
X558039Y144792D01*
X558255Y145115D01*
X558501Y145415D01*
X558776Y145690D01*
X559077Y145937D01*
X559400Y146153D01*
X559743Y146336D01*
X560102Y146485D01*
X560473Y146598D01*
X560855Y146673D01*
X561241Y146711D01*
X561436Y146711D01*
X561436Y146711D01*
X578722Y146711D01*
D02*
G37*
G36*
X551350Y146673D02*
X551731Y146598D01*
X552103Y146485D01*
X552462Y146336D01*
X552805Y146153D01*
X553128Y145937D01*
X553429Y145690D01*
X553703Y145415D01*
X553950Y145115D01*
X554166Y144792D01*
X554349Y144449D01*
X554498Y144090D01*
X554610Y143718D01*
X554686Y143337D01*
X554725Y142950D01*
X554724Y142756D01*
X554724Y142756D01*
X554725Y142756D01*
X554724Y121397D01*
X529528D01*
X529528Y142756D01*
X529528Y142950D01*
X529566Y143337D01*
X529641Y143718D01*
X529754Y144090D01*
X529903Y144449D01*
X530086Y144792D01*
X530302Y145115D01*
X530549Y145415D01*
X530823Y145690D01*
X531124Y145937D01*
X531447Y146153D01*
X531790Y146336D01*
X532149Y146485D01*
X532521Y146597D01*
X532902Y146673D01*
X533289Y146711D01*
X533483Y146711D01*
X533483Y146711D01*
X550769Y146711D01*
X550963Y146711D01*
X551350Y146673D01*
D02*
G37*
G36*
X49607Y198819D02*
X471575Y198819D01*
X471575Y198819D01*
X471575Y198819D01*
X471807Y198819D01*
X472270Y198782D01*
X472728Y198710D01*
X473179Y198601D01*
X473621Y198458D01*
X474049Y198280D01*
X474463Y198070D01*
X474858Y197827D01*
X475234Y197555D01*
X475587Y197253D01*
X475915Y196925D01*
X476216Y196572D01*
X476489Y196197D01*
X476731Y195801D01*
X476942Y195388D01*
X477120Y194959D01*
X477263Y194518D01*
X477371Y194066D01*
X477444Y193608D01*
X477480Y193145D01*
X477480Y192913D01*
X477480Y149439D01*
X477480Y130319D01*
Y129134D01*
X477480Y129134D01*
Y128906D01*
X477445Y128453D01*
X477373Y128004D01*
X477267Y127562D01*
X477127Y127129D01*
X476953Y126709D01*
X476746Y126304D01*
X476509Y125916D01*
X476241Y125548D01*
X475946Y125202D01*
X475624Y124881D01*
X475279Y124585D01*
X474911Y124318D01*
X474523Y124081D01*
X474118Y123874D01*
X473698Y123700D01*
X473265Y123559D01*
X472823Y123453D01*
X472374Y123382D01*
X471920Y123346D01*
X471693D01*
X431863Y123346D01*
X431643Y123346D01*
X431204Y123375D01*
X430767Y123432D01*
X430335Y123516D01*
X429909Y123629D01*
X429491Y123768D01*
X429083Y123934D01*
X428687Y124127D01*
X428304Y124344D01*
X427936Y124586D01*
X427584Y124851D01*
X427250Y125138D01*
X426936Y125446D01*
X426641Y125773D01*
X426369Y126119D01*
X426119Y126482D01*
X426006Y126671D01*
X426006D01*
X426006Y126671D01*
X425879Y126876D01*
X425606Y127274D01*
X425307Y127653D01*
X424984Y128012D01*
X424639Y128350D01*
X424273Y128665D01*
X423887Y128955D01*
X423484Y129220D01*
X423064Y129458D01*
X422629Y129669D01*
X422182Y129851D01*
X421725Y130005D01*
X421258Y130128D01*
X420784Y130221D01*
X420305Y130283D01*
X419823Y130314D01*
X419582Y130318D01*
X74839Y130312D01*
X74839Y130312D01*
X74606Y130307D01*
X74141Y130270D01*
X73680Y130197D01*
X73226Y130088D01*
X72783Y129944D01*
X72352Y129766D01*
X71936Y129554D01*
X71538Y129310D01*
X71161Y129036D01*
X70806Y128733D01*
X70476Y128403D01*
X70173Y128048D01*
X69899Y127671D01*
X69655Y127273D01*
X69443Y126857D01*
X69265Y126426D01*
X69121Y125983D01*
X69012Y125529D01*
X68939Y125068D01*
X68902Y124603D01*
X68898Y124370D01*
X68898Y46968D01*
X68898Y46968D01*
X68898Y46736D01*
X68861Y46274D01*
X68789Y45816D01*
X68680Y45364D01*
X68537Y44923D01*
X68359Y44494D01*
X68149Y44081D01*
X67906Y43685D01*
X67633Y43310D01*
X67332Y42957D01*
X67004Y42629D01*
X66651Y42327D01*
X66276Y42054D01*
X65880Y41812D01*
X65466Y41601D01*
X65038Y41424D01*
X64596Y41280D01*
X64145Y41172D01*
X63687Y41099D01*
X63224Y41063D01*
X62992Y41063D01*
X25591Y41063D01*
X25358Y41063D01*
X24896Y41099D01*
X24438Y41172D01*
X23986Y41280D01*
X23545Y41424D01*
X23116Y41601D01*
X22703Y41812D01*
X22307Y42054D01*
X21932Y42327D01*
X21579Y42629D01*
X21251Y42957D01*
X20949Y43310D01*
X20676Y43685D01*
X20434Y44081D01*
X20223Y44494D01*
X20046Y44923D01*
X19902Y45364D01*
X19794Y45816D01*
X19721Y46274D01*
X19685Y46736D01*
X19685Y46968D01*
Y66929D01*
X19685Y67161D01*
X19721Y67624D01*
X19794Y68082D01*
X19902Y68533D01*
X20046Y68975D01*
X20223Y69403D01*
X20434Y69817D01*
X20676Y70213D01*
X20949Y70588D01*
X21250Y70941D01*
X21579Y71269D01*
X21932Y71571D01*
X22307Y71843D01*
X22703Y72086D01*
X23116Y72297D01*
X23545Y72474D01*
X23986Y72617D01*
X24438Y72726D01*
X24896Y72798D01*
X25359Y72835D01*
X25591Y72835D01*
X37748Y72835D01*
X37795Y72835D01*
X37795Y72835D01*
X37795Y72835D01*
X38027Y72839D01*
X38489Y72875D01*
X38947Y72948D01*
X39398Y73056D01*
X39839Y73199D01*
X40268Y73377D01*
X40681Y73587D01*
X41076Y73830D01*
X41451Y74102D01*
X41804Y74403D01*
X42132Y74731D01*
X42433Y75084D01*
X42706Y75459D01*
X42948Y75854D01*
X43159Y76268D01*
X43336Y76696D01*
X43479Y77137D01*
X43587Y77588D01*
X43660Y78046D01*
X43696Y78508D01*
X43701Y78740D01*
X43701Y131070D01*
X43701Y192866D01*
X43701Y192913D01*
X43701Y192913D01*
X43701Y192913D01*
X43701Y193145D01*
X43737Y193608D01*
X43810Y194067D01*
X43918Y194518D01*
X44061Y194959D01*
X44239Y195388D01*
X44450Y195801D01*
X44692Y196197D01*
X44965Y196573D01*
X45266Y196926D01*
X45594Y197254D01*
X45947Y197555D01*
X46323Y197828D01*
X46719Y198071D01*
X47132Y198281D01*
X47561Y198459D01*
X48002Y198602D01*
X48454Y198711D01*
X48912Y198783D01*
X49375Y198819D01*
X49607Y198819D01*
D02*
G37*
G36*
X482322Y116969D02*
X482322Y116969D01*
X482477Y116969D01*
X482784Y116929D01*
X483083Y116849D01*
X483369Y116730D01*
X483638Y116575D01*
X483883Y116387D01*
X484102Y116168D01*
X484291Y115922D01*
X484446Y115654D01*
X484564Y115367D01*
X484645Y115068D01*
X484685Y114761D01*
X484685Y106457D01*
X451141Y106456D01*
X451141Y106456D01*
X450948Y106451D01*
X450564Y106413D01*
X450185Y106338D01*
X449815Y106226D01*
X449458Y106078D01*
X449117Y105896D01*
X448796Y105681D01*
X448498Y105436D01*
X448224Y105163D01*
X447979Y104865D01*
X447765Y104543D01*
X447583Y104203D01*
X447435Y103846D01*
X447323Y103476D01*
X447247Y103097D01*
X447209Y102713D01*
X447205Y102520D01*
Y100551D01*
X447205Y100551D01*
X447205Y100319D01*
X447168Y99857D01*
X447096Y99398D01*
X446987Y98947D01*
X446844Y98506D01*
X446666Y98077D01*
X446456Y97664D01*
X446213Y97268D01*
X445941Y96893D01*
X445639Y96540D01*
X445311Y96212D01*
X444958Y95911D01*
X444583Y95638D01*
X444187Y95395D01*
X443774Y95185D01*
X443345Y95007D01*
X442904Y94864D01*
X442453Y94755D01*
X441995Y94683D01*
X441532Y94647D01*
X441300Y94647D01*
X380394Y94646D01*
X380394Y94646D01*
X380118Y94642D01*
X379567Y94612D01*
X379018Y94550D01*
X378474Y94457D01*
X377936Y94334D01*
X377405Y94181D01*
X376884Y93999D01*
X376374Y93788D01*
X375876Y93548D01*
X375393Y93281D01*
X374926Y92987D01*
X374476Y92668D01*
X374044Y92324D01*
X373632Y91956D01*
X373242Y91565D01*
X372874Y91154D01*
X372530Y90722D01*
X372210Y90272D01*
X371916Y89804D01*
X371649Y89321D01*
X371410Y88823D01*
X371198Y88313D01*
X371016Y87792D01*
X370863Y87262D01*
X370740Y86723D01*
X370648Y86179D01*
X370586Y85631D01*
X370555Y85079D01*
X370551Y84803D01*
X370551Y43307D01*
X370551Y43307D01*
Y43178D01*
X370517Y42922D01*
X370451Y42673D01*
X370352Y42435D01*
X370223Y42211D01*
X370066Y42006D01*
X369883Y41824D01*
X369679Y41667D01*
X369455Y41538D01*
X369217Y41439D01*
X368968Y41372D01*
X368712Y41339D01*
X363819Y41339D01*
X363690Y41339D01*
X363434Y41372D01*
X363185Y41439D01*
X362946Y41538D01*
X362723Y41667D01*
X362518Y41824D01*
X362336Y42006D01*
X362178Y42211D01*
X362050Y42435D01*
X361951Y42673D01*
X361884Y42922D01*
X361850Y43178D01*
X361850Y43307D01*
X361850Y63465D01*
X361850D01*
X361850Y63465D01*
X361846Y63744D01*
X361815Y64302D01*
X361752Y64857D01*
X361659Y65408D01*
X361535Y65953D01*
X361380Y66490D01*
X361195Y67017D01*
X360981Y67533D01*
X360739Y68037D01*
X360469Y68525D01*
X360172Y68999D01*
X359848Y69454D01*
X359500Y69891D01*
X359128Y70308D01*
X358733Y70703D01*
X358316Y71075D01*
X357879Y71423D01*
X357423Y71747D01*
X356950Y72044D01*
X356461Y72314D01*
X355958Y72557D01*
X355442Y72770D01*
X354914Y72955D01*
X354378Y73110D01*
X353833Y73234D01*
X353282Y73327D01*
X352727Y73390D01*
X352169Y73421D01*
X351890Y73425D01*
X335039Y73425D01*
X335039Y73425D01*
X334760Y73421D01*
X334202Y73390D01*
X333647Y73327D01*
X333096Y73234D01*
X332551Y73109D01*
X332014Y72955D01*
X331487Y72770D01*
X330971Y72556D01*
X330468Y72314D01*
X329979Y72044D01*
X329505Y71746D01*
X329050Y71423D01*
X328613Y71075D01*
X328196Y70702D01*
X327801Y70307D01*
X327429Y69891D01*
X327081Y69454D01*
X326757Y68998D01*
X326460Y68525D01*
X326190Y68036D01*
X325947Y67533D01*
X325734Y67017D01*
X325549Y66489D01*
X325395Y65952D01*
X325270Y65408D01*
X325177Y64857D01*
X325114Y64302D01*
X325083Y63744D01*
X325079Y63464D01*
X325079Y49646D01*
X325079Y49646D01*
X325079Y49414D01*
X325042Y48951D01*
X324970Y48493D01*
X324861Y48041D01*
X324718Y47600D01*
X324540Y47171D01*
X324330Y46758D01*
X324087Y46362D01*
X323815Y45987D01*
X323513Y45634D01*
X323185Y45306D01*
X322832Y45004D01*
X322457Y44732D01*
X322061Y44489D01*
X321648Y44278D01*
X321219Y44101D01*
X320777Y43957D01*
X320326Y43849D01*
X319868Y43777D01*
X319405Y43740D01*
X319173Y43740D01*
X295394Y43740D01*
X247638Y43740D01*
X238347Y43740D01*
X238149Y43740D01*
X237756Y43779D01*
X237369Y43856D01*
X236992Y43970D01*
X236627Y44121D01*
X236280Y44307D01*
X235951Y44526D01*
X235646Y44777D01*
X235367Y45056D01*
X235117Y45361D01*
X234898Y45689D01*
X234712Y46037D01*
X234561Y46401D01*
X234446Y46779D01*
X234369Y47166D01*
X234331Y47559D01*
Y47756D01*
X234330Y64766D01*
X234330D01*
X234330Y64766D01*
X234326Y65001D01*
X234295Y65472D01*
X234234Y65939D01*
X234142Y66401D01*
X234020Y66857D01*
X233868Y67303D01*
X233688Y67739D01*
X233480Y68161D01*
X233244Y68570D01*
X232982Y68962D01*
X232695Y69336D01*
X232384Y69690D01*
X232051Y70024D01*
X231696Y70334D01*
X231322Y70621D01*
X230930Y70883D01*
X230522Y71119D01*
X230099Y71327D01*
X229664Y71508D01*
X229217Y71659D01*
X228762Y71781D01*
X228299Y71873D01*
X227832Y71934D01*
X227362Y71965D01*
X227126Y71969D01*
X222756Y71969D01*
X222585Y71969D01*
X222244Y71995D01*
X221906Y72049D01*
X221574Y72128D01*
X221249Y72234D01*
X220933Y72365D01*
X220628Y72520D01*
X220337Y72698D01*
X220060Y72899D01*
X219800Y73122D01*
X219559Y73363D01*
X219337Y73623D01*
X219135Y73900D01*
X218957Y74191D01*
X218802Y74496D01*
X218671Y74812D01*
X218565Y75137D01*
X218486Y75469D01*
X218432Y75807D01*
X218406Y76148D01*
X218406Y76319D01*
X218406Y88742D01*
X218406Y88747D01*
X218406Y88747D01*
X218406Y88747D01*
X218405Y89007D01*
X218431Y89526D01*
X218481Y90043D01*
X218558Y90557D01*
X218659Y91067D01*
X218785Y91571D01*
X218936Y92068D01*
X219111Y92558D01*
X219310Y93037D01*
X219532Y93507D01*
X219777Y93966D01*
X220045Y94411D01*
X220334Y94843D01*
X220643Y95260D01*
X220973Y95662D01*
X221119Y95823D01*
X221344Y96027D01*
X221804Y96404D01*
X222282Y96759D01*
X222777Y97090D01*
X223287Y97396D01*
X223812Y97676D01*
X224350Y97931D01*
X224900Y98159D01*
X225460Y98359D01*
X226029Y98532D01*
X226606Y98676D01*
X227190Y98792D01*
X227778Y98879D01*
X228371Y98938D01*
X228977Y98968D01*
X229287Y98971D01*
X229297Y98972D01*
X243888Y98972D01*
X244122Y98935D01*
X244456Y98855D01*
X244782Y98749D01*
X245100Y98618D01*
X245406Y98462D01*
X245698Y98282D01*
X245976Y98081D01*
X246237Y97857D01*
X246480Y97615D01*
X246703Y97354D01*
X246905Y97076D01*
X247084Y96783D01*
X247240Y96477D01*
X247372Y96159D01*
X247478Y95833D01*
X247557Y95499D01*
X247611Y95160D01*
X247627Y94959D01*
X247627Y65676D01*
X247627Y65496D01*
X247632Y65419D01*
X247633Y65342D01*
X247638Y65279D01*
Y64803D01*
X247643Y64553D01*
X247682Y64053D01*
X247760Y63559D01*
X247877Y63072D01*
X248032Y62595D01*
X248223Y62133D01*
X248451Y61686D01*
X248712Y61260D01*
X249007Y60854D01*
X249332Y60473D01*
X249686Y60119D01*
X250067Y59794D01*
X250472Y59500D01*
X250899Y59238D01*
X251345Y59011D01*
X251808Y58819D01*
X252284Y58664D01*
X252771Y58548D01*
X253266Y58469D01*
X253765Y58430D01*
X254016Y58425D01*
X296654Y58425D01*
X296887Y58430D01*
X297353Y58466D01*
X297815Y58539D01*
X298269Y58649D01*
X298714Y58793D01*
X299145Y58972D01*
X299562Y59184D01*
X299960Y59428D01*
X300338Y59703D01*
X300694Y60006D01*
X301024Y60337D01*
X301328Y60692D01*
X301602Y61070D01*
X301847Y61469D01*
X302059Y61885D01*
X302238Y62317D01*
X302382Y62761D01*
X302491Y63216D01*
X302564Y63677D01*
X302601Y64143D01*
X302605Y64377D01*
X302605Y111026D01*
X302605Y111030D01*
X302605Y111030D01*
X302605Y111030D01*
X302605Y111030D01*
X302605Y111264D01*
X302642Y111729D01*
X302715Y112190D01*
X302824Y112644D01*
X302968Y113088D01*
X303147Y113519D01*
X303359Y113935D01*
X303602Y114332D01*
X303877Y114710D01*
X304180Y115065D01*
X304510Y115395D01*
X304865Y115698D01*
X305242Y115972D01*
X305640Y116216D01*
X306056Y116428D01*
X306487Y116606D01*
X306931Y116751D01*
X307385Y116860D01*
X307845Y116933D01*
X308311Y116969D01*
X308544Y116969D01*
X482322Y116969D01*
X482322Y116969D01*
D02*
G37*
G36*
X180552Y109528D02*
X284449Y109528D01*
X288150Y109528D01*
X288150Y109527D01*
X288150Y109528D01*
X288276Y109528D01*
X288527Y109494D01*
X288771Y109429D01*
X289005Y109332D01*
X289224Y109206D01*
X289424Y109052D01*
X289603Y108873D01*
X289757Y108672D01*
X289883Y108454D01*
X289980Y108220D01*
X290046Y107976D01*
X290079Y107725D01*
X290079Y102913D01*
X290079Y102913D01*
X290079Y102784D01*
X290045Y102529D01*
X289978Y102279D01*
X289879Y102041D01*
X289751Y101817D01*
X289593Y101613D01*
X289411Y101430D01*
X289206Y101273D01*
X288983Y101144D01*
X288744Y101045D01*
X288495Y100979D01*
X288239Y100945D01*
X288110Y100945D01*
X277480Y100945D01*
X277480Y100945D01*
X277279Y100941D01*
X276879Y100909D01*
X276482Y100846D01*
X276091Y100753D01*
X275709Y100628D01*
X275338Y100475D01*
X274979Y100292D01*
X274637Y100082D01*
X274312Y99846D01*
X274006Y99585D01*
X273722Y99301D01*
X273461Y98995D01*
X273225Y98670D01*
X273015Y98327D01*
X272832Y97970D01*
X272678Y97598D01*
X272554Y97216D01*
X272461Y96825D01*
X272398Y96428D01*
X272366Y96028D01*
X272362Y95827D01*
X272362Y61102D01*
X254173Y61102D01*
X254173Y61102D01*
X253994Y61102D01*
X253635Y61130D01*
X253280Y61187D01*
X252931Y61271D01*
X252589Y61382D01*
X252257Y61519D01*
X251937Y61682D01*
X251630Y61870D01*
X251339Y62081D01*
X251066Y62315D01*
X250812Y62569D01*
X250578Y62842D01*
X250367Y63133D01*
X250180Y63439D01*
X250016Y63760D01*
X249879Y64092D01*
X249768Y64434D01*
X249684Y64783D01*
X249628Y65138D01*
X249600Y65496D01*
X249600Y65676D01*
X249600Y96540D01*
X249600Y96540D01*
X249599Y96541D01*
X249596Y96713D01*
X249569Y97058D01*
X249515Y97400D01*
X249434Y97736D01*
X249327Y98065D01*
X249195Y98384D01*
X249038Y98693D01*
X248857Y98987D01*
X248654Y99267D01*
X248429Y99530D01*
X248185Y99775D01*
X247922Y99999D01*
X247642Y100203D01*
X247347Y100383D01*
X247039Y100540D01*
X246720Y100673D01*
X246391Y100779D01*
X246055Y100860D01*
X245713Y100914D01*
X245368Y100941D01*
X245195Y100945D01*
X229263Y100945D01*
X229263Y100944D01*
X228917Y100940D01*
X228226Y100906D01*
X227537Y100838D01*
X226853Y100736D01*
X226174Y100602D01*
X225503Y100434D01*
X224841Y100233D01*
X224189Y99999D01*
X223550Y99735D01*
X222924Y99439D01*
X222314Y99112D01*
X221721Y98757D01*
X221146Y98372D01*
X220590Y97960D01*
X220055Y97521D01*
X219542Y97056D01*
X219295Y96815D01*
X210761Y88281D01*
X210761Y88280D01*
X210622Y88137D01*
X210359Y87837D01*
X210117Y87521D01*
X209895Y87189D01*
X209696Y86844D01*
X209520Y86487D01*
X209367Y86118D01*
X209239Y85741D01*
X209136Y85356D01*
X209058Y84964D01*
X209006Y84569D01*
X208980Y84171D01*
X208976Y83972D01*
Y72322D01*
X208980Y72081D01*
X209014Y71598D01*
X209080Y71119D01*
X209179Y70645D01*
X209310Y70179D01*
X209473Y69724D01*
X209667Y69281D01*
X209891Y68852D01*
X210143Y68439D01*
X210423Y68045D01*
X210730Y67671D01*
X211062Y67318D01*
X211417Y66990D01*
X211793Y66686D01*
X212190Y66409D01*
X212605Y66160D01*
X212818Y66047D01*
X212818Y66045D01*
X212998Y65954D01*
X213344Y65746D01*
X213675Y65515D01*
X213990Y65262D01*
X214286Y64987D01*
X214563Y64694D01*
X214819Y64381D01*
X215053Y64052D01*
X215264Y63708D01*
X215451Y63350D01*
X215613Y62980D01*
X215749Y62599D01*
X215858Y62211D01*
X215941Y61816D01*
X215996Y61415D01*
X216024Y61013D01*
X216024Y60811D01*
X216024Y49016D01*
X216023Y49015D01*
X216023Y48805D01*
X215990Y48385D01*
X215924Y47970D01*
X215826Y47561D01*
X215696Y47161D01*
X215535Y46772D01*
X215344Y46397D01*
X215124Y46038D01*
X214877Y45698D01*
X214603Y45378D01*
X214306Y45081D01*
X213986Y44807D01*
X213646Y44560D01*
X213287Y44340D01*
X212912Y44149D01*
X212524Y43988D01*
X212124Y43858D01*
X211715Y43760D01*
X211299Y43694D01*
X210880Y43661D01*
X210669Y43661D01*
X180510Y43661D01*
X180316Y43661D01*
X179932Y43699D01*
X179553Y43775D01*
X179183Y43887D01*
X178826Y44035D01*
X178486Y44218D01*
X178165Y44432D01*
X177866Y44678D01*
X177593Y44951D01*
X177348Y45250D01*
X177134Y45571D01*
X176952Y45912D01*
X176804Y46269D01*
X176692Y46639D01*
X176617Y47018D01*
X176579Y47402D01*
X176579Y47595D01*
X176613Y105592D01*
X176613Y105592D01*
X176613Y105593D01*
X176613Y105785D01*
X176652Y106170D01*
X176727Y106550D01*
X176839Y106920D01*
X176988Y107278D01*
X177170Y107619D01*
X177385Y107940D01*
X177631Y108239D01*
X177904Y108513D01*
X178203Y108758D01*
X178525Y108973D01*
X178867Y109155D01*
X179224Y109303D01*
X179594Y109415D01*
X179974Y109490D01*
X180359Y109528D01*
X180552Y109528D01*
D02*
G37*
G36*
X582995Y109038D02*
X582994Y93309D01*
X582994Y93309D01*
Y93116D01*
X582956Y92730D01*
X582881Y92351D01*
X582768Y91980D01*
X582620Y91623D01*
X582438Y91282D01*
X582223Y90960D01*
X581977Y90661D01*
X581704Y90387D01*
X581404Y90141D01*
X581083Y89926D01*
X580741Y89744D01*
X580384Y89596D01*
X580013Y89483D01*
X579634Y89408D01*
X579249Y89370D01*
X579055Y89370D01*
X512244Y89370D01*
X512244Y89370D01*
X512049Y89370D01*
X511660Y89408D01*
X511277Y89485D01*
X510903Y89598D01*
X510542Y89748D01*
X510197Y89932D01*
X509872Y90149D01*
X509571Y90397D01*
X509294Y90673D01*
X509046Y90975D01*
X508829Y91300D01*
X508645Y91644D01*
X508496Y92005D01*
X508382Y92379D01*
X508306Y92762D01*
X508268Y93151D01*
X508268Y95039D01*
X508268Y95039D01*
X508268Y95039D01*
X508264Y95133D01*
X508240Y95320D01*
X508191Y95501D01*
X508119Y95675D01*
X508066Y95767D01*
Y95807D01*
X508043D01*
X508026Y95838D01*
X507911Y95987D01*
X507778Y96120D01*
X507629Y96234D01*
X507466Y96328D01*
X507293Y96400D01*
X507111Y96449D01*
X506925Y96473D01*
X506831Y96476D01*
X501772Y96476D01*
X501772Y98819D01*
X508268Y98819D01*
X525465Y98819D01*
X525512Y98819D01*
X525512Y98819D01*
X525512Y98819D01*
X525705Y98824D01*
X526090Y98861D01*
X526469Y98937D01*
X526839Y99049D01*
X527196Y99197D01*
X527537Y99379D01*
X527858Y99594D01*
X528157Y99839D01*
X528431Y100113D01*
X528676Y100412D01*
X528891Y100733D01*
X529073Y101074D01*
X529221Y101431D01*
X529333Y101801D01*
X529409Y102180D01*
X529446Y102565D01*
X529451Y102758D01*
X529451Y109074D01*
X582959Y109074D01*
X582995Y109038D01*
D02*
G37*
G36*
X453744Y103822D02*
X476617Y103819D01*
X479055D01*
Y101496D01*
X477835Y101496D01*
X477835Y101496D01*
X477755Y101493D01*
X477596Y101472D01*
X477442Y101431D01*
X477295Y101370D01*
X477156Y101290D01*
X477030Y101193D01*
X476917Y101080D01*
X476820Y100954D01*
X476740Y100815D01*
X476679Y100668D01*
X476638Y100514D01*
X476617Y100355D01*
X476614Y100276D01*
X476614Y97559D01*
X476614Y97559D01*
X476614Y97428D01*
X476580Y97167D01*
X476512Y96913D01*
X476411Y96670D01*
X476280Y96443D01*
X476120Y96234D01*
X475934Y96048D01*
X475726Y95889D01*
X475498Y95757D01*
X475255Y95657D01*
X475001Y95588D01*
X474741Y95554D01*
X474609Y95554D01*
X453777Y95554D01*
X453645Y95554D01*
X453385Y95588D01*
X453131Y95657D01*
X452888Y95757D01*
X452660Y95889D01*
X452452Y96048D01*
X452266Y96234D01*
X452106Y96443D01*
X451975Y96670D01*
X451874Y96913D01*
X451806Y97167D01*
X451772Y97428D01*
X451772Y101803D01*
X451772Y101850D01*
X451772Y101850D01*
X451772Y101850D01*
X451772Y101980D01*
X451805Y102236D01*
X451872Y102486D01*
X451971Y102725D01*
X452100Y102948D01*
X452258Y103153D01*
X452441Y103336D01*
X452646Y103493D01*
X452870Y103623D01*
X453108Y103722D01*
X453358Y103788D01*
X453614Y103822D01*
X453744Y103822D01*
D02*
G37*
G36*
X484685Y98858D02*
X484685Y78228D01*
X484689Y77951D01*
X484720Y77398D01*
X484782Y76847D01*
X484875Y76300D01*
X484998Y75760D01*
X485152Y75227D01*
X485335Y74704D01*
X485547Y74191D01*
X485787Y73692D01*
X486056Y73207D01*
X486351Y72737D01*
X486671Y72285D01*
X487017Y71851D01*
X487387Y71438D01*
X487779Y71046D01*
X488192Y70677D01*
X488625Y70331D01*
X489078Y70010D01*
X489547Y69715D01*
X490032Y69447D01*
X490532Y69207D01*
X491044Y68994D01*
X491567Y68811D01*
X492100Y68658D01*
X492641Y68534D01*
X493187Y68441D01*
X493738Y68379D01*
X494292Y68348D01*
X494569Y68344D01*
X567356Y68344D01*
X567361Y68344D01*
X567361Y68344D01*
X567361Y68344D01*
X567538Y68348D01*
X567890Y68376D01*
X568239Y68431D01*
X568582Y68514D01*
X568918Y68623D01*
X569245Y68758D01*
X569559Y68918D01*
X569861Y69103D01*
X570147Y69311D01*
X570415Y69540D01*
X570665Y69790D01*
X570894Y70059D01*
X571102Y70344D01*
X571286Y70646D01*
X571447Y70960D01*
X571582Y71287D01*
X571691Y71623D01*
X571773Y71966D01*
X571829Y72315D01*
X571856Y72668D01*
X571860Y72844D01*
X571860Y86654D01*
X611732Y86654D01*
X611732Y86653D01*
X611732Y86653D01*
X611964Y86653D01*
X612427Y86617D01*
X612885Y86544D01*
X613336Y86436D01*
X613778Y86293D01*
X614206Y86115D01*
X614620Y85905D01*
X615016Y85662D01*
X615391Y85389D01*
X615744Y85088D01*
X616072Y84760D01*
X616373Y84407D01*
X616646Y84032D01*
X616889Y83636D01*
X617099Y83222D01*
X617277Y82794D01*
X617420Y82352D01*
X617529Y81901D01*
X617601Y81443D01*
X617638Y80980D01*
Y80748D01*
X617638Y47244D01*
X617638Y47244D01*
X617638Y47012D01*
X617601Y46549D01*
X617529Y46091D01*
X617420Y45640D01*
X617277Y45199D01*
X617099Y44770D01*
X616889Y44356D01*
X616646Y43961D01*
X616373Y43585D01*
X616072Y43232D01*
X615744Y42904D01*
X615391Y42603D01*
X615016Y42330D01*
X614620Y42088D01*
X614207Y41877D01*
X613778Y41699D01*
X613337Y41556D01*
X612885Y41448D01*
X612427Y41375D01*
X611964Y41339D01*
X611732Y41339D01*
X470866Y41339D01*
X470633D01*
X470168Y41375D01*
X469707Y41448D01*
X469253Y41557D01*
X468809Y41701D01*
X468378Y41880D01*
X467963Y42092D01*
X467565Y42335D01*
X467188Y42610D01*
X466833Y42913D01*
X466503Y43242D01*
X466200Y43597D01*
X465926Y43975D01*
X465682Y44372D01*
X465470Y44788D01*
X465292Y45219D01*
X465147Y45663D01*
X465039Y46117D01*
X464966Y46577D01*
X464929Y47042D01*
X464929Y47276D01*
X464929Y91969D01*
X476614Y91969D01*
X476743Y91973D01*
X476998Y92006D01*
X477247Y92073D01*
X477485Y92171D01*
X477708Y92300D01*
X477912Y92457D01*
X478094Y92639D01*
X478251Y92843D01*
X478380Y93066D01*
X478478Y93304D01*
X478545Y93553D01*
X478579Y93808D01*
X478583Y93937D01*
X478583Y97365D01*
X478587Y97428D01*
X478587Y97558D01*
X478587Y97559D01*
Y98858D01*
X484685Y98858D01*
D02*
G37*
G36*
X461693Y89807D02*
X461693Y47244D01*
X461693Y47012D01*
X461657Y46549D01*
X461584Y46091D01*
X461476Y45640D01*
X461332Y45199D01*
X461155Y44770D01*
X460944Y44356D01*
X460701Y43961D01*
X460429Y43585D01*
X460127Y43232D01*
X459799Y42904D01*
X459446Y42603D01*
X459071Y42330D01*
X458675Y42088D01*
X458262Y41877D01*
X457833Y41699D01*
X457392Y41556D01*
X456940Y41447D01*
X456482Y41375D01*
X456019Y41339D01*
X455787Y41339D01*
X455787Y41339D01*
X455787Y41339D01*
X386968Y41339D01*
X386735Y41339D01*
X386269Y41375D01*
X385808Y41448D01*
X385353Y41557D01*
X384909Y41702D01*
X384478Y41881D01*
X384061Y42092D01*
X383663Y42337D01*
X383285Y42611D01*
X382930Y42915D01*
X382600Y43245D01*
X382296Y43600D01*
X382022Y43978D01*
X381778Y44376D01*
X381565Y44793D01*
X381387Y45224D01*
X381242Y45669D01*
X381133Y46123D01*
X381060Y46584D01*
X381024Y47050D01*
X381024Y47284D01*
X381023Y83937D01*
Y84169D01*
X381060Y84631D01*
X381132Y85090D01*
X381241Y85541D01*
X381384Y85982D01*
X381562Y86411D01*
X381772Y86825D01*
X382015Y87220D01*
X382288Y87596D01*
X382589Y87949D01*
X382917Y88277D01*
X383270Y88578D01*
X383646Y88851D01*
X384041Y89093D01*
X384455Y89304D01*
X384883Y89482D01*
X385325Y89625D01*
X385776Y89733D01*
X386234Y89806D01*
X386697Y89842D01*
X386929Y89842D01*
X386929Y89842D01*
X461658Y89842D01*
X461693Y89807D01*
D02*
G37*
G36*
X506102Y93622D02*
X506102Y90591D01*
X506107Y90399D01*
X506145Y90017D01*
X506219Y89641D01*
X506331Y89274D01*
X506477Y88920D01*
X506658Y88582D01*
X506871Y88263D01*
X507115Y87966D01*
X507386Y87695D01*
X507682Y87452D01*
X508001Y87239D01*
X508339Y87058D01*
X508694Y86911D01*
X509061Y86800D01*
X509437Y86725D01*
X509818Y86687D01*
X510010Y86683D01*
X568205D01*
X568205Y74331D01*
X568205Y74202D01*
X568172Y73946D01*
X568105Y73696D01*
X568006Y73458D01*
X567877Y73234D01*
X567720Y73030D01*
X567538Y72847D01*
X567333Y72690D01*
X567109Y72561D01*
X566871Y72462D01*
X566621Y72396D01*
X566365Y72362D01*
X566236Y72362D01*
X566236Y72362D01*
X566236Y72362D01*
X504308Y72362D01*
X504114Y72362D01*
X503729Y72400D01*
X503350Y72475D01*
X502980Y72588D01*
X502622Y72736D01*
X502281Y72918D01*
X501959Y73133D01*
X501660Y73378D01*
X501387Y73652D01*
X501141Y73951D01*
X500926Y74273D01*
X500744Y74614D01*
X500596Y74971D01*
X500484Y75341D01*
X500408Y75721D01*
X500371Y76106D01*
X500371Y76299D01*
X500371Y93587D01*
X500406Y93622D01*
X506102Y93622D01*
D02*
G37*
G36*
X292752Y98661D02*
X293214Y98625D01*
X293673Y98552D01*
X294124Y98444D01*
X294565Y98301D01*
X294994Y98123D01*
X295408Y97912D01*
X295803Y97670D01*
X296179Y97397D01*
X296531Y97096D01*
X296860Y96768D01*
X297161Y96415D01*
X297434Y96039D01*
X297676Y95644D01*
X297887Y95230D01*
X298064Y94801D01*
X298208Y94360D01*
X298316Y93909D01*
X298389Y93451D01*
X298425Y92988D01*
X298425Y92756D01*
X298425D01*
X298425Y92756D01*
Y66890D01*
X298425Y66659D01*
X298389Y66200D01*
X298317Y65744D01*
X298209Y65296D01*
X298067Y64858D01*
X297890Y64432D01*
X297681Y64021D01*
X297440Y63628D01*
X297169Y63255D01*
X296870Y62905D01*
X296544Y62579D01*
X296194Y62279D01*
X295821Y62009D01*
X295428Y61768D01*
X295017Y61558D01*
X294591Y61382D01*
X294152Y61239D01*
X293704Y61132D01*
X293249Y61060D01*
X292790Y61024D01*
X292559Y61024D01*
X292559Y61024D01*
Y61024D01*
X279213D01*
X279213Y98661D01*
X292752Y98661D01*
D02*
G37*
%LPC*%
G36*
X457323Y336260D02*
X438819D01*
Y317756D01*
X457323D01*
Y336260D01*
D02*
G37*
G36*
X274787Y232447D02*
X274296Y232429D01*
X273806Y232376D01*
X273322Y232289D01*
X272845Y232167D01*
X272378Y232012D01*
X271923Y231824D01*
X271483Y231603D01*
X271060Y231352D01*
X270656Y231071D01*
X270273Y230763D01*
X269913Y230427D01*
X269577Y230067D01*
X269268Y229684D01*
X268988Y229280D01*
X268737Y228856D01*
X268516Y228416D01*
X268328Y227962D01*
X268173Y227495D01*
X268051Y227018D01*
X267964Y226534D01*
X267911Y226044D01*
X267893Y225552D01*
X267911Y225061D01*
X267964Y224571D01*
X268051Y224087D01*
X268173Y223610D01*
X268328Y223143D01*
X268516Y222689D01*
X268737Y222248D01*
X268988Y221825D01*
X269268Y221421D01*
X269577Y221038D01*
X269913Y220678D01*
X270273Y220342D01*
X270656Y220033D01*
X271060Y219753D01*
X271483Y219502D01*
X271923Y219281D01*
X272378Y219093D01*
X272845Y218938D01*
X273322Y218816D01*
X273806Y218728D01*
X274296Y218676D01*
X274787Y218658D01*
X275279Y218676D01*
X275769Y218728D01*
X276253Y218816D01*
X276730Y218938D01*
X277197Y219093D01*
X277651Y219281D01*
X278092Y219502D01*
X278515Y219753D01*
X278919Y220033D01*
X279302Y220342D01*
X279662Y220678D01*
X279998Y221038D01*
X280307Y221421D01*
X280587Y221825D01*
X280838Y222248D01*
X281059Y222689D01*
X281247Y223143D01*
X281402Y223610D01*
X281524Y224087D01*
X281611Y224571D01*
X281664Y225061D01*
X281682Y225552D01*
X281664Y226044D01*
X281611Y226534D01*
X281524Y227018D01*
X281402Y227495D01*
X281247Y227962D01*
X281059Y228416D01*
X280838Y228856D01*
X280587Y229280D01*
X280307Y229684D01*
X279998Y230067D01*
X279662Y230427D01*
X279302Y230763D01*
X278919Y231071D01*
X278515Y231352D01*
X278092Y231603D01*
X277651Y231824D01*
X277197Y232012D01*
X276730Y232167D01*
X276253Y232289D01*
X275769Y232376D01*
X275279Y232429D01*
X274787Y232447D01*
D02*
G37*
%LPD*%
D16*
X434842Y130472D02*
D03*
Y109606D02*
D03*
D17*
X240354Y57087D02*
D03*
X212402D02*
D03*
D18*
X208366Y81496D02*
D03*
X218406D02*
D03*
X104547Y283209D02*
D03*
X94508D02*
D03*
D19*
X456378Y125655D02*
D03*
Y114818D02*
D03*
X469764Y88282D02*
D03*
Y99120D02*
D03*
X542835Y64148D02*
D03*
Y74986D02*
D03*
X530669Y64148D02*
D03*
Y74986D02*
D03*
D20*
X570079Y102736D02*
D03*
Y127972D02*
D03*
X542126Y127953D02*
D03*
Y102717D02*
D03*
D21*
X570827Y151114D02*
D03*
Y139495D02*
D03*
X542067Y151114D02*
D03*
Y139495D02*
D03*
D22*
X481806Y107658D02*
D03*
Y102657D02*
D03*
Y97658D02*
D03*
Y92658D02*
D03*
X503234D02*
D03*
Y97658D02*
D03*
Y102657D02*
D03*
Y107658D02*
D03*
D23*
X457283Y99004D02*
D03*
Y87768D02*
D03*
D24*
X560748Y79393D02*
D03*
X581614D02*
D03*
X286221Y65748D02*
D03*
X265354D02*
D03*
D25*
X152146Y283898D02*
D03*
X147146D02*
D03*
X142146D02*
D03*
X137146D02*
D03*
X152146Y261850D02*
D03*
X147146D02*
D03*
X142146D02*
D03*
X137146D02*
D03*
D26*
X115548Y282761D02*
D03*
X126578D02*
D03*
D27*
X83649Y283086D02*
D03*
X72413D02*
D03*
D43*
X568693Y194850D02*
D03*
X547236D02*
D03*
D44*
X525779D02*
D03*
D45*
X597244Y205906D02*
D03*
X348071Y327008D02*
D03*
D46*
X497244Y205906D02*
D03*
X448071Y327008D02*
D03*
D58*
X852741Y18110D02*
G03*
X852741Y18110I-10221J0D01*
G01*
X29119Y398031D02*
G03*
X29119Y398031I-10221J0D01*
G01*
Y18110D02*
G03*
X29119Y18110I-10221J0D01*
G01*
X852741Y398031D02*
G03*
X852741Y398031I-10221J0D01*
G01*
X449197D02*
G03*
X449197Y398031I-10221J0D01*
G01*
X449197Y18110D02*
G03*
X449197Y18110I-10221J0D01*
G01*
X126499Y281655D02*
Y290244D01*
X129055Y292800D01*
X107411Y291698D02*
X111496D01*
X104528Y288814D02*
X107411Y291698D01*
X104528Y283347D02*
Y288814D01*
X104764Y283110D02*
X104868Y283006D01*
X115444D02*
X115548Y282901D01*
X104868Y283006D02*
X115444D01*
X218012Y81496D02*
X218406D01*
X199606D02*
X208366D01*
D59*
X112372Y89321D02*
X114567Y87126D01*
D60*
X104528Y283347D02*
X104764Y283110D01*
X183071Y298076D02*
X184606D01*
X157244D02*
X183071D01*
X147146Y283898D02*
Y293410D01*
X152146Y292977D02*
X157244Y298076D01*
X152146Y283898D02*
Y292977D01*
X142146Y283898D02*
Y288215D01*
X137146Y278588D02*
Y283898D01*
D61*
X7874Y407480D02*
X854331D01*
X854331Y266535D02*
X854331Y407480D01*
X7874Y7874D02*
X854331D01*
X854331Y124409D02*
X854331Y7874D01*
X7874Y289370D02*
X7874Y407480D01*
X336575Y35984D02*
X345590Y45000D01*
Y54331D01*
X165984Y35984D02*
X336575D01*
X113386Y88583D02*
X165984Y35984D01*
X286713Y66043D02*
X287008Y66339D01*
Y88189D01*
X7874Y124016D02*
X7874Y7874D01*
X199606Y57087D02*
X200591D01*
X191614Y48110D02*
X200591Y57087D01*
X184646Y48110D02*
X191614D01*
X199606Y88189D02*
X212205Y100787D01*
X280315Y94882D02*
X287008Y88189D01*
X199606Y81496D02*
Y88189D01*
Y57087D02*
Y81496D01*
X238287Y57087D02*
X240354D01*
X202362D02*
X212402D01*
D62*
X470256Y102657D02*
X481806D01*
X503234D02*
X520827D01*
D63*
X233858Y105217D02*
D03*
D64*
X700315Y132677D02*
D03*
X395095Y174409D02*
D03*
X720000Y285157D02*
D03*
D65*
X739685Y132677D02*
D03*
D66*
X365591Y54331D02*
D03*
X355591D02*
D03*
X345590D02*
D03*
X335591D02*
D03*
X375590D02*
D03*
D67*
X385591D02*
D03*
D68*
X60630Y168347D02*
D03*
X564882Y334764D02*
D03*
X504882D02*
D03*
X293465Y334724D02*
D03*
X233465D02*
D03*
X816142Y164646D02*
D03*
D69*
X60630Y228346D02*
D03*
X816142Y224646D02*
D03*
D70*
X25591Y298076D02*
D03*
X183071Y298076D02*
D03*
Y48110D02*
D03*
X25591Y48110D02*
D03*
D71*
Y368076D02*
D03*
X183071Y368076D02*
D03*
Y118110D02*
D03*
X25591Y118110D02*
D03*
D72*
X438976Y398031D02*
D03*
X842520D02*
D03*
Y18110D02*
D03*
X438976D02*
D03*
X18898D02*
D03*
Y398031D02*
D03*
D73*
X233858Y94882D02*
D03*
Y104882D02*
D03*
X280315Y94882D02*
D03*
Y104882D02*
D03*
D74*
X233858Y114882D02*
D03*
X280315D02*
D03*
D75*
X395095Y213779D02*
D03*
X720000Y324528D02*
D03*
D76*
X212205Y120472D02*
D03*
Y100787D02*
D03*
D77*
X388175Y338303D02*
D03*
X600197Y284291D02*
D03*
X277953Y270472D02*
D03*
D78*
X408056Y338303D02*
D03*
D79*
X600197Y304173D02*
D03*
X277953Y250590D02*
D03*
D80*
X274787Y225552D02*
D03*
Y295552D02*
D03*
D81*
X695945Y218779D02*
D03*
X755000D02*
D03*
D82*
X329134Y216339D02*
D03*
Y186811D02*
D03*
D83*
X260236Y101181D02*
D03*
Y120866D02*
D03*
D84*
X52047Y67218D02*
D03*
X61654D02*
D03*
Y57979D02*
D03*
X52047D02*
D03*
Y48740D02*
D03*
X61654D02*
D03*
X753780Y325118D02*
D03*
X744173D02*
D03*
X602362Y54370D02*
D03*
Y63032D02*
D03*
X610236Y62992D02*
D03*
Y54331D02*
D03*
Y71654D02*
D03*
X602362D02*
D03*
X493661Y144724D02*
D03*
X501535D02*
D03*
Y127402D02*
D03*
Y136063D02*
D03*
X493661Y136102D02*
D03*
Y127441D02*
D03*
X450970Y151024D02*
D03*
X469395D02*
D03*
X460183D02*
D03*
X450970Y162598D02*
D03*
X469395D02*
D03*
X459842D02*
D03*
X450970Y174173D02*
D03*
X469395D02*
D03*
X460104D02*
D03*
X445669Y224646D02*
D03*
X436457D02*
D03*
X445669Y236221D02*
D03*
X436117D02*
D03*
X445669Y247795D02*
D03*
X436378D02*
D03*
X744173Y334357D02*
D03*
X753780D02*
D03*
X478937Y67126D02*
D03*
X469803D02*
D03*
X753780Y343596D02*
D03*
X744173D02*
D03*
X753780Y352835D02*
D03*
X744173D02*
D03*
X522402Y80787D02*
D03*
X515000Y80905D02*
D03*
D85*
X113386Y88583D02*
D03*
X73622Y304330D02*
D03*
X91614Y291737D02*
D03*
X129055Y292800D02*
D03*
X111496Y291698D02*
D03*
M02*
