G04*
G04 #@! TF.GenerationSoftware,Altium Limited,Altium Designer,19.1.5 (86)*
G04*
G04 Layer_Color=32768*
%FSLAX25Y25*%
%MOIN*%
G70*
G01*
G75*
%ADD13C,0.00787*%
D13*
X515839Y185106D02*
X578634D01*
Y206169D01*
X515839D02*
X578634D01*
X515839Y185106D02*
Y206169D01*
X464173Y156299D02*
Y255512D01*
Y156299D02*
X630315D01*
Y255512D01*
X464173D02*
X630315D01*
X203543Y39370D02*
Y74803D01*
Y39370D02*
X249213D01*
Y74803D01*
X203543D02*
X249213D01*
X451933Y111263D02*
X460823D01*
Y129209D01*
X451933D02*
X460823D01*
X451933Y111263D02*
Y129209D01*
X557441Y131752D02*
X582717D01*
X557441Y98957D02*
Y131752D01*
Y98957D02*
X582717D01*
Y131752D01*
X564417Y136237D02*
X577237D01*
Y154372D01*
X564417D02*
X577237D01*
X564417Y136237D02*
Y154372D01*
X452929Y84701D02*
X461638D01*
Y102071D01*
X452929D02*
X461638D01*
X452929Y84701D02*
Y102071D01*
X529488Y98937D02*
X554764D01*
Y131732D01*
X529488D02*
X554764D01*
X529488Y98937D02*
Y131732D01*
X535657Y136237D02*
X548477D01*
Y154372D01*
X535657D02*
X548477D01*
X535657Y136237D02*
Y154372D01*
X465318Y102674D02*
X474209D01*
X465318Y84728D02*
Y102674D01*
Y84728D02*
X474209D01*
Y102674D01*
X538389Y78540D02*
X547280D01*
X538389Y60594D02*
Y78540D01*
Y60594D02*
X547280D01*
Y78540D01*
X526224D02*
X535115D01*
X526224Y60594D02*
Y78540D01*
Y60594D02*
X535115D01*
Y78540D01*
X130130Y278221D02*
Y287301D01*
X111996D02*
X130130D01*
X111996Y278221D02*
Y287301D01*
Y278221D02*
X130130D01*
X69345Y278732D02*
Y287441D01*
Y278732D02*
X86716D01*
Y287441D01*
X69345D02*
X86716D01*
M02*
