G04*
G04 #@! TF.GenerationSoftware,Altium Limited,Altium Designer,19.1.5 (86)*
G04*
G04 Layer_Color=16711935*
%FSLAX25Y25*%
%MOIN*%
G70*
G01*
G75*
%ADD13C,0.00787*%
G36*
X508598Y87808D02*
X476442D01*
Y112507D01*
X508598D01*
Y87808D01*
D02*
G37*
G36*
X548417Y192137D02*
X546448D01*
X546452Y192133D01*
X546466Y192115D01*
X546488Y192093D01*
X546514Y192057D01*
X546546Y192016D01*
X546583Y191965D01*
X546623Y191907D01*
X546663Y191842D01*
Y191838D01*
X546666Y191834D01*
X546681Y191813D01*
X546699Y191776D01*
X546721Y191733D01*
X546747Y191682D01*
X546772Y191627D01*
X546798Y191572D01*
X546819Y191518D01*
X546521D01*
Y191521D01*
X546514Y191529D01*
X546510Y191543D01*
X546499Y191561D01*
X546488Y191583D01*
X546474Y191609D01*
X546437Y191671D01*
X546397Y191744D01*
X546346Y191816D01*
X546288Y191893D01*
X546226Y191969D01*
X546222Y191973D01*
X546219Y191976D01*
X546208Y191987D01*
X546197Y192002D01*
X546161Y192035D01*
X546117Y192078D01*
X546066Y192122D01*
X546008Y192169D01*
X545949Y192209D01*
X545888Y192246D01*
Y192446D01*
X548417D01*
Y192137D01*
D02*
G37*
G36*
X548614Y190910D02*
Y190906D01*
X548610Y190899D01*
X548603Y190884D01*
X548596Y190863D01*
X548585Y190837D01*
X548570Y190808D01*
X548556Y190775D01*
X548537Y190739D01*
X548494Y190659D01*
X548443Y190568D01*
X548377Y190470D01*
X548305Y190368D01*
Y190364D01*
X548312Y190357D01*
X548319Y190338D01*
X548330Y190320D01*
X548341Y190291D01*
X548355Y190262D01*
X548366Y190226D01*
X548381Y190185D01*
X548395Y190142D01*
X548410Y190095D01*
X548435Y189989D01*
X548454Y189873D01*
X548457Y189811D01*
X548461Y189749D01*
Y189716D01*
X548457Y189690D01*
Y189661D01*
X548454Y189625D01*
X548446Y189585D01*
X548439Y189541D01*
X548421Y189447D01*
X548392Y189341D01*
X548352Y189232D01*
X548326Y189181D01*
X548297Y189126D01*
X548293Y189123D01*
X548290Y189115D01*
X548279Y189101D01*
X548268Y189083D01*
X548250Y189057D01*
X548228Y189032D01*
X548177Y188970D01*
X548111Y188901D01*
X548032Y188831D01*
X547940Y188762D01*
X547835Y188700D01*
X547831D01*
X547820Y188693D01*
X547806Y188686D01*
X547784Y188679D01*
X547755Y188668D01*
X547722Y188653D01*
X547682Y188639D01*
X547638Y188628D01*
X547591Y188613D01*
X547540Y188599D01*
X547485Y188588D01*
X547424Y188573D01*
X547296Y188558D01*
X547161Y188551D01*
X547158D01*
X547143D01*
X547125D01*
X547100Y188555D01*
X547067D01*
X547027Y188558D01*
X546983Y188562D01*
X546936Y188569D01*
X546830Y188588D01*
X546717Y188613D01*
X546597Y188649D01*
X546481Y188700D01*
X546477Y188704D01*
X546466Y188708D01*
X546452Y188715D01*
X546430Y188730D01*
X546404Y188744D01*
X546375Y188762D01*
X546306Y188813D01*
X546233Y188872D01*
X546157Y188948D01*
X546080Y189032D01*
X546015Y189130D01*
X546011Y189134D01*
X546008Y189145D01*
X546000Y189159D01*
X545989Y189181D01*
X545978Y189206D01*
X545964Y189235D01*
X545949Y189272D01*
X545935Y189312D01*
X545920Y189359D01*
X545906Y189407D01*
X545880Y189512D01*
X545862Y189629D01*
X545855Y189690D01*
Y189789D01*
X545858Y189814D01*
Y189847D01*
X545862Y189880D01*
X545869Y189924D01*
X545877Y189967D01*
X545895Y190062D01*
X545924Y190171D01*
X545968Y190277D01*
X545993Y190331D01*
X546022Y190386D01*
X546026Y190389D01*
X546030Y190397D01*
X546040Y190411D01*
X546051Y190433D01*
X546069Y190455D01*
X546091Y190484D01*
X546142Y190546D01*
X546208Y190611D01*
X546288Y190684D01*
X546383Y190753D01*
X546488Y190812D01*
X546492D01*
X546503Y190819D01*
X546517Y190826D01*
X546539Y190833D01*
X546568Y190848D01*
X546601Y190859D01*
X546641Y190874D01*
X546685Y190888D01*
X546732Y190899D01*
X546783Y190914D01*
X546838Y190928D01*
X546896Y190939D01*
X547023Y190954D01*
X547158Y190961D01*
X547161D01*
X547172D01*
X547187D01*
X547209D01*
X547238Y190957D01*
X547271D01*
X547307Y190954D01*
X547343Y190950D01*
X547431Y190939D01*
X547526Y190921D01*
X547624Y190899D01*
X547718Y190866D01*
X547722D01*
X547729Y190863D01*
X547744Y190855D01*
X547758Y190848D01*
X547780Y190837D01*
X547806Y190826D01*
X547864Y190797D01*
X547933Y190757D01*
X548006Y190706D01*
X548079Y190648D01*
X548152Y190582D01*
Y190586D01*
X548159Y190593D01*
X548166Y190604D01*
X548177Y190622D01*
X548192Y190641D01*
X548206Y190666D01*
X548239Y190721D01*
X548279Y190786D01*
X548319Y190859D01*
X548352Y190935D01*
X548385Y191008D01*
X548614Y190910D01*
D02*
G37*
G36*
X551139Y205906D02*
X550830D01*
Y207875D01*
X550826Y207871D01*
X550808Y207857D01*
X550786Y207835D01*
X550749Y207809D01*
X550709Y207776D01*
X550658Y207740D01*
X550600Y207700D01*
X550535Y207660D01*
X550531D01*
X550527Y207656D01*
X550505Y207642D01*
X550469Y207624D01*
X550425Y207602D01*
X550375Y207576D01*
X550320Y207551D01*
X550265Y207525D01*
X550211Y207504D01*
Y207802D01*
X550214D01*
X550222Y207809D01*
X550236Y207813D01*
X550254Y207824D01*
X550276Y207835D01*
X550302Y207849D01*
X550364Y207886D01*
X550436Y207926D01*
X550509Y207977D01*
X550586Y208035D01*
X550662Y208097D01*
X550666Y208100D01*
X550669Y208104D01*
X550680Y208115D01*
X550695Y208126D01*
X550728Y208162D01*
X550771Y208206D01*
X550815Y208257D01*
X550862Y208315D01*
X550902Y208373D01*
X550939Y208435D01*
X551139D01*
Y205906D01*
D02*
G37*
G36*
X548507Y208464D02*
X548540D01*
X548573Y208461D01*
X548616Y208453D01*
X548660Y208446D01*
X548755Y208428D01*
X548864Y208399D01*
X548969Y208355D01*
X549024Y208330D01*
X549079Y208301D01*
X549082Y208297D01*
X549090Y208293D01*
X549104Y208282D01*
X549126Y208272D01*
X549148Y208253D01*
X549177Y208231D01*
X549239Y208180D01*
X549304Y208115D01*
X549377Y208035D01*
X549446Y207940D01*
X549505Y207835D01*
Y207831D01*
X549512Y207820D01*
X549519Y207806D01*
X549526Y207784D01*
X549541Y207755D01*
X549552Y207722D01*
X549566Y207682D01*
X549581Y207638D01*
X549592Y207591D01*
X549607Y207540D01*
X549621Y207485D01*
X549632Y207427D01*
X549647Y207300D01*
X549654Y207165D01*
Y207161D01*
Y207150D01*
Y207136D01*
Y207114D01*
X549650Y207085D01*
Y207052D01*
X549647Y207016D01*
X549643Y206979D01*
X549632Y206892D01*
X549614Y206797D01*
X549592Y206699D01*
X549559Y206604D01*
Y206601D01*
X549555Y206593D01*
X549548Y206579D01*
X549541Y206564D01*
X549530Y206542D01*
X549519Y206517D01*
X549490Y206459D01*
X549450Y206390D01*
X549399Y206317D01*
X549341Y206244D01*
X549275Y206171D01*
X549279D01*
X549286Y206164D01*
X549297Y206157D01*
X549315Y206146D01*
X549333Y206131D01*
X549359Y206117D01*
X549413Y206084D01*
X549479Y206044D01*
X549552Y206004D01*
X549628Y205971D01*
X549701Y205938D01*
X549603Y205709D01*
X549599D01*
X549592Y205713D01*
X549577Y205720D01*
X549555Y205727D01*
X549530Y205738D01*
X549501Y205753D01*
X549468Y205767D01*
X549432Y205785D01*
X549352Y205829D01*
X549261Y205880D01*
X549162Y205946D01*
X549060Y206018D01*
X549057D01*
X549050Y206011D01*
X549031Y206004D01*
X549013Y205993D01*
X548984Y205982D01*
X548955Y205967D01*
X548918Y205957D01*
X548878Y205942D01*
X548835Y205927D01*
X548787Y205913D01*
X548682Y205887D01*
X548565Y205869D01*
X548503Y205866D01*
X548442Y205862D01*
X548409D01*
X548383Y205866D01*
X548354D01*
X548318Y205869D01*
X548278Y205876D01*
X548234Y205884D01*
X548139Y205902D01*
X548034Y205931D01*
X547925Y205971D01*
X547874Y205996D01*
X547819Y206026D01*
X547816Y206029D01*
X547808Y206033D01*
X547794Y206044D01*
X547776Y206055D01*
X547750Y206073D01*
X547725Y206095D01*
X547663Y206146D01*
X547593Y206211D01*
X547524Y206291D01*
X547455Y206382D01*
X547393Y206488D01*
Y206492D01*
X547386Y206503D01*
X547379Y206517D01*
X547371Y206539D01*
X547361Y206568D01*
X547346Y206601D01*
X547331Y206641D01*
X547321Y206684D01*
X547306Y206732D01*
X547291Y206783D01*
X547281Y206837D01*
X547266Y206899D01*
X547251Y207027D01*
X547244Y207161D01*
Y207165D01*
Y207179D01*
Y207198D01*
X547248Y207223D01*
Y207256D01*
X547251Y207296D01*
X547255Y207340D01*
X547262Y207387D01*
X547281Y207492D01*
X547306Y207605D01*
X547342Y207726D01*
X547393Y207842D01*
X547397Y207846D01*
X547401Y207857D01*
X547408Y207871D01*
X547423Y207893D01*
X547437Y207918D01*
X547455Y207948D01*
X547506Y208017D01*
X547564Y208089D01*
X547641Y208166D01*
X547725Y208242D01*
X547823Y208308D01*
X547826Y208312D01*
X547837Y208315D01*
X547852Y208323D01*
X547874Y208333D01*
X547899Y208344D01*
X547928Y208359D01*
X547965Y208373D01*
X548005Y208388D01*
X548052Y208403D01*
X548100Y208417D01*
X548205Y208443D01*
X548321Y208461D01*
X548383Y208468D01*
X548482D01*
X548507Y208464D01*
D02*
G37*
G36*
X394911Y327048D02*
X394940Y327044D01*
X394973Y327041D01*
X395010Y327033D01*
X395050Y327026D01*
X395137Y327004D01*
X395228Y326968D01*
X395275Y326946D01*
X395319Y326921D01*
X395363Y326888D01*
X395406Y326855D01*
X395410Y326851D01*
X395417Y326844D01*
X395428Y326833D01*
X395439Y326819D01*
X395457Y326800D01*
X395476Y326775D01*
X395497Y326749D01*
X395519Y326717D01*
X395541Y326680D01*
X395563Y326644D01*
X395603Y326556D01*
X395636Y326455D01*
X395647Y326400D01*
X395654Y326342D01*
X395344Y326302D01*
Y326305D01*
X395341Y326313D01*
X395337Y326327D01*
X395334Y326345D01*
X395330Y326367D01*
X395323Y326393D01*
X395304Y326447D01*
X395279Y326513D01*
X395246Y326575D01*
X395210Y326633D01*
X395166Y326684D01*
X395159Y326688D01*
X395144Y326702D01*
X395115Y326720D01*
X395079Y326739D01*
X395035Y326760D01*
X394981Y326779D01*
X394919Y326793D01*
X394853Y326797D01*
X394831D01*
X394817Y326793D01*
X394777Y326789D01*
X394726Y326779D01*
X394668Y326760D01*
X394606Y326735D01*
X394544Y326698D01*
X394485Y326647D01*
X394478Y326640D01*
X394460Y326618D01*
X394438Y326586D01*
X394409Y326542D01*
X394380Y326487D01*
X394358Y326426D01*
X394340Y326353D01*
X394333Y326273D01*
Y326269D01*
Y326262D01*
Y326251D01*
X394336Y326236D01*
X394340Y326196D01*
X394351Y326149D01*
X394365Y326091D01*
X394391Y326032D01*
X394427Y325974D01*
X394475Y325920D01*
X394482Y325912D01*
X394500Y325898D01*
X394529Y325876D01*
X394569Y325850D01*
X394620Y325825D01*
X394682Y325803D01*
X394751Y325788D01*
X394828Y325781D01*
X394860D01*
X394886Y325785D01*
X394919Y325788D01*
X394955Y325796D01*
X394999Y325803D01*
X395046Y325814D01*
X395010Y325541D01*
X394991D01*
X394977Y325545D01*
X394930D01*
X394889Y325537D01*
X394842Y325530D01*
X394788Y325519D01*
X394726Y325501D01*
X394668Y325475D01*
X394606Y325443D01*
X394602D01*
X394598Y325439D01*
X394580Y325425D01*
X394555Y325399D01*
X394526Y325366D01*
X394496Y325319D01*
X394471Y325264D01*
X394453Y325202D01*
X394445Y325166D01*
Y325126D01*
Y325122D01*
Y325119D01*
Y325097D01*
X394453Y325068D01*
X394460Y325028D01*
X394475Y324984D01*
X394493Y324937D01*
X394522Y324889D01*
X394562Y324846D01*
X394566Y324842D01*
X394584Y324828D01*
X394609Y324809D01*
X394642Y324787D01*
X394686Y324769D01*
X394737Y324751D01*
X394795Y324736D01*
X394860Y324733D01*
X394889D01*
X394922Y324740D01*
X394966Y324747D01*
X395013Y324762D01*
X395061Y324780D01*
X395111Y324809D01*
X395159Y324846D01*
X395163Y324849D01*
X395177Y324868D01*
X395199Y324893D01*
X395224Y324929D01*
X395250Y324977D01*
X395275Y325035D01*
X395297Y325104D01*
X395312Y325184D01*
X395621Y325130D01*
Y325126D01*
X395618Y325115D01*
X395614Y325100D01*
X395610Y325079D01*
X395603Y325053D01*
X395592Y325024D01*
X395570Y324955D01*
X395534Y324875D01*
X395490Y324795D01*
X395436Y324718D01*
X395366Y324649D01*
X395363Y324645D01*
X395355Y324642D01*
X395344Y324635D01*
X395330Y324624D01*
X395312Y324609D01*
X395286Y324594D01*
X395261Y324580D01*
X395228Y324562D01*
X395155Y324533D01*
X395072Y324503D01*
X394973Y324485D01*
X394922Y324478D01*
X394831D01*
X394791Y324482D01*
X394744Y324489D01*
X394686Y324500D01*
X394620Y324518D01*
X394555Y324540D01*
X394489Y324569D01*
X394485D01*
X394482Y324573D01*
X394460Y324584D01*
X394427Y324605D01*
X394391Y324631D01*
X394347Y324667D01*
X394303Y324707D01*
X394260Y324755D01*
X394223Y324809D01*
X394220Y324817D01*
X394209Y324835D01*
X394194Y324868D01*
X394176Y324908D01*
X394158Y324955D01*
X394143Y325009D01*
X394132Y325071D01*
X394129Y325133D01*
Y325141D01*
Y325162D01*
X394132Y325191D01*
X394140Y325232D01*
X394151Y325279D01*
X394169Y325330D01*
X394191Y325381D01*
X394220Y325432D01*
X394223Y325439D01*
X394234Y325454D01*
X394256Y325479D01*
X394285Y325508D01*
X394322Y325541D01*
X394365Y325577D01*
X394416Y325610D01*
X394478Y325643D01*
X394475D01*
X394467Y325646D01*
X394456Y325650D01*
X394442Y325654D01*
X394402Y325668D01*
X394351Y325690D01*
X394292Y325719D01*
X394234Y325756D01*
X394180Y325803D01*
X394129Y325858D01*
X394125Y325865D01*
X394111Y325887D01*
X394089Y325923D01*
X394067Y325971D01*
X394045Y326029D01*
X394023Y326098D01*
X394009Y326178D01*
X394005Y326265D01*
Y326269D01*
Y326280D01*
Y326298D01*
X394009Y326320D01*
X394012Y326349D01*
X394020Y326382D01*
X394027Y326418D01*
X394034Y326458D01*
X394063Y326546D01*
X394085Y326593D01*
X394107Y326637D01*
X394136Y326684D01*
X394169Y326731D01*
X394205Y326779D01*
X394249Y326822D01*
X394252Y326826D01*
X394260Y326833D01*
X394274Y326844D01*
X394292Y326859D01*
X394314Y326877D01*
X394343Y326895D01*
X394376Y326917D01*
X394416Y326935D01*
X394456Y326957D01*
X394504Y326979D01*
X394551Y326997D01*
X394606Y327015D01*
X394664Y327030D01*
X394726Y327041D01*
X394788Y327048D01*
X394857Y327051D01*
X394889D01*
X394911Y327048D01*
D02*
G37*
G36*
X398071Y324489D02*
X397103D01*
X397037Y324493D01*
X396964Y324496D01*
X396891Y324503D01*
X396819Y324515D01*
X396757Y324525D01*
X396753D01*
X396746Y324529D01*
X396735D01*
X396720Y324536D01*
X396680Y324547D01*
X396629Y324565D01*
X396571Y324591D01*
X396509Y324624D01*
X396447Y324660D01*
X396389Y324707D01*
X396386Y324711D01*
X396382Y324715D01*
X396371Y324726D01*
X396356Y324736D01*
X396320Y324773D01*
X396276Y324824D01*
X396229Y324886D01*
X396178Y324959D01*
X396131Y325042D01*
X396091Y325137D01*
Y325141D01*
X396087Y325148D01*
X396080Y325162D01*
X396076Y325184D01*
X396065Y325210D01*
X396058Y325239D01*
X396051Y325272D01*
X396040Y325312D01*
X396029Y325352D01*
X396022Y325399D01*
X396003Y325501D01*
X395992Y325614D01*
X395989Y325738D01*
Y325741D01*
Y325748D01*
Y325767D01*
Y325785D01*
X395992Y325810D01*
Y325839D01*
X395996Y325909D01*
X396007Y325989D01*
X396018Y326072D01*
X396036Y326160D01*
X396058Y326247D01*
Y326251D01*
X396062Y326258D01*
X396065Y326269D01*
X396069Y326284D01*
X396083Y326324D01*
X396105Y326375D01*
X396127Y326433D01*
X396156Y326491D01*
X396193Y326553D01*
X396229Y326611D01*
X396233Y326618D01*
X396247Y326637D01*
X396269Y326662D01*
X396298Y326695D01*
X396331Y326731D01*
X396371Y326768D01*
X396411Y326808D01*
X396458Y326840D01*
X396466Y326844D01*
X396480Y326855D01*
X396506Y326870D01*
X396542Y326888D01*
X396586Y326910D01*
X396637Y326928D01*
X396695Y326950D01*
X396761Y326968D01*
X396768D01*
X396779Y326972D01*
X396790Y326975D01*
X396826Y326979D01*
X396877Y326986D01*
X396935Y326993D01*
X397004Y327001D01*
X397081Y327004D01*
X397165Y327008D01*
X398071D01*
Y324489D01*
D02*
G37*
G36*
X227626Y60387D02*
X227659Y60383D01*
X227699Y60379D01*
X227739Y60376D01*
X227787Y60365D01*
X227885Y60343D01*
X227994Y60310D01*
X228049Y60288D01*
X228100Y60263D01*
X228151Y60230D01*
X228202Y60197D01*
X228205Y60194D01*
X228212Y60190D01*
X228227Y60179D01*
X228245Y60161D01*
X228263Y60143D01*
X228289Y60117D01*
X228314Y60088D01*
X228344Y60059D01*
X228373Y60023D01*
X228402Y59979D01*
X228434Y59935D01*
X228464Y59888D01*
X228489Y59833D01*
X228518Y59779D01*
X228540Y59720D01*
X228562Y59655D01*
X228234Y59579D01*
Y59582D01*
X228231Y59589D01*
X228223Y59604D01*
X228216Y59622D01*
X228209Y59644D01*
X228198Y59673D01*
X228169Y59731D01*
X228132Y59797D01*
X228089Y59862D01*
X228034Y59924D01*
X227976Y59979D01*
X227969Y59986D01*
X227947Y60001D01*
X227910Y60019D01*
X227863Y60044D01*
X227801Y60066D01*
X227732Y60088D01*
X227648Y60103D01*
X227557Y60106D01*
X227528D01*
X227510Y60103D01*
X227484D01*
X227455Y60099D01*
X227386Y60088D01*
X227310Y60074D01*
X227230Y60048D01*
X227146Y60012D01*
X227069Y59964D01*
X227066D01*
X227062Y59957D01*
X227037Y59939D01*
X227004Y59910D01*
X226964Y59866D01*
X226917Y59812D01*
X226873Y59750D01*
X226833Y59673D01*
X226797Y59589D01*
Y59586D01*
X226793Y59579D01*
X226789Y59568D01*
X226786Y59549D01*
X226778Y59528D01*
X226771Y59502D01*
X226760Y59440D01*
X226746Y59367D01*
X226731Y59287D01*
X226724Y59200D01*
X226720Y59105D01*
Y59102D01*
Y59091D01*
Y59073D01*
Y59051D01*
X226724Y59025D01*
Y58992D01*
X226727Y58956D01*
X226731Y58916D01*
X226742Y58829D01*
X226760Y58734D01*
X226782Y58639D01*
X226811Y58545D01*
Y58541D01*
X226815Y58534D01*
X226822Y58523D01*
X226829Y58505D01*
X226851Y58461D01*
X226884Y58410D01*
X226924Y58352D01*
X226975Y58290D01*
X227033Y58235D01*
X227102Y58184D01*
X227106D01*
X227113Y58181D01*
X227124Y58174D01*
X227139Y58166D01*
X227157Y58159D01*
X227179Y58148D01*
X227230Y58126D01*
X227295Y58104D01*
X227368Y58086D01*
X227448Y58072D01*
X227532Y58068D01*
X227557D01*
X227579Y58072D01*
X227605D01*
X227630Y58075D01*
X227696Y58090D01*
X227772Y58108D01*
X227849Y58137D01*
X227928Y58177D01*
X227969Y58199D01*
X228005Y58228D01*
X228009Y58232D01*
X228012Y58235D01*
X228023Y58246D01*
X228038Y58257D01*
X228052Y58275D01*
X228070Y58297D01*
X228092Y58319D01*
X228111Y58348D01*
X228132Y58381D01*
X228158Y58417D01*
X228180Y58454D01*
X228202Y58497D01*
X228220Y58545D01*
X228238Y58596D01*
X228256Y58650D01*
X228271Y58709D01*
X228606Y58625D01*
Y58621D01*
X228602Y58607D01*
X228595Y58585D01*
X228584Y58556D01*
X228573Y58523D01*
X228558Y58483D01*
X228540Y58439D01*
X228518Y58392D01*
X228467Y58290D01*
X228402Y58188D01*
X228362Y58137D01*
X228322Y58086D01*
X228278Y58042D01*
X228227Y57999D01*
X228223Y57995D01*
X228216Y57988D01*
X228198Y57981D01*
X228180Y57966D01*
X228151Y57948D01*
X228121Y57930D01*
X228081Y57911D01*
X228041Y57893D01*
X227994Y57871D01*
X227943Y57853D01*
X227888Y57835D01*
X227830Y57817D01*
X227768Y57802D01*
X227703Y57795D01*
X227634Y57788D01*
X227561Y57784D01*
X227521D01*
X227492Y57788D01*
X227459D01*
X227419Y57791D01*
X227375Y57799D01*
X227324Y57806D01*
X227219Y57824D01*
X227110Y57853D01*
X227000Y57893D01*
X226949Y57919D01*
X226898Y57948D01*
X226895Y57951D01*
X226887Y57955D01*
X226873Y57966D01*
X226858Y57981D01*
X226836Y57995D01*
X226811Y58017D01*
X226782Y58042D01*
X226753Y58072D01*
X226724Y58104D01*
X226691Y58137D01*
X226625Y58221D01*
X226564Y58319D01*
X226509Y58428D01*
Y58432D01*
X226502Y58443D01*
X226498Y58461D01*
X226487Y58483D01*
X226480Y58512D01*
X226469Y58548D01*
X226454Y58588D01*
X226443Y58632D01*
X226432Y58679D01*
X226418Y58734D01*
X226400Y58847D01*
X226385Y58974D01*
X226378Y59105D01*
Y59109D01*
Y59123D01*
Y59145D01*
X226381Y59171D01*
Y59207D01*
X226385Y59244D01*
X226389Y59291D01*
X226396Y59338D01*
X226414Y59444D01*
X226440Y59560D01*
X226476Y59677D01*
X226527Y59790D01*
X226531Y59793D01*
X226534Y59804D01*
X226542Y59819D01*
X226556Y59837D01*
X226571Y59862D01*
X226589Y59892D01*
X226636Y59957D01*
X226698Y60030D01*
X226771Y60103D01*
X226855Y60176D01*
X226953Y60237D01*
X226957Y60241D01*
X226968Y60245D01*
X226982Y60252D01*
X227000Y60263D01*
X227029Y60274D01*
X227059Y60285D01*
X227095Y60299D01*
X227135Y60314D01*
X227179Y60328D01*
X227226Y60343D01*
X227328Y60365D01*
X227444Y60383D01*
X227565Y60390D01*
X227601D01*
X227626Y60387D01*
D02*
G37*
G36*
X230054Y57828D02*
X229745D01*
Y59797D01*
X229741Y59793D01*
X229723Y59779D01*
X229701Y59757D01*
X229665Y59731D01*
X229625Y59699D01*
X229574Y59662D01*
X229516Y59622D01*
X229450Y59582D01*
X229446D01*
X229443Y59579D01*
X229421Y59564D01*
X229384Y59546D01*
X229341Y59524D01*
X229290Y59498D01*
X229235Y59473D01*
X229181Y59447D01*
X229126Y59426D01*
Y59724D01*
X229130D01*
X229137Y59731D01*
X229152Y59735D01*
X229170Y59746D01*
X229192Y59757D01*
X229217Y59771D01*
X229279Y59808D01*
X229352Y59848D01*
X229425Y59899D01*
X229501Y59957D01*
X229577Y60019D01*
X229581Y60023D01*
X229585Y60026D01*
X229596Y60037D01*
X229610Y60048D01*
X229643Y60084D01*
X229687Y60128D01*
X229730Y60179D01*
X229778Y60237D01*
X229818Y60296D01*
X229854Y60357D01*
X230054D01*
Y57828D01*
D02*
G37*
G36*
X231743Y60354D02*
X231791Y60347D01*
X231845Y60336D01*
X231903Y60321D01*
X231965Y60303D01*
X232024Y60274D01*
X232027D01*
X232031Y60270D01*
X232049Y60259D01*
X232078Y60241D01*
X232115Y60216D01*
X232155Y60179D01*
X232198Y60139D01*
X232238Y60092D01*
X232278Y60037D01*
X232282Y60030D01*
X232296Y60012D01*
X232311Y59979D01*
X232337Y59932D01*
X232358Y59877D01*
X232387Y59815D01*
X232413Y59742D01*
X232435Y59662D01*
Y59659D01*
X232438Y59651D01*
X232442Y59640D01*
X232446Y59622D01*
X232449Y59600D01*
X232453Y59575D01*
X232460Y59542D01*
X232464Y59506D01*
X232471Y59466D01*
X232475Y59422D01*
X232478Y59371D01*
X232486Y59320D01*
X232489Y59262D01*
Y59204D01*
X232493Y59138D01*
Y59069D01*
Y59065D01*
Y59051D01*
Y59025D01*
Y58996D01*
X232489Y58956D01*
Y58912D01*
X232486Y58865D01*
X232482Y58814D01*
X232471Y58698D01*
X232453Y58578D01*
X232431Y58461D01*
X232417Y58406D01*
X232399Y58352D01*
Y58348D01*
X232395Y58341D01*
X232387Y58326D01*
X232380Y58308D01*
X232373Y58283D01*
X232358Y58257D01*
X232329Y58195D01*
X232293Y58130D01*
X232246Y58057D01*
X232191Y57991D01*
X232125Y57930D01*
X232122D01*
X232118Y57922D01*
X232107Y57915D01*
X232093Y57908D01*
X232074Y57897D01*
X232056Y57882D01*
X232002Y57857D01*
X231936Y57831D01*
X231860Y57806D01*
X231769Y57791D01*
X231670Y57784D01*
X231634D01*
X231609Y57788D01*
X231579Y57791D01*
X231543Y57799D01*
X231503Y57806D01*
X231459Y57817D01*
X231416Y57831D01*
X231368Y57846D01*
X231321Y57868D01*
X231274Y57893D01*
X231226Y57922D01*
X231179Y57959D01*
X231135Y57999D01*
X231095Y58042D01*
X231092Y58046D01*
X231084Y58057D01*
X231073Y58075D01*
X231055Y58104D01*
X231037Y58137D01*
X231019Y58181D01*
X230993Y58232D01*
X230972Y58290D01*
X230950Y58355D01*
X230928Y58432D01*
X230906Y58516D01*
X230888Y58610D01*
X230870Y58712D01*
X230859Y58821D01*
X230852Y58942D01*
X230848Y59069D01*
Y59073D01*
Y59087D01*
Y59113D01*
Y59142D01*
X230852Y59182D01*
Y59225D01*
X230855Y59273D01*
X230859Y59327D01*
X230870Y59440D01*
X230888Y59560D01*
X230910Y59680D01*
X230924Y59735D01*
X230939Y59790D01*
Y59793D01*
X230943Y59801D01*
X230950Y59815D01*
X230957Y59833D01*
X230964Y59859D01*
X230979Y59884D01*
X231008Y59946D01*
X231044Y60012D01*
X231092Y60081D01*
X231146Y60150D01*
X231212Y60208D01*
X231216D01*
X231219Y60216D01*
X231230Y60223D01*
X231245Y60230D01*
X231263Y60245D01*
X231285Y60256D01*
X231339Y60285D01*
X231405Y60310D01*
X231481Y60336D01*
X231572Y60350D01*
X231670Y60357D01*
X231703D01*
X231743Y60354D01*
D02*
G37*
G36*
X455637Y125561D02*
X453668D01*
X453671Y125558D01*
X453686Y125540D01*
X453708Y125518D01*
X453733Y125481D01*
X453766Y125441D01*
X453802Y125390D01*
X453842Y125332D01*
X453882Y125267D01*
Y125263D01*
X453886Y125259D01*
X453901Y125238D01*
X453919Y125201D01*
X453941Y125157D01*
X453966Y125107D01*
X453992Y125052D01*
X454017Y124997D01*
X454039Y124943D01*
X453740D01*
Y124946D01*
X453733Y124954D01*
X453729Y124968D01*
X453719Y124986D01*
X453708Y125008D01*
X453693Y125034D01*
X453657Y125096D01*
X453617Y125168D01*
X453566Y125241D01*
X453508Y125318D01*
X453446Y125394D01*
X453442Y125398D01*
X453438Y125401D01*
X453427Y125412D01*
X453416Y125427D01*
X453380Y125460D01*
X453336Y125503D01*
X453285Y125547D01*
X453227Y125594D01*
X453169Y125634D01*
X453107Y125671D01*
Y125871D01*
X455637D01*
Y125561D01*
D02*
G37*
G36*
Y123603D02*
X453668D01*
X453671Y123600D01*
X453686Y123581D01*
X453708Y123559D01*
X453733Y123523D01*
X453766Y123483D01*
X453802Y123432D01*
X453842Y123374D01*
X453882Y123308D01*
Y123305D01*
X453886Y123301D01*
X453901Y123279D01*
X453919Y123243D01*
X453941Y123199D01*
X453966Y123148D01*
X453992Y123094D01*
X454017Y123039D01*
X454039Y122984D01*
X453740D01*
Y122988D01*
X453733Y122995D01*
X453729Y123010D01*
X453719Y123028D01*
X453708Y123050D01*
X453693Y123075D01*
X453657Y123137D01*
X453617Y123210D01*
X453566Y123283D01*
X453508Y123359D01*
X453446Y123436D01*
X453442Y123439D01*
X453438Y123443D01*
X453427Y123454D01*
X453416Y123468D01*
X453380Y123501D01*
X453336Y123545D01*
X453285Y123589D01*
X453227Y123636D01*
X453169Y123676D01*
X453107Y123712D01*
Y123913D01*
X455637D01*
Y123603D01*
D02*
G37*
G36*
X454858Y122460D02*
X454880Y122453D01*
X454909Y122442D01*
X454942Y122431D01*
X454982Y122416D01*
X455025Y122398D01*
X455073Y122377D01*
X455175Y122326D01*
X455276Y122260D01*
X455328Y122220D01*
X455378Y122180D01*
X455422Y122136D01*
X455466Y122085D01*
X455469Y122082D01*
X455477Y122074D01*
X455484Y122056D01*
X455499Y122038D01*
X455517Y122009D01*
X455535Y121980D01*
X455553Y121940D01*
X455571Y121900D01*
X455593Y121852D01*
X455611Y121801D01*
X455630Y121747D01*
X455648Y121688D01*
X455662Y121627D01*
X455670Y121561D01*
X455677Y121492D01*
X455681Y121419D01*
Y121379D01*
X455677Y121350D01*
Y121317D01*
X455673Y121277D01*
X455666Y121233D01*
X455659Y121183D01*
X455641Y121077D01*
X455611Y120968D01*
X455571Y120859D01*
X455546Y120808D01*
X455517Y120757D01*
X455513Y120753D01*
X455510Y120746D01*
X455499Y120731D01*
X455484Y120717D01*
X455469Y120695D01*
X455448Y120669D01*
X455422Y120640D01*
X455393Y120611D01*
X455360Y120582D01*
X455328Y120549D01*
X455244Y120484D01*
X455146Y120422D01*
X455036Y120367D01*
X455033D01*
X455022Y120360D01*
X455003Y120356D01*
X454982Y120345D01*
X454953Y120338D01*
X454916Y120327D01*
X454876Y120313D01*
X454832Y120302D01*
X454785Y120291D01*
X454731Y120276D01*
X454618Y120258D01*
X454490Y120244D01*
X454359Y120236D01*
X454356D01*
X454341D01*
X454319D01*
X454294Y120240D01*
X454257D01*
X454221Y120244D01*
X454174Y120247D01*
X454126Y120254D01*
X454021Y120273D01*
X453904Y120298D01*
X453788Y120334D01*
X453675Y120385D01*
X453671Y120389D01*
X453660Y120393D01*
X453646Y120400D01*
X453628Y120414D01*
X453602Y120429D01*
X453573Y120447D01*
X453508Y120495D01*
X453435Y120556D01*
X453362Y120629D01*
X453289Y120713D01*
X453227Y120811D01*
X453224Y120815D01*
X453220Y120826D01*
X453213Y120840D01*
X453202Y120859D01*
X453191Y120888D01*
X453180Y120917D01*
X453165Y120953D01*
X453151Y120993D01*
X453136Y121037D01*
X453122Y121084D01*
X453100Y121186D01*
X453082Y121303D01*
X453074Y121423D01*
Y121459D01*
X453078Y121485D01*
X453082Y121518D01*
X453085Y121557D01*
X453089Y121598D01*
X453100Y121645D01*
X453122Y121743D01*
X453154Y121852D01*
X453176Y121907D01*
X453202Y121958D01*
X453234Y122009D01*
X453267Y122060D01*
X453271Y122063D01*
X453274Y122071D01*
X453285Y122085D01*
X453304Y122104D01*
X453322Y122122D01*
X453347Y122147D01*
X453376Y122173D01*
X453406Y122202D01*
X453442Y122231D01*
X453486Y122260D01*
X453529Y122293D01*
X453577Y122322D01*
X453631Y122347D01*
X453686Y122377D01*
X453744Y122398D01*
X453810Y122420D01*
X453886Y122093D01*
X453882D01*
X453875Y122089D01*
X453861Y122082D01*
X453842Y122074D01*
X453821Y122067D01*
X453791Y122056D01*
X453733Y122027D01*
X453668Y121991D01*
X453602Y121947D01*
X453540Y121892D01*
X453486Y121834D01*
X453478Y121827D01*
X453464Y121805D01*
X453446Y121769D01*
X453420Y121721D01*
X453398Y121659D01*
X453376Y121590D01*
X453362Y121507D01*
X453358Y121415D01*
Y121386D01*
X453362Y121368D01*
Y121343D01*
X453366Y121314D01*
X453376Y121245D01*
X453391Y121168D01*
X453416Y121088D01*
X453453Y121004D01*
X453500Y120928D01*
Y120924D01*
X453508Y120921D01*
X453526Y120895D01*
X453555Y120862D01*
X453598Y120822D01*
X453653Y120775D01*
X453715Y120731D01*
X453791Y120691D01*
X453875Y120655D01*
X453879D01*
X453886Y120651D01*
X453897Y120648D01*
X453915Y120644D01*
X453937Y120637D01*
X453963Y120629D01*
X454024Y120618D01*
X454097Y120604D01*
X454177Y120589D01*
X454265Y120582D01*
X454359Y120578D01*
X454363D01*
X454374D01*
X454392D01*
X454414D01*
X454439Y120582D01*
X454472D01*
X454508Y120586D01*
X454549Y120589D01*
X454636Y120600D01*
X454731Y120618D01*
X454825Y120640D01*
X454920Y120669D01*
X454923D01*
X454931Y120673D01*
X454942Y120680D01*
X454960Y120687D01*
X455003Y120709D01*
X455055Y120742D01*
X455113Y120782D01*
X455175Y120833D01*
X455229Y120891D01*
X455280Y120960D01*
Y120964D01*
X455284Y120972D01*
X455291Y120982D01*
X455298Y120997D01*
X455306Y121015D01*
X455317Y121037D01*
X455338Y121088D01*
X455360Y121153D01*
X455378Y121226D01*
X455393Y121306D01*
X455397Y121390D01*
Y121415D01*
X455393Y121437D01*
Y121463D01*
X455389Y121488D01*
X455375Y121554D01*
X455357Y121630D01*
X455328Y121707D01*
X455287Y121787D01*
X455266Y121827D01*
X455236Y121863D01*
X455233Y121867D01*
X455229Y121871D01*
X455218Y121881D01*
X455207Y121896D01*
X455189Y121911D01*
X455167Y121929D01*
X455146Y121951D01*
X455116Y121969D01*
X455084Y121991D01*
X455047Y122016D01*
X455011Y122038D01*
X454967Y122060D01*
X454920Y122078D01*
X454869Y122096D01*
X454814Y122114D01*
X454756Y122129D01*
X454840Y122464D01*
X454843D01*
X454858Y122460D01*
D02*
G37*
G36*
X572598Y114386D02*
X572594Y114321D01*
X572590Y114248D01*
X572583Y114175D01*
X572572Y114102D01*
X572561Y114040D01*
Y114037D01*
X572558Y114029D01*
Y114018D01*
X572550Y114004D01*
X572539Y113964D01*
X572521Y113913D01*
X572496Y113855D01*
X572463Y113793D01*
X572427Y113731D01*
X572379Y113673D01*
X572376Y113669D01*
X572372Y113665D01*
X572361Y113654D01*
X572350Y113640D01*
X572314Y113603D01*
X572263Y113560D01*
X572201Y113513D01*
X572128Y113461D01*
X572044Y113414D01*
X571950Y113374D01*
X571946D01*
X571939Y113371D01*
X571924Y113363D01*
X571902Y113360D01*
X571877Y113349D01*
X571848Y113341D01*
X571815Y113334D01*
X571775Y113323D01*
X571735Y113312D01*
X571688Y113305D01*
X571586Y113287D01*
X571473Y113276D01*
X571349Y113272D01*
X571346D01*
X571338D01*
X571320D01*
X571302D01*
X571276Y113276D01*
X571247D01*
X571178Y113279D01*
X571098Y113291D01*
X571014Y113301D01*
X570927Y113320D01*
X570840Y113341D01*
X570836D01*
X570829Y113345D01*
X570818Y113349D01*
X570803Y113352D01*
X570763Y113367D01*
X570712Y113389D01*
X570654Y113411D01*
X570596Y113440D01*
X570534Y113476D01*
X570475Y113513D01*
X570468Y113516D01*
X570450Y113531D01*
X570425Y113552D01*
X570392Y113582D01*
X570355Y113614D01*
X570319Y113654D01*
X570279Y113695D01*
X570246Y113742D01*
X570243Y113749D01*
X570232Y113764D01*
X570217Y113789D01*
X570199Y113826D01*
X570177Y113869D01*
X570159Y113920D01*
X570137Y113978D01*
X570119Y114044D01*
Y114051D01*
X570115Y114062D01*
X570112Y114073D01*
X570108Y114109D01*
X570101Y114160D01*
X570093Y114219D01*
X570086Y114288D01*
X570082Y114364D01*
X570079Y114448D01*
Y115354D01*
X572598D01*
Y114386D01*
D02*
G37*
G36*
Y111893D02*
Y111642D01*
X570967D01*
Y111299D01*
X570683D01*
Y111642D01*
X570079D01*
Y111951D01*
X570683D01*
Y113047D01*
X570967D01*
X572598Y111893D01*
D02*
G37*
G36*
X570086Y152213D02*
X568109Y150896D01*
X570086D01*
Y150575D01*
X567567D01*
Y150917D01*
X569547Y152239D01*
X567567D01*
Y152559D01*
X570086D01*
Y152213D01*
D02*
G37*
G36*
X568899Y150146D02*
X568932D01*
X568972Y150142D01*
X569016Y150135D01*
X569063Y150131D01*
X569168Y150113D01*
X569285Y150084D01*
X569401Y150044D01*
X569460Y150022D01*
X569518Y149993D01*
X569522D01*
X569532Y149986D01*
X569547Y149978D01*
X569569Y149964D01*
X569594Y149949D01*
X569620Y149931D01*
X569689Y149880D01*
X569762Y149818D01*
X569838Y149745D01*
X569911Y149658D01*
X569977Y149556D01*
Y149552D01*
X569984Y149545D01*
X569991Y149527D01*
X570002Y149505D01*
X570013Y149480D01*
X570024Y149451D01*
X570038Y149414D01*
X570053Y149374D01*
X570068Y149330D01*
X570082Y149283D01*
X570104Y149178D01*
X570122Y149065D01*
X570129Y148944D01*
Y148908D01*
X570126Y148886D01*
Y148854D01*
X570119Y148817D01*
X570115Y148777D01*
X570108Y148730D01*
X570086Y148632D01*
X570057Y148526D01*
X570013Y148417D01*
X569987Y148362D01*
X569958Y148308D01*
X569955Y148304D01*
X569951Y148297D01*
X569940Y148282D01*
X569925Y148260D01*
X569911Y148238D01*
X569889Y148213D01*
X569835Y148151D01*
X569769Y148082D01*
X569689Y148009D01*
X569598Y147943D01*
X569492Y147882D01*
X569489D01*
X569478Y147874D01*
X569463Y147867D01*
X569441Y147860D01*
X569412Y147849D01*
X569380Y147838D01*
X569343Y147823D01*
X569303Y147812D01*
X569256Y147798D01*
X569208Y147783D01*
X569099Y147761D01*
X568986Y147747D01*
X568863Y147740D01*
X568859D01*
X568855D01*
X568833D01*
X568801Y147743D01*
X568757D01*
X568706Y147751D01*
X568644Y147758D01*
X568575Y147769D01*
X568502Y147783D01*
X568426Y147798D01*
X568346Y147820D01*
X568266Y147849D01*
X568182Y147882D01*
X568102Y147918D01*
X568022Y147965D01*
X567949Y148016D01*
X567880Y148074D01*
X567876Y148078D01*
X567865Y148089D01*
X567847Y148111D01*
X567825Y148136D01*
X567796Y148169D01*
X567767Y148209D01*
X567734Y148257D01*
X567701Y148311D01*
X567669Y148369D01*
X567636Y148435D01*
X567607Y148508D01*
X567578Y148584D01*
X567556Y148668D01*
X567538Y148755D01*
X567527Y148846D01*
X567523Y148944D01*
Y148977D01*
X567527Y149003D01*
Y149036D01*
X567530Y149068D01*
X567538Y149112D01*
X567545Y149156D01*
X567563Y149250D01*
X567592Y149360D01*
X567636Y149465D01*
X567662Y149520D01*
X567691Y149574D01*
X567694Y149578D01*
X567698Y149585D01*
X567709Y149600D01*
X567720Y149621D01*
X567738Y149643D01*
X567760Y149672D01*
X567811Y149734D01*
X567876Y149800D01*
X567956Y149873D01*
X568051Y149942D01*
X568156Y150000D01*
X568160D01*
X568171Y150007D01*
X568186Y150015D01*
X568208Y150022D01*
X568237Y150037D01*
X568269Y150047D01*
X568309Y150062D01*
X568353Y150076D01*
X568400Y150087D01*
X568451Y150102D01*
X568510Y150117D01*
X568568Y150127D01*
X568695Y150142D01*
X568833Y150149D01*
X568837D01*
X568852D01*
X568870D01*
X568899Y150146D01*
D02*
G37*
G36*
X570086Y147103D02*
X569561Y146771D01*
X569558D01*
X569551Y146764D01*
X569540Y146757D01*
X569525Y146746D01*
X569485Y146721D01*
X569434Y146688D01*
X569380Y146648D01*
X569321Y146608D01*
X569267Y146568D01*
X569216Y146531D01*
X569212Y146528D01*
X569198Y146517D01*
X569176Y146498D01*
X569150Y146473D01*
X569096Y146418D01*
X569070Y146389D01*
X569048Y146360D01*
X569045Y146356D01*
X569041Y146349D01*
X569034Y146335D01*
X569023Y146313D01*
X569012Y146291D01*
X569001Y146265D01*
X568983Y146207D01*
Y146204D01*
X568979Y146196D01*
Y146182D01*
X568975Y146163D01*
X568972Y146138D01*
Y146109D01*
X568968Y146069D01*
Y145639D01*
X570086D01*
Y145305D01*
X567567D01*
Y146473D01*
X567570Y146502D01*
Y146535D01*
X567574Y146611D01*
X567585Y146691D01*
X567596Y146779D01*
X567614Y146859D01*
X567625Y146899D01*
X567636Y146932D01*
Y146935D01*
X567640Y146939D01*
X567651Y146961D01*
X567665Y146994D01*
X567691Y147034D01*
X567723Y147077D01*
X567767Y147125D01*
X567818Y147168D01*
X567876Y147212D01*
X567880D01*
X567883Y147215D01*
X567905Y147230D01*
X567942Y147245D01*
X567989Y147266D01*
X568044Y147285D01*
X568109Y147303D01*
X568178Y147314D01*
X568255Y147317D01*
X568258D01*
X568266D01*
X568280D01*
X568298Y147314D01*
X568324D01*
X568349Y147310D01*
X568411Y147296D01*
X568484Y147274D01*
X568561Y147245D01*
X568637Y147201D01*
X568673Y147172D01*
X568710Y147143D01*
X568713Y147139D01*
X568717Y147135D01*
X568728Y147125D01*
X568739Y147110D01*
X568753Y147092D01*
X568768Y147070D01*
X568786Y147041D01*
X568808Y147012D01*
X568826Y146975D01*
X568845Y146935D01*
X568866Y146891D01*
X568885Y146844D01*
X568899Y146790D01*
X568917Y146735D01*
X568928Y146673D01*
X568939Y146608D01*
X568943Y146615D01*
X568950Y146630D01*
X568965Y146651D01*
X568979Y146680D01*
X569019Y146746D01*
X569045Y146779D01*
X569066Y146808D01*
X569074Y146815D01*
X569092Y146833D01*
X569121Y146862D01*
X569158Y146899D01*
X569208Y146939D01*
X569263Y146986D01*
X569329Y147034D01*
X569401Y147084D01*
X570086Y147518D01*
Y147103D01*
D02*
G37*
G36*
X456542Y96651D02*
X454573D01*
X454577Y96647D01*
X454591Y96629D01*
X454613Y96607D01*
X454639Y96571D01*
X454671Y96531D01*
X454708Y96480D01*
X454748Y96421D01*
X454788Y96356D01*
Y96352D01*
X454792Y96349D01*
X454806Y96327D01*
X454824Y96290D01*
X454846Y96247D01*
X454872Y96196D01*
X454897Y96141D01*
X454923Y96087D01*
X454944Y96032D01*
X454646D01*
Y96036D01*
X454639Y96043D01*
X454635Y96057D01*
X454624Y96076D01*
X454613Y96098D01*
X454599Y96123D01*
X454562Y96185D01*
X454522Y96258D01*
X454471Y96330D01*
X454413Y96407D01*
X454351Y96483D01*
X454348Y96487D01*
X454344Y96491D01*
X454333Y96502D01*
X454322Y96516D01*
X454286Y96549D01*
X454242Y96593D01*
X454191Y96636D01*
X454133Y96684D01*
X454074Y96724D01*
X454013Y96760D01*
Y96960D01*
X456542D01*
Y96651D01*
D02*
G37*
G36*
Y95184D02*
X456018Y94853D01*
X456015D01*
X456007Y94845D01*
X455996Y94838D01*
X455982Y94827D01*
X455942Y94802D01*
X455891Y94769D01*
X455836Y94729D01*
X455778Y94689D01*
X455723Y94649D01*
X455672Y94612D01*
X455669Y94609D01*
X455654Y94598D01*
X455632Y94580D01*
X455607Y94554D01*
X455552Y94500D01*
X455527Y94471D01*
X455505Y94441D01*
X455501Y94438D01*
X455498Y94431D01*
X455490Y94416D01*
X455479Y94394D01*
X455469Y94372D01*
X455458Y94347D01*
X455440Y94288D01*
Y94285D01*
X455436Y94278D01*
Y94263D01*
X455432Y94245D01*
X455429Y94219D01*
Y94190D01*
X455425Y94150D01*
Y93721D01*
X456542D01*
Y93386D01*
X454024D01*
Y94554D01*
X454027Y94583D01*
Y94616D01*
X454031Y94692D01*
X454042Y94773D01*
X454053Y94860D01*
X454071Y94940D01*
X454082Y94980D01*
X454093Y95013D01*
Y95016D01*
X454096Y95020D01*
X454107Y95042D01*
X454122Y95075D01*
X454147Y95115D01*
X454180Y95158D01*
X454224Y95206D01*
X454275Y95249D01*
X454333Y95293D01*
X454337D01*
X454340Y95297D01*
X454362Y95311D01*
X454398Y95326D01*
X454446Y95348D01*
X454500Y95366D01*
X454566Y95384D01*
X454635Y95395D01*
X454711Y95399D01*
X454715D01*
X454722D01*
X454737D01*
X454755Y95395D01*
X454781D01*
X454806Y95391D01*
X454868Y95377D01*
X454941Y95355D01*
X455017Y95326D01*
X455094Y95282D01*
X455130Y95253D01*
X455166Y95224D01*
X455170Y95220D01*
X455174Y95217D01*
X455185Y95206D01*
X455196Y95191D01*
X455210Y95173D01*
X455225Y95151D01*
X455243Y95122D01*
X455265Y95093D01*
X455283Y95056D01*
X455301Y95016D01*
X455323Y94973D01*
X455341Y94925D01*
X455356Y94871D01*
X455374Y94816D01*
X455385Y94754D01*
X455396Y94689D01*
X455399Y94696D01*
X455407Y94711D01*
X455421Y94733D01*
X455436Y94762D01*
X455476Y94827D01*
X455501Y94860D01*
X455523Y94889D01*
X455531Y94896D01*
X455549Y94915D01*
X455578Y94944D01*
X455614Y94980D01*
X455665Y95020D01*
X455720Y95068D01*
X455785Y95115D01*
X455858Y95166D01*
X456542Y95599D01*
Y95184D01*
D02*
G37*
G36*
X541332Y119415D02*
X541362Y119411D01*
X541394Y119408D01*
X541434Y119401D01*
X541474Y119393D01*
X541569Y119371D01*
X541667Y119335D01*
X541718Y119313D01*
X541766Y119284D01*
X541817Y119255D01*
X541864Y119219D01*
X541867Y119215D01*
X541879Y119208D01*
X541893Y119193D01*
X541911Y119175D01*
X541933Y119149D01*
X541962Y119120D01*
X541988Y119084D01*
X542017Y119044D01*
X542046Y119000D01*
X542071Y118949D01*
X542097Y118895D01*
X542122Y118836D01*
X542140Y118774D01*
X542155Y118705D01*
X542166Y118632D01*
X542170Y118556D01*
Y118523D01*
X542166Y118498D01*
X542162Y118469D01*
X542159Y118436D01*
X542155Y118396D01*
X542144Y118356D01*
X542122Y118265D01*
X542090Y118174D01*
X542068Y118126D01*
X542042Y118079D01*
X542013Y118035D01*
X541980Y117992D01*
X541977Y117988D01*
X541973Y117981D01*
X541959Y117974D01*
X541944Y117959D01*
X541926Y117941D01*
X541904Y117923D01*
X541875Y117901D01*
X541842Y117883D01*
X541809Y117861D01*
X541769Y117839D01*
X541682Y117799D01*
X541580Y117766D01*
X541525Y117755D01*
X541467Y117748D01*
X541442Y118072D01*
X541445D01*
X541453D01*
X541464Y118076D01*
X541482Y118079D01*
X541522Y118090D01*
X541576Y118105D01*
X541631Y118126D01*
X541693Y118156D01*
X541747Y118192D01*
X541798Y118236D01*
X541802Y118243D01*
X541817Y118258D01*
X541835Y118287D01*
X541857Y118327D01*
X541879Y118370D01*
X541897Y118425D01*
X541911Y118487D01*
X541915Y118556D01*
Y118578D01*
X541911Y118593D01*
X541908Y118636D01*
X541893Y118687D01*
X541875Y118749D01*
X541846Y118811D01*
X541802Y118876D01*
X541777Y118905D01*
X541747Y118935D01*
X541744Y118938D01*
X541740Y118942D01*
X541729Y118949D01*
X541718Y118960D01*
X541678Y118986D01*
X541627Y119015D01*
X541565Y119040D01*
X541489Y119066D01*
X541398Y119084D01*
X541351Y119091D01*
X541300D01*
X541296D01*
X541289D01*
X541274D01*
X541256Y119088D01*
X541234D01*
X541209Y119084D01*
X541151Y119073D01*
X541081Y119055D01*
X541012Y119029D01*
X540947Y118993D01*
X540885Y118942D01*
X540881D01*
X540877Y118935D01*
X540859Y118916D01*
X540834Y118884D01*
X540805Y118840D01*
X540779Y118782D01*
X540754Y118716D01*
X540735Y118640D01*
X540728Y118596D01*
Y118527D01*
X540732Y118498D01*
X540735Y118461D01*
X540746Y118418D01*
X540757Y118374D01*
X540775Y118327D01*
X540797Y118279D01*
X540801Y118276D01*
X540808Y118261D01*
X540827Y118239D01*
X540845Y118210D01*
X540870Y118181D01*
X540903Y118152D01*
X540936Y118119D01*
X540976Y118094D01*
X540936Y117803D01*
X539640Y118046D01*
Y119299D01*
X539935D01*
Y118290D01*
X540615Y118156D01*
X540612Y118159D01*
X540608Y118167D01*
X540601Y118177D01*
X540590Y118196D01*
X540579Y118218D01*
X540564Y118243D01*
X540535Y118301D01*
X540506Y118374D01*
X540481Y118454D01*
X540462Y118542D01*
X540455Y118585D01*
Y118665D01*
X540459Y118687D01*
X540462Y118716D01*
X540466Y118749D01*
X540473Y118785D01*
X540484Y118825D01*
X540510Y118913D01*
X540528Y118960D01*
X540554Y119007D01*
X540579Y119055D01*
X540608Y119102D01*
X540645Y119146D01*
X540685Y119189D01*
X540688Y119193D01*
X540695Y119200D01*
X540706Y119211D01*
X540725Y119226D01*
X540750Y119244D01*
X540775Y119262D01*
X540808Y119284D01*
X540845Y119306D01*
X540885Y119324D01*
X540928Y119346D01*
X540979Y119364D01*
X541030Y119382D01*
X541085Y119397D01*
X541147Y119408D01*
X541209Y119415D01*
X541274Y119419D01*
X541278D01*
X541289D01*
X541307D01*
X541332Y119415D01*
D02*
G37*
G36*
X540928Y117413D02*
X540957D01*
X541027Y117409D01*
X541107Y117399D01*
X541190Y117388D01*
X541278Y117369D01*
X541365Y117348D01*
X541369D01*
X541376Y117344D01*
X541387Y117340D01*
X541402Y117337D01*
X541442Y117322D01*
X541493Y117300D01*
X541551Y117278D01*
X541609Y117249D01*
X541671Y117213D01*
X541729Y117176D01*
X541737Y117173D01*
X541755Y117158D01*
X541780Y117136D01*
X541813Y117107D01*
X541849Y117075D01*
X541886Y117034D01*
X541926Y116995D01*
X541959Y116947D01*
X541962Y116940D01*
X541973Y116925D01*
X541988Y116900D01*
X542006Y116863D01*
X542028Y116820D01*
X542046Y116769D01*
X542068Y116711D01*
X542086Y116645D01*
Y116638D01*
X542090Y116627D01*
X542093Y116616D01*
X542097Y116579D01*
X542104Y116529D01*
X542111Y116470D01*
X542119Y116401D01*
X542122Y116325D01*
X542126Y116241D01*
Y115335D01*
X539607D01*
Y116303D01*
X539611Y116368D01*
X539614Y116441D01*
X539622Y116514D01*
X539633Y116587D01*
X539643Y116649D01*
Y116652D01*
X539647Y116660D01*
Y116671D01*
X539654Y116685D01*
X539665Y116725D01*
X539683Y116776D01*
X539709Y116834D01*
X539742Y116896D01*
X539778Y116958D01*
X539825Y117016D01*
X539829Y117020D01*
X539833Y117024D01*
X539844Y117034D01*
X539855Y117049D01*
X539891Y117086D01*
X539942Y117129D01*
X540004Y117176D01*
X540077Y117227D01*
X540160Y117275D01*
X540255Y117315D01*
X540259D01*
X540266Y117318D01*
X540280Y117326D01*
X540302Y117329D01*
X540328Y117340D01*
X540357Y117348D01*
X540390Y117355D01*
X540430Y117366D01*
X540470Y117377D01*
X540517Y117384D01*
X540619Y117402D01*
X540732Y117413D01*
X540856Y117417D01*
X540859D01*
X540867D01*
X540885D01*
X540903D01*
X540928Y117413D01*
D02*
G37*
G36*
X539106Y153079D02*
X539884D01*
Y154262D01*
X540183D01*
Y153079D01*
X541326D01*
Y152745D01*
X538807D01*
Y154448D01*
X539106D01*
Y153079D01*
D02*
G37*
G36*
Y150928D02*
X539884D01*
Y152111D01*
X540183D01*
Y150928D01*
X541326D01*
Y150593D01*
X538807D01*
Y152297D01*
X539106D01*
Y150928D01*
D02*
G37*
G36*
X540139Y150146D02*
X540172D01*
X540212Y150142D01*
X540256Y150135D01*
X540303Y150131D01*
X540409Y150113D01*
X540525Y150084D01*
X540641Y150044D01*
X540700Y150022D01*
X540758Y149993D01*
X540762D01*
X540773Y149986D01*
X540787Y149978D01*
X540809Y149964D01*
X540835Y149949D01*
X540860Y149931D01*
X540929Y149880D01*
X541002Y149818D01*
X541078Y149745D01*
X541151Y149658D01*
X541217Y149556D01*
Y149552D01*
X541224Y149545D01*
X541231Y149527D01*
X541242Y149505D01*
X541253Y149480D01*
X541264Y149451D01*
X541279Y149414D01*
X541293Y149374D01*
X541308Y149330D01*
X541322Y149283D01*
X541344Y149178D01*
X541362Y149065D01*
X541369Y148944D01*
Y148908D01*
X541366Y148886D01*
Y148854D01*
X541359Y148817D01*
X541355Y148777D01*
X541348Y148730D01*
X541326Y148632D01*
X541297Y148526D01*
X541253Y148417D01*
X541228Y148362D01*
X541198Y148308D01*
X541195Y148304D01*
X541191Y148297D01*
X541180Y148282D01*
X541166Y148260D01*
X541151Y148238D01*
X541129Y148213D01*
X541075Y148151D01*
X541009Y148082D01*
X540929Y148009D01*
X540838Y147943D01*
X540732Y147882D01*
X540729D01*
X540718Y147874D01*
X540703Y147867D01*
X540682Y147860D01*
X540653Y147849D01*
X540620Y147838D01*
X540583Y147823D01*
X540543Y147812D01*
X540496Y147798D01*
X540449Y147783D01*
X540339Y147761D01*
X540227Y147747D01*
X540103Y147740D01*
X540099D01*
X540096D01*
X540074D01*
X540041Y147743D01*
X539997D01*
X539946Y147751D01*
X539884Y147758D01*
X539815Y147769D01*
X539743Y147783D01*
X539666Y147798D01*
X539586Y147820D01*
X539506Y147849D01*
X539422Y147882D01*
X539342Y147918D01*
X539262Y147965D01*
X539189Y148016D01*
X539120Y148074D01*
X539116Y148078D01*
X539106Y148089D01*
X539087Y148111D01*
X539065Y148136D01*
X539036Y148169D01*
X539007Y148209D01*
X538974Y148257D01*
X538942Y148311D01*
X538909Y148369D01*
X538876Y148435D01*
X538847Y148508D01*
X538818Y148584D01*
X538796Y148668D01*
X538778Y148755D01*
X538767Y148846D01*
X538763Y148944D01*
Y148977D01*
X538767Y149003D01*
Y149036D01*
X538771Y149068D01*
X538778Y149112D01*
X538785Y149156D01*
X538803Y149250D01*
X538833Y149360D01*
X538876Y149465D01*
X538902Y149520D01*
X538931Y149574D01*
X538934Y149578D01*
X538938Y149585D01*
X538949Y149600D01*
X538960Y149621D01*
X538978Y149643D01*
X539000Y149672D01*
X539051Y149734D01*
X539116Y149800D01*
X539196Y149873D01*
X539291Y149942D01*
X539397Y150000D01*
X539400D01*
X539411Y150007D01*
X539426Y150015D01*
X539448Y150022D01*
X539477Y150037D01*
X539509Y150047D01*
X539549Y150062D01*
X539593Y150076D01*
X539641Y150087D01*
X539691Y150102D01*
X539750Y150117D01*
X539808Y150127D01*
X539935Y150142D01*
X540074Y150149D01*
X540077D01*
X540092D01*
X540110D01*
X540139Y150146D01*
D02*
G37*
G36*
X541326Y147103D02*
X540802Y146771D01*
X540798D01*
X540791Y146764D01*
X540780Y146757D01*
X540765Y146746D01*
X540725Y146721D01*
X540674Y146688D01*
X540620Y146648D01*
X540561Y146608D01*
X540507Y146568D01*
X540456Y146531D01*
X540452Y146528D01*
X540438Y146517D01*
X540416Y146498D01*
X540390Y146473D01*
X540336Y146418D01*
X540310Y146389D01*
X540288Y146360D01*
X540285Y146356D01*
X540281Y146349D01*
X540274Y146335D01*
X540263Y146313D01*
X540252Y146291D01*
X540241Y146265D01*
X540223Y146207D01*
Y146204D01*
X540219Y146196D01*
Y146182D01*
X540216Y146163D01*
X540212Y146138D01*
Y146109D01*
X540208Y146069D01*
Y145639D01*
X541326D01*
Y145305D01*
X538807D01*
Y146473D01*
X538811Y146502D01*
Y146535D01*
X538814Y146611D01*
X538825Y146691D01*
X538836Y146779D01*
X538854Y146859D01*
X538865Y146899D01*
X538876Y146932D01*
Y146935D01*
X538880Y146939D01*
X538891Y146961D01*
X538905Y146994D01*
X538931Y147034D01*
X538964Y147077D01*
X539007Y147125D01*
X539058Y147168D01*
X539116Y147212D01*
X539120D01*
X539124Y147215D01*
X539146Y147230D01*
X539182Y147245D01*
X539229Y147266D01*
X539284Y147285D01*
X539349Y147303D01*
X539419Y147314D01*
X539495Y147317D01*
X539499D01*
X539506D01*
X539520D01*
X539539Y147314D01*
X539564D01*
X539590Y147310D01*
X539651Y147296D01*
X539724Y147274D01*
X539801Y147245D01*
X539877Y147201D01*
X539914Y147172D01*
X539950Y147143D01*
X539954Y147139D01*
X539957Y147135D01*
X539968Y147125D01*
X539979Y147110D01*
X539994Y147092D01*
X540008Y147070D01*
X540026Y147041D01*
X540048Y147012D01*
X540066Y146975D01*
X540085Y146935D01*
X540106Y146891D01*
X540125Y146844D01*
X540139Y146790D01*
X540157Y146735D01*
X540168Y146673D01*
X540179Y146608D01*
X540183Y146615D01*
X540190Y146630D01*
X540205Y146651D01*
X540219Y146680D01*
X540259Y146746D01*
X540285Y146779D01*
X540307Y146808D01*
X540314Y146815D01*
X540332Y146833D01*
X540361Y146862D01*
X540398Y146899D01*
X540449Y146939D01*
X540503Y146986D01*
X540569Y147034D01*
X540641Y147084D01*
X541326Y147518D01*
Y147103D01*
D02*
G37*
G36*
X471848Y93697D02*
X471884D01*
X471921Y93694D01*
X471968Y93690D01*
X472015Y93683D01*
X472121Y93664D01*
X472237Y93639D01*
X472354Y93603D01*
X472467Y93552D01*
X472470Y93548D01*
X472481Y93544D01*
X472496Y93537D01*
X472514Y93523D01*
X472540Y93508D01*
X472569Y93490D01*
X472634Y93442D01*
X472707Y93380D01*
X472780Y93308D01*
X472853Y93224D01*
X472915Y93126D01*
X472918Y93122D01*
X472922Y93111D01*
X472929Y93097D01*
X472940Y93078D01*
X472951Y93049D01*
X472962Y93020D01*
X472976Y92984D01*
X472991Y92944D01*
X473005Y92900D01*
X473020Y92853D01*
X473042Y92751D01*
X473060Y92634D01*
X473067Y92514D01*
Y92478D01*
X473064Y92452D01*
X473060Y92420D01*
X473057Y92379D01*
X473053Y92339D01*
X473042Y92292D01*
X473020Y92194D01*
X472987Y92085D01*
X472965Y92030D01*
X472940Y91979D01*
X472907Y91928D01*
X472874Y91877D01*
X472871Y91874D01*
X472867Y91866D01*
X472856Y91852D01*
X472838Y91834D01*
X472820Y91815D01*
X472794Y91790D01*
X472765Y91764D01*
X472736Y91735D01*
X472700Y91706D01*
X472656Y91677D01*
X472612Y91644D01*
X472565Y91615D01*
X472510Y91590D01*
X472456Y91561D01*
X472398Y91539D01*
X472332Y91517D01*
X472256Y91844D01*
X472259D01*
X472267Y91848D01*
X472281Y91855D01*
X472299Y91863D01*
X472321Y91870D01*
X472350Y91881D01*
X472409Y91910D01*
X472474Y91946D01*
X472540Y91990D01*
X472602Y92045D01*
X472656Y92103D01*
X472663Y92110D01*
X472678Y92132D01*
X472696Y92168D01*
X472722Y92216D01*
X472744Y92278D01*
X472765Y92347D01*
X472780Y92431D01*
X472784Y92522D01*
Y92551D01*
X472780Y92569D01*
Y92594D01*
X472776Y92623D01*
X472765Y92693D01*
X472751Y92769D01*
X472725Y92849D01*
X472689Y92933D01*
X472642Y93009D01*
Y93013D01*
X472634Y93016D01*
X472616Y93042D01*
X472587Y93075D01*
X472543Y93115D01*
X472489Y93162D01*
X472427Y93206D01*
X472350Y93246D01*
X472267Y93282D01*
X472263D01*
X472256Y93286D01*
X472245Y93290D01*
X472227Y93293D01*
X472205Y93300D01*
X472179Y93308D01*
X472117Y93319D01*
X472045Y93333D01*
X471965Y93348D01*
X471877Y93355D01*
X471782Y93359D01*
X471779D01*
X471768D01*
X471750D01*
X471728D01*
X471702Y93355D01*
X471670D01*
X471633Y93351D01*
X471593Y93348D01*
X471506Y93337D01*
X471411Y93319D01*
X471317Y93297D01*
X471222Y93268D01*
X471218D01*
X471211Y93264D01*
X471200Y93257D01*
X471182Y93249D01*
X471138Y93228D01*
X471087Y93195D01*
X471029Y93155D01*
X470967Y93104D01*
X470913Y93046D01*
X470862Y92976D01*
Y92973D01*
X470858Y92966D01*
X470851Y92955D01*
X470843Y92940D01*
X470836Y92922D01*
X470825Y92900D01*
X470803Y92849D01*
X470782Y92784D01*
X470763Y92711D01*
X470749Y92631D01*
X470745Y92547D01*
Y92522D01*
X470749Y92500D01*
Y92474D01*
X470752Y92449D01*
X470767Y92383D01*
X470785Y92307D01*
X470814Y92230D01*
X470854Y92150D01*
X470876Y92110D01*
X470905Y92074D01*
X470909Y92070D01*
X470913Y92067D01*
X470923Y92056D01*
X470934Y92041D01*
X470953Y92026D01*
X470974Y92008D01*
X470996Y91986D01*
X471025Y91968D01*
X471058Y91946D01*
X471095Y91921D01*
X471131Y91899D01*
X471175Y91877D01*
X471222Y91859D01*
X471273Y91841D01*
X471327Y91823D01*
X471386Y91808D01*
X471302Y91473D01*
X471298D01*
X471284Y91477D01*
X471262Y91484D01*
X471233Y91495D01*
X471200Y91506D01*
X471160Y91521D01*
X471116Y91539D01*
X471069Y91561D01*
X470967Y91611D01*
X470865Y91677D01*
X470814Y91717D01*
X470763Y91757D01*
X470720Y91801D01*
X470676Y91852D01*
X470672Y91855D01*
X470665Y91863D01*
X470658Y91881D01*
X470643Y91899D01*
X470625Y91928D01*
X470607Y91957D01*
X470589Y91997D01*
X470570Y92037D01*
X470548Y92085D01*
X470530Y92136D01*
X470512Y92190D01*
X470494Y92248D01*
X470479Y92310D01*
X470472Y92376D01*
X470465Y92445D01*
X470461Y92518D01*
Y92558D01*
X470465Y92587D01*
Y92620D01*
X470469Y92660D01*
X470476Y92703D01*
X470483Y92754D01*
X470501Y92860D01*
X470530Y92969D01*
X470570Y93078D01*
X470596Y93129D01*
X470625Y93180D01*
X470629Y93184D01*
X470632Y93191D01*
X470643Y93206D01*
X470658Y93220D01*
X470672Y93242D01*
X470694Y93268D01*
X470720Y93297D01*
X470749Y93326D01*
X470782Y93355D01*
X470814Y93388D01*
X470898Y93453D01*
X470996Y93515D01*
X471105Y93570D01*
X471109D01*
X471120Y93577D01*
X471138Y93581D01*
X471160Y93592D01*
X471189Y93599D01*
X471226Y93610D01*
X471266Y93624D01*
X471309Y93635D01*
X471357Y93646D01*
X471411Y93661D01*
X471524Y93679D01*
X471652Y93694D01*
X471782Y93701D01*
X471786D01*
X471801D01*
X471823D01*
X471848Y93697D01*
D02*
G37*
G36*
X472401Y90949D02*
X472409Y90942D01*
X472412Y90927D01*
X472423Y90909D01*
X472434Y90887D01*
X472449Y90862D01*
X472485Y90800D01*
X472525Y90727D01*
X472576Y90654D01*
X472634Y90578D01*
X472696Y90501D01*
X472700Y90498D01*
X472703Y90494D01*
X472714Y90483D01*
X472725Y90469D01*
X472762Y90436D01*
X472805Y90392D01*
X472856Y90348D01*
X472915Y90301D01*
X472973Y90261D01*
X473035Y90225D01*
Y90024D01*
X470505D01*
Y90334D01*
X472474D01*
X472470Y90338D01*
X472456Y90356D01*
X472434Y90377D01*
X472409Y90414D01*
X472376Y90454D01*
X472339Y90505D01*
X472299Y90563D01*
X472259Y90629D01*
Y90632D01*
X472256Y90636D01*
X472241Y90658D01*
X472223Y90694D01*
X472201Y90738D01*
X472176Y90789D01*
X472150Y90843D01*
X472125Y90898D01*
X472103Y90953D01*
X472401D01*
Y90949D01*
D02*
G37*
G36*
X471211Y88918D02*
X471207D01*
X471200Y88914D01*
X471185Y88911D01*
X471167Y88907D01*
X471145Y88903D01*
X471120Y88896D01*
X471065Y88878D01*
X471000Y88852D01*
X470938Y88820D01*
X470880Y88783D01*
X470829Y88740D01*
X470825Y88732D01*
X470811Y88718D01*
X470792Y88689D01*
X470774Y88652D01*
X470752Y88608D01*
X470734Y88554D01*
X470720Y88492D01*
X470716Y88427D01*
Y88405D01*
X470720Y88390D01*
X470723Y88350D01*
X470734Y88299D01*
X470752Y88241D01*
X470778Y88179D01*
X470814Y88117D01*
X470865Y88059D01*
X470872Y88052D01*
X470894Y88033D01*
X470927Y88011D01*
X470971Y87982D01*
X471025Y87953D01*
X471087Y87931D01*
X471160Y87913D01*
X471240Y87906D01*
X471244D01*
X471251D01*
X471262D01*
X471277Y87910D01*
X471317Y87913D01*
X471364Y87924D01*
X471422Y87939D01*
X471480Y87964D01*
X471539Y88001D01*
X471593Y88048D01*
X471600Y88055D01*
X471615Y88073D01*
X471637Y88103D01*
X471662Y88143D01*
X471688Y88194D01*
X471710Y88255D01*
X471724Y88325D01*
X471732Y88401D01*
Y88434D01*
X471728Y88459D01*
X471724Y88492D01*
X471717Y88528D01*
X471710Y88572D01*
X471699Y88619D01*
X471972Y88583D01*
Y88565D01*
X471968Y88550D01*
Y88503D01*
X471975Y88463D01*
X471983Y88416D01*
X471994Y88361D01*
X472012Y88299D01*
X472037Y88241D01*
X472070Y88179D01*
Y88175D01*
X472074Y88172D01*
X472088Y88153D01*
X472114Y88128D01*
X472147Y88099D01*
X472194Y88070D01*
X472248Y88044D01*
X472310Y88026D01*
X472347Y88019D01*
X472387D01*
X472390D01*
X472394D01*
X472416D01*
X472445Y88026D01*
X472485Y88033D01*
X472529Y88048D01*
X472576Y88066D01*
X472623Y88095D01*
X472667Y88135D01*
X472671Y88139D01*
X472685Y88157D01*
X472703Y88183D01*
X472725Y88215D01*
X472744Y88259D01*
X472762Y88310D01*
X472776Y88368D01*
X472780Y88434D01*
Y88463D01*
X472773Y88496D01*
X472765Y88539D01*
X472751Y88587D01*
X472732Y88634D01*
X472703Y88685D01*
X472667Y88732D01*
X472663Y88736D01*
X472645Y88750D01*
X472620Y88772D01*
X472583Y88798D01*
X472536Y88823D01*
X472478Y88849D01*
X472409Y88871D01*
X472329Y88885D01*
X472383Y89195D01*
X472387D01*
X472398Y89191D01*
X472412Y89187D01*
X472434Y89184D01*
X472460Y89176D01*
X472489Y89165D01*
X472558Y89144D01*
X472638Y89107D01*
X472718Y89064D01*
X472794Y89009D01*
X472864Y88940D01*
X472867Y88936D01*
X472871Y88929D01*
X472878Y88918D01*
X472889Y88903D01*
X472904Y88885D01*
X472918Y88860D01*
X472933Y88834D01*
X472951Y88801D01*
X472980Y88729D01*
X473009Y88645D01*
X473027Y88547D01*
X473035Y88496D01*
Y88405D01*
X473031Y88365D01*
X473024Y88317D01*
X473013Y88259D01*
X472995Y88194D01*
X472973Y88128D01*
X472944Y88063D01*
Y88059D01*
X472940Y88055D01*
X472929Y88033D01*
X472907Y88001D01*
X472882Y87964D01*
X472845Y87920D01*
X472805Y87877D01*
X472758Y87833D01*
X472703Y87797D01*
X472696Y87793D01*
X472678Y87782D01*
X472645Y87768D01*
X472605Y87749D01*
X472558Y87731D01*
X472503Y87717D01*
X472441Y87706D01*
X472379Y87702D01*
X472372D01*
X472350D01*
X472321Y87706D01*
X472281Y87713D01*
X472234Y87724D01*
X472183Y87742D01*
X472132Y87764D01*
X472081Y87793D01*
X472074Y87797D01*
X472059Y87808D01*
X472034Y87830D01*
X472005Y87859D01*
X471972Y87895D01*
X471935Y87939D01*
X471903Y87990D01*
X471870Y88052D01*
Y88048D01*
X471866Y88041D01*
X471863Y88030D01*
X471859Y88015D01*
X471844Y87975D01*
X471823Y87924D01*
X471793Y87866D01*
X471757Y87808D01*
X471710Y87753D01*
X471655Y87702D01*
X471648Y87699D01*
X471626Y87684D01*
X471590Y87662D01*
X471542Y87640D01*
X471484Y87618D01*
X471415Y87597D01*
X471335Y87582D01*
X471247Y87578D01*
X471244D01*
X471233D01*
X471215D01*
X471193Y87582D01*
X471164Y87586D01*
X471131Y87593D01*
X471095Y87600D01*
X471055Y87608D01*
X470967Y87637D01*
X470920Y87658D01*
X470876Y87680D01*
X470829Y87709D01*
X470782Y87742D01*
X470734Y87779D01*
X470690Y87822D01*
X470687Y87826D01*
X470680Y87833D01*
X470669Y87848D01*
X470654Y87866D01*
X470636Y87888D01*
X470618Y87917D01*
X470596Y87950D01*
X470578Y87990D01*
X470556Y88030D01*
X470534Y88077D01*
X470516Y88124D01*
X470498Y88179D01*
X470483Y88237D01*
X470472Y88299D01*
X470465Y88361D01*
X470461Y88430D01*
Y88463D01*
X470465Y88485D01*
X470469Y88514D01*
X470472Y88547D01*
X470479Y88583D01*
X470487Y88623D01*
X470508Y88710D01*
X470545Y88801D01*
X470567Y88849D01*
X470592Y88892D01*
X470625Y88936D01*
X470658Y88980D01*
X470661Y88983D01*
X470669Y88991D01*
X470680Y89002D01*
X470694Y89012D01*
X470712Y89031D01*
X470738Y89049D01*
X470763Y89071D01*
X470796Y89093D01*
X470832Y89114D01*
X470869Y89136D01*
X470956Y89176D01*
X471058Y89209D01*
X471113Y89220D01*
X471171Y89227D01*
X471211Y88918D01*
D02*
G37*
G36*
X544919Y69563D02*
X544955D01*
X544992Y69560D01*
X545039Y69556D01*
X545086Y69549D01*
X545192Y69531D01*
X545308Y69505D01*
X545425Y69469D01*
X545538Y69418D01*
X545541Y69414D01*
X545552Y69411D01*
X545567Y69403D01*
X545585Y69389D01*
X545611Y69374D01*
X545640Y69356D01*
X545705Y69309D01*
X545778Y69247D01*
X545851Y69174D01*
X545924Y69090D01*
X545985Y68992D01*
X545989Y68988D01*
X545993Y68977D01*
X546000Y68963D01*
X546011Y68945D01*
X546022Y68915D01*
X546033Y68886D01*
X546047Y68850D01*
X546062Y68810D01*
X546076Y68766D01*
X546091Y68719D01*
X546113Y68617D01*
X546131Y68501D01*
X546138Y68380D01*
Y68344D01*
X546135Y68318D01*
X546131Y68286D01*
X546127Y68246D01*
X546124Y68206D01*
X546113Y68158D01*
X546091Y68060D01*
X546058Y67951D01*
X546036Y67896D01*
X546011Y67845D01*
X545978Y67794D01*
X545945Y67743D01*
X545942Y67740D01*
X545938Y67732D01*
X545927Y67718D01*
X545909Y67700D01*
X545891Y67681D01*
X545865Y67656D01*
X545836Y67630D01*
X545807Y67601D01*
X545771Y67572D01*
X545727Y67543D01*
X545683Y67510D01*
X545636Y67481D01*
X545581Y67456D01*
X545527Y67427D01*
X545469Y67405D01*
X545403Y67383D01*
X545327Y67711D01*
X545330D01*
X545337Y67714D01*
X545352Y67721D01*
X545370Y67729D01*
X545392Y67736D01*
X545421Y67747D01*
X545479Y67776D01*
X545545Y67813D01*
X545611Y67856D01*
X545672Y67911D01*
X545727Y67969D01*
X545734Y67976D01*
X545749Y67998D01*
X545767Y68034D01*
X545792Y68082D01*
X545814Y68144D01*
X545836Y68213D01*
X545851Y68297D01*
X545854Y68388D01*
Y68417D01*
X545851Y68435D01*
Y68460D01*
X545847Y68489D01*
X545836Y68559D01*
X545822Y68635D01*
X545796Y68715D01*
X545760Y68799D01*
X545712Y68875D01*
Y68879D01*
X545705Y68883D01*
X545687Y68908D01*
X545658Y68941D01*
X545614Y68981D01*
X545560Y69028D01*
X545498Y69072D01*
X545421Y69112D01*
X545337Y69148D01*
X545334D01*
X545327Y69152D01*
X545316Y69156D01*
X545297Y69159D01*
X545276Y69167D01*
X545250Y69174D01*
X545188Y69185D01*
X545115Y69199D01*
X545035Y69214D01*
X544948Y69221D01*
X544853Y69225D01*
X544850D01*
X544839D01*
X544821D01*
X544799D01*
X544773Y69221D01*
X544740D01*
X544704Y69217D01*
X544664Y69214D01*
X544577Y69203D01*
X544482Y69185D01*
X544387Y69163D01*
X544293Y69134D01*
X544289D01*
X544282Y69130D01*
X544271Y69123D01*
X544253Y69116D01*
X544209Y69094D01*
X544158Y69061D01*
X544100Y69021D01*
X544038Y68970D01*
X543983Y68912D01*
X543932Y68843D01*
Y68839D01*
X543929Y68832D01*
X543922Y68821D01*
X543914Y68806D01*
X543907Y68788D01*
X543896Y68766D01*
X543874Y68715D01*
X543852Y68650D01*
X543834Y68577D01*
X543820Y68497D01*
X543816Y68413D01*
Y68388D01*
X543820Y68366D01*
Y68340D01*
X543823Y68315D01*
X543838Y68249D01*
X543856Y68173D01*
X543885Y68096D01*
X543925Y68016D01*
X543947Y67976D01*
X543976Y67940D01*
X543980Y67936D01*
X543983Y67933D01*
X543994Y67922D01*
X544005Y67907D01*
X544023Y67893D01*
X544045Y67874D01*
X544067Y67852D01*
X544096Y67834D01*
X544129Y67813D01*
X544165Y67787D01*
X544202Y67765D01*
X544245Y67743D01*
X544293Y67725D01*
X544344Y67707D01*
X544398Y67689D01*
X544457Y67674D01*
X544373Y67339D01*
X544369D01*
X544355Y67343D01*
X544333Y67350D01*
X544304Y67361D01*
X544271Y67372D01*
X544231Y67387D01*
X544187Y67405D01*
X544140Y67427D01*
X544038Y67478D01*
X543936Y67543D01*
X543885Y67583D01*
X543834Y67623D01*
X543790Y67667D01*
X543747Y67718D01*
X543743Y67721D01*
X543736Y67729D01*
X543729Y67747D01*
X543714Y67765D01*
X543696Y67794D01*
X543678Y67823D01*
X543659Y67864D01*
X543641Y67904D01*
X543619Y67951D01*
X543601Y68002D01*
X543583Y68056D01*
X543565Y68115D01*
X543550Y68177D01*
X543543Y68242D01*
X543536Y68311D01*
X543532Y68384D01*
Y68424D01*
X543536Y68453D01*
Y68486D01*
X543539Y68526D01*
X543547Y68570D01*
X543554Y68621D01*
X543572Y68726D01*
X543601Y68835D01*
X543641Y68945D01*
X543667Y68995D01*
X543696Y69046D01*
X543700Y69050D01*
X543703Y69057D01*
X543714Y69072D01*
X543729Y69086D01*
X543743Y69108D01*
X543765Y69134D01*
X543790Y69163D01*
X543820Y69192D01*
X543852Y69221D01*
X543885Y69254D01*
X543969Y69319D01*
X544067Y69381D01*
X544176Y69436D01*
X544180D01*
X544191Y69443D01*
X544209Y69447D01*
X544231Y69458D01*
X544260Y69465D01*
X544296Y69476D01*
X544337Y69490D01*
X544380Y69502D01*
X544427Y69512D01*
X544482Y69527D01*
X544595Y69545D01*
X544722Y69560D01*
X544853Y69567D01*
X544857D01*
X544872D01*
X544893D01*
X544919Y69563D01*
D02*
G37*
G36*
X545472Y66815D02*
X545479Y66808D01*
X545483Y66793D01*
X545494Y66775D01*
X545505Y66753D01*
X545519Y66728D01*
X545556Y66666D01*
X545596Y66593D01*
X545647Y66520D01*
X545705Y66444D01*
X545767Y66367D01*
X545771Y66364D01*
X545774Y66360D01*
X545785Y66349D01*
X545796Y66335D01*
X545832Y66302D01*
X545876Y66258D01*
X545927Y66215D01*
X545985Y66167D01*
X546044Y66127D01*
X546105Y66091D01*
Y65891D01*
X543576D01*
Y66200D01*
X545545D01*
X545541Y66204D01*
X545527Y66222D01*
X545505Y66244D01*
X545479Y66280D01*
X545447Y66320D01*
X545410Y66371D01*
X545370Y66429D01*
X545330Y66495D01*
Y66499D01*
X545327Y66502D01*
X545312Y66524D01*
X545294Y66560D01*
X545272Y66604D01*
X545247Y66655D01*
X545221Y66710D01*
X545195Y66764D01*
X545174Y66819D01*
X545472D01*
Y66815D01*
D02*
G37*
G36*
X544260Y64773D02*
X544256D01*
X544249D01*
X544238Y64770D01*
X544220Y64766D01*
X544180Y64755D01*
X544125Y64740D01*
X544071Y64719D01*
X544009Y64689D01*
X543954Y64653D01*
X543903Y64609D01*
X543900Y64602D01*
X543885Y64587D01*
X543867Y64558D01*
X543845Y64518D01*
X543823Y64475D01*
X543805Y64420D01*
X543790Y64358D01*
X543787Y64289D01*
Y64267D01*
X543790Y64253D01*
X543794Y64209D01*
X543809Y64158D01*
X543827Y64096D01*
X543856Y64034D01*
X543900Y63969D01*
X543925Y63939D01*
X543954Y63910D01*
X543958Y63907D01*
X543962Y63903D01*
X543972Y63896D01*
X543983Y63885D01*
X544023Y63859D01*
X544074Y63830D01*
X544136Y63805D01*
X544213Y63779D01*
X544304Y63761D01*
X544351Y63754D01*
X544402D01*
X544406D01*
X544413D01*
X544427D01*
X544446Y63757D01*
X544467D01*
X544493Y63761D01*
X544551Y63772D01*
X544620Y63790D01*
X544690Y63816D01*
X544755Y63852D01*
X544817Y63903D01*
X544821D01*
X544824Y63910D01*
X544842Y63929D01*
X544868Y63961D01*
X544897Y64005D01*
X544922Y64063D01*
X544948Y64129D01*
X544966Y64205D01*
X544974Y64249D01*
Y64318D01*
X544970Y64347D01*
X544966Y64384D01*
X544955Y64427D01*
X544944Y64471D01*
X544926Y64518D01*
X544904Y64566D01*
X544901Y64569D01*
X544893Y64584D01*
X544875Y64606D01*
X544857Y64635D01*
X544832Y64664D01*
X544799Y64693D01*
X544766Y64726D01*
X544726Y64751D01*
X544766Y65043D01*
X546062Y64799D01*
Y63546D01*
X545767D01*
Y64555D01*
X545086Y64689D01*
X545090Y64686D01*
X545094Y64679D01*
X545101Y64667D01*
X545112Y64649D01*
X545123Y64627D01*
X545137Y64602D01*
X545166Y64544D01*
X545195Y64471D01*
X545221Y64391D01*
X545239Y64303D01*
X545247Y64260D01*
Y64180D01*
X545243Y64158D01*
X545239Y64129D01*
X545236Y64096D01*
X545228Y64060D01*
X545217Y64020D01*
X545192Y63932D01*
X545174Y63885D01*
X545148Y63838D01*
X545123Y63790D01*
X545094Y63743D01*
X545057Y63699D01*
X545017Y63656D01*
X545014Y63652D01*
X545006Y63645D01*
X544995Y63634D01*
X544977Y63619D01*
X544952Y63601D01*
X544926Y63583D01*
X544893Y63561D01*
X544857Y63539D01*
X544817Y63521D01*
X544773Y63499D01*
X544722Y63481D01*
X544671Y63463D01*
X544617Y63448D01*
X544555Y63437D01*
X544493Y63430D01*
X544427Y63426D01*
X544424D01*
X544413D01*
X544395D01*
X544369Y63430D01*
X544340Y63434D01*
X544307Y63437D01*
X544267Y63445D01*
X544227Y63452D01*
X544133Y63474D01*
X544034Y63510D01*
X543983Y63532D01*
X543936Y63561D01*
X543885Y63590D01*
X543838Y63626D01*
X543834Y63630D01*
X543823Y63637D01*
X543809Y63652D01*
X543790Y63670D01*
X543769Y63696D01*
X543740Y63725D01*
X543714Y63761D01*
X543685Y63801D01*
X543656Y63845D01*
X543630Y63896D01*
X543605Y63951D01*
X543579Y64009D01*
X543561Y64071D01*
X543547Y64140D01*
X543536Y64213D01*
X543532Y64289D01*
Y64322D01*
X543536Y64347D01*
X543539Y64376D01*
X543543Y64409D01*
X543547Y64449D01*
X543558Y64489D01*
X543579Y64580D01*
X543612Y64671D01*
X543634Y64719D01*
X543659Y64766D01*
X543689Y64810D01*
X543721Y64853D01*
X543725Y64857D01*
X543729Y64864D01*
X543743Y64871D01*
X543758Y64886D01*
X543776Y64904D01*
X543798Y64922D01*
X543827Y64944D01*
X543860Y64962D01*
X543892Y64984D01*
X543932Y65006D01*
X544020Y65046D01*
X544122Y65079D01*
X544176Y65090D01*
X544235Y65097D01*
X544260Y64773D01*
D02*
G37*
G36*
X532754Y69563D02*
X532790D01*
X532826Y69560D01*
X532874Y69556D01*
X532921Y69549D01*
X533027Y69531D01*
X533143Y69505D01*
X533259Y69469D01*
X533372Y69418D01*
X533376Y69414D01*
X533387Y69411D01*
X533401Y69403D01*
X533420Y69389D01*
X533445Y69374D01*
X533474Y69356D01*
X533540Y69309D01*
X533613Y69247D01*
X533685Y69174D01*
X533758Y69090D01*
X533820Y68992D01*
X533824Y68988D01*
X533827Y68977D01*
X533835Y68963D01*
X533846Y68945D01*
X533856Y68915D01*
X533867Y68886D01*
X533882Y68850D01*
X533896Y68810D01*
X533911Y68766D01*
X533926Y68719D01*
X533947Y68617D01*
X533966Y68501D01*
X533973Y68380D01*
Y68344D01*
X533969Y68318D01*
X533966Y68286D01*
X533962Y68246D01*
X533958Y68206D01*
X533947Y68158D01*
X533926Y68060D01*
X533893Y67951D01*
X533871Y67896D01*
X533846Y67845D01*
X533813Y67794D01*
X533780Y67743D01*
X533776Y67740D01*
X533773Y67732D01*
X533762Y67718D01*
X533744Y67700D01*
X533725Y67681D01*
X533700Y67656D01*
X533671Y67630D01*
X533642Y67601D01*
X533605Y67572D01*
X533562Y67543D01*
X533518Y67510D01*
X533471Y67481D01*
X533416Y67456D01*
X533361Y67427D01*
X533303Y67405D01*
X533238Y67383D01*
X533161Y67711D01*
X533165D01*
X533172Y67714D01*
X533187Y67721D01*
X533205Y67729D01*
X533227Y67736D01*
X533256Y67747D01*
X533314Y67776D01*
X533380Y67813D01*
X533445Y67856D01*
X533507Y67911D01*
X533562Y67969D01*
X533569Y67976D01*
X533583Y67998D01*
X533602Y68034D01*
X533627Y68082D01*
X533649Y68144D01*
X533671Y68213D01*
X533685Y68297D01*
X533689Y68388D01*
Y68417D01*
X533685Y68435D01*
Y68460D01*
X533682Y68489D01*
X533671Y68559D01*
X533656Y68635D01*
X533631Y68715D01*
X533594Y68799D01*
X533547Y68875D01*
Y68879D01*
X533540Y68883D01*
X533522Y68908D01*
X533492Y68941D01*
X533449Y68981D01*
X533394Y69028D01*
X533332Y69072D01*
X533256Y69112D01*
X533172Y69148D01*
X533169D01*
X533161Y69152D01*
X533150Y69156D01*
X533132Y69159D01*
X533110Y69167D01*
X533085Y69174D01*
X533023Y69185D01*
X532950Y69199D01*
X532870Y69214D01*
X532783Y69221D01*
X532688Y69225D01*
X532684D01*
X532673D01*
X532655D01*
X532633D01*
X532608Y69221D01*
X532575D01*
X532539Y69217D01*
X532499Y69214D01*
X532411Y69203D01*
X532317Y69185D01*
X532222Y69163D01*
X532127Y69134D01*
X532124D01*
X532117Y69130D01*
X532106Y69123D01*
X532087Y69116D01*
X532044Y69094D01*
X531993Y69061D01*
X531934Y69021D01*
X531873Y68970D01*
X531818Y68912D01*
X531767Y68843D01*
Y68839D01*
X531763Y68832D01*
X531756Y68821D01*
X531749Y68806D01*
X531742Y68788D01*
X531731Y68766D01*
X531709Y68715D01*
X531687Y68650D01*
X531669Y68577D01*
X531654Y68497D01*
X531651Y68413D01*
Y68388D01*
X531654Y68366D01*
Y68340D01*
X531658Y68315D01*
X531672Y68249D01*
X531691Y68173D01*
X531720Y68096D01*
X531760Y68016D01*
X531782Y67976D01*
X531811Y67940D01*
X531814Y67936D01*
X531818Y67933D01*
X531829Y67922D01*
X531840Y67907D01*
X531858Y67893D01*
X531880Y67874D01*
X531902Y67852D01*
X531931Y67834D01*
X531964Y67813D01*
X532000Y67787D01*
X532036Y67765D01*
X532080Y67743D01*
X532127Y67725D01*
X532178Y67707D01*
X532233Y67689D01*
X532291Y67674D01*
X532207Y67339D01*
X532204D01*
X532189Y67343D01*
X532167Y67350D01*
X532138Y67361D01*
X532106Y67372D01*
X532066Y67387D01*
X532022Y67405D01*
X531975Y67427D01*
X531873Y67478D01*
X531771Y67543D01*
X531720Y67583D01*
X531669Y67623D01*
X531625Y67667D01*
X531581Y67718D01*
X531578Y67721D01*
X531570Y67729D01*
X531563Y67747D01*
X531549Y67765D01*
X531531Y67794D01*
X531512Y67823D01*
X531494Y67864D01*
X531476Y67904D01*
X531454Y67951D01*
X531436Y68002D01*
X531418Y68056D01*
X531399Y68115D01*
X531385Y68177D01*
X531378Y68242D01*
X531370Y68311D01*
X531367Y68384D01*
Y68424D01*
X531370Y68453D01*
Y68486D01*
X531374Y68526D01*
X531381Y68570D01*
X531389Y68621D01*
X531407Y68726D01*
X531436Y68835D01*
X531476Y68945D01*
X531501Y68995D01*
X531531Y69046D01*
X531534Y69050D01*
X531538Y69057D01*
X531549Y69072D01*
X531563Y69086D01*
X531578Y69108D01*
X531600Y69134D01*
X531625Y69163D01*
X531654Y69192D01*
X531687Y69221D01*
X531720Y69254D01*
X531804Y69319D01*
X531902Y69381D01*
X532011Y69436D01*
X532015D01*
X532025Y69443D01*
X532044Y69447D01*
X532066Y69458D01*
X532095Y69465D01*
X532131Y69476D01*
X532171Y69490D01*
X532215Y69502D01*
X532262Y69512D01*
X532317Y69527D01*
X532430Y69545D01*
X532557Y69560D01*
X532688Y69567D01*
X532692D01*
X532706D01*
X532728D01*
X532754Y69563D01*
D02*
G37*
G36*
X533307Y66815D02*
X533314Y66808D01*
X533318Y66793D01*
X533329Y66775D01*
X533340Y66753D01*
X533354Y66728D01*
X533391Y66666D01*
X533431Y66593D01*
X533482Y66520D01*
X533540Y66444D01*
X533602Y66367D01*
X533605Y66364D01*
X533609Y66360D01*
X533620Y66349D01*
X533631Y66335D01*
X533667Y66302D01*
X533711Y66258D01*
X533762Y66215D01*
X533820Y66167D01*
X533878Y66127D01*
X533940Y66091D01*
Y65891D01*
X531410D01*
Y66200D01*
X533380D01*
X533376Y66204D01*
X533361Y66222D01*
X533340Y66244D01*
X533314Y66280D01*
X533281Y66320D01*
X533245Y66371D01*
X533205Y66429D01*
X533165Y66495D01*
Y66499D01*
X533161Y66502D01*
X533147Y66524D01*
X533128Y66560D01*
X533107Y66604D01*
X533081Y66655D01*
X533056Y66710D01*
X533030Y66764D01*
X533008Y66819D01*
X533307D01*
Y66815D01*
D02*
G37*
G36*
X533929Y64049D02*
Y63798D01*
X532299D01*
Y63455D01*
X532015D01*
Y63798D01*
X531410D01*
Y64107D01*
X532015D01*
Y65203D01*
X532299D01*
X533929Y64049D01*
D02*
G37*
G36*
X119949Y282060D02*
X119982D01*
X120022Y282056D01*
X120066Y282049D01*
X120117Y282042D01*
X120222Y282023D01*
X120331Y281994D01*
X120441Y281954D01*
X120492Y281929D01*
X120543Y281900D01*
X120546Y281896D01*
X120553Y281892D01*
X120568Y281881D01*
X120583Y281867D01*
X120604Y281852D01*
X120630Y281831D01*
X120659Y281805D01*
X120688Y281776D01*
X120717Y281743D01*
X120750Y281710D01*
X120816Y281627D01*
X120877Y281528D01*
X120932Y281419D01*
Y281416D01*
X120939Y281405D01*
X120943Y281386D01*
X120954Y281365D01*
X120961Y281335D01*
X120972Y281299D01*
X120987Y281259D01*
X120998Y281215D01*
X121008Y281168D01*
X121023Y281113D01*
X121041Y281001D01*
X121056Y280873D01*
X121063Y280742D01*
Y280738D01*
Y280724D01*
Y280702D01*
X121059Y280677D01*
Y280640D01*
X121056Y280604D01*
X121052Y280557D01*
X121045Y280509D01*
X121027Y280404D01*
X121001Y280287D01*
X120965Y280171D01*
X120914Y280058D01*
X120910Y280054D01*
X120906Y280043D01*
X120899Y280029D01*
X120885Y280011D01*
X120870Y279985D01*
X120852Y279956D01*
X120805Y279890D01*
X120743Y279818D01*
X120670Y279745D01*
X120586Y279672D01*
X120488Y279610D01*
X120484Y279606D01*
X120473Y279603D01*
X120459Y279595D01*
X120441Y279585D01*
X120412Y279574D01*
X120382Y279563D01*
X120346Y279548D01*
X120306Y279534D01*
X120262Y279519D01*
X120215Y279504D01*
X120113Y279483D01*
X119997Y279465D01*
X119876Y279457D01*
X119840D01*
X119815Y279461D01*
X119782Y279465D01*
X119742Y279468D01*
X119702Y279472D01*
X119654Y279483D01*
X119556Y279504D01*
X119447Y279537D01*
X119392Y279559D01*
X119341Y279585D01*
X119290Y279617D01*
X119239Y279650D01*
X119236Y279654D01*
X119228Y279657D01*
X119214Y279668D01*
X119196Y279686D01*
X119177Y279705D01*
X119152Y279730D01*
X119127Y279759D01*
X119097Y279788D01*
X119068Y279825D01*
X119039Y279869D01*
X119006Y279912D01*
X118977Y279960D01*
X118952Y280014D01*
X118923Y280069D01*
X118901Y280127D01*
X118879Y280192D01*
X119207Y280269D01*
Y280265D01*
X119210Y280258D01*
X119218Y280243D01*
X119225Y280225D01*
X119232Y280203D01*
X119243Y280174D01*
X119272Y280116D01*
X119309Y280050D01*
X119352Y279985D01*
X119407Y279923D01*
X119465Y279869D01*
X119472Y279861D01*
X119494Y279847D01*
X119531Y279829D01*
X119578Y279803D01*
X119640Y279781D01*
X119709Y279759D01*
X119793Y279745D01*
X119884Y279741D01*
X119913D01*
X119931Y279745D01*
X119957D01*
X119986Y279748D01*
X120055Y279759D01*
X120131Y279774D01*
X120211Y279799D01*
X120295Y279836D01*
X120371Y279883D01*
X120375D01*
X120379Y279890D01*
X120404Y279909D01*
X120437Y279938D01*
X120477Y279981D01*
X120524Y280036D01*
X120568Y280098D01*
X120608Y280174D01*
X120644Y280258D01*
Y280262D01*
X120648Y280269D01*
X120652Y280280D01*
X120655Y280298D01*
X120663Y280320D01*
X120670Y280345D01*
X120681Y280407D01*
X120695Y280480D01*
X120710Y280560D01*
X120717Y280647D01*
X120721Y280742D01*
Y280746D01*
Y280757D01*
Y280775D01*
Y280797D01*
X120717Y280822D01*
Y280855D01*
X120714Y280891D01*
X120710Y280931D01*
X120699Y281019D01*
X120681Y281113D01*
X120659Y281208D01*
X120630Y281303D01*
Y281306D01*
X120626Y281314D01*
X120619Y281325D01*
X120612Y281343D01*
X120590Y281386D01*
X120557Y281437D01*
X120517Y281496D01*
X120466Y281557D01*
X120408Y281612D01*
X120339Y281663D01*
X120335D01*
X120328Y281667D01*
X120317Y281674D01*
X120302Y281681D01*
X120284Y281688D01*
X120262Y281699D01*
X120211Y281721D01*
X120146Y281743D01*
X120073Y281761D01*
X119993Y281776D01*
X119909Y281780D01*
X119884D01*
X119862Y281776D01*
X119836D01*
X119811Y281772D01*
X119745Y281758D01*
X119669Y281739D01*
X119592Y281710D01*
X119512Y281670D01*
X119472Y281648D01*
X119436Y281619D01*
X119432Y281616D01*
X119429Y281612D01*
X119418Y281601D01*
X119403Y281590D01*
X119389Y281572D01*
X119370Y281550D01*
X119349Y281528D01*
X119330Y281499D01*
X119309Y281467D01*
X119283Y281430D01*
X119261Y281394D01*
X119239Y281350D01*
X119221Y281303D01*
X119203Y281252D01*
X119185Y281197D01*
X119170Y281139D01*
X118835Y281223D01*
Y281226D01*
X118839Y281241D01*
X118846Y281263D01*
X118857Y281292D01*
X118868Y281325D01*
X118883Y281365D01*
X118901Y281408D01*
X118923Y281456D01*
X118974Y281557D01*
X119039Y281659D01*
X119079Y281710D01*
X119119Y281761D01*
X119163Y281805D01*
X119214Y281849D01*
X119218Y281852D01*
X119225Y281860D01*
X119243Y281867D01*
X119261Y281881D01*
X119290Y281900D01*
X119319Y281918D01*
X119360Y281936D01*
X119400Y281954D01*
X119447Y281976D01*
X119498Y281994D01*
X119552Y282013D01*
X119611Y282031D01*
X119673Y282045D01*
X119738Y282052D01*
X119807Y282060D01*
X119880Y282064D01*
X119920D01*
X119949Y282060D01*
D02*
G37*
G36*
X117696Y280050D02*
X117700Y280054D01*
X117718Y280069D01*
X117740Y280091D01*
X117776Y280116D01*
X117816Y280149D01*
X117867Y280185D01*
X117925Y280225D01*
X117991Y280265D01*
X117994D01*
X117998Y280269D01*
X118020Y280283D01*
X118056Y280302D01*
X118100Y280324D01*
X118151Y280349D01*
X118206Y280375D01*
X118260Y280400D01*
X118315Y280422D01*
Y280123D01*
X118311D01*
X118304Y280116D01*
X118289Y280112D01*
X118271Y280101D01*
X118249Y280091D01*
X118224Y280076D01*
X118162Y280040D01*
X118089Y280000D01*
X118016Y279949D01*
X117940Y279890D01*
X117864Y279829D01*
X117860Y279825D01*
X117856Y279821D01*
X117845Y279810D01*
X117831Y279799D01*
X117798Y279763D01*
X117754Y279719D01*
X117711Y279668D01*
X117663Y279610D01*
X117623Y279552D01*
X117587Y279490D01*
X117387D01*
Y282020D01*
X117696D01*
Y280050D01*
D02*
G37*
G36*
X115829Y282060D02*
X115861Y282056D01*
X115898Y282052D01*
X115938Y282045D01*
X115982Y282034D01*
X116080Y282009D01*
X116131Y281991D01*
X116178Y281972D01*
X116229Y281947D01*
X116280Y281918D01*
X116327Y281885D01*
X116371Y281845D01*
X116375Y281841D01*
X116382Y281834D01*
X116393Y281823D01*
X116408Y281805D01*
X116422Y281783D01*
X116444Y281758D01*
X116462Y281729D01*
X116484Y281692D01*
X116506Y281656D01*
X116524Y281612D01*
X116560Y281521D01*
X116575Y281467D01*
X116586Y281412D01*
X116593Y281354D01*
X116597Y281295D01*
Y281292D01*
Y281284D01*
Y281270D01*
X116593Y281255D01*
Y281234D01*
X116589Y281208D01*
X116582Y281150D01*
X116568Y281084D01*
X116546Y281019D01*
X116513Y280950D01*
X116473Y280884D01*
Y280880D01*
X116466Y280877D01*
X116451Y280859D01*
X116422Y280830D01*
X116382Y280793D01*
X116331Y280757D01*
X116269Y280717D01*
X116200Y280684D01*
X116116Y280658D01*
X116120D01*
X116124Y280655D01*
X116135Y280651D01*
X116149Y280644D01*
X116182Y280629D01*
X116226Y280608D01*
X116273Y280578D01*
X116320Y280542D01*
X116364Y280502D01*
X116404Y280458D01*
X116408Y280451D01*
X116418Y280436D01*
X116433Y280407D01*
X116447Y280371D01*
X116466Y280324D01*
X116480Y280269D01*
X116491Y280207D01*
X116495Y280141D01*
Y280138D01*
Y280131D01*
Y280116D01*
X116491Y280094D01*
X116488Y280072D01*
X116484Y280043D01*
X116469Y279981D01*
X116447Y279909D01*
X116411Y279832D01*
X116389Y279792D01*
X116364Y279752D01*
X116331Y279716D01*
X116298Y279679D01*
X116295Y279676D01*
X116287Y279672D01*
X116276Y279661D01*
X116262Y279650D01*
X116244Y279636D01*
X116218Y279621D01*
X116189Y279603D01*
X116160Y279585D01*
X116124Y279566D01*
X116084Y279548D01*
X116040Y279534D01*
X115992Y279519D01*
X115891Y279497D01*
X115832Y279494D01*
X115774Y279490D01*
X115741D01*
X115719Y279494D01*
X115690Y279497D01*
X115658Y279501D01*
X115621Y279504D01*
X115585Y279516D01*
X115498Y279537D01*
X115410Y279570D01*
X115366Y279592D01*
X115323Y279617D01*
X115283Y279650D01*
X115243Y279683D01*
X115239Y279686D01*
X115235Y279690D01*
X115225Y279701D01*
X115210Y279716D01*
X115195Y279737D01*
X115177Y279759D01*
X115141Y279814D01*
X115104Y279883D01*
X115072Y279963D01*
X115046Y280054D01*
X115042Y280101D01*
X115039Y280152D01*
Y280156D01*
Y280160D01*
Y280182D01*
X115042Y280214D01*
X115050Y280254D01*
X115061Y280305D01*
X115079Y280356D01*
X115101Y280407D01*
X115134Y280458D01*
X115137Y280466D01*
X115152Y280480D01*
X115173Y280502D01*
X115203Y280531D01*
X115243Y280564D01*
X115290Y280596D01*
X115345Y280629D01*
X115410Y280658D01*
X115407D01*
X115399Y280662D01*
X115388Y280666D01*
X115374Y280673D01*
X115330Y280691D01*
X115279Y280717D01*
X115225Y280753D01*
X115166Y280793D01*
X115112Y280844D01*
X115061Y280902D01*
Y280906D01*
X115057Y280910D01*
X115042Y280931D01*
X115021Y280968D01*
X114999Y281015D01*
X114977Y281073D01*
X114955Y281142D01*
X114941Y281219D01*
X114937Y281303D01*
Y281306D01*
Y281317D01*
Y281335D01*
X114941Y281357D01*
X114944Y281383D01*
X114948Y281416D01*
X114955Y281452D01*
X114966Y281492D01*
X114991Y281576D01*
X115010Y281623D01*
X115035Y281667D01*
X115061Y281714D01*
X115090Y281758D01*
X115126Y281801D01*
X115166Y281845D01*
X115170Y281849D01*
X115177Y281856D01*
X115188Y281867D01*
X115206Y281878D01*
X115232Y281896D01*
X115257Y281914D01*
X115290Y281932D01*
X115326Y281954D01*
X115366Y281976D01*
X115414Y281994D01*
X115465Y282013D01*
X115516Y282031D01*
X115574Y282042D01*
X115636Y282052D01*
X115698Y282060D01*
X115767Y282064D01*
X115803D01*
X115829Y282060D01*
D02*
G37*
G36*
X81336Y286354D02*
X81365Y286350D01*
X81401Y286346D01*
X81441Y286339D01*
X81481Y286332D01*
X81576Y286306D01*
X81670Y286270D01*
X81718Y286248D01*
X81765Y286223D01*
X81809Y286190D01*
X81849Y286153D01*
X81853Y286150D01*
X81860Y286146D01*
X81867Y286132D01*
X81882Y286117D01*
X81900Y286099D01*
X81918Y286073D01*
X81936Y286048D01*
X81958Y286015D01*
X81994Y285946D01*
X82031Y285858D01*
X82045Y285815D01*
X82053Y285764D01*
X82060Y285713D01*
X82064Y285658D01*
Y285651D01*
Y285633D01*
X82060Y285604D01*
X82056Y285564D01*
X82049Y285520D01*
X82034Y285469D01*
X82020Y285415D01*
X81998Y285360D01*
X81994Y285353D01*
X81987Y285334D01*
X81973Y285305D01*
X81951Y285265D01*
X81922Y285222D01*
X81885Y285167D01*
X81842Y285112D01*
X81791Y285051D01*
X81783Y285043D01*
X81765Y285021D01*
X81747Y285003D01*
X81729Y284985D01*
X81707Y284963D01*
X81678Y284934D01*
X81649Y284905D01*
X81612Y284872D01*
X81576Y284836D01*
X81532Y284796D01*
X81485Y284756D01*
X81434Y284708D01*
X81376Y284661D01*
X81317Y284610D01*
X81314Y284606D01*
X81306Y284599D01*
X81292Y284588D01*
X81274Y284574D01*
X81252Y284552D01*
X81226Y284530D01*
X81168Y284483D01*
X81106Y284428D01*
X81048Y284373D01*
X80997Y284326D01*
X80975Y284308D01*
X80957Y284290D01*
X80953Y284286D01*
X80942Y284275D01*
X80928Y284261D01*
X80910Y284239D01*
X80892Y284213D01*
X80870Y284188D01*
X80826Y284126D01*
X82067D01*
Y283827D01*
X80396D01*
Y283831D01*
Y283846D01*
Y283868D01*
X80400Y283897D01*
X80404Y283929D01*
X80411Y283966D01*
X80418Y284002D01*
X80433Y284042D01*
Y284046D01*
X80436Y284050D01*
X80444Y284071D01*
X80458Y284104D01*
X80480Y284148D01*
X80509Y284199D01*
X80546Y284257D01*
X80586Y284315D01*
X80637Y284377D01*
Y284381D01*
X80644Y284384D01*
X80662Y284406D01*
X80695Y284439D01*
X80742Y284486D01*
X80797Y284541D01*
X80866Y284606D01*
X80950Y284679D01*
X81041Y284756D01*
X81044Y284759D01*
X81059Y284770D01*
X81081Y284788D01*
X81106Y284810D01*
X81139Y284839D01*
X81179Y284872D01*
X81219Y284909D01*
X81266Y284948D01*
X81358Y285036D01*
X81449Y285123D01*
X81492Y285167D01*
X81532Y285211D01*
X81569Y285251D01*
X81598Y285291D01*
Y285294D01*
X81605Y285298D01*
X81612Y285309D01*
X81620Y285324D01*
X81645Y285364D01*
X81674Y285411D01*
X81700Y285469D01*
X81725Y285531D01*
X81740Y285600D01*
X81747Y285666D01*
Y285669D01*
Y285673D01*
X81743Y285695D01*
X81740Y285731D01*
X81729Y285771D01*
X81714Y285822D01*
X81689Y285873D01*
X81656Y285924D01*
X81612Y285975D01*
X81605Y285982D01*
X81587Y285997D01*
X81561Y286015D01*
X81521Y286040D01*
X81470Y286062D01*
X81412Y286084D01*
X81343Y286099D01*
X81266Y286102D01*
X81245D01*
X81230Y286099D01*
X81186Y286095D01*
X81135Y286084D01*
X81081Y286070D01*
X81019Y286044D01*
X80961Y286011D01*
X80906Y285968D01*
X80899Y285961D01*
X80884Y285942D01*
X80862Y285913D01*
X80841Y285870D01*
X80815Y285819D01*
X80793Y285753D01*
X80779Y285680D01*
X80771Y285596D01*
X80455Y285629D01*
Y285633D01*
X80458Y285644D01*
Y285662D01*
X80462Y285687D01*
X80469Y285717D01*
X80477Y285749D01*
X80488Y285789D01*
X80498Y285829D01*
X80528Y285917D01*
X80571Y286004D01*
X80597Y286048D01*
X80629Y286091D01*
X80662Y286132D01*
X80699Y286168D01*
X80702Y286172D01*
X80709Y286175D01*
X80721Y286186D01*
X80739Y286197D01*
X80761Y286212D01*
X80786Y286226D01*
X80815Y286244D01*
X80852Y286263D01*
X80892Y286281D01*
X80935Y286299D01*
X80983Y286314D01*
X81033Y286328D01*
X81088Y286339D01*
X81146Y286350D01*
X81208Y286354D01*
X81274Y286357D01*
X81310D01*
X81336Y286354D01*
D02*
G37*
G36*
X79228Y286343D02*
X79261D01*
X79337Y286339D01*
X79417Y286328D01*
X79505Y286317D01*
X79585Y286299D01*
X79625Y286288D01*
X79658Y286277D01*
X79661D01*
X79665Y286274D01*
X79687Y286263D01*
X79720Y286248D01*
X79760Y286223D01*
X79803Y286190D01*
X79851Y286146D01*
X79894Y286095D01*
X79938Y286037D01*
Y286033D01*
X79941Y286030D01*
X79956Y286008D01*
X79971Y285971D01*
X79993Y285924D01*
X80011Y285870D01*
X80029Y285804D01*
X80040Y285735D01*
X80043Y285658D01*
Y285655D01*
Y285647D01*
Y285633D01*
X80040Y285615D01*
Y285589D01*
X80036Y285564D01*
X80022Y285502D01*
X80000Y285429D01*
X79971Y285353D01*
X79927Y285276D01*
X79898Y285240D01*
X79869Y285203D01*
X79865Y285200D01*
X79861Y285196D01*
X79851Y285185D01*
X79836Y285174D01*
X79818Y285160D01*
X79796Y285145D01*
X79767Y285127D01*
X79738Y285105D01*
X79701Y285087D01*
X79661Y285069D01*
X79618Y285047D01*
X79570Y285029D01*
X79516Y285014D01*
X79461Y284996D01*
X79399Y284985D01*
X79334Y284974D01*
X79341Y284970D01*
X79356Y284963D01*
X79377Y284948D01*
X79406Y284934D01*
X79472Y284894D01*
X79505Y284869D01*
X79534Y284847D01*
X79541Y284839D01*
X79559Y284821D01*
X79588Y284792D01*
X79625Y284756D01*
X79665Y284705D01*
X79712Y284650D01*
X79760Y284584D01*
X79811Y284512D01*
X80244Y283827D01*
X79829D01*
X79497Y284352D01*
Y284355D01*
X79490Y284363D01*
X79483Y284373D01*
X79472Y284388D01*
X79447Y284428D01*
X79414Y284479D01*
X79374Y284534D01*
X79334Y284592D01*
X79294Y284646D01*
X79257Y284697D01*
X79254Y284701D01*
X79243Y284716D01*
X79224Y284737D01*
X79199Y284763D01*
X79144Y284818D01*
X79115Y284843D01*
X79086Y284865D01*
X79083Y284869D01*
X79075Y284872D01*
X79061Y284879D01*
X79039Y284890D01*
X79017Y284901D01*
X78992Y284912D01*
X78933Y284930D01*
X78930D01*
X78922Y284934D01*
X78908D01*
X78890Y284938D01*
X78864Y284941D01*
X78835D01*
X78795Y284945D01*
X78365D01*
Y283827D01*
X78031D01*
Y286346D01*
X79199D01*
X79228Y286343D01*
D02*
G37*
%LPC*%
G36*
X547161Y190619D02*
X547158D01*
X547147D01*
X547132D01*
X547111D01*
X547081Y190615D01*
X547052D01*
X547016Y190611D01*
X546980Y190604D01*
X546896Y190593D01*
X546805Y190575D01*
X546714Y190550D01*
X546626Y190513D01*
X546623D01*
X546616Y190509D01*
X546605Y190502D01*
X546590Y190495D01*
X546546Y190470D01*
X546495Y190437D01*
X546437Y190393D01*
X546379Y190338D01*
X546321Y190277D01*
X546270Y190207D01*
Y190204D01*
X546262Y190200D01*
X546259Y190189D01*
X546248Y190171D01*
X546241Y190153D01*
X546230Y190131D01*
X546204Y190076D01*
X546182Y190011D01*
X546161Y189934D01*
X546146Y189847D01*
X546142Y189756D01*
Y189720D01*
X546146Y189694D01*
X546150Y189661D01*
X546157Y189625D01*
X546164Y189585D01*
X546175Y189541D01*
X546190Y189490D01*
X546204Y189443D01*
X546226Y189392D01*
X546251Y189337D01*
X546281Y189286D01*
X546317Y189235D01*
X546353Y189184D01*
X546401Y189137D01*
X546404Y189134D01*
X546412Y189126D01*
X546426Y189115D01*
X546448Y189101D01*
X546474Y189079D01*
X546506Y189061D01*
X546546Y189039D01*
X546590Y189017D01*
X546641Y188992D01*
X546699Y188970D01*
X546761Y188952D01*
X546830Y188933D01*
X546903Y188915D01*
X546983Y188904D01*
X547071Y188897D01*
X547161Y188893D01*
X547169D01*
X547183D01*
X547209D01*
X547242Y188897D01*
X547282Y188901D01*
X547329Y188908D01*
X547384Y188915D01*
X547438Y188923D01*
X547562Y188952D01*
X547624Y188970D01*
X547686Y188995D01*
X547748Y189021D01*
X547806Y189053D01*
X547864Y189090D01*
X547915Y189134D01*
X547919Y189137D01*
X547926Y189145D01*
X547940Y189159D01*
X547955Y189177D01*
X547977Y189203D01*
X547999Y189232D01*
X548021Y189265D01*
X548046Y189305D01*
X548071Y189345D01*
X548093Y189392D01*
X548115Y189443D01*
X548137Y189498D01*
X548152Y189559D01*
X548166Y189621D01*
X548173Y189687D01*
X548177Y189756D01*
Y189789D01*
X548173Y189822D01*
X548170Y189865D01*
X548163Y189920D01*
X548148Y189974D01*
X548133Y190036D01*
X548111Y190095D01*
X548108Y190087D01*
X548093Y190069D01*
X548075Y190036D01*
X548053Y189996D01*
X548032Y189945D01*
X548006Y189891D01*
X547984Y189829D01*
X547966Y189763D01*
X547726Y189847D01*
Y189851D01*
X547729Y189862D01*
X547733Y189876D01*
X547740Y189894D01*
X547748Y189920D01*
X547758Y189949D01*
X547784Y190015D01*
X547820Y190091D01*
X547860Y190171D01*
X547908Y190247D01*
X547966Y190324D01*
X547962Y190328D01*
X547955Y190338D01*
X547937Y190353D01*
X547915Y190371D01*
X547886Y190393D01*
X547853Y190419D01*
X547813Y190444D01*
X547766Y190473D01*
X547711Y190499D01*
X547649Y190524D01*
X547584Y190550D01*
X547515Y190571D01*
X547435Y190593D01*
X547351Y190608D01*
X547260Y190615D01*
X547161Y190619D01*
D02*
G37*
G36*
X548449Y208180D02*
X548413D01*
X548387Y208177D01*
X548354Y208173D01*
X548318Y208166D01*
X548278Y208159D01*
X548234Y208148D01*
X548183Y208133D01*
X548136Y208119D01*
X548085Y208097D01*
X548030Y208071D01*
X547979Y208042D01*
X547928Y208006D01*
X547878Y207969D01*
X547830Y207922D01*
X547826Y207918D01*
X547819Y207911D01*
X547808Y207897D01*
X547794Y207875D01*
X547772Y207849D01*
X547754Y207817D01*
X547732Y207776D01*
X547710Y207733D01*
X547684Y207682D01*
X547663Y207624D01*
X547645Y207562D01*
X547626Y207492D01*
X547608Y207420D01*
X547597Y207340D01*
X547590Y207252D01*
X547586Y207161D01*
Y207154D01*
Y207139D01*
Y207114D01*
X547590Y207081D01*
X547593Y207041D01*
X547601Y206994D01*
X547608Y206939D01*
X547615Y206885D01*
X547645Y206761D01*
X547663Y206699D01*
X547688Y206637D01*
X547714Y206575D01*
X547746Y206517D01*
X547783Y206459D01*
X547826Y206408D01*
X547830Y206404D01*
X547837Y206397D01*
X547852Y206382D01*
X547870Y206368D01*
X547896Y206346D01*
X547925Y206324D01*
X547958Y206302D01*
X547998Y206277D01*
X548038Y206251D01*
X548085Y206229D01*
X548136Y206208D01*
X548190Y206186D01*
X548252Y206171D01*
X548314Y206157D01*
X548380Y206149D01*
X548449Y206146D01*
X548482D01*
X548515Y206149D01*
X548558Y206153D01*
X548613Y206160D01*
X548667Y206175D01*
X548729Y206189D01*
X548787Y206211D01*
X548780Y206215D01*
X548762Y206229D01*
X548729Y206248D01*
X548689Y206270D01*
X548638Y206291D01*
X548584Y206317D01*
X548522Y206339D01*
X548456Y206357D01*
X548540Y206597D01*
X548544D01*
X548555Y206593D01*
X548569Y206590D01*
X548587Y206582D01*
X548613Y206575D01*
X548642Y206564D01*
X548707Y206539D01*
X548784Y206503D01*
X548864Y206462D01*
X548940Y206415D01*
X549017Y206357D01*
X549020Y206361D01*
X549031Y206368D01*
X549046Y206386D01*
X549064Y206408D01*
X549086Y206437D01*
X549111Y206470D01*
X549137Y206510D01*
X549166Y206557D01*
X549192Y206612D01*
X549217Y206674D01*
X549242Y206739D01*
X549264Y206808D01*
X549286Y206888D01*
X549301Y206972D01*
X549308Y207063D01*
X549312Y207161D01*
Y207165D01*
Y207176D01*
Y207190D01*
Y207212D01*
X549308Y207241D01*
Y207271D01*
X549304Y207307D01*
X549297Y207343D01*
X549286Y207427D01*
X549268Y207518D01*
X549242Y207609D01*
X549206Y207696D01*
Y207700D01*
X549202Y207707D01*
X549195Y207718D01*
X549188Y207733D01*
X549162Y207776D01*
X549130Y207827D01*
X549086Y207886D01*
X549031Y207944D01*
X548969Y208002D01*
X548900Y208053D01*
X548897D01*
X548893Y208060D01*
X548882Y208064D01*
X548864Y208075D01*
X548846Y208082D01*
X548824Y208093D01*
X548769Y208119D01*
X548704Y208140D01*
X548627Y208162D01*
X548540Y208177D01*
X548449Y208180D01*
D02*
G37*
G36*
X397736Y326709D02*
X397139D01*
X397113Y326706D01*
X397059Y326702D01*
X396997Y326698D01*
X396932Y326691D01*
X396866Y326680D01*
X396811Y326666D01*
X396804Y326662D01*
X396786Y326658D01*
X396761Y326647D01*
X396728Y326633D01*
X396691Y326611D01*
X396655Y326589D01*
X396619Y326564D01*
X396582Y326535D01*
X396579Y326527D01*
X396564Y326513D01*
X396542Y326487D01*
X396517Y326451D01*
X396487Y326404D01*
X396455Y326349D01*
X396426Y326287D01*
X396400Y326218D01*
Y326214D01*
X396396Y326207D01*
X396393Y326196D01*
X396389Y326182D01*
X396386Y326163D01*
X396378Y326138D01*
X396371Y326112D01*
X396364Y326083D01*
X396353Y326010D01*
X396342Y325927D01*
X396335Y325832D01*
X396331Y325730D01*
Y325727D01*
Y325712D01*
Y325694D01*
X396335Y325665D01*
Y325632D01*
X396338Y325596D01*
X396342Y325552D01*
X396345Y325508D01*
X396364Y325410D01*
X396386Y325308D01*
X396418Y325213D01*
X396440Y325166D01*
X396462Y325126D01*
Y325122D01*
X396469Y325115D01*
X396477Y325104D01*
X396484Y325090D01*
X396513Y325053D01*
X396549Y325009D01*
X396597Y324962D01*
X396651Y324915D01*
X396713Y324875D01*
X396779Y324842D01*
X396786Y324838D01*
X396804Y324835D01*
X396837Y324824D01*
X396884Y324813D01*
X396942Y324806D01*
X397015Y324795D01*
X397059Y324791D01*
X397106D01*
X397154Y324787D01*
X397736D01*
Y326709D01*
D02*
G37*
G36*
X231667Y60103D02*
X231645D01*
X231630Y60099D01*
X231590Y60092D01*
X231543Y60081D01*
X231488Y60059D01*
X231430Y60026D01*
X231401Y60004D01*
X231372Y59983D01*
X231347Y59953D01*
X231321Y59921D01*
Y59917D01*
X231314Y59910D01*
X231306Y59895D01*
X231295Y59877D01*
X231285Y59848D01*
X231270Y59815D01*
X231259Y59775D01*
X231245Y59728D01*
X231230Y59673D01*
X231216Y59611D01*
X231201Y59542D01*
X231190Y59466D01*
X231179Y59378D01*
X231172Y59284D01*
X231168Y59182D01*
X231165Y59069D01*
Y59062D01*
Y59043D01*
Y59011D01*
X231168Y58967D01*
Y58920D01*
X231172Y58861D01*
X231175Y58800D01*
X231183Y58734D01*
X231201Y58592D01*
X231212Y58523D01*
X231226Y58457D01*
X231241Y58395D01*
X231263Y58337D01*
X231285Y58286D01*
X231310Y58243D01*
Y58239D01*
X231317Y58235D01*
X231336Y58210D01*
X231368Y58177D01*
X231408Y58141D01*
X231463Y58104D01*
X231525Y58072D01*
X231594Y58046D01*
X231630Y58042D01*
X231670Y58039D01*
X231692D01*
X231707Y58042D01*
X231743Y58050D01*
X231794Y58064D01*
X231849Y58090D01*
X231911Y58126D01*
X231940Y58148D01*
X231969Y58177D01*
X231998Y58206D01*
X232027Y58243D01*
Y58246D01*
X232034Y58254D01*
X232042Y58264D01*
X232049Y58283D01*
X232064Y58308D01*
X232074Y58341D01*
X232089Y58377D01*
X232104Y58421D01*
X232115Y58476D01*
X232129Y58534D01*
X232144Y58603D01*
X232155Y58676D01*
X232162Y58763D01*
X232169Y58854D01*
X232176Y58956D01*
Y59069D01*
Y59073D01*
Y59076D01*
Y59094D01*
Y59127D01*
X232173Y59171D01*
Y59218D01*
X232169Y59276D01*
X232166Y59338D01*
X232158Y59407D01*
X232140Y59546D01*
X232129Y59615D01*
X232115Y59680D01*
X232100Y59742D01*
X232078Y59801D01*
X232056Y59851D01*
X232031Y59895D01*
Y59899D01*
X232024Y59903D01*
X232016Y59913D01*
X232005Y59928D01*
X231973Y59961D01*
X231932Y60001D01*
X231878Y60037D01*
X231816Y60070D01*
X231783Y60084D01*
X231747Y60095D01*
X231707Y60099D01*
X231667Y60103D01*
D02*
G37*
G36*
X572299Y115020D02*
X570377D01*
Y114423D01*
X570381Y114397D01*
X570385Y114342D01*
X570388Y114280D01*
X570395Y114215D01*
X570406Y114149D01*
X570421Y114095D01*
X570425Y114088D01*
X570428Y114069D01*
X570439Y114044D01*
X570454Y114011D01*
X570475Y113975D01*
X570497Y113938D01*
X570523Y113902D01*
X570552Y113866D01*
X570559Y113862D01*
X570574Y113847D01*
X570599Y113826D01*
X570636Y113800D01*
X570683Y113771D01*
X570738Y113738D01*
X570799Y113709D01*
X570869Y113684D01*
X570872D01*
X570880Y113680D01*
X570891Y113676D01*
X570905Y113673D01*
X570923Y113669D01*
X570949Y113662D01*
X570974Y113654D01*
X571003Y113647D01*
X571076Y113636D01*
X571160Y113625D01*
X571254Y113618D01*
X571356Y113614D01*
X571360D01*
X571375D01*
X571393D01*
X571422Y113618D01*
X571455D01*
X571491Y113622D01*
X571535Y113625D01*
X571578Y113629D01*
X571677Y113647D01*
X571779Y113669D01*
X571873Y113702D01*
X571921Y113724D01*
X571961Y113745D01*
X571964D01*
X571972Y113753D01*
X571982Y113760D01*
X571997Y113767D01*
X572033Y113796D01*
X572077Y113833D01*
X572124Y113880D01*
X572172Y113935D01*
X572212Y113997D01*
X572245Y114062D01*
X572248Y114069D01*
X572252Y114088D01*
X572263Y114120D01*
X572274Y114168D01*
X572281Y114226D01*
X572292Y114299D01*
X572296Y114342D01*
Y114390D01*
X572299Y114437D01*
Y115020D01*
D02*
G37*
G36*
X570967Y112744D02*
Y111951D01*
X572095D01*
X570967Y112744D01*
D02*
G37*
G36*
X568830Y149807D02*
X568826D01*
X568815D01*
X568801D01*
X568779D01*
X568753Y149803D01*
X568721D01*
X568688Y149800D01*
X568648Y149793D01*
X568564Y149782D01*
X568477Y149764D01*
X568382Y149738D01*
X568295Y149702D01*
X568291D01*
X568284Y149698D01*
X568273Y149691D01*
X568258Y149683D01*
X568215Y149658D01*
X568164Y149625D01*
X568106Y149582D01*
X568047Y149527D01*
X567989Y149465D01*
X567938Y149396D01*
Y149392D01*
X567931Y149389D01*
X567927Y149378D01*
X567916Y149360D01*
X567909Y149341D01*
X567898Y149319D01*
X567873Y149265D01*
X567851Y149199D01*
X567829Y149123D01*
X567814Y149036D01*
X567811Y148944D01*
Y148912D01*
X567814Y148886D01*
X567818Y148854D01*
X567825Y148821D01*
X567833Y148781D01*
X567840Y148737D01*
X567869Y148642D01*
X567891Y148591D01*
X567913Y148540D01*
X567942Y148486D01*
X567975Y148435D01*
X568011Y148384D01*
X568055Y148337D01*
X568058Y148333D01*
X568066Y148326D01*
X568080Y148315D01*
X568102Y148297D01*
X568127Y148278D01*
X568160Y148257D01*
X568200Y148235D01*
X568248Y148209D01*
X568298Y148187D01*
X568360Y148162D01*
X568426Y148140D01*
X568499Y148122D01*
X568579Y148104D01*
X568670Y148093D01*
X568764Y148085D01*
X568866Y148082D01*
X568870D01*
X568885D01*
X568910D01*
X568943Y148085D01*
X568979Y148089D01*
X569023Y148096D01*
X569074Y148104D01*
X569125Y148111D01*
X569241Y148140D01*
X569300Y148162D01*
X569361Y148184D01*
X569420Y148213D01*
X569478Y148246D01*
X569532Y148282D01*
X569583Y148326D01*
X569587Y148329D01*
X569594Y148337D01*
X569609Y148351D01*
X569623Y148369D01*
X569645Y148395D01*
X569667Y148424D01*
X569689Y148457D01*
X569714Y148493D01*
X569740Y148537D01*
X569762Y148584D01*
X569784Y148635D01*
X569805Y148690D01*
X569820Y148748D01*
X569835Y148806D01*
X569842Y148872D01*
X569845Y148941D01*
Y148959D01*
X569842Y148977D01*
Y149003D01*
X569838Y149036D01*
X569831Y149072D01*
X569824Y149116D01*
X569813Y149159D01*
X569798Y149210D01*
X569780Y149258D01*
X569762Y149312D01*
X569736Y149363D01*
X569703Y149414D01*
X569671Y149465D01*
X569631Y149516D01*
X569583Y149563D01*
X569580Y149567D01*
X569572Y149574D01*
X569554Y149585D01*
X569532Y149603D01*
X569507Y149621D01*
X569474Y149640D01*
X569434Y149662D01*
X569390Y149687D01*
X569340Y149709D01*
X569281Y149731D01*
X569219Y149749D01*
X569154Y149771D01*
X569081Y149785D01*
X569001Y149796D01*
X568917Y149803D01*
X568830Y149807D01*
D02*
G37*
G36*
X568258Y146975D02*
X568255D01*
X568251D01*
X568229Y146972D01*
X568196Y146968D01*
X568153Y146961D01*
X568109Y146942D01*
X568058Y146921D01*
X568011Y146888D01*
X567964Y146844D01*
X567960Y146837D01*
X567945Y146819D01*
X567927Y146790D01*
X567905Y146742D01*
X567883Y146688D01*
X567865Y146615D01*
X567851Y146531D01*
X567847Y146433D01*
Y145639D01*
X568681D01*
Y146389D01*
X568677Y146433D01*
X568673Y146484D01*
X568670Y146542D01*
X568663Y146600D01*
X568651Y146659D01*
X568637Y146710D01*
X568633Y146717D01*
X568626Y146731D01*
X568615Y146753D01*
X568601Y146782D01*
X568579Y146815D01*
X568553Y146848D01*
X568520Y146881D01*
X568484Y146906D01*
X568480Y146910D01*
X568466Y146917D01*
X568444Y146928D01*
X568415Y146942D01*
X568382Y146953D01*
X568346Y146964D01*
X568302Y146972D01*
X568258Y146975D01*
D02*
G37*
G36*
X454715Y95056D02*
X454711D01*
X454708D01*
X454686Y95053D01*
X454653Y95049D01*
X454610Y95042D01*
X454566Y95024D01*
X454515Y95002D01*
X454468Y94969D01*
X454420Y94925D01*
X454417Y94918D01*
X454402Y94900D01*
X454384Y94871D01*
X454362Y94824D01*
X454340Y94769D01*
X454322Y94696D01*
X454307Y94612D01*
X454304Y94514D01*
Y93721D01*
X455137D01*
Y94471D01*
X455134Y94514D01*
X455130Y94565D01*
X455126Y94623D01*
X455119Y94682D01*
X455108Y94740D01*
X455094Y94791D01*
X455090Y94798D01*
X455083Y94813D01*
X455072Y94835D01*
X455057Y94864D01*
X455035Y94896D01*
X455010Y94929D01*
X454977Y94962D01*
X454941Y94987D01*
X454937Y94991D01*
X454923Y94998D01*
X454901Y95009D01*
X454872Y95024D01*
X454839Y95035D01*
X454803Y95046D01*
X454759Y95053D01*
X454715Y95056D01*
D02*
G37*
G36*
X540848Y117075D02*
X540845D01*
X540830D01*
X540812D01*
X540783Y117071D01*
X540750D01*
X540714Y117067D01*
X540670Y117064D01*
X540626Y117060D01*
X540528Y117042D01*
X540426Y117020D01*
X540332Y116987D01*
X540284Y116965D01*
X540244Y116944D01*
X540240D01*
X540233Y116936D01*
X540222Y116929D01*
X540208Y116922D01*
X540171Y116893D01*
X540128Y116856D01*
X540080Y116809D01*
X540033Y116754D01*
X539993Y116692D01*
X539960Y116627D01*
X539957Y116620D01*
X539953Y116601D01*
X539942Y116569D01*
X539931Y116521D01*
X539924Y116463D01*
X539913Y116390D01*
X539909Y116347D01*
Y116299D01*
X539906Y116252D01*
Y115670D01*
X541827D01*
Y116267D01*
X541824Y116292D01*
X541820Y116347D01*
X541817Y116408D01*
X541809Y116474D01*
X541798Y116540D01*
X541784Y116594D01*
X541780Y116601D01*
X541777Y116620D01*
X541766Y116645D01*
X541751Y116678D01*
X541729Y116714D01*
X541707Y116751D01*
X541682Y116787D01*
X541653Y116823D01*
X541645Y116827D01*
X541631Y116842D01*
X541606Y116863D01*
X541569Y116889D01*
X541522Y116918D01*
X541467Y116951D01*
X541405Y116980D01*
X541336Y117005D01*
X541332D01*
X541325Y117009D01*
X541314Y117013D01*
X541300Y117016D01*
X541282Y117020D01*
X541256Y117027D01*
X541230Y117034D01*
X541201Y117042D01*
X541129Y117053D01*
X541045Y117064D01*
X540950Y117071D01*
X540848Y117075D01*
D02*
G37*
G36*
X540070Y149807D02*
X540066D01*
X540056D01*
X540041D01*
X540019D01*
X539994Y149803D01*
X539961D01*
X539928Y149800D01*
X539888Y149793D01*
X539804Y149782D01*
X539717Y149764D01*
X539622Y149738D01*
X539535Y149702D01*
X539531D01*
X539524Y149698D01*
X539513Y149691D01*
X539499Y149683D01*
X539455Y149658D01*
X539404Y149625D01*
X539346Y149582D01*
X539288Y149527D01*
X539229Y149465D01*
X539178Y149396D01*
Y149392D01*
X539171Y149389D01*
X539167Y149378D01*
X539156Y149360D01*
X539149Y149341D01*
X539138Y149319D01*
X539113Y149265D01*
X539091Y149199D01*
X539069Y149123D01*
X539054Y149036D01*
X539051Y148944D01*
Y148912D01*
X539054Y148886D01*
X539058Y148854D01*
X539065Y148821D01*
X539073Y148781D01*
X539080Y148737D01*
X539109Y148642D01*
X539131Y148591D01*
X539153Y148540D01*
X539182Y148486D01*
X539215Y148435D01*
X539251Y148384D01*
X539295Y148337D01*
X539298Y148333D01*
X539306Y148326D01*
X539320Y148315D01*
X539342Y148297D01*
X539367Y148278D01*
X539400Y148257D01*
X539440Y148235D01*
X539488Y148209D01*
X539539Y148187D01*
X539601Y148162D01*
X539666Y148140D01*
X539739Y148122D01*
X539819Y148104D01*
X539910Y148093D01*
X540004Y148085D01*
X540106Y148082D01*
X540110D01*
X540125D01*
X540150D01*
X540183Y148085D01*
X540219Y148089D01*
X540263Y148096D01*
X540314Y148104D01*
X540365Y148111D01*
X540481Y148140D01*
X540540Y148162D01*
X540601Y148184D01*
X540660Y148213D01*
X540718Y148246D01*
X540773Y148282D01*
X540824Y148326D01*
X540827Y148329D01*
X540835Y148337D01*
X540849Y148351D01*
X540864Y148369D01*
X540885Y148395D01*
X540907Y148424D01*
X540929Y148457D01*
X540955Y148493D01*
X540980Y148537D01*
X541002Y148584D01*
X541024Y148635D01*
X541046Y148690D01*
X541060Y148748D01*
X541075Y148806D01*
X541082Y148872D01*
X541086Y148941D01*
Y148959D01*
X541082Y148977D01*
Y149003D01*
X541078Y149036D01*
X541071Y149072D01*
X541064Y149116D01*
X541053Y149159D01*
X541038Y149210D01*
X541020Y149258D01*
X541002Y149312D01*
X540976Y149363D01*
X540944Y149414D01*
X540911Y149465D01*
X540871Y149516D01*
X540824Y149563D01*
X540820Y149567D01*
X540813Y149574D01*
X540794Y149585D01*
X540773Y149603D01*
X540747Y149621D01*
X540714Y149640D01*
X540674Y149662D01*
X540631Y149687D01*
X540580Y149709D01*
X540521Y149731D01*
X540459Y149749D01*
X540394Y149771D01*
X540321Y149785D01*
X540241Y149796D01*
X540157Y149803D01*
X540070Y149807D01*
D02*
G37*
G36*
X539499Y146975D02*
X539495D01*
X539491D01*
X539469Y146972D01*
X539437Y146968D01*
X539393Y146961D01*
X539349Y146942D01*
X539298Y146921D01*
X539251Y146888D01*
X539204Y146844D01*
X539200Y146837D01*
X539185Y146819D01*
X539167Y146790D01*
X539146Y146742D01*
X539124Y146688D01*
X539106Y146615D01*
X539091Y146531D01*
X539087Y146433D01*
Y145639D01*
X539921D01*
Y146389D01*
X539917Y146433D01*
X539914Y146484D01*
X539910Y146542D01*
X539903Y146600D01*
X539892Y146659D01*
X539877Y146710D01*
X539874Y146717D01*
X539866Y146731D01*
X539855Y146753D01*
X539841Y146782D01*
X539819Y146815D01*
X539793Y146848D01*
X539761Y146881D01*
X539724Y146906D01*
X539721Y146910D01*
X539706Y146917D01*
X539684Y146928D01*
X539655Y146942D01*
X539622Y146953D01*
X539586Y146964D01*
X539542Y146972D01*
X539499Y146975D01*
D02*
G37*
G36*
X532299Y64900D02*
Y64107D01*
X533427D01*
X532299Y64900D01*
D02*
G37*
G36*
X115767Y281809D02*
X115745D01*
X115730Y281805D01*
X115687Y281801D01*
X115636Y281790D01*
X115578Y281772D01*
X115516Y281750D01*
X115457Y281714D01*
X115399Y281667D01*
X115392Y281659D01*
X115377Y281641D01*
X115352Y281608D01*
X115326Y281568D01*
X115301Y281518D01*
X115275Y281456D01*
X115261Y281383D01*
X115254Y281306D01*
Y281303D01*
Y281295D01*
Y281284D01*
X115257Y281270D01*
X115261Y281230D01*
X115272Y281175D01*
X115290Y281121D01*
X115315Y281059D01*
X115352Y280997D01*
X115403Y280939D01*
X115410Y280931D01*
X115428Y280917D01*
X115461Y280891D01*
X115505Y280862D01*
X115559Y280837D01*
X115625Y280811D01*
X115698Y280797D01*
X115778Y280789D01*
X115800D01*
X115814Y280793D01*
X115854Y280797D01*
X115905Y280808D01*
X115963Y280826D01*
X116022Y280851D01*
X116084Y280888D01*
X116138Y280935D01*
X116145Y280942D01*
X116160Y280960D01*
X116182Y280993D01*
X116207Y281033D01*
X116236Y281088D01*
X116258Y281150D01*
X116273Y281219D01*
X116280Y281295D01*
Y281303D01*
Y281317D01*
X116276Y281343D01*
X116273Y281376D01*
X116265Y281416D01*
X116255Y281459D01*
X116240Y281503D01*
X116222Y281550D01*
X116218Y281554D01*
X116211Y281572D01*
X116196Y281594D01*
X116174Y281619D01*
X116149Y281652D01*
X116116Y281685D01*
X116080Y281714D01*
X116036Y281743D01*
X116029Y281747D01*
X116014Y281754D01*
X115989Y281765D01*
X115956Y281776D01*
X115916Y281787D01*
X115869Y281798D01*
X115818Y281805D01*
X115767Y281809D01*
D02*
G37*
G36*
Y280538D02*
X115760D01*
X115738Y280535D01*
X115705Y280531D01*
X115661Y280524D01*
X115614Y280509D01*
X115567Y280491D01*
X115516Y280462D01*
X115472Y280426D01*
X115468Y280422D01*
X115454Y280404D01*
X115436Y280382D01*
X115414Y280349D01*
X115392Y280309D01*
X115374Y280262D01*
X115359Y280207D01*
X115356Y280149D01*
Y280145D01*
Y280141D01*
Y280120D01*
X115363Y280087D01*
X115370Y280047D01*
X115385Y280003D01*
X115407Y279956D01*
X115436Y279909D01*
X115476Y279861D01*
X115479Y279858D01*
X115498Y279843D01*
X115523Y279825D01*
X115556Y279803D01*
X115599Y279781D01*
X115647Y279763D01*
X115705Y279748D01*
X115767Y279745D01*
X115796D01*
X115829Y279752D01*
X115872Y279759D01*
X115920Y279774D01*
X115971Y279792D01*
X116018Y279821D01*
X116065Y279861D01*
X116069Y279865D01*
X116084Y279879D01*
X116102Y279905D01*
X116120Y279938D01*
X116142Y279978D01*
X116160Y280025D01*
X116174Y280076D01*
X116178Y280134D01*
Y280138D01*
Y280141D01*
X116174Y280163D01*
X116171Y280196D01*
X116164Y280236D01*
X116149Y280283D01*
X116131Y280331D01*
X116102Y280382D01*
X116065Y280426D01*
X116062Y280429D01*
X116043Y280444D01*
X116018Y280462D01*
X115985Y280480D01*
X115942Y280502D01*
X115891Y280520D01*
X115832Y280535D01*
X115767Y280538D01*
D02*
G37*
G36*
X79159Y286066D02*
X78365D01*
Y285232D01*
X79115D01*
X79159Y285236D01*
X79210Y285240D01*
X79268Y285243D01*
X79326Y285251D01*
X79385Y285262D01*
X79435Y285276D01*
X79443Y285280D01*
X79457Y285287D01*
X79479Y285298D01*
X79508Y285313D01*
X79541Y285334D01*
X79574Y285360D01*
X79607Y285393D01*
X79632Y285429D01*
X79636Y285433D01*
X79643Y285447D01*
X79654Y285469D01*
X79668Y285498D01*
X79679Y285531D01*
X79690Y285567D01*
X79698Y285611D01*
X79701Y285655D01*
Y285658D01*
Y285662D01*
X79698Y285684D01*
X79694Y285717D01*
X79687Y285760D01*
X79668Y285804D01*
X79647Y285855D01*
X79614Y285902D01*
X79570Y285949D01*
X79563Y285953D01*
X79545Y285968D01*
X79516Y285986D01*
X79468Y286008D01*
X79414Y286030D01*
X79341Y286048D01*
X79257Y286062D01*
X79159Y286066D01*
D02*
G37*
%LPD*%
D13*
X515839Y185106D02*
X578634D01*
Y206169D01*
X515839D02*
X578634D01*
X515839Y185106D02*
Y206169D01*
X464173Y156299D02*
Y255512D01*
Y156299D02*
X630315D01*
Y255512D01*
X464173D02*
X630315D01*
X315000Y277402D02*
X481142D01*
X315000D02*
Y376614D01*
X481142D01*
Y277402D02*
Y376614D01*
X203543Y39370D02*
Y74803D01*
Y39370D02*
X249213D01*
Y74803D01*
X203543D02*
X249213D01*
X451933Y111263D02*
X460823D01*
Y129209D01*
X451933D02*
X460823D01*
X451933Y111263D02*
Y129209D01*
X557441Y131752D02*
X582717D01*
X557441Y98957D02*
Y131752D01*
Y98957D02*
X582717D01*
Y131752D01*
X564417Y136237D02*
X577237D01*
Y154372D01*
X564417D02*
X577237D01*
X564417Y136237D02*
Y154372D01*
X452929Y84701D02*
X461638D01*
Y102071D01*
X452929D02*
X461638D01*
X452929Y84701D02*
Y102071D01*
X529488Y98937D02*
X554764D01*
Y131732D01*
X529488D02*
X554764D01*
X529488Y98937D02*
Y131732D01*
X535657Y136237D02*
X548477D01*
Y154372D01*
X535657D02*
X548477D01*
X535657Y136237D02*
Y154372D01*
X465318Y102674D02*
X474209D01*
X465318Y84728D02*
Y102674D01*
Y84728D02*
X474209D01*
Y102674D01*
X538389Y78540D02*
X547280D01*
X538389Y60594D02*
Y78540D01*
Y60594D02*
X547280D01*
Y78540D01*
X526224D02*
X535115D01*
X526224Y60594D02*
Y78540D01*
Y60594D02*
X535115D01*
Y78540D01*
X130130Y278221D02*
Y287301D01*
X111996D02*
X130130D01*
X111996Y278221D02*
Y287301D01*
Y278221D02*
X130130D01*
X69345Y278732D02*
Y287441D01*
Y278732D02*
X86716D01*
Y287441D01*
X69345D02*
X86716D01*
M02*
