G04*
G04 #@! TF.GenerationSoftware,Altium Limited,Altium Designer,19.1.5 (86)*
G04*
G04 Layer_Color=32896*
%FSLAX25Y25*%
%MOIN*%
G70*
G01*
G75*
%ADD11C,0.01000*%
D11*
X39488Y17323D02*
G03*
X33742Y17428I-2874J0D01*
G01*
X460472Y17087D02*
G03*
X454726Y17192I-2874J0D01*
G01*
X829291Y17402D02*
G03*
X823545Y17507I-2874J0D01*
G01*
X828463Y397690D02*
G03*
X822717Y397795I-2874J0D01*
G01*
X459561Y397690D02*
G03*
X453815Y397795I-2874J0D01*
G01*
X39721Y397638D02*
G03*
X33975Y397743I-2874J0D01*
G01*
X660039Y193504D02*
Y197244D01*
Y190984D02*
X668819Y199764D01*
X660039Y190984D02*
Y193504D01*
X659921Y206142D02*
Y208661D01*
X668819Y199764D01*
X659921Y202402D02*
Y206142D01*
X641063Y202402D02*
X659921D01*
X641063Y197244D02*
X660039D01*
X641063D02*
Y202402D01*
X139173Y198583D02*
Y203740D01*
Y198583D02*
X158150D01*
X139173Y203740D02*
X158031D01*
Y207480D01*
Y210000D02*
X166929Y201102D01*
X158031Y207480D02*
Y210000D01*
X158150Y192323D02*
Y194843D01*
Y192323D02*
X166929Y201102D01*
X158150Y194843D02*
Y198583D01*
X35356Y17270D02*
X36573Y11723D01*
X37789Y17270D01*
X33847Y17323D02*
X39488D01*
X454831Y17087D02*
X460472D01*
X457557Y11487D02*
X458774Y17034D01*
X456341D02*
X457557Y11487D01*
X825159Y17349D02*
X826376Y11802D01*
X827593Y17349D01*
X823650Y17402D02*
X829291D01*
X822822Y397690D02*
X828463D01*
X825547Y392091D02*
X826764Y397638D01*
X824331D02*
X825547Y392091D01*
X455429Y397638D02*
X456646Y392091D01*
X457862Y397638D01*
X453920Y397690D02*
X459561D01*
X34080Y397638D02*
X39721D01*
X36806Y392038D02*
X38023Y397585D01*
X35589D02*
X36806Y392038D01*
X500394Y89764D02*
Y113386D01*
Y86614D02*
Y89764D01*
X484646Y86614D02*
X500394D01*
X484646D02*
Y113386D01*
X500394D01*
X801528Y167218D02*
X803528D01*
X804528Y166219D01*
Y162220D01*
X803528Y161221D01*
X801528D01*
X800529Y162220D01*
Y166219D01*
X801528Y167218D01*
X798529D02*
Y162220D01*
X797530Y161221D01*
X795531D01*
X794531Y162220D01*
Y167218D01*
X792531D02*
X788533D01*
X790532D01*
Y161221D01*
X786533Y164219D02*
X782535D01*
X801528Y227494D02*
X803528D01*
X804528Y226494D01*
Y222496D01*
X803528Y221496D01*
X801528D01*
X800529Y222496D01*
Y226494D01*
X801528Y227494D01*
X798529D02*
Y222496D01*
X797530Y221496D01*
X795531D01*
X794531Y222496D01*
Y227494D01*
X792531D02*
X788533D01*
X790532D01*
Y221496D01*
X786533Y224495D02*
X782535D01*
X784534Y226494D02*
Y222496D01*
X50827Y171077D02*
X48827D01*
X49827D01*
Y165079D01*
X50827D01*
X48827D01*
X45828D02*
Y171077D01*
X41830Y165079D01*
Y171077D01*
X39830Y168078D02*
X35832D01*
X50827Y231392D02*
X48827D01*
X49827D01*
Y225394D01*
X50827D01*
X48827D01*
X45828D02*
Y231392D01*
X41830Y225394D01*
Y231392D01*
X39830Y228393D02*
X35832D01*
X37831Y230392D02*
Y226393D01*
M02*
