G04*
G04 #@! TF.GenerationSoftware,Altium Limited,Altium Designer,19.1.5 (86)*
G04*
G04 Layer_Color=16711935*
%FSLAX25Y25*%
%MOIN*%
G70*
G01*
G75*
%ADD87C,0.00394*%
%ADD88C,0.00000*%
%ADD89C,0.00100*%
%ADD90C,0.00300*%
D87*
X789882Y132677D02*
G03*
X789882Y132677I-69882J0D01*
G01*
X445292Y194095D02*
G03*
X445292Y194095I-50197J0D01*
G01*
X789882Y304842D02*
G03*
X789882Y304842I-69882J0D01*
G01*
X330591Y41831D02*
X390591D01*
X330591Y66831D02*
X390591D01*
Y41831D02*
Y66831D01*
X330591Y41831D02*
Y66831D01*
X239961Y83819D02*
Y125945D01*
X226575Y83819D02*
X245079D01*
X226575Y125945D02*
X245079D01*
X226575Y83819D02*
Y125945D01*
X245079Y83819D02*
Y125945D01*
X408647Y327594D02*
X418588Y337535D01*
Y327594D02*
Y345705D01*
X377643D02*
X418588D01*
X377643Y327594D02*
Y345705D01*
Y327594D02*
X418588D01*
X600965Y314705D02*
X610906Y304764D01*
X592795Y314705D02*
X610906D01*
X592795Y273760D02*
Y314705D01*
Y273760D02*
X610906D01*
Y314705D01*
X267244Y240059D02*
Y281004D01*
X285354D01*
Y240059D02*
Y281004D01*
X267244Y240059D02*
X285354D01*
X267244Y250000D02*
X277185Y240059D01*
X319291Y180905D02*
Y222244D01*
X338976D01*
Y180905D02*
Y222244D01*
X319291Y180905D02*
X338976D01*
X421850Y133031D02*
X447835D01*
Y113543D02*
Y133031D01*
X441339Y107047D02*
X447835Y113543D01*
X428346Y107047D02*
X441339D01*
X421850Y113543D02*
X428346Y107047D01*
X421850Y113543D02*
Y133031D01*
X206693Y85039D02*
X220079D01*
X206693Y77953D02*
X220079D01*
X206693D02*
Y85039D01*
X220079Y77953D02*
Y85039D01*
X286417Y83819D02*
Y125945D01*
X273031Y83819D02*
X291535D01*
X273031Y125945D02*
X291535D01*
X273031Y83819D02*
Y125945D01*
X291535Y83819D02*
Y125945D01*
X564685Y92385D02*
X584173D01*
X558189Y85889D02*
X564685Y92385D01*
X558189Y72897D02*
Y85889D01*
Y72897D02*
X564685Y66401D01*
X584173D01*
Y92385D01*
X262795Y52756D02*
X282283D01*
X288779Y59252D01*
Y72244D01*
X282283Y78740D02*
X288779Y72244D01*
X262795Y78740D02*
X282283D01*
X262795Y52756D02*
Y78740D01*
X154291Y265197D02*
Y280551D01*
X135000Y265197D02*
Y280551D01*
Y265197D02*
X154291D01*
X135000Y280551D02*
X154291D01*
X92835Y279665D02*
X106220D01*
X92835Y286752D02*
X106220D01*
Y279665D02*
Y286752D01*
X92835Y279665D02*
Y286752D01*
D88*
X491320Y110008D02*
G03*
X493720Y110008I1200J0D01*
G01*
D89*
X484670Y106658D02*
Y108658D01*
X480320D02*
X484670D01*
X480320Y106658D02*
Y108658D01*
Y106658D02*
X484670D01*
Y101657D02*
Y103657D01*
X480320D02*
X484670D01*
X480320Y101657D02*
Y103657D01*
Y101657D02*
X484670D01*
Y96658D02*
Y98658D01*
X480320D02*
X484670D01*
X480320Y96658D02*
Y98658D01*
Y96658D02*
X484670D01*
Y91658D02*
Y93657D01*
X480320D02*
X484670D01*
X480320Y91658D02*
Y93657D01*
Y91658D02*
X484670D01*
X500370D02*
Y93657D01*
Y91658D02*
X504720D01*
Y93657D01*
X500370D02*
X504720D01*
X500370Y96658D02*
Y98658D01*
Y96658D02*
X504720D01*
Y98658D01*
X500370D02*
X504720D01*
X500370Y101657D02*
Y103657D01*
Y101657D02*
X504720D01*
Y103657D01*
X500370D02*
X504720D01*
X500370Y106658D02*
Y108658D01*
Y106658D02*
X504720D01*
Y108658D01*
X500370D02*
X504720D01*
X484670Y90307D02*
X500370D01*
Y110008D01*
X484670D02*
X500370D01*
X484670Y90307D02*
Y110008D01*
D90*
X484920Y108873D02*
X488252Y105541D01*
X484920D02*
X488252Y108873D01*
X484920Y107207D02*
X488252D01*
X486586Y105541D02*
Y108873D01*
M02*
