G04*
G04 #@! TF.GenerationSoftware,Altium Limited,Altium Designer,19.1.5 (86)*
G04*
G04 Layer_Color=8388736*
%FSLAX25Y25*%
%MOIN*%
G70*
G01*
G75*
%ADD13C,0.00787*%
D13*
X516232Y185500D02*
X578240D01*
Y205776D01*
X516232D02*
X578240D01*
X516232Y185500D02*
Y205776D01*
X464567Y156693D02*
Y255118D01*
Y156693D02*
X629921D01*
Y255118D01*
X464567D02*
X629921D01*
X315394Y277795D02*
X480748D01*
X315394D02*
Y376220D01*
X480748D01*
Y277795D02*
Y376220D01*
X209646Y40354D02*
Y73819D01*
Y40354D02*
X243110D01*
Y73819D01*
X209646D02*
X243110D01*
X453228Y113937D02*
X459528D01*
Y126535D01*
X453228D02*
X459528D01*
X453228Y113937D02*
Y126535D01*
X557835Y129350D02*
X582323D01*
X557835Y101358D02*
Y129350D01*
Y101358D02*
X582323D01*
Y129350D01*
X565807Y139005D02*
X575846D01*
Y151604D01*
X565807D02*
X575846D01*
X565807Y139005D02*
Y151604D01*
X454134Y87283D02*
X460433D01*
Y99488D01*
X454134D02*
X460433D01*
X454134Y87283D02*
Y99488D01*
X529882Y101339D02*
X554370D01*
Y129331D01*
X529882D02*
X554370D01*
X529882Y101339D02*
Y129331D01*
X537047Y139005D02*
X547087D01*
Y151604D01*
X537047D02*
X547087D01*
X537047Y139005D02*
Y151604D01*
X466614Y100000D02*
X472913D01*
X466614Y87402D02*
Y100000D01*
Y87402D02*
X472913D01*
Y100000D01*
X539685Y75866D02*
X545984D01*
X539685Y63268D02*
Y75866D01*
Y63268D02*
X545984D01*
Y75866D01*
X527520D02*
X533819D01*
X527520Y63268D02*
Y75866D01*
Y63268D02*
X533819D01*
Y75866D01*
X127362Y279611D02*
Y285910D01*
X114764D02*
X127362D01*
X114764Y279611D02*
Y285910D01*
Y279611D02*
X127362D01*
X71928Y279937D02*
Y286236D01*
Y279937D02*
X84133D01*
Y286236D01*
X71928D02*
X84133D01*
M02*
